<svg width="19" height="21" viewBox="0 0 19 21" fill="none" xmlns="http://www.w3.org/2000/svg">
<path d="M17.9594 16.5203C17.7318 15.1556 16.7749 14.0359 15.4624 13.5982L12.5478 12.6268V12.1936H11.8704V12.7684L9.49944 16.3249L7.12847 12.7684V12.1936H6.45105V12.6268L3.53679 13.5982C2.22429 14.0359 1.26744 15.1556 1.03982 16.5203L0.292969 21.0001H18.7059L17.9594 16.5203ZM12.1495 13.5711L13.1314 15.7799L9.83815 17.7007V17.0382L12.1495 13.5711ZM9.16073 17.7007L5.86745 15.7795L6.84937 13.5708L9.16073 17.0382V17.7007ZM1.70776 16.6321C1.89405 15.5153 2.67681 14.5995 3.75086 14.2411L6.16823 13.4353L5.00205 16.0593L9.16073 18.4848V20.3226H4.11565L4.4171 17.3081L3.74307 17.2407L3.43484 20.323H1.093L1.70776 16.6321ZM15.564 20.3226L15.2558 17.2404L14.5818 17.3078L14.8832 20.3223H12.5478V17.6126H11.8704V20.3223H9.83815V18.4845L13.9965 16.0586L12.8303 13.4346L15.2477 14.2404C16.3217 14.5985 17.1045 15.5147 17.2908 16.6314L17.9059 20.3226H15.564Z" fill="#009846"/>
<path d="M3.68312 6.43555H4.08856C3.87381 6.71939 3.74138 7.06894 3.74138 7.45168C3.74138 8.32081 4.40186 9.03074 5.24593 9.12626C5.41867 9.7207 5.73773 10.2657 6.18754 10.7155L7.50817 12.0365C7.82791 12.3562 8.25333 12.5323 8.70585 12.5323H10.293C10.7456 12.5323 11.171 12.3562 11.4907 12.0365L12.8113 10.7155C13.2612 10.2657 13.5799 9.72036 13.753 9.12626C14.597 9.03074 15.2575 8.32081 15.2575 7.45168C15.2575 7.06894 15.1251 6.71939 14.91 6.43555H15.3154C15.5867 6.43555 15.8421 6.32987 16.0338 6.13783L16.8515 5.32018L16.3725 4.84124L15.5549 5.65889C15.4919 5.72189 15.4048 5.75813 15.3158 5.75813H11.9541L12.5919 2.88824L9.49944 0.955566L6.40702 2.88824L7.04482 5.75813H3.68312C3.59404 5.75813 3.50665 5.72189 3.44365 5.65889L2.62601 4.84124L2.14707 5.32018L2.96472 6.13783C3.15643 6.32987 3.41181 6.43555 3.68312 6.43555ZM4.4188 7.45168C4.4188 7.01068 4.70298 6.6381 5.09622 6.49787V8.081C5.09622 8.19176 5.10265 8.3015 5.11214 8.41057C4.71077 8.27474 4.4188 7.89844 4.4188 7.45168ZM12.3324 10.2366L11.0118 11.5575C10.8197 11.7492 10.5647 11.8549 10.293 11.8549H8.70585C8.4342 11.8549 8.17881 11.7492 7.98711 11.5575L6.66648 10.2366C6.09101 9.66074 5.77364 8.89526 5.77364 8.081V6.43555H13.2253V8.081C13.2253 8.89526 12.9079 9.66074 12.3324 10.2366ZM13.8868 8.41023C13.8962 8.3015 13.9027 8.19176 13.9027 8.081V6.49787C14.2959 6.6381 14.5801 7.01068 14.5801 7.45168C14.5801 7.89844 14.2881 8.27474 13.8868 8.41023ZM7.17251 3.20866L9.49944 1.75424L11.8264 3.20866L11.2601 5.75813H7.73883L7.17251 3.20866Z" fill="#009846"/>
<path d="M10.854 4.40329H8.14436V5.0807H10.854V4.40329Z" fill="#009846"/>
<path d="M12.2089 14.9033H11.5315V15.5807H12.2089V14.9033Z" fill="#009846"/>
<path d="M11.1928 18.9678H10.5153V19.6452H11.1928V18.9678Z" fill="#009846"/>
<path d="M10.5153 13.2097H8.48307V13.8872H10.5153V13.2097Z" fill="#009846"/>
</svg>
