<svg width="21" height="19" viewBox="0 0 21 19" fill="none" xmlns="http://www.w3.org/2000/svg">
<path d="M20.7306 1.68973C20.6609 1.64182 18.9736 0.517578 14.8408 0.517578C10.7078 0.517578 9.02043 1.64182 8.95057 1.68973C8.78202 1.80541 8.68125 1.99671 8.68125 2.20114V3.43306C7.73837 3.61987 6.48034 3.99398 4.91998 4.72601C1.17843 6.48151 0.128362 8.21603 0.0854234 8.28893C-0.018077 8.46533 -0.0281707 8.6813 0.0586671 8.86651L2.57905 14.2383C3.81785 16.8787 6.45471 18.4865 9.26107 18.4865C9.88272 18.4865 10.5129 18.4076 11.1377 18.2436C11.1396 18.2431 11.1415 18.2426 11.1435 18.242C11.2143 18.2226 11.2814 18.1908 11.341 18.1482C12.4396 17.3628 13.2659 16.3227 13.7866 15.1581C14.0915 15.2568 14.4058 15.3367 14.7283 15.396C14.7469 15.3995 14.7655 15.4021 14.7844 15.4037C14.803 15.4055 14.8219 15.4063 14.8406 15.4063C14.8783 15.4063 14.9158 15.4029 14.9528 15.396C18.4569 14.7513 21 11.6976 21 8.1348V2.20114C21 1.99671 20.8993 1.80541 20.7306 1.68973ZM3.70169 13.7115L1.33944 8.67649C1.7512 8.18831 2.90605 7.04083 5.44662 5.84881C7.98767 4.6568 9.60794 4.50219 10.2464 4.4977L12.6087 9.5327C13.8515 12.1817 13.0525 15.333 10.7122 17.0721C7.87888 17.7602 4.9445 16.3605 3.70169 13.7115ZM19.7598 8.1348C19.7598 11.061 17.698 13.5745 14.8406 14.1546C14.621 14.1101 14.406 14.0539 14.1963 13.9871C14.4943 12.8324 14.5136 11.6056 14.2261 10.4141C14.9949 10.2008 15.8542 10.3953 16.4574 10.9985C16.5785 11.1196 16.7373 11.1802 16.8959 11.1802C17.0545 11.1802 17.2133 11.1196 17.3344 10.9985C17.5765 10.7564 17.5765 10.3639 17.3344 10.1217C16.3885 9.17589 15.0347 8.88061 13.834 9.23597C13.801 9.15907 13.7672 9.08232 13.7313 9.0059L12.7258 6.86251C13.2266 6.85835 13.697 6.66176 14.0516 6.30704C14.2937 6.06495 14.2937 5.67226 14.0516 5.43017C13.8095 5.18808 13.4168 5.18808 13.1747 5.43017C13.0505 5.55434 12.8855 5.62275 12.7099 5.62275C12.5345 5.62275 12.3695 5.55434 12.2453 5.43017C12.1687 5.35374 12.0772 5.30151 11.9803 5.27331L11.2111 3.63413C11.1242 3.44892 10.9518 3.31866 10.7501 3.2855C10.72 3.28053 10.4409 3.23839 9.92133 3.26835V2.57205C10.4965 2.30657 12.0267 1.75766 14.8408 1.75766C17.6472 1.75766 19.1798 2.30609 19.7598 2.57317V8.1348Z" fill="#009846"/>
<path d="M17.2354 6.86268C17.7424 6.86268 18.2189 6.66545 18.5773 6.30705C18.8193 6.0648 18.8193 5.67227 18.5773 5.43002C18.335 5.18793 17.9425 5.18793 17.7002 5.43002C17.5761 5.55419 17.411 5.6226 17.2356 5.6226C17.06 5.6226 16.895 5.55419 16.7708 5.43002C16.5287 5.18793 16.136 5.18793 15.8938 5.43002C15.6517 5.67227 15.6517 6.0648 15.8938 6.30705C16.2522 6.66545 16.7287 6.86268 17.2354 6.86268Z" fill="#009846"/>
<path d="M6.85252 10.7035C6.969 10.3815 6.80221 10.026 6.48017 9.90966C6.00336 9.73743 5.48826 9.76114 5.0294 9.97647C4.57054 10.1918 4.22302 10.5728 4.05079 11.0494C3.93447 11.3715 4.10126 11.727 4.4233 11.8433C4.49283 11.8685 4.56397 11.8803 4.63398 11.8803C4.88777 11.8803 5.12601 11.7233 5.21718 11.4708C5.27678 11.3058 5.39726 11.1738 5.5562 11.0991C5.71513 11.0246 5.89361 11.0164 6.05864 11.076C6.38068 11.1924 6.7362 11.0257 6.85252 10.7035Z" fill="#009846"/>
<path d="M8.52035 9.9212C8.59004 9.9462 8.66102 9.95821 8.73104 9.95821C8.98482 9.95821 9.22307 9.8012 9.31423 9.5487C9.37399 9.38351 9.49431 9.25149 9.65325 9.17699C9.81219 9.10233 9.99067 9.09416 10.1557 9.15392C10.4779 9.27024 10.8333 9.10345 10.9497 8.78141C11.066 8.45922 10.8993 8.10386 10.5772 7.98754C9.59317 7.63201 8.50337 8.14327 8.14784 9.12716C8.03153 9.44936 8.19831 9.80473 8.52035 9.9212Z" fill="#009846"/>
<path d="M11.2527 12.3529C11.369 12.0309 11.2023 11.6755 10.8802 11.559C10.5582 11.4425 10.2027 11.6093 10.0863 11.9315C9.65776 13.1173 8.34429 13.7333 7.15868 13.3051C6.83648 13.1886 6.48112 13.3554 6.3648 13.6774C6.24832 13.9996 6.41511 14.355 6.73714 14.4714C7.1316 14.6139 7.53503 14.6815 7.93221 14.6815C9.37625 14.6815 10.7344 13.7873 11.2527 12.3529Z" fill="#009846"/>
</svg>
