<svg width="21" height="21" viewBox="0 0 21 21" fill="none" xmlns="http://www.w3.org/2000/svg">
<path d="M19.3682 14.487C19.639 14.487 19.8594 14.2671 19.8594 13.9968V13.1453H20.504C20.7775 13.1453 20.9999 12.9228 20.9999 12.6493V11.5239C20.9999 11.2505 20.7774 11.0279 20.504 11.0279H19.6176V7.6467C19.7044 7.66831 19.7934 7.67971 19.883 7.67971C19.9804 7.67971 20.0785 7.66687 20.1752 7.64087C20.4633 7.56347 20.7033 7.37915 20.8504 7.1228C20.999 6.86604 21.0384 6.56589 20.9613 6.27763C20.8841 5.98921 20.6999 5.74862 20.4427 5.60018L11.0975 0.204902C10.9264 0.105357 10.7197 0.0527344 10.4999 0.0527344C10.28 0.0527344 10.0734 0.105357 9.90315 0.20441L0.556758 5.6003C0.0246626 5.90829 -0.158103 6.59108 0.149145 7.12243C0.297622 7.37972 0.537973 7.56393 0.826026 7.64108C1.01166 7.69079 1.2023 7.69185 1.38335 7.64674V11.0279H0.496958C0.223465 11.0279 0.000996602 11.2504 0.000996602 11.5239V12.6493C0.000996602 12.9227 0.223506 13.1452 0.496958 13.1452H1.14148V13.9968C1.14148 14.2671 1.36136 14.4869 1.63161 14.4869H2.00182V17.4874H1.63161C1.36136 17.4874 1.14148 17.7078 1.14148 17.9787V18.8291H0.496958C0.223465 18.8291 0.000996602 19.0516 0.000996602 19.3251V20.4505C0.000996602 20.724 0.223506 20.9465 0.496958 20.9465H9.85816C10.028 20.9465 10.1658 20.8087 10.1658 20.6388C10.1658 20.469 10.0281 20.3312 9.85816 20.3312H0.61619V19.4443H20.3847V20.3312H11.2777C11.1078 20.3312 10.9701 20.469 10.9701 20.6388C10.9701 20.8087 11.1077 20.9465 11.2777 20.9465H20.504C20.7775 20.9465 20.9999 20.724 20.9999 20.4505V19.3251C20.9999 19.0516 20.7774 18.8291 20.504 18.8291H19.8594V17.9787C19.8594 17.7078 19.639 17.4874 19.3682 17.4874H18.998V14.4869L19.3682 14.487ZM1.36399 6.99758C1.2489 7.06395 1.11445 7.08142 0.985167 7.0468C0.856008 7.01218 0.748301 6.92987 0.68202 6.81494C0.682102 6.81506 0.681938 6.81482 0.68202 6.81494C0.544372 6.57709 0.626321 6.27087 0.864663 6.13293L10.2116 0.736711C10.2867 0.693029 10.3918 0.667969 10.4999 0.667969C10.6096 0.667969 10.712 0.692373 10.789 0.737203L20.1352 6.13301C20.2501 6.1993 20.3324 6.30712 20.3671 6.43665C20.4017 6.56602 20.3842 6.70026 20.3175 6.81564C20.2518 6.93003 20.1446 7.0121 20.0156 7.0468C19.8863 7.08154 19.7519 7.06419 19.6371 6.9977L10.6537 1.81116C10.6061 1.78368 10.553 1.76994 10.4999 1.76994C10.4468 1.76994 10.3937 1.78368 10.3461 1.81116L1.36399 6.99758ZM0.61619 11.6432H9.85816C10.028 11.6432 10.1658 11.5054 10.1658 11.3356C10.1658 11.1657 10.0281 11.0279 9.85816 11.0279H1.99854V7.34158L10.4999 2.43275L19.0024 7.34162V11.0279H11.2265C11.0566 11.0279 10.9189 11.1657 10.9189 11.3356C10.9189 11.5054 11.0566 11.6432 11.2265 11.6432H20.3847V12.5301H0.61619V11.6432ZM8.59274 13.8717V13.1453H12.407V13.8717H8.59274ZM11.5455 14.487V17.4875H9.45424V14.487H11.5455ZM1.75671 13.8717V13.1453H5.56981V13.8717H1.75671ZM4.70951 14.487V17.4875H2.61706V14.487H4.70951ZM5.56981 18.8292H1.75671V18.1027H5.56981V18.8292ZM7.97751 17.9788V18.8292H6.185V17.9788C6.185 17.7079 5.96516 17.4875 5.69487 17.4875H5.3247V14.487H5.69487C5.96516 14.487 6.185 14.2671 6.185 13.9968V13.1453H7.97751V13.9968C7.97751 14.2671 8.19793 14.487 8.4688 14.487H8.839V17.4875H8.4688C8.19793 17.4875 7.97751 17.7079 7.97751 17.9788ZM12.407 18.8292H8.59274V18.1027H12.407V18.8292ZM14.8147 17.9788V18.8292H13.0222V17.9788C13.0222 17.7079 12.8018 17.4875 12.5309 17.4875H12.1608V14.487H12.5309C12.8018 14.487 13.0222 14.2671 13.0222 13.9968V13.1453H14.8147V13.9968C14.8147 14.2671 15.0352 14.487 15.3061 14.487H15.6762V17.4875H15.3061C15.0352 17.4875 14.8147 17.7079 14.8147 17.9788ZM19.2443 18.1027V18.8292H15.43V18.1027H19.2443ZM16.2915 17.4875V14.487H18.3828V17.4875H16.2915ZM15.43 13.8717V13.1453H19.2443V13.8717H15.43Z" fill="#009846"/>
<path d="M11.8371 4.88057C11.8371 4.16797 11.2574 3.58822 10.5448 3.58822C9.8322 3.58822 9.25248 4.16797 9.25248 4.88057C9.25248 5.59318 9.8322 6.17293 10.5448 6.17293C11.2574 6.17293 11.8371 5.59318 11.8371 4.88057ZM9.86772 4.88057C9.86772 4.50721 10.1715 4.20345 10.5448 4.20345C10.9181 4.20345 11.2219 4.50721 11.2219 4.88057C11.2219 5.25394 10.9181 5.5577 10.5448 5.5577C10.1715 5.5577 9.86772 5.25394 9.86772 4.88057Z" fill="#009846"/>
<path d="M6.78938 8.4183C6.87379 8.28557 6.92341 8.12861 6.92341 7.95999C6.92341 7.48729 6.53881 7.10268 6.06611 7.10268H5.3722C5.20228 7.10268 5.06459 7.24041 5.06459 7.4103V9.79917C5.06459 9.881 5.09719 9.95946 5.15519 10.0172C5.21282 10.0746 5.29087 10.1068 5.3722 10.1068H5.37356C5.37356 10.1068 6.01147 10.104 6.18731 10.104C6.71145 10.104 7.13793 9.67752 7.13793 9.15334C7.13789 8.85749 7.00196 8.59282 6.78938 8.4183ZM6.06606 7.71796C6.19957 7.71796 6.30814 7.82653 6.30814 7.96003C6.30814 8.09354 6.19957 8.20211 6.06606 8.20211C6.01533 8.20211 5.67978 8.20276 5.67978 8.20276V7.718L6.06606 7.71796ZM6.18727 9.48877C6.09367 9.48877 5.86956 9.48959 5.67978 9.49032V8.81845C5.7251 8.81828 6.18727 8.81796 6.18727 8.81796C6.37221 8.81796 6.52265 8.9684 6.52265 9.15338C6.52265 9.33832 6.37221 9.48877 6.18727 9.48877Z" fill="#009846"/>
<path d="M9.27248 7.33531C9.27146 7.33256 9.27035 7.32981 9.26929 7.32707C9.2133 7.19077 9.08201 7.10275 8.93468 7.10275C8.93472 7.10275 8.9346 7.10275 8.93468 7.10275C8.78723 7.10283 8.65569 7.19106 8.59983 7.32748C8.59889 7.32981 8.59794 7.33215 8.59708 7.33449L7.70007 9.68973C7.63957 9.8485 7.71931 10.0262 7.87808 10.0867C8.03664 10.1472 8.21453 10.0675 8.27503 9.90871L8.42297 9.52025H9.43958L9.58584 9.90785C9.63231 10.031 9.74937 10.1069 9.87369 10.1069C9.90979 10.1069 9.9465 10.1005 9.98226 10.087C10.1412 10.027 10.2214 9.84957 10.1614 9.69063L9.27248 7.33531ZM8.65725 8.90506L8.93357 8.17958L9.20735 8.90506H8.65725Z" fill="#009846"/>
<path d="M12.781 7.10275C12.78 7.10275 12.779 7.10275 12.778 7.10275C12.6081 7.10439 12.4717 7.24344 12.4733 7.41332L12.4871 8.83976L11.3824 7.24003C11.3059 7.12925 11.1664 7.08114 11.0377 7.12117C10.9092 7.16124 10.8216 7.28023 10.8216 7.41484V9.79928C10.8216 9.96917 10.9593 10.1069 11.1292 10.1069C11.2992 10.1069 11.4369 9.96917 11.4369 9.79928V8.40164L12.4884 9.92434C12.5784 10.0544 12.7288 10.1098 12.8714 10.0652C13.0169 10.0198 13.1109 9.88382 13.1109 9.71582L13.0886 7.40742C13.0869 7.23851 12.9496 7.10275 12.781 7.10275Z" fill="#009846"/>
<path d="M15.912 9.57788L14.8376 8.54125L15.8208 7.63751C15.9459 7.52255 15.9541 7.32793 15.8391 7.20283C15.7241 7.07777 15.5295 7.06953 15.4044 7.18454L14.6191 7.90641V7.38047C14.6191 7.21058 14.4814 7.07285 14.3115 7.07285C14.1416 7.07285 14.0039 7.21058 14.0039 7.38047V9.79924C14.0039 9.96913 14.1416 10.1069 14.3115 10.1069C14.4814 10.1069 14.6191 9.96913 14.6191 9.79924V9.18532L15.4849 10.0206C15.5446 10.0782 15.6216 10.1069 15.6984 10.1069C15.779 10.1069 15.8595 10.0754 15.9198 10.0129C16.0378 9.89058 16.0343 9.69584 15.912 9.57788Z" fill="#009846"/>
</svg>
