<svg width="17" height="21" viewBox="0 0 17 21" fill="none" xmlns="http://www.w3.org/2000/svg">
<path d="M16.7528 1.33746C16.7545 1.12267 16.5818 0.947157 16.367 0.945455C16.311 0.945018 16.2555 0.956686 16.2044 0.979633C13.7548 2.11972 10.8713 1.77789 8.75618 0.096737C8.60935 -0.0322456 8.3896 -0.0322456 8.24278 0.096737C6.11872 1.7564 3.24775 2.09672 0.794555 0.979633C0.598626 0.891538 0.368422 0.979001 0.280327 1.17488C0.257379 1.22598 0.245711 1.2814 0.246148 1.33746C0.246148 1.41914 0.273374 9.4391 0.246148 12.0956C0.230591 13.5152 3.54437 18.1242 8.30112 20.9479C8.42145 21.0173 8.56973 21.0173 8.69006 20.9479C13.4546 18.1242 16.7684 13.5152 16.7528 12.0956C16.7256 9.4391 16.7528 1.41914 16.7528 1.33746ZM15.9749 12.0995C15.9749 12.9551 13.2523 17.2529 8.49948 20.1583C3.73106 17.2568 1.01625 12.959 1.02403 12.1033C1.04737 9.85916 1.03181 3.8189 1.02403 1.91309C3.53304 2.83119 6.33415 2.44351 8.49948 0.878509C10.6648 2.44351 13.4659 2.83119 15.9749 1.91309C15.9749 3.81501 15.9555 9.85916 15.9749 12.0995Z" fill="#009846"/>
<path d="M14.7226 3.70223C14.7243 3.48744 14.5515 3.31193 14.3367 3.31023C14.2807 3.30979 14.2253 3.32146 14.1742 3.34441C12.3962 4.18029 10.2984 3.93934 8.75622 2.7221C8.60939 2.59312 8.38964 2.59312 8.24282 2.7221C6.70028 3.92524 4.61677 4.17105 2.83653 3.35997C2.6406 3.27187 2.4104 3.35933 2.32231 3.55521C2.29936 3.60631 2.28769 3.66178 2.28813 3.71779C2.28813 3.77613 2.30757 9.71526 2.28813 11.6833C2.27646 12.7529 4.75012 16.2145 8.30116 18.3225C8.42149 18.392 8.56977 18.392 8.6901 18.3225C12.2489 16.2145 14.7226 12.7529 14.7226 11.6678C14.7031 9.69971 14.7226 3.76447 14.7226 3.70223ZM13.9447 11.6678C13.9447 12.2162 12 15.3782 8.49952 17.5019C5.02627 15.3666 3.05434 12.2045 3.05434 11.6678C3.08157 10.0809 3.05434 5.83363 3.05434 4.27787C4.88762 4.92263 6.92012 4.63229 8.49952 3.49999C10.0789 4.63229 12.1114 4.92263 13.9447 4.27787V11.6678Z" fill="#009846"/>
</svg>
