<svg width="21" height="21" viewBox="0 0 21 21" fill="none" xmlns="http://www.w3.org/2000/svg">
<path d="M16.099 9.09996V11.1999H18.899V9.09996H16.099ZM18.199 10.4999H16.799V9.79995H18.199V10.4999Z" fill="#009846"/>
<path d="M16.099 11.9V14H18.899V11.9H16.099ZM18.199 13.3H16.799V12.6H18.199V13.3Z" fill="#009846"/>
<path d="M16.099 14.6999V16.7999H18.899V14.6999H16.099ZM18.199 16.0999H16.799V15.3999H18.199V16.0999Z" fill="#009846"/>
<path d="M16.099 17.5V19.6H18.899V17.5H16.099ZM18.199 18.9H16.799V18.2H18.199V18.9Z" fill="#009846"/>
<path d="M11.8989 3.50005V1.40005H9.09886V3.50005H6.99886V6.30005H9.09886V8.40005H11.8989V6.30005H13.9989V3.50005H11.8989ZM13.2989 5.60005H11.1989V7.70005H9.79886V5.60005H7.69886V4.20005H9.79886V2.10005H11.1989V4.20005H13.2989V5.60005Z" fill="#009846"/>
<path d="M15.3992 7.7V0H5.59922V7.7H0.699219V21H20.2992V7.7H15.3992ZM5.59922 20.3H1.39922V8.4H5.59922V20.3ZM10.1492 20.3H8.39922V14H10.1492V20.3ZM12.5992 20.3H10.8492V14H12.5992V20.3ZM14.6992 20.3H13.2992V13.3H7.69922V20.3H6.29922V0.7H14.6992V20.3ZM19.5992 20.3H15.3992V8.4H19.5992V20.3Z" fill="#009846"/>
<path d="M2.09904 9.09996V11.1999H4.89904V9.09996H2.09904ZM4.19904 10.4999H2.79904V9.79995H4.19904V10.4999Z" fill="#009846"/>
<path d="M2.09904 11.9V14H4.89904V11.9H2.09904ZM4.19904 13.3H2.79904V12.6H4.19904V13.3Z" fill="#009846"/>
<path d="M2.09904 14.6999V16.7999H4.89904V14.6999H2.09904ZM4.19904 16.0999H2.79904V15.3999H4.19904V16.0999Z" fill="#009846"/>
<path d="M2.09904 17.5V19.6H4.89904V17.5H2.09904ZM4.19904 18.9H2.79904V18.2H4.19904V18.9Z" fill="#009846"/>
</svg>
