<svg width="21" height="21" viewBox="0 0 21 21" fill="none" xmlns="http://www.w3.org/2000/svg">
<path d="M10.7497 2.82326C10.7537 2.83304 10.7557 2.84282 10.7594 2.8526C10.7633 2.86237 10.7625 2.86368 10.765 2.86889L11.3758 4.1596C11.5894 4.612 12.0282 4.8973 12.5073 4.89513H14.1101L12.929 6.39031C12.8246 6.52286 12.802 6.7069 12.871 6.86314C12.9397 7.01937 13.088 7.11954 13.2513 7.12019H14.9384C15.0503 7.12019 15.1576 7.07326 15.2366 6.98982L17.2219 4.89513H19.9997C20.3191 4.89513 20.6113 4.70457 20.7543 4.40318C20.897 4.10158 20.8663 3.74088 20.6746 3.47101L20.4215 3.11508C20.0221 2.55621 19.3977 2.2268 18.7344 2.22506H13.1152L12.3779 0.279437C12.3137 0.110601 12.1586 -0.000216972 11.986 3.1897e-07H11.1425C10.9096 3.1897e-07 10.7207 0.199256 10.7207 0.445012V2.67007C10.7207 2.67637 10.7236 2.68115 10.724 2.68746C10.7259 2.73374 10.7345 2.77959 10.7497 2.82326ZM14.7638 6.23017H14.1519L15.5577 4.45012H16.4509L14.7638 6.23017ZM19.7466 3.64919L19.9997 4.00511H17.8871C17.8902 3.8869 17.8474 3.77239 17.7683 3.6883C17.6894 3.60421 17.5813 3.55792 17.4691 3.5601H15.3602C15.235 3.5601 15.1164 3.61876 15.0363 3.72024L14.812 4.00511H12.5073C12.3475 4.00554 12.2012 3.91015 12.1302 3.75892L11.825 3.11508H18.7344C19.1325 3.11617 19.5071 3.31369 19.7466 3.64919ZM11.7006 0.890024L12.2066 2.22506H11.5642V0.890024H11.7006Z" fill="#009846"/>
<path d="M0.362316 13.4501H15.9679C16.2008 13.4501 16.3897 13.2509 16.3897 13.0051V12.5601C16.3876 10.5949 14.878 9.00217 13.0155 9H0.362316C0.129394 9 -0.0594561 9.19926 -0.0594561 9.44501V13.0051C-0.0594561 13.2509 0.129394 13.4501 0.362316 13.4501ZM0.784089 9.89002H13.0155C13.734 9.89068 14.4182 10.2144 14.8966 10.78H11.7502V11.6701H15.3985C15.4955 11.9556 15.5455 12.2568 15.5461 12.5601H0.784089V9.89002Z" fill="#009846"/>
<path d="M-1.15625 10.6802H-0.312706V11.5702H-1.15625V10.6802Z" fill="#009846"/>
<path d="M3.31515 10.7799H4.1587V11.6699H3.31515V10.7799Z" fill="#009846"/>
<path d="M5.00153 10.7799H5.84507V11.6699H5.00153V10.7799Z" fill="#009846"/>
<path d="M6.68976 10.7799H7.53331V11.6699H6.68976V10.7799Z" fill="#009846"/>
<path d="M8.37706 10.7799H9.22061V11.6699H8.37706V10.7799Z" fill="#009846"/>
<path d="M10.0634 10.7799H10.907V11.6699H10.0634V10.7799Z" fill="#009846"/>
<path d="M12.9673 20.9154C13.2673 20.9145 13.5441 20.7448 13.6936 20.4704H16.8804C17.0293 20.7455 17.3065 20.9152 17.6068 20.9152C17.907 20.9152 18.1842 20.7455 18.3331 20.4704H19.2939C19.5268 20.4704 19.7156 20.2711 19.7156 20.0254V17.8003C19.7154 17.7125 19.6909 17.6265 19.6448 17.5533L18.8012 16.2182C18.723 16.0946 18.5914 16.0203 18.4503 16.0203H15.9197V15.5753C15.9197 15.3295 15.7308 15.1302 15.4979 15.1302H11.2802C11.0472 15.1302 10.8584 15.3295 10.8584 15.5753V20.0254C10.8584 20.2711 11.0472 20.4704 11.2802 20.4704H12.2409C12.3904 20.7448 12.6672 20.9145 12.9673 20.9154ZM18.2246 16.9103L18.7876 17.8003H17.6068V16.9103H18.2246ZM16.7632 16.9103V18.2453C16.7632 18.4911 16.9521 18.6903 17.185 18.6903H18.8721V19.5804H18.3331C18.1842 19.3053 17.907 19.1356 17.6068 19.1356C17.3065 19.1356 17.0293 19.3053 16.8804 19.5804H15.9197V16.9103H16.7632ZM11.7019 16.0203H15.0761V19.5804H13.6936C13.5447 19.3053 13.2675 19.1356 12.9673 19.1356C12.667 19.1356 12.3898 19.3053 12.2409 19.5804H11.7019V16.0203Z" fill="#009846"/>
<path d="M8.18945 0H9.87654V0.890024H8.18945V0Z" fill="#009846"/>
<path d="M8.18945 3.55994H9.87654V4.44996H8.18945V3.55994Z" fill="#009846"/>
<path d="M6.9248 1.78003H9.87721V2.67005H6.9248V1.78003Z" fill="#009846"/>
<path d="M8.32812 15.5754H10.0152V16.4655H8.32812V15.5754Z" fill="#009846"/>
<path d="M8.32812 19.1354H10.0152V20.0254H8.32812V19.1354Z" fill="#009846"/>
<path d="M7.06152 17.3556H10.0139V18.2456H7.06152V17.3556Z" fill="#009846"/>
</svg>
