<svg width="21" height="21" viewBox="0 0 21 21" fill="none" xmlns="http://www.w3.org/2000/svg">
<path d="M1.24197 11.5287C1.92626 11.5287 2.48291 10.9658 2.48291 10.2739C2.48291 9.73248 2.14204 9.27012 1.66594 9.09458V5.73348L5.15677 6.8517V10.5625C5.1605 10.6922 5.21796 10.815 5.32378 10.8928C5.40015 10.949 7.23189 12.2698 10.4919 12.2698C13.7519 12.2698 15.5833 10.949 15.6596 10.8928C15.7628 10.8168 15.8266 10.6907 15.8266 10.5625V6.85166L19.8665 5.55757C20.0289 5.50553 20.1422 5.35841 20.151 5.18803C20.1597 5.0177 20.0621 4.85971 19.9059 4.7913L10.656 0.740995C10.5511 0.695059 10.4318 0.695059 10.327 0.740995L1.07746 4.79126C0.921198 4.85967 0.823624 5.01766 0.83236 5.18803C0.833837 5.2167 0.845649 9.08506 0.845649 9.08506C0.355198 9.25269 0.000996399 9.72206 0.000996399 10.2739C0.00103741 10.9657 0.557727 11.5287 1.24197 11.5287ZM7.13092 5.85476C9.55167 4.96582 12.77 5.05428 15.0063 6.39714V9.84822C13.5646 9.12128 11.9147 8.83237 10.31 8.8567C8.82547 8.87901 7.30921 9.1748 5.97706 9.84814V6.39636C6.33938 6.17747 6.7332 6.00086 7.13092 5.85476ZM10.4919 11.4495C8.52504 11.4495 7.11853 10.9218 6.38716 10.5613C8.85746 9.33739 12.1238 9.34604 14.5938 10.5625C13.8614 10.9232 12.4561 11.4495 10.4919 11.4495ZM10.4915 1.56444L18.5828 5.1074L15.7891 6.00229C15.7564 5.93126 15.7027 5.87343 15.6393 5.82884C14.2 4.81246 12.2073 4.46593 10.4914 4.46593C8.76239 4.46593 6.80083 4.81172 5.35318 5.82244C5.28609 5.869 5.22879 5.9272 5.19425 6.00229L2.40051 5.1074L10.4915 1.56444ZM1.24197 9.83936C1.47391 9.83936 1.66262 10.0343 1.66262 10.2739C1.66262 10.5135 1.47391 10.7084 1.24197 10.7084C1.01004 10.7084 0.821327 10.5135 0.821327 10.2739C0.821327 10.0343 1.01004 9.83936 1.24197 9.83936Z" fill="#009846"/>
<path d="M20.1879 17.6723L19.6337 17.5231C19.6775 17.0796 19.8147 16.701 20.0434 16.3945C20.2422 16.1279 20.4456 16.0102 20.4682 15.9976C20.6234 15.924 20.7119 15.7635 20.6963 15.5922C20.6807 15.4201 20.5544 15.2784 20.3871 15.2347L18.2751 14.6821C18.0559 14.6248 17.8318 14.756 17.7745 14.9752C17.7171 15.1943 17.8483 15.4184 18.0675 15.4757L19.4398 15.8347C19.1812 16.1571 18.9249 16.6337 18.8333 17.3077L13.6024 15.8956C12.6899 15.6486 11.7264 16.3643 11.7264 17.3181C11.7265 17.4416 11.6743 17.5601 11.5795 17.652C11.4838 17.7447 11.3549 17.7979 11.2258 17.7979H10.9099V16.0776C10.9099 15.2607 11.4295 14.5344 12.2029 14.2701C12.5603 14.1478 12.9419 14.1341 13.3075 14.2305L14.5731 14.5616C14.7923 14.6189 15.0164 14.4877 15.0737 14.2686C15.1311 14.0494 14.9999 13.8253 14.7807 13.768L13.5158 13.4371C12.9941 13.2995 12.4483 13.3192 11.9376 13.494C11.3255 13.703 10.825 14.115 10.4999 14.6391C10.1749 14.115 9.67448 13.703 9.06271 13.4941C8.552 13.3191 8.00609 13.2995 7.48484 13.4369L0.606421 15.2381C0.439246 15.2818 0.312962 15.4235 0.297336 15.5956C0.281791 15.7669 0.370259 15.9274 0.525417 16.001C0.548098 16.0136 0.751448 16.1314 0.950286 16.3979C1.17861 16.704 1.31577 17.0821 1.35978 17.5249L0.812314 17.6723C0.533907 17.7437 0.299714 17.9189 0.152595 18.166C0.00490208 18.4139 -0.0373429 18.7045 0.0335712 18.9843L0.115764 19.3085C0.186678 19.5883 0.362261 19.8237 0.610235 19.9714C0.858168 20.119 1.1488 20.1613 1.42856 20.0904C1.43073 20.0899 1.43286 20.0893 1.435 20.0887L7.05353 18.5669C7.26049 19.0107 7.57782 19.4042 7.97156 19.6994C8.4897 20.088 9.10602 20.2933 9.75385 20.2933H11.2461C11.8939 20.2933 12.5102 20.088 13.0284 19.6994C13.4222 19.4042 13.7395 19.0107 13.9464 18.5669L19.565 20.0887C19.5671 20.0893 19.5692 20.0899 19.5714 20.0904C19.8512 20.1613 20.1418 20.119 20.3897 19.9714C20.6377 19.8237 20.8133 19.5883 20.8842 19.3085L20.9664 18.9843C21.0373 18.7045 20.995 18.4139 20.8474 18.166C20.7003 17.919 20.4662 17.7438 20.1879 17.6723ZM1.55373 15.838L7.69332 14.2302C8.05818 14.134 8.43982 14.1478 8.79718 14.2702C9.57022 14.5343 10.0896 15.2607 10.0896 16.0777V17.7979H9.77452C9.50887 17.7979 9.27295 17.5746 9.27311 17.3178C9.27311 16.3619 8.30415 15.6569 7.39781 15.8957L2.16009 17.3095C2.06834 16.6364 1.81217 16.1601 1.55373 15.838ZM20.1713 18.7827L20.0891 19.107C20.0361 19.2561 19.9316 19.3191 19.7754 19.2959L13.8052 17.6787C13.5921 17.6211 13.3714 17.7424 13.3062 17.9534C13.0293 18.8482 12.1822 19.473 11.2462 19.473H9.75389C8.81789 19.473 7.97078 18.8482 7.69389 17.9534C7.63959 17.7779 7.47783 17.6644 7.30229 17.6644C7.26677 17.6644 7.23071 17.669 7.19487 17.6787L1.22451 19.2958C1.06837 19.319 0.963821 19.2561 0.910871 19.107L0.828678 18.7827C0.795211 18.6505 0.893768 18.4997 1.02276 18.465L7.64189 16.6834C8.05424 16.5807 8.44909 16.9125 8.45303 17.3303C8.45963 18.0154 9.05549 18.6182 9.77423 18.6182H11.2256C11.5709 18.6182 11.8992 18.4843 12.1502 18.2413C12.4062 17.9934 12.5471 17.6654 12.5469 17.3177C12.5467 16.9074 12.9557 16.5833 13.358 16.6835L19.9771 18.4651C20.1062 18.4997 20.2048 18.6505 20.1713 18.7827Z" fill="#009846"/>
<path d="M16.8157 14.4074C16.6908 14.2216 16.4334 14.1705 16.2468 14.2942C16.0603 14.4177 16.0105 14.6771 16.1336 14.8626C16.257 15.0486 16.517 15.1005 16.7025 14.9762C16.8881 14.8519 16.9395 14.5932 16.8157 14.4074Z" fill="#009846"/>
</svg>
