<svg width="21" height="21" viewBox="0 0 21 21" fill="none" xmlns="http://www.w3.org/2000/svg">
<path d="M12.1802 6.23265C11.9533 6.23265 11.7694 6.41642 11.7694 6.6428C11.7694 6.86903 11.9533 7.0528 12.1802 7.0528C12.407 7.0528 12.5909 6.86903 12.5909 6.6428C12.5909 6.41642 12.407 6.23265 12.1802 6.23265Z" fill="#009846"/>
<path d="M9.6888 14.2433C9.84917 14.083 9.84917 13.8234 9.6888 13.663C9.52827 13.5031 9.26821 13.5031 9.10752 13.663C8.94731 13.8234 8.94731 14.083 9.10752 14.2433C9.26821 14.4032 9.52827 14.4032 9.6888 14.2433Z" fill="#009846"/>
<path d="M4.75178 20.8787C4.91103 21.0389 5.17028 21.0407 5.33162 20.882L7.32348 18.9235C7.66188 18.5858 7.76478 18.0858 7.61597 17.6511L8.04443 17.2387C8.27511 17.0163 8.57883 16.8938 8.89989 16.8938H14.3616C15.3306 16.8938 16.2464 16.5224 16.9407 15.848C16.9693 15.8203 16.7238 16.1089 20.6668 11.4055C21.2516 10.715 21.1641 9.67805 20.4716 9.09373C19.7834 8.51487 18.7525 8.59802 18.1661 9.2767L15.7417 11.7636C15.4356 11.3876 14.9688 11.1532 14.4644 11.1532H9.88299C9.23107 10.881 8.53934 10.7432 7.82562 10.7432C5.84788 10.7432 4.12009 11.6545 3.1927 13.365C2.80213 13.2911 2.39021 13.409 2.09387 13.7048L0.139408 15.6612C-0.0201597 15.8209 -0.0204808 16.0794 0.138766 16.2394L4.75178 20.8787ZM7.82546 11.5632C8.45474 11.5632 9.06316 11.6896 9.63416 11.9389C9.68618 11.9616 9.7422 11.9733 9.79887 11.9733H14.4644C14.9098 11.9733 15.2861 12.3359 15.2861 12.7933C15.2861 13.2456 14.9176 13.6135 14.4644 13.6135H11.1123C10.8855 13.6135 10.7015 13.7971 10.7015 14.0235C10.7015 14.25 10.8855 14.4335 11.1123 14.4335H14.4644C15.3706 14.4335 16.1077 13.6977 16.1077 12.7933C16.1077 12.7212 16.1026 12.6498 16.0933 12.5789C18.4385 10.173 18.7692 9.8349 18.7833 9.81808C19.0761 9.47313 19.5959 9.42939 19.9417 9.72034C20.2878 10.0124 20.3316 10.5309 20.038 10.8778L16.353 15.2744C15.8149 15.79 15.1084 16.0738 14.3616 16.0738H8.89989C8.36469 16.0738 7.85805 16.278 7.47374 16.6486L7.12458 16.9849L3.90594 13.7727C4.65819 12.3643 6.06974 11.5632 7.82546 11.5632ZM2.67531 14.2843C2.8108 14.1491 3.01885 14.1247 3.18404 14.2266C3.2468 14.2647 6.76082 17.7806 6.78249 17.8096C6.90273 17.9712 6.88555 18.2008 6.74477 18.3415L5.04667 20.0111L1.00981 15.9514L2.67531 14.2843Z" fill="#009846"/>
<path d="M6.42826 8.69291H16.2885C16.9682 8.69291 17.5211 8.14112 17.5211 7.46276C17.5211 6.4292 17.5211 1.9734 17.5211 1.23015C17.5211 0.551789 16.9682 0 16.2885 0H6.42826C5.74857 0 5.1957 0.551789 5.1957 1.23015V7.46276C5.1957 8.14112 5.74857 8.69291 6.42826 8.69291ZM16.6993 3.28029H6.01746V2.4603H16.6993V3.28029ZM16.2885 7.87292H6.42826C6.20175 7.87292 6.01746 7.68883 6.01746 7.46276V4.10044H16.6993V7.46276C16.6993 7.68883 16.5151 7.87292 16.2885 7.87292ZM6.42826 0.820153H16.2885C16.5151 0.820153 16.6993 1.00408 16.6993 1.23015V1.64015H6.01746V1.23015C6.01746 1.00408 6.20175 0.820153 6.42826 0.820153Z" fill="#009846"/>
<path d="M15.4673 6.23265H13.8239C13.5971 6.23265 13.4131 6.41625 13.4131 6.6428C13.4131 6.86919 13.5971 7.0528 13.8239 7.0528H15.4673C15.6943 7.0528 15.8782 6.86919 15.8782 6.6428C15.8782 6.41625 15.6943 6.23265 15.4673 6.23265Z" fill="#009846"/>
</svg>
