<svg width="21" height="21" viewBox="0 0 21 21" fill="none" xmlns="http://www.w3.org/2000/svg">
<path d="M20.9325 9.56173V5.6223H18.5641L10.4995 0L2.43481 5.6223H0.0664062V9.56173H2.59317V17.0606H0.0664062V21H20.9325V17.0606H18.3659V9.56173H20.9325ZM10.4995 1.49043L16.4263 5.6223H4.57267L10.4995 1.49043ZM19.7099 18.2832V19.7774H1.28904V18.2832H19.7099ZM3.81581 17.0606V9.56173H5.28298V17.0606H3.81581ZM6.50557 17.0606V9.56173H8.52338V17.0606H6.50557ZM9.74601 17.0606V9.56173H11.2131V17.0606H9.74601ZM12.4358 17.0606V9.56173H14.4535V17.0606H12.4358ZM15.6761 17.0606V9.56173H17.1433V17.0606H15.6761ZM1.28904 8.33909V6.84489H19.7099V8.33909H1.28904Z" fill="#009846"/>
</svg>
