<svg width="22" height="22" viewBox="0 0 22 22" fill="none" xmlns="http://www.w3.org/2000/svg">
<path d="M20.7 19.5682L19.5181 13.0559C19.4889 12.8951 19.3348 12.7884 19.1739 12.8176C19.013 12.8467 18.9063 13.0007 18.9354 13.1615L19.4351 15.915L15.5825 11.443L18.1737 10.865L18.5574 11.0785L18.7239 11.9965C18.7531 12.1573 18.9072 12.264 19.0681 12.2349C19.229 12.2057 19.3358 12.0517 19.3066 11.891L19.115 10.8352C19.0992 10.748 19.0451 10.6725 18.9677 10.6295L14.9786 8.41047C14.9787 8.41055 14.9785 8.41043 14.9786 8.41047C14.9672 8.40417 14.9552 8.3985 14.9432 8.39381C14.9395 8.39235 14.9357 8.39137 14.9318 8.39007C14.9235 8.38716 14.9152 8.38436 14.9067 8.3822C14.9019 8.38098 14.8971 8.38027 14.8922 8.37932C14.8846 8.37783 14.8769 8.37633 14.8692 8.37542C14.864 8.37479 14.8589 8.3746 14.8536 8.37428C14.8462 8.37381 14.8387 8.37342 14.8313 8.37349C14.826 8.37353 14.8207 8.37393 14.8154 8.37424C14.8081 8.37472 14.8007 8.37538 14.7934 8.37641C14.7881 8.37716 14.7828 8.3781 14.7775 8.37917C14.7703 8.38058 14.7632 8.38224 14.7561 8.38416C14.7508 8.38562 14.7455 8.3872 14.7403 8.38893C14.7334 8.39125 14.7267 8.39389 14.7199 8.39673C14.7147 8.39893 14.7096 8.40109 14.7044 8.40362C14.7021 8.40472 14.6998 8.40547 14.6976 8.40661L14.0212 8.75896C14.5244 7.82128 14.7786 6.91314 14.7786 6.04432C14.7786 3.76204 12.9206 1.90527 10.6367 1.90527C8.35287 1.90527 6.49506 3.76204 6.49506 6.04432C6.49506 6.92156 6.754 7.83892 7.26707 8.78629L6.5382 8.40661C6.53596 8.40543 6.53356 8.40464 6.53127 8.40354C6.52631 8.40109 6.52118 8.39897 6.51614 8.39684C6.50932 8.39397 6.50243 8.39129 6.49545 8.38893C6.49029 8.3872 6.48505 8.38566 6.47981 8.3842C6.47272 8.38227 6.46559 8.38058 6.45842 8.37917C6.4531 8.3781 6.44774 8.37716 6.44238 8.37641C6.43517 8.37538 6.42792 8.37475 6.42067 8.37428C6.41524 8.37393 6.4098 8.37357 6.4044 8.37349C6.39715 8.37342 6.38994 8.37381 6.38269 8.37424C6.37725 8.3746 6.37182 8.37479 6.36638 8.37546C6.35901 8.37633 6.35172 8.37779 6.34443 8.3792C6.33927 8.38023 6.33407 8.38098 6.32895 8.38227C6.32087 8.38432 6.31295 8.38704 6.30503 8.38976C6.3009 8.39117 6.29668 8.39228 6.29254 8.39389C6.28064 8.39858 6.26902 8.40401 6.25767 8.41027L2.26826 10.6295C2.19079 10.6725 2.13674 10.748 2.12098 10.8352L0.997393 17.0261C0.968236 17.1868 1.07501 17.3409 1.23592 17.37C1.39687 17.3993 1.55093 17.2924 1.58009 17.1316L1.91716 15.2744L5.74929 13.25L5.4411 17.2265L1.21906 19.1209L1.36764 18.302C1.3968 18.1412 1.29006 17.9872 1.12915 17.958C0.968354 17.929 0.81418 18.0356 0.784984 18.1964L0.536013 19.5683C0.516391 19.6763 0.558313 19.7863 0.644837 19.854C0.697909 19.8955 0.762329 19.9169 0.82734 19.9169C0.868435 19.9169 0.909766 19.9084 0.948575 19.891L5.72265 17.7489L10.4947 19.8901C10.4946 19.89 10.4948 19.8901 10.4947 19.8901L10.4967 19.8909C10.4994 19.8921 10.5022 19.893 10.5049 19.8941C10.5093 19.8959 10.5137 19.8976 10.5182 19.8992C10.5225 19.9008 10.5268 19.9023 10.5312 19.9036C10.5341 19.9045 10.5369 19.9053 10.5398 19.906C10.5435 19.9071 10.5471 19.908 10.5509 19.9089C10.5571 19.9103 10.5633 19.9114 10.5695 19.9125C10.5724 19.9129 10.5753 19.9136 10.5783 19.914C10.5803 19.9143 10.5823 19.9146 10.5844 19.9148C10.5942 19.916 10.6043 19.9166 10.6142 19.9167C10.6154 19.9167 10.6167 19.9169 10.618 19.9169C10.6186 19.9169 10.6192 19.9168 10.6199 19.9168C10.6318 19.9167 10.6437 19.9157 10.6557 19.9142C10.6571 19.914 10.6586 19.9141 10.6601 19.9138C10.6624 19.9135 10.6646 19.9128 10.6669 19.9124C10.6761 19.9109 10.6854 19.9089 10.6945 19.9064C10.697 19.9057 10.6996 19.9053 10.7021 19.9046C10.7024 19.9045 10.7026 19.9045 10.7029 19.9045C10.7037 19.9042 10.7045 19.9038 10.7053 19.9035C10.7168 19.9 10.7281 19.8959 10.7393 19.8909L15.5132 17.7488L20.2872 19.8909C20.2919 19.8929 20.2966 19.8945 20.3013 19.8963C20.306 19.8981 20.3105 19.9001 20.3153 19.9017C20.3215 19.9037 20.3278 19.9053 20.3341 19.9069C20.338 19.9079 20.3418 19.9092 20.3458 19.91C20.3534 19.9116 20.3611 19.9127 20.3688 19.9138C20.3715 19.9141 20.3742 19.9147 20.377 19.9151C20.3875 19.9162 20.398 19.9168 20.4085 19.9168C20.4229 19.9168 20.4374 19.9153 20.4517 19.9132C20.455 19.9128 20.4584 19.9123 20.4617 19.9116C20.4758 19.9091 20.4898 19.9058 20.5037 19.901C20.5046 19.9007 20.5054 19.9003 20.5063 19.9C20.5154 19.8968 20.5246 19.8933 20.5335 19.8891C20.5361 19.8879 20.5383 19.8862 20.5409 19.8849C20.5483 19.8811 20.5555 19.8768 20.5627 19.8724C20.5698 19.868 20.577 19.8636 20.5837 19.8586C20.586 19.8569 20.5886 19.8556 20.5909 19.8539C20.5961 19.8498 20.6007 19.8451 20.6056 19.8407C20.6095 19.8372 20.6135 19.8339 20.6173 19.8302C20.6262 19.8214 20.6344 19.8119 20.642 19.8021C20.6435 19.8003 20.6452 19.7987 20.6466 19.7968C20.6554 19.7848 20.6632 19.7722 20.6701 19.7592C20.672 19.7555 20.6735 19.7516 20.6753 19.7478C20.6799 19.7382 20.6841 19.7285 20.6876 19.7185C20.6894 19.7135 20.6908 19.7083 20.6923 19.7031C20.695 19.6939 20.6972 19.6846 20.699 19.6751C20.7 19.6697 20.701 19.6642 20.7017 19.6587C20.703 19.6487 20.7036 19.6385 20.7039 19.6283C20.704 19.6234 20.7044 19.6186 20.7043 19.6137C20.704 19.5987 20.7028 19.5834 20.7 19.5682ZM15.4954 9.37519L15.1919 9.44614L15.1725 9.19553L15.4954 9.37519ZM14.8495 12.6915L13.613 11.7266C13.5274 11.6599 13.4122 11.6452 13.3126 11.6885L10.9153 12.7312V12.4069C11.0944 12.2611 11.5014 11.9174 11.9891 11.4241L14.6604 10.2514L14.8495 12.6915ZM14.5741 9.1384L14.6119 9.62632L12.9432 10.3589C13.1089 10.1537 13.2634 9.94953 13.4067 9.74648L14.5741 9.1384ZM6.66188 9.1384L7.88921 9.77775C8.07096 10.0332 8.27005 10.2904 8.48703 10.5494C8.67674 10.7758 8.86583 10.9862 9.04774 11.1787L6.53163 10.8189L6.66188 9.1384ZM5.80335 12.5521L2.05147 14.534L2.2389 13.5011L5.87832 11.5844L5.80335 12.5521ZM5.93242 10.887L2.37318 12.7615L2.67861 11.0785L6.06351 9.19557L5.93242 10.887ZM6.034 17.2398L6.31433 13.6226L9.81191 18.935L6.034 17.2398ZM10.3219 16.0994L8.49791 13.2268L10.3219 13.4451V16.0994ZM10.3219 12.849L7.94882 12.5651C7.83539 12.5518 7.72408 12.6045 7.66313 12.7012C7.60218 12.7978 7.60237 12.9209 7.66364 13.0175L10.3219 17.204V18.633L6.38896 12.6594L6.4858 11.4102L9.75261 11.8773C9.99899 12.1058 10.1987 12.2755 10.3218 12.3768L10.3219 12.849ZM10.637 11.868C9.88926 11.2378 7.08725 8.69864 7.08725 6.04436C7.08721 4.08837 8.67962 2.49706 10.637 2.49706C12.5943 2.49706 14.1867 4.08837 14.1867 6.04436C14.1867 8.69864 11.3847 11.2378 10.637 11.868ZM10.9141 19.1638V17.8504L11.7992 18.7666L10.9141 19.1638ZM12.3735 18.509L10.9141 16.9984V13.377L13.3873 12.3013L14.9114 13.4905L15.2019 17.2398L12.3735 18.509ZM15.2381 10.043L16.2647 9.8031L17.3956 10.4322L15.3044 10.8986L15.2381 10.043ZM15.7949 17.2265L15.5637 14.2439L19.3674 18.8295L15.7949 17.2265ZM15.4845 13.2211L15.4006 12.1389L19.6437 17.0641L19.9157 18.5632L15.4845 13.2211Z" fill="#60CD8C"/>
<path d="M10.6371 4.21563C10.4736 4.21563 10.341 4.34808 10.341 4.51152C10.341 4.67496 10.4736 4.80741 10.6371 4.80741C11.3196 4.80741 11.8749 5.3623 11.8749 6.04436C11.8749 6.72639 11.3196 7.28132 10.6371 7.28132C9.95454 7.28132 9.39926 6.72643 9.39926 6.04436C9.39926 5.71808 9.52527 5.41022 9.7541 5.17744C9.86872 5.0609 9.86707 4.87356 9.7504 4.75906C9.63374 4.64452 9.44627 4.64614 9.33169 4.76276C8.9934 5.10684 8.80711 5.562 8.80711 6.04436C8.80711 7.05272 9.62802 7.8731 10.6371 7.8731C11.6462 7.8731 12.4671 7.05272 12.4671 6.04436C12.4671 5.03597 11.6462 4.21563 10.6371 4.21563Z" fill="#60CD8C"/>
</svg>
