<svg width="22" height="22" viewBox="0 0 22 22" fill="none" xmlns="http://www.w3.org/2000/svg">
<g clip-path="url(#clip0)">
<path fill-rule="evenodd" clip-rule="evenodd" d="M13.937 8.77593L16.0566 11.4741C18.2736 11.5549 20.1128 13.2152 20.4193 15.4124C20.7682 17.9139 19.0233 20.2246 16.5218 20.5735C14.0203 20.9225 11.7096 19.1775 11.3607 16.676C11.0117 14.1746 12.7567 11.8638 15.2582 11.5149L13.4465 9.20888C11.7988 10.4849 9.49396 10.4756 7.85653 9.18635L5.34218 11.7007C6.47556 12.1512 7.26317 13.196 7.38415 14.4096C7.56293 16.2031 6.25396 17.8019 4.46053 17.9807V19.3035H7.13292C7.23153 19.0246 7.45097 18.8051 7.72996 18.7065C8.24001 18.5261 8.7997 18.7934 8.98007 19.3035C9.16044 19.8136 8.89309 20.3732 8.38303 20.5536C7.87298 20.734 7.31325 20.4667 7.13292 19.9566H4.13399C3.95366 19.9566 3.80745 19.8104 3.80745 19.63V17.9807C3.75333 17.9753 3.69933 17.9687 3.64553 17.9606C1.86308 17.6935 0.634636 16.032 0.901704 14.2496C1.16877 12.4671 2.83024 11.2387 4.61269 11.5058L7.36933 8.74911C6.63078 7.98109 6.18506 6.97829 6.10987 5.91541H3.15437C3.02539 5.91549 2.90841 5.83961 2.85592 5.72177L1.62323 2.94815C1.34723 2.88387 1.11277 2.70276 0.980808 2.45198C0.7297 1.97478 0.91297 1.3844 1.39012 1.13329C1.86732 0.882183 2.45774 1.06541 2.70885 1.54261C2.95996 2.0198 2.77669 2.61019 2.29949 2.86133L3.36699 5.26233H6.10992C6.18428 4.1941 6.63209 3.18608 7.37489 2.41479C9.12256 0.600135 12.0104 0.545807 13.825 2.29344L14.3524 1.76608C14.4136 1.70486 14.4967 1.67041 14.5833 1.67041H18.5618C18.6604 1.39146 18.8799 1.17199 19.1589 1.07337C19.6689 0.89304 20.2286 1.16039 20.4089 1.67045C20.5893 2.1805 20.322 2.74023 19.8119 2.92056C19.3018 3.10093 18.7421 2.83362 18.5618 2.32352H14.7184L14.2629 2.77905C14.8226 3.49274 15.1558 4.35766 15.2197 5.26237H18.8282C19.0086 5.26237 19.1548 5.40858 19.1548 5.58891V6.27464C19.9148 6.42979 20.4608 7.0983 20.4609 7.87403C20.4611 8.77573 19.7303 9.50689 18.8286 9.50705C17.9269 9.50721 17.1957 8.77638 17.1955 7.87468C17.1964 7.09907 17.742 6.43077 18.5017 6.27464V5.91545H15.2197C15.1441 6.9907 14.6896 8.00432 13.937 8.77593ZM18.8282 8.8543C19.3693 8.8543 19.8078 8.41572 19.8078 7.87468C19.8078 7.33365 19.3693 6.89507 18.8282 6.89507C18.2872 6.89507 17.8486 7.33365 17.8486 7.87468C17.8486 8.41572 18.2872 8.8543 18.8282 8.8543ZM19.8078 1.99699C19.8078 1.81666 19.6616 1.67045 19.4813 1.67045C19.301 1.67045 19.1548 1.81666 19.1548 1.99699C19.1548 2.17732 19.301 2.32352 19.4813 2.32352C19.6616 2.32352 19.8078 2.17732 19.8078 1.99699ZM1.52168 1.99699C1.52168 2.17732 1.66789 2.32352 1.84822 2.32352C2.02855 2.32352 2.17476 2.17732 2.17476 1.99699C2.17476 1.81666 2.02855 1.67045 1.84822 1.67045C1.66789 1.67045 1.52168 1.81666 1.52168 1.99699ZM8.37899 19.6301C8.37899 19.4497 8.23278 19.3035 8.05245 19.3035C7.87212 19.3035 7.72591 19.4497 7.72591 19.6301C7.72591 19.8104 7.87212 19.9566 8.05245 19.9566C8.23278 19.9566 8.37899 19.8104 8.37899 19.6301ZM6.7463 14.732C6.74769 14.0937 6.51535 13.4771 6.09322 12.9984C5.13895 11.9163 3.48818 11.8127 2.40611 12.767C2.05272 13.0787 1.8037 13.4646 1.66181 13.8808C1.56874 14.1492 1.51817 14.4374 1.51817 14.7375C1.51817 16.1808 2.68826 17.3509 4.13163 17.3509C5.45914 17.3509 6.55547 16.3611 6.72293 15.0793C6.73839 14.9648 6.74628 14.8487 6.7463 14.732ZM14.4592 4.59965C14.5416 4.91607 14.5855 5.24803 14.5855 5.59024C14.5855 7.75529 12.8303 9.51042 10.6653 9.51042C8.50022 9.51042 6.74509 7.75529 6.74509 5.59024C6.74509 5.38345 6.7611 5.18041 6.79195 4.98228C6.92642 4.10698 7.35683 3.27206 8.07294 2.64051C9.69605 1.20909 12.1722 1.36444 13.6036 2.9875C14.0243 3.46456 14.3095 4.01844 14.4592 4.59965ZM18.8328 13.4488C18.9854 13.6224 19.1214 13.808 19.2398 14.0032C19.603 14.5977 19.8124 15.2965 19.8124 16.0442C19.8124 18.2092 18.0572 19.9644 15.8922 19.9644C13.7271 19.9644 11.972 18.2092 11.972 16.0442C11.972 15.5109 12.0785 15.0024 12.2714 14.5389C12.4933 14.0007 12.8391 13.5039 13.3059 13.0935C14.9302 11.6654 17.4047 11.8245 18.8328 13.4488Z" fill="#60CD8C"/>
<path d="M10.6657 5.54395C10.1503 5.54395 9.73242 5.96176 9.73242 6.47726C9.73242 6.99272 10.1503 7.4106 10.6657 7.4106C11.1812 7.4106 11.599 6.99272 11.599 6.47726C11.5985 5.96203 11.181 5.54449 10.6657 5.54395ZM10.6657 7.22391C10.2534 7.22391 9.91908 6.88963 9.91908 6.47726C9.91908 6.06488 10.2534 5.7306 10.6657 5.7306C11.0781 5.7306 11.4124 6.06488 11.4124 6.47726C11.4119 6.88939 11.0779 7.22347 10.6657 7.22391Z" fill="#60CD8C"/>
<path d="M10.6656 5.45038C10.7172 5.45038 10.759 5.40861 10.759 5.35707V5.26372C10.759 5.21221 10.7172 5.17041 10.6656 5.17041C10.6141 5.17041 10.5723 5.21221 10.5723 5.26372V5.35707C10.5723 5.40861 10.6141 5.45038 10.6656 5.45038Z" fill="#60CD8C"/>
<path d="M11.4578 5.55305L11.3918 5.61906C11.3547 5.65488 11.3537 5.71397 11.3895 5.75102C11.4253 5.78807 11.4844 5.7891 11.5215 5.75331C11.5222 5.7526 11.523 5.75181 11.5237 5.75102L11.5897 5.68502C11.6255 5.64794 11.6245 5.58887 11.5874 5.55305C11.5513 5.51812 11.4939 5.51812 11.4578 5.55305Z" fill="#60CD8C"/>
<path d="M11.8781 6.38379H11.7847C11.7332 6.38379 11.6914 6.42563 11.6914 6.47717C11.6914 6.52871 11.7332 6.57051 11.7847 6.57051H11.8781C11.9296 6.57051 11.9714 6.52871 11.9714 6.47717C11.9714 6.42563 11.9296 6.38379 11.8781 6.38379Z" fill="#60CD8C"/>
<path d="M11.5234 7.20294C11.4863 7.16715 11.4272 7.16818 11.3914 7.20526C11.3565 7.24146 11.3565 7.29878 11.3914 7.33494L11.4574 7.40094C11.4938 7.43737 11.5529 7.43741 11.5894 7.40097C11.6259 7.36454 11.6259 7.30544 11.5895 7.26897L11.5234 7.20294Z" fill="#60CD8C"/>
<path d="M10.6656 7.50391C10.6141 7.50391 10.5723 7.54571 10.5723 7.59725V7.69056C10.5723 7.74214 10.6141 7.78394 10.6656 7.78394C10.7172 7.78394 10.759 7.74214 10.759 7.69056V7.59725C10.759 7.54571 10.7172 7.50391 10.6656 7.50391Z" fill="#60CD8C"/>
<path d="M9.80821 7.20282L9.74221 7.26886C9.70574 7.30529 9.70571 7.36439 9.74218 7.40086C9.77861 7.43729 9.83774 7.43736 9.87418 7.40093L9.94018 7.33489C9.976 7.29784 9.97498 7.23878 9.93789 7.20296C9.90173 7.16802 9.84438 7.16802 9.80821 7.20296V7.20282Z" fill="#60CD8C"/>
<path d="M9.54606 6.38379H9.45272C9.40114 6.38379 9.35938 6.42563 9.35938 6.47717C9.35938 6.52871 9.40114 6.57051 9.45272 6.57051H9.54606C9.59761 6.57051 9.63937 6.52871 9.63937 6.47717C9.63937 6.42563 9.59761 6.38379 9.54606 6.38379Z" fill="#60CD8C"/>
<path d="M9.80825 5.7512C9.8453 5.78699 9.90443 5.78596 9.94022 5.74891C9.97512 5.71275 9.97512 5.65536 9.94022 5.61924L9.87422 5.55327C9.83778 5.51677 9.77869 5.51677 9.74222 5.55317C9.70575 5.58964 9.70571 5.64877 9.74215 5.6852L9.80825 5.7512Z" fill="#60CD8C"/>
<path d="M13.1852 5.4505C13.0306 5.4505 12.9052 5.57587 12.9052 5.73053V5.82384H12.1095C11.95 5.47336 11.6691 5.19241 11.3186 5.03296V4.33053C11.3186 4.27896 11.2768 4.23719 11.2252 4.23719H11.0385V3.67719H12.1585C12.3132 3.67719 12.4385 3.55182 12.4385 3.39719C12.4385 3.24256 12.3132 3.11719 12.1585 3.11719H9.17189C9.01726 3.11719 8.89192 3.24256 8.89192 3.39719C8.89192 3.55182 9.01726 3.67719 9.17189 3.67719H10.2919V4.23719H10.1052C10.0537 4.23719 10.0119 4.27899 10.0119 4.33053V5.03296C9.66138 5.19241 9.38045 5.47336 9.22097 5.82388H8.42523V5.73053C8.42523 5.5759 8.29986 5.45057 8.14523 5.45057C7.99061 5.45057 7.86523 5.57587 7.86523 5.73053V7.22384C7.86523 7.37851 7.99061 7.50384 8.14523 7.50384C8.29986 7.50384 8.42523 7.37851 8.42523 7.22384V7.13053H9.22101C9.58037 7.92815 10.5183 8.28345 11.3159 7.92405C11.6684 7.76525 11.9507 7.48299 12.1095 7.13053H12.9052V7.22384C12.9052 7.37851 13.0306 7.50384 13.1852 7.50384C13.3399 7.50384 13.4652 7.37851 13.4652 7.22384V5.73053C13.4652 5.57587 13.3399 5.4505 13.1852 5.4505ZM9.07858 3.39719C9.07858 3.34564 9.12035 3.30384 9.17189 3.30384H12.1585C12.2101 3.30384 12.2519 3.34564 12.2519 3.39719C12.2519 3.44873 12.2101 3.4905 12.1585 3.4905H9.17189C9.12035 3.4905 9.07858 3.44873 9.07858 3.39719ZM10.4786 3.67719H10.8519V4.23719H10.4786V3.67719ZM10.1985 4.42384H11.1319V4.96081C10.8279 4.86712 10.5026 4.86712 10.1985 4.96081V4.42384ZM8.23854 7.22384C8.23854 7.27542 8.19678 7.31719 8.14523 7.31719C8.09369 7.31719 8.05189 7.27542 8.05189 7.22384V5.73053C8.05189 5.67896 8.09369 5.63719 8.14523 5.63719C8.19678 5.63719 8.23854 5.67896 8.23854 5.73053V7.22384ZM8.42523 6.94388V6.0105H9.14885C9.05517 6.31456 9.05517 6.63978 9.14885 6.94388H8.42523ZM10.6652 7.87719C9.89206 7.87719 9.26523 7.25037 9.26523 6.47719C9.26523 5.70397 9.89206 5.07719 10.6652 5.07719C11.4384 5.07719 12.0652 5.70397 12.0652 6.47719C12.0644 7.25002 11.4381 7.87633 10.6652 7.87719ZM12.1816 6.94388C12.2753 6.63978 12.2753 6.31456 12.1816 6.0105H12.9052V6.94388H12.1816ZM13.2786 7.22384C13.2786 7.27542 13.2368 7.31719 13.1852 7.31719C13.1337 7.31719 13.0919 7.27542 13.0919 7.22384V5.73053C13.0919 5.67896 13.1337 5.63719 13.1852 5.63719C13.2368 5.63719 13.2786 5.67896 13.2786 5.73053V7.22384Z" fill="#60CD8C"/>
<path d="M16.2653 16.0439C15.7499 16.0439 15.332 16.4618 15.332 16.9773C15.332 17.4927 15.7499 17.9106 16.2653 17.9106C16.7808 17.9106 17.1987 17.4927 17.1987 16.9773C17.1981 16.462 16.7806 16.0445 16.2653 16.0439ZM16.2653 17.7239C15.853 17.7239 15.5187 17.3896 15.5187 16.9773C15.5187 16.5649 15.853 16.2306 16.2653 16.2306C16.6777 16.2306 17.012 16.5649 17.012 16.9773C17.0115 17.3894 16.6775 17.7235 16.2653 17.7239Z" fill="#60CD8C"/>
<path d="M16.2652 15.9504C16.3168 15.9504 16.3586 15.9086 16.3586 15.8571V15.7637C16.3586 15.7122 16.3168 15.6704 16.2652 15.6704C16.2137 15.6704 16.1719 15.7122 16.1719 15.7637V15.8571C16.1719 15.9086 16.2137 15.9504 16.2652 15.9504Z" fill="#60CD8C"/>
<path d="M17.0574 16.0531L16.9914 16.1191C16.9543 16.1549 16.9533 16.214 16.9891 16.251C17.0249 16.2881 17.084 16.2891 17.1211 16.2533C17.1218 16.2526 17.1226 16.2518 17.1233 16.251L17.1893 16.185C17.2252 16.1479 17.2241 16.0889 17.187 16.0531C17.1509 16.0181 17.0935 16.0181 17.0574 16.0531Z" fill="#60CD8C"/>
<path d="M17.4777 16.8838H17.3843C17.3328 16.8838 17.291 16.9256 17.291 16.9772C17.291 17.0287 17.3328 17.0705 17.3843 17.0705H17.4777C17.5292 17.0705 17.571 17.0287 17.571 16.9772C17.571 16.9256 17.5292 16.8838 17.4777 16.8838Z" fill="#60CD8C"/>
<path d="M17.123 17.7029C17.0859 17.6672 17.0268 17.6682 16.991 17.7053C16.9561 17.7415 16.9561 17.7988 16.991 17.8349L17.057 17.9009C17.0935 17.9374 17.1525 17.9374 17.189 17.901C17.2255 17.8645 17.2255 17.8054 17.1891 17.769L17.123 17.7029Z" fill="#60CD8C"/>
<path d="M16.2652 18.0039C16.2137 18.0039 16.1719 18.0457 16.1719 18.0973V18.1906C16.1719 18.2421 16.2137 18.2839 16.2652 18.2839C16.3168 18.2839 16.3586 18.2421 16.3586 18.1906V18.0973C16.3586 18.0457 16.3168 18.0039 16.2652 18.0039Z" fill="#60CD8C"/>
<path d="M15.4078 17.7028L15.3418 17.7689C15.3054 17.8053 15.3053 17.8644 15.3418 17.9009C15.3782 17.9373 15.4374 17.9374 15.4738 17.9009L15.5398 17.8349C15.5756 17.7978 15.5746 17.7388 15.5375 17.703C15.5013 17.668 15.444 17.668 15.4078 17.703V17.7028Z" fill="#60CD8C"/>
<path d="M15.1457 16.8838H15.0523C15.0008 16.8838 14.959 16.9256 14.959 16.9772C14.959 17.0287 15.0008 17.0705 15.0523 17.0705H15.1457C15.1972 17.0705 15.239 17.0287 15.239 16.9772C15.239 16.9256 15.1972 16.8838 15.1457 16.8838Z" fill="#60CD8C"/>
<path d="M15.4079 16.2512C15.4449 16.287 15.504 16.286 15.5398 16.2489C15.5747 16.2128 15.5747 16.1554 15.5398 16.1192L15.4738 16.0533C15.4374 16.0168 15.3783 16.0168 15.3418 16.0532C15.3054 16.0896 15.3053 16.1488 15.3418 16.1852L15.4079 16.2512Z" fill="#60CD8C"/>
<path d="M18.7848 15.9505C18.6302 15.9505 18.5048 16.0759 18.5048 16.2305V16.3238H17.7091C17.5496 15.9734 17.2687 15.6924 16.9182 15.533V14.8305C16.9182 14.779 16.8764 14.7372 16.8248 14.7372H16.6382V14.1772H17.7582C17.9128 14.1772 18.0382 14.0518 18.0382 13.8972C18.0382 13.7426 17.9128 13.6172 17.7582 13.6172H14.7715C14.6169 13.6172 14.4915 13.7426 14.4915 13.8972C14.4915 14.0518 14.6169 14.1772 14.7715 14.1772H15.8915V14.7372H15.7048C15.6533 14.7372 15.6115 14.779 15.6115 14.8305V15.533C15.261 15.6924 14.9801 15.9734 14.8206 16.3239H14.0248V16.2305C14.0248 16.0759 13.8995 15.9506 13.7448 15.9506C13.5902 15.9506 13.4648 16.0759 13.4648 16.2305V17.7238C13.4648 17.8785 13.5902 18.0038 13.7448 18.0038C13.8995 18.0038 14.0248 17.8785 14.0248 17.7238V17.6305H14.8206C15.18 18.4282 16.1179 18.7834 16.9156 18.424C17.268 18.2652 17.5503 17.983 17.7091 17.6305H18.5048V17.7238C18.5048 17.8785 18.6302 18.0038 18.7848 18.0038C18.9395 18.0038 19.0648 17.8785 19.0648 17.7238V16.2305C19.0648 16.0759 18.9395 15.9505 18.7848 15.9505ZM14.6782 13.8972C14.6782 13.8456 14.72 13.8038 14.7715 13.8038H17.7582C17.8097 13.8038 17.8515 13.8456 17.8515 13.8972C17.8515 13.9487 17.8097 13.9905 17.7582 13.9905H14.7715C14.72 13.9905 14.6782 13.9487 14.6782 13.8972ZM16.0782 14.1772H16.4515V14.7372H16.0782V14.1772ZM15.7982 14.9238H16.7315V15.4608C16.4275 15.3671 16.1022 15.3671 15.7982 15.4608V14.9238ZM13.8382 17.7238C13.8382 17.7754 13.7964 17.8172 13.7448 17.8172C13.6933 17.8172 13.6515 17.7754 13.6515 17.7238V16.2305C13.6515 16.179 13.6933 16.1372 13.7448 16.1372C13.7964 16.1372 13.8382 16.179 13.8382 16.2305V17.7238ZM14.0248 17.4439V16.5105H14.7485C14.6548 16.8146 14.6548 17.1398 14.7485 17.4439H14.0248ZM16.2648 18.3772C15.4917 18.3772 14.8648 17.7504 14.8648 16.9772C14.8648 16.204 15.4917 15.5772 16.2648 15.5772C17.038 15.5772 17.6648 16.204 17.6648 16.9772C17.664 17.75 17.0377 18.3763 16.2648 18.3772ZM17.7812 17.4439C17.8749 17.1398 17.8749 16.8146 17.7812 16.5105H18.5048V17.4439H17.7812ZM18.8782 17.7238C18.8782 17.7754 18.8364 17.8172 18.7848 17.8172C18.7333 17.8172 18.6915 17.7754 18.6915 17.7238V16.2305C18.6915 16.179 18.7333 16.1372 18.7848 16.1372C18.8364 16.1372 18.8782 16.179 18.8782 16.2305V17.7238Z" fill="#60CD8C"/>
<path d="M4.2727 14.6567C3.90311 14.6567 3.60352 14.9563 3.60352 15.3259C3.60352 15.6955 3.90311 15.9951 4.2727 15.9951C4.64229 15.9951 4.94189 15.6955 4.94189 15.3259C4.9415 14.9565 4.64212 14.6571 4.2727 14.6567ZM4.2727 15.8613C3.97703 15.8613 3.73735 15.6216 3.73735 15.3259C3.73735 15.0302 3.97703 14.7906 4.2727 14.7906C4.56838 14.7906 4.80806 15.0302 4.80806 15.3259C4.80772 15.6214 4.56823 15.861 4.2727 15.8613Z" fill="#60CD8C"/>
<path d="M4.27396 14.5899C4.31092 14.5899 4.34089 14.5599 4.34089 14.523V14.4561C4.34089 14.4191 4.31092 14.3892 4.27396 14.3892C4.237 14.3892 4.20703 14.4191 4.20703 14.4561V14.523C4.20703 14.5599 4.237 14.5899 4.27396 14.5899Z" fill="#60CD8C"/>
<path d="M4.84118 14.6638L4.79385 14.7111C4.76729 14.7368 4.76655 14.7792 4.79221 14.8057C4.81789 14.8323 4.86027 14.833 4.88686 14.8074C4.8874 14.8069 4.88796 14.8063 4.88847 14.8057L4.9358 14.7584C4.96148 14.7318 4.96075 14.6895 4.93416 14.6638C4.90823 14.6388 4.8671 14.6388 4.84118 14.6638Z" fill="#60CD8C"/>
<path d="M5.1436 15.2593H5.07667C5.03971 15.2593 5.00977 15.2893 5.00977 15.3262C5.00977 15.3632 5.03971 15.3932 5.07667 15.3932H5.1436C5.18053 15.3932 5.2105 15.3632 5.2105 15.3262C5.2105 15.2893 5.18053 15.2593 5.1436 15.2593Z" fill="#60CD8C"/>
<path d="M4.88878 15.8469C4.86221 15.8212 4.81982 15.822 4.79416 15.8486C4.76914 15.8745 4.76914 15.9156 4.79416 15.9415L4.84148 15.9889C4.8676 16.015 4.90998 16.015 4.93613 15.9889C4.96228 15.9628 4.9623 15.9204 4.93618 15.8942L4.88878 15.8469Z" fill="#60CD8C"/>
<path d="M4.27396 16.0625C4.237 16.0625 4.20703 16.0925 4.20703 16.1294V16.1963C4.20703 16.2333 4.237 16.2633 4.27396 16.2633C4.31092 16.2633 4.34089 16.2333 4.34089 16.1963V16.1294C4.34089 16.0925 4.31092 16.0625 4.27396 16.0625Z" fill="#60CD8C"/>
<path d="M3.65874 15.8468L3.61142 15.8942C3.58527 15.9203 3.58525 15.9627 3.6114 15.9888C3.63752 16.0149 3.67992 16.015 3.70604 15.9889L3.75337 15.9415C3.77905 15.9149 3.77831 15.8726 3.75172 15.8469C3.72579 15.8219 3.68467 15.8219 3.65874 15.8469V15.8468Z" fill="#60CD8C"/>
<path d="M3.46979 15.2593H3.40287C3.36588 15.2593 3.33594 15.2893 3.33594 15.3262C3.33594 15.3632 3.36588 15.3932 3.40287 15.3932H3.46979C3.50675 15.3932 3.5367 15.3632 3.5367 15.3262C3.5367 15.2893 3.50675 15.2593 3.46979 15.2593Z" fill="#60CD8C"/>
<path d="M3.65877 14.8056C3.68534 14.8313 3.72773 14.8305 3.75339 14.804C3.77842 14.778 3.77842 14.7369 3.75339 14.711L3.70607 14.6637C3.67995 14.6375 3.63757 14.6375 3.61142 14.6636C3.58527 14.6898 3.58525 14.7322 3.61137 14.7583L3.65877 14.8056Z" fill="#60CD8C"/>
<path d="M6.08009 14.59C5.96922 14.59 5.87933 14.6799 5.87933 14.7908V14.8577H5.30876C5.19443 14.6064 4.99298 14.4049 4.74169 14.2906V13.787C4.74169 13.75 4.71172 13.72 4.67476 13.72H4.5409V13.3185H5.34395C5.45484 13.3185 5.54471 13.2286 5.54471 13.1178C5.54471 13.0069 5.45484 12.917 5.34395 12.917H3.2025C3.09163 12.917 3.00177 13.0069 3.00177 13.1178C3.00177 13.2286 3.09163 13.3185 3.2025 13.3185H4.00557V13.72H3.87172C3.83476 13.72 3.80479 13.75 3.80479 13.787V14.2906C3.55347 14.4049 3.35204 14.6064 3.2377 14.8577H2.66715V14.7908C2.66715 14.6799 2.57726 14.59 2.46639 14.59C2.35552 14.59 2.26562 14.6799 2.26562 14.7908V15.8615C2.26562 15.9724 2.35552 16.0622 2.46639 16.0622C2.57726 16.0622 2.66715 15.9724 2.66715 15.8615V15.7946H3.23772C3.49539 16.3665 4.16788 16.6212 4.7398 16.3635C4.99252 16.2497 5.1949 16.0473 5.30876 15.7946H5.87933V15.8615C5.87933 15.9724 5.96922 16.0622 6.08009 16.0622C6.19096 16.0622 6.28085 15.9724 6.28085 15.8615V14.7908C6.28085 14.6799 6.19096 14.59 6.08009 14.59ZM3.1356 13.1178C3.1356 13.0808 3.16555 13.0508 3.2025 13.0508H5.34395C5.38093 13.0508 5.41088 13.0808 5.41088 13.1178C5.41088 13.1547 5.38093 13.1847 5.34395 13.1847H3.2025C3.16555 13.1847 3.1356 13.1547 3.1356 13.1178ZM4.13941 13.3185H4.40707V13.72H4.13941V13.3185ZM3.93862 13.8539H4.60786V14.2389C4.38984 14.1717 4.15663 14.1717 3.93862 14.2389V13.8539ZM2.53329 15.8615C2.53329 15.8985 2.50334 15.9284 2.46639 15.9284C2.42943 15.9284 2.39946 15.8985 2.39946 15.8615V14.7908C2.39946 14.7538 2.42943 14.7238 2.46639 14.7238C2.50334 14.7238 2.53329 14.7538 2.53329 14.7908V15.8615ZM2.66715 15.6607V14.9915H3.18599C3.11881 15.2095 3.11881 15.4427 3.18599 15.6607H2.66715ZM4.27324 16.3299C3.71887 16.3299 3.26943 15.8805 3.26943 15.3261C3.26943 14.7717 3.71887 14.3223 4.27324 14.3223C4.82761 14.3223 5.27705 14.7717 5.27705 15.3261C5.27643 15.8803 4.82737 16.3293 4.27324 16.3299ZM5.36049 15.6607C5.42767 15.4427 5.42767 15.2095 5.36049 14.9915H5.87933V15.6607H5.36049ZM6.14702 15.8615C6.14702 15.8985 6.11705 15.9284 6.08009 15.9284C6.04313 15.9284 6.01319 15.8985 6.01319 15.8615V14.7908C6.01319 14.7538 6.04313 14.7238 6.08009 14.7238C6.11705 14.7238 6.14702 14.7538 6.14702 14.7908V15.8615Z" fill="#60CD8C"/>
</g>
<defs>
<clipPath id="clip0">
<rect width="21" height="21" fill="white" transform="translate(0.166016 0.316895)"/>
</clipPath>
</defs>
</svg>
