<svg width="22" height="22" viewBox="0 0 22 22" fill="none" xmlns="http://www.w3.org/2000/svg">
<path fill-rule="evenodd" clip-rule="evenodd" d="M10.6652 17.6655C10.6192 17.6655 10.5732 17.6549 10.5314 17.6339L1.03882 12.9751C0.886187 12.9014 0.823475 12.714 0.896656 12.5604C0.969836 12.4067 1.15173 12.3414 1.30437 12.4151L10.6652 17.0086L20.0261 12.4172C20.1787 12.3414 20.3606 12.4067 20.4338 12.5604C20.5091 12.714 20.4443 12.9014 20.2916 12.9751L10.799 17.6339C10.7572 17.6549 10.7112 17.6655 10.6652 17.6655Z" fill="#60CD8C"/>
<path fill-rule="evenodd" clip-rule="evenodd" d="M10.6652 19.217C10.6192 19.217 10.5732 19.2064 10.5314 19.1875L1.03882 14.5287C0.886187 14.4529 0.823475 14.2677 0.896656 14.114C0.969836 13.9603 1.15173 13.895 1.30437 13.9687L10.6652 18.5623L20.0261 13.9687C20.1787 13.895 20.3606 13.9603 20.4338 14.114C20.5091 14.2677 20.4443 14.4529 20.2916 14.5287L10.799 19.1875C10.7572 19.2064 10.7112 19.217 10.6652 19.217Z" fill="#60CD8C"/>
<path fill-rule="evenodd" clip-rule="evenodd" d="M1.17259 14.5603C1.00323 14.5603 0.865234 14.4214 0.865234 14.2487V12.6951C0.865234 12.5246 1.00323 12.3856 1.17259 12.3856C1.34195 12.3856 1.47787 12.5246 1.47787 12.6951V14.2487C1.47787 14.4214 1.34195 14.5603 1.17259 14.5603Z" fill="#60CD8C"/>
<path fill-rule="evenodd" clip-rule="evenodd" d="M20.1578 14.5603C19.9885 14.5603 19.8525 14.4214 19.8525 14.2487V12.6951C19.8525 12.5246 19.9885 12.3856 20.1578 12.3856C20.3272 12.3856 20.4652 12.5246 20.4652 12.6951V14.2487C20.4652 14.4214 20.3272 14.5603 20.1578 14.5603Z" fill="#60CD8C"/>
<path fill-rule="evenodd" clip-rule="evenodd" d="M10.6652 19.217C10.4959 19.217 10.36 19.078 10.36 18.9075V17.3539C10.36 17.1834 10.4959 17.0444 10.6653 17.0444C10.8346 17.0444 10.9705 17.1834 10.9705 17.3539V18.9075C10.9705 19.078 10.8346 19.217 10.6652 19.217Z" fill="#60CD8C"/>
<path fill-rule="evenodd" clip-rule="evenodd" d="M13.7368 16.9395C13.5673 16.9395 13.4292 16.8005 13.4292 16.6278C13.4292 16.4571 13.5652 16.3181 13.7326 16.3181H13.7368C13.9062 16.3181 14.0443 16.4571 14.0443 16.6278C14.0443 16.8005 13.9062 16.9395 13.7368 16.9395Z" fill="#60CD8C"/>
<path fill-rule="evenodd" clip-rule="evenodd" d="M18.3304 14.6849C18.1609 14.6849 18.0228 14.5458 18.0228 14.3731C18.0228 14.2025 18.1588 14.0635 18.3262 14.0635H18.3304C18.4998 14.0635 18.6358 14.2025 18.6358 14.3731C18.6358 14.5458 18.4998 14.6849 18.3304 14.6849Z" fill="#60CD8C"/>
<path fill-rule="evenodd" clip-rule="evenodd" d="M16.8 15.4364C16.6305 15.4364 16.4924 15.2974 16.4924 15.1247C16.4924 14.954 16.6263 14.815 16.7958 14.815H16.8C16.9673 14.815 17.1054 14.954 17.1054 15.1247C17.1054 15.2974 16.9673 15.4364 16.8 15.4364Z" fill="#60CD8C"/>
<path fill-rule="evenodd" clip-rule="evenodd" d="M15.2674 16.188C15.0979 16.188 14.9598 16.049 14.9598 15.8762C14.9598 15.7056 15.0958 15.5666 15.2653 15.5666H15.2674C15.4369 15.5666 15.5749 15.7056 15.5749 15.8762C15.5749 16.049 15.4369 16.188 15.2674 16.188Z" fill="#60CD8C"/>
<path fill-rule="evenodd" clip-rule="evenodd" d="M12.2064 17.6911C12.0369 17.6911 11.8988 17.5521 11.8988 17.3793C11.8988 17.2087 12.0327 17.0697 12.2022 17.0697H12.2064C12.3758 17.0697 12.5118 17.2087 12.5118 17.3793C12.5118 17.5521 12.3758 17.6911 12.2064 17.6911Z" fill="#60CD8C"/>
<path fill-rule="evenodd" clip-rule="evenodd" d="M7.61269 16.9395C7.44323 16.9395 7.30306 16.8005 7.30306 16.6278C7.30306 16.4571 7.43904 16.3181 7.60851 16.3181H7.61269C7.78216 16.3181 7.91814 16.4571 7.91814 16.6278C7.91814 16.8005 7.78216 16.9395 7.61269 16.9395Z" fill="#60CD8C"/>
<path fill-rule="evenodd" clip-rule="evenodd" d="M3.01894 14.6849C2.84947 14.6849 2.71137 14.5458 2.71137 14.3731C2.71137 14.2025 2.84528 14.0635 3.01475 14.0635H3.01894C3.1884 14.0635 3.32439 14.2025 3.32439 14.3731C3.32439 14.5458 3.1884 14.6849 3.01894 14.6849Z" fill="#60CD8C"/>
<path fill-rule="evenodd" clip-rule="evenodd" d="M4.54961 15.4364C4.38015 15.4364 4.24207 15.2974 4.24207 15.1247C4.24207 14.954 4.37805 14.815 4.54543 14.815H4.54961C4.71908 14.815 4.85716 14.954 4.85716 15.1247C4.85716 15.2974 4.71908 15.4364 4.54961 15.4364Z" fill="#60CD8C"/>
<path fill-rule="evenodd" clip-rule="evenodd" d="M6.07993 16.188C5.91046 16.188 5.77238 16.049 5.77238 15.8762C5.77238 15.7056 5.90839 15.5666 6.07786 15.5666H6.07993C6.24939 15.5666 6.3875 15.7056 6.3875 15.8762C6.3875 16.049 6.24939 16.188 6.07993 16.188Z" fill="#60CD8C"/>
<path fill-rule="evenodd" clip-rule="evenodd" d="M9.14314 17.6911C8.97367 17.6911 8.83559 17.5521 8.83559 17.3793C8.83559 17.2087 8.97158 17.0697 9.14104 17.0697H9.14314C9.3126 17.0697 9.44861 17.2087 9.44861 17.3793C9.44861 17.5521 9.3126 17.6911 9.14314 17.6911Z" fill="#60CD8C"/>
<path fill-rule="evenodd" clip-rule="evenodd" d="M6.3411 10.4699C6.2282 10.4699 6.11739 10.4046 6.06512 10.2952C5.99194 10.1415 6.05677 9.95412 6.20731 9.88044L7.46809 9.2615C7.62281 9.18782 7.80474 9.25099 7.87792 9.40677C7.9511 9.56045 7.88836 9.7457 7.73573 9.82149L6.47492 10.4383C6.43102 10.4593 6.38501 10.4699 6.3411 10.4699Z" fill="#60CD8C"/>
<path fill-rule="evenodd" clip-rule="evenodd" d="M1.17264 13.0067C1.05973 13.0067 0.948928 12.9414 0.896656 12.8319C0.823475 12.6761 0.886187 12.4909 1.03882 12.4172L4.52851 10.7036C4.68323 10.6299 4.86513 10.6951 4.93831 10.8488C5.01149 11.0025 4.94878 11.1899 4.79615 11.2635L1.30646 12.9751C1.26255 12.9961 1.21655 13.0067 1.17264 13.0067Z" fill="#60CD8C"/>
<path fill-rule="evenodd" clip-rule="evenodd" d="M14.987 10.4699C14.943 10.4699 14.897 10.4594 14.8552 10.4383L13.5944 9.81939C13.4418 9.74571 13.3791 9.56046 13.4522 9.40468C13.5254 9.251 13.7094 9.18572 13.8621 9.26151L15.1208 9.87834C15.2734 9.95413 15.3361 10.1394 15.2629 10.2931C15.2107 10.4046 15.102 10.4699 14.987 10.4699Z" fill="#60CD8C"/>
<path fill-rule="evenodd" clip-rule="evenodd" d="M20.1577 13.0066C20.1138 13.0066 20.0678 12.9961 20.026 12.9751L16.5342 11.2635C16.3815 11.1877 16.3188 11.0025 16.392 10.8467C16.4652 10.693 16.6492 10.6299 16.8018 10.7035L20.2915 12.4151C20.4441 12.4909 20.5089 12.6761 20.4337 12.8319C20.3814 12.9414 20.2727 13.0066 20.1577 13.0066Z" fill="#60CD8C"/>
<path fill-rule="evenodd" clip-rule="evenodd" d="M15.8715 11.7625C15.1962 11.7625 14.6463 11.2067 14.6463 10.5204C14.6463 10.1667 14.9996 8.03418 15.8715 8.03418C16.7434 8.03418 17.0968 10.1667 17.0968 10.5204C17.0968 11.2067 16.5469 11.7625 15.8715 11.7625ZM15.8715 8.66363C15.629 8.8131 15.2589 10.0088 15.2589 10.5204C15.2589 10.8636 15.5328 11.1415 15.8715 11.1415C16.2082 11.1415 16.4841 10.8636 16.4841 10.5204C16.4841 10.0088 16.1141 8.8131 15.8715 8.66363Z" fill="#60CD8C"/>
<path fill-rule="evenodd" clip-rule="evenodd" d="M15.8714 13.0045C15.702 13.0045 15.564 12.8656 15.564 12.693V10.5204C15.564 10.3499 15.702 10.2109 15.8714 10.2109C16.0407 10.2109 16.1766 10.3499 16.1766 10.5204V12.693C16.1766 12.8656 16.0407 13.0045 15.8714 13.0045Z" fill="#60CD8C"/>
<path fill-rule="evenodd" clip-rule="evenodd" d="M5.45901 11.7625C4.78365 11.7625 4.23376 11.2067 4.23376 10.5204C4.23376 10.1667 4.58711 8.03418 5.45901 8.03418C6.3309 8.03418 6.68426 10.1667 6.68426 10.5204C6.68426 11.2067 6.13436 11.7625 5.45901 11.7625ZM5.45901 8.66363C5.21647 8.8131 4.84639 10.0088 4.84639 10.5204C4.84639 10.8636 5.12238 11.1415 5.45901 11.1415C5.79773 11.1415 6.07165 10.8636 6.07165 10.5204C6.07165 10.0088 5.70155 8.8131 5.45901 8.66363Z" fill="#60CD8C"/>
<path fill-rule="evenodd" clip-rule="evenodd" d="M5.45871 13.0045C5.28935 13.0045 5.15345 12.8656 5.15345 12.693V10.5204C5.15345 10.3499 5.28935 10.2109 5.45871 10.2109C5.62807 10.2109 5.76607 10.3499 5.76607 10.5204V12.693C5.76607 12.8656 5.62807 13.0045 5.45871 13.0045Z" fill="#60CD8C"/>
<path d="M13.9103 7.85758C13.9103 9.64951 12.4576 11.1022 10.6657 11.1022C8.87375 11.1022 7.42109 9.64951 7.42109 7.85758C7.42109 6.06564 8.87375 4.61299 10.6657 4.61299C12.4576 4.61299 13.9103 6.06564 13.9103 7.85758Z" stroke="#60CD8C" stroke-width="0.6"/>
<path d="M10.7012 8.10596H10.4012V8.58712L10.8332 8.37534L10.7012 8.10596ZM12.3359 7.63876C12.4846 7.56583 12.5461 7.38611 12.4732 7.23734C12.4003 7.08856 12.2206 7.02708 12.0718 7.1L12.3359 7.63876ZM11.0012 5.97754C11.0012 5.81185 10.8669 5.67754 10.7012 5.67754C10.5355 5.67754 10.4012 5.81185 10.4012 5.97754H11.0012ZM10.4012 6.13192V8.10596H11.0012V6.13192H10.4012ZM10.8332 8.37534L12.3359 7.63876L12.0718 7.1L10.5691 7.83659L10.8332 8.37534ZM11.0012 6.13192V5.97754H10.4012V6.13192H11.0012Z" fill="#60CD8C"/>
</svg>
