<svg width="22" height="22" viewBox="0 0 22 22" fill="none" xmlns="http://www.w3.org/2000/svg">
<path fill-rule="evenodd" clip-rule="evenodd" d="M10.747 15.1189C10.6992 15.1189 10.6515 15.108 10.6081 15.0863L0.754454 10.2832C0.596015 10.2073 0.530918 10.0141 0.606882 9.85566C0.682846 9.69722 0.87166 9.62992 1.0301 9.70588L10.747 14.4417L20.4639 9.70806C20.6223 9.62992 20.8111 9.69722 20.8871 9.85566C20.9652 10.0141 20.898 10.2073 20.7395 10.2832L10.8859 15.0863C10.8425 15.108 10.7947 15.1189 10.747 15.1189Z" fill="#60CD8C"/>
<path fill-rule="evenodd" clip-rule="evenodd" d="M10.747 16.7185C10.6992 16.7185 10.6515 16.7076 10.6081 16.6881L0.754454 11.885C0.596015 11.8068 0.530918 11.6159 0.606882 11.4574C0.682846 11.299 0.87166 11.2317 1.0301 11.3076L10.747 16.0435L20.4639 11.3076C20.6223 11.2317 20.8111 11.299 20.8871 11.4574C20.9652 11.6159 20.898 11.8068 20.7395 11.885L10.8859 16.6881C10.8425 16.7076 10.7947 16.7185 10.747 16.7185Z" fill="#60CD8C"/>
<path fill-rule="evenodd" clip-rule="evenodd" d="M0.893262 11.9175C0.717459 11.9175 0.574219 11.7743 0.574219 11.5963V9.99457C0.574219 9.81877 0.717459 9.6755 0.893262 9.6755C1.06906 9.6755 1.21016 9.81877 1.21016 9.99457V11.5963C1.21016 11.7743 1.06906 11.9175 0.893262 11.9175Z" fill="#60CD8C"/>
<path fill-rule="evenodd" clip-rule="evenodd" d="M20.6006 11.9175C20.4248 11.9175 20.2837 11.7743 20.2837 11.5963V9.99457C20.2837 9.81877 20.4248 9.6755 20.6006 9.6755C20.7764 9.6755 20.9196 9.81877 20.9196 9.99457V11.5963C20.9196 11.7743 20.7764 11.9175 20.6006 11.9175Z" fill="#60CD8C"/>
<path fill-rule="evenodd" clip-rule="evenodd" d="M10.747 16.7185C10.5712 16.7185 10.4301 16.5752 10.4301 16.3994V14.7977C10.4301 14.6219 10.5712 14.4786 10.747 14.4786C10.9228 14.4786 11.0638 14.6219 11.0638 14.7977V16.3994C11.0638 16.5752 10.9228 16.7185 10.747 16.7185Z" fill="#60CD8C"/>
<path fill-rule="evenodd" clip-rule="evenodd" d="M13.9351 14.3701C13.7593 14.3701 13.616 14.2268 13.616 14.0489C13.616 13.8731 13.7571 13.7298 13.9308 13.7298H13.9351C14.1109 13.7298 14.2542 13.8731 14.2542 14.0489C14.2542 14.2268 14.1109 14.3701 13.9351 14.3701Z" fill="#60CD8C"/>
<path fill-rule="evenodd" clip-rule="evenodd" d="M18.7034 12.0456C18.5276 12.0456 18.3843 11.9023 18.3843 11.7244C18.3843 11.5486 18.5254 11.4053 18.6991 11.4053H18.7034C18.8792 11.4053 19.0203 11.5486 19.0203 11.7244C19.0203 11.9023 18.8792 12.0456 18.7034 12.0456Z" fill="#60CD8C"/>
<path fill-rule="evenodd" clip-rule="evenodd" d="M17.1148 12.8204C16.939 12.8204 16.7958 12.6772 16.7958 12.4992C16.7958 12.3234 16.9347 12.1802 17.1105 12.1802H17.1148C17.2885 12.1802 17.4317 12.3234 17.4317 12.4992C17.4317 12.6772 17.2885 12.8204 17.1148 12.8204Z" fill="#60CD8C"/>
<path fill-rule="evenodd" clip-rule="evenodd" d="M15.524 13.5953C15.3482 13.5953 15.2049 13.452 15.2049 13.274C15.2049 13.0982 15.346 12.955 15.5218 12.955H15.524C15.6998 12.955 15.843 13.0982 15.843 13.274C15.843 13.452 15.6998 13.5953 15.524 13.5953Z" fill="#60CD8C"/>
<path fill-rule="evenodd" clip-rule="evenodd" d="M12.3465 15.1449C12.1707 15.1449 12.0275 15.0017 12.0275 14.8237C12.0275 14.6479 12.1664 14.5046 12.3422 14.5046H12.3465C12.5223 14.5046 12.6634 14.6479 12.6634 14.8237C12.6634 15.0017 12.5223 15.1449 12.3465 15.1449Z" fill="#60CD8C"/>
<path fill-rule="evenodd" clip-rule="evenodd" d="M7.57811 14.3701C7.40231 14.3701 7.2569 14.2268 7.2569 14.0489C7.2569 13.8731 7.39797 13.7298 7.57377 13.7298H7.57811C7.75392 13.7298 7.89498 13.8731 7.89498 14.0489C7.89498 14.2268 7.75392 14.3701 7.57811 14.3701Z" fill="#60CD8C"/>
<path fill-rule="evenodd" clip-rule="evenodd" d="M2.80963 12.0456C2.63383 12.0456 2.49056 11.9023 2.49056 11.7244C2.49056 11.5486 2.62948 11.4053 2.80528 11.4053H2.80963C2.98543 11.4053 3.1265 11.5486 3.1265 11.7244C3.1265 11.9023 2.98543 12.0456 2.80963 12.0456Z" fill="#60CD8C"/>
<path fill-rule="evenodd" clip-rule="evenodd" d="M4.39849 12.8204C4.22269 12.8204 4.07945 12.6772 4.07945 12.4992C4.07945 12.3234 4.22051 12.1802 4.39414 12.1802H4.39849C4.57429 12.1802 4.71753 12.3234 4.71753 12.4992C4.71753 12.6772 4.57429 12.8204 4.39849 12.8204Z" fill="#60CD8C"/>
<path fill-rule="evenodd" clip-rule="evenodd" d="M5.98705 13.5953C5.81125 13.5953 5.66801 13.452 5.66801 13.274C5.66801 13.0982 5.8091 12.955 5.98491 12.955H5.98705C6.16285 12.955 6.30612 13.0982 6.30612 13.274C6.30612 13.452 6.16285 13.5953 5.98705 13.5953Z" fill="#60CD8C"/>
<path fill-rule="evenodd" clip-rule="evenodd" d="M9.16679 15.1449C8.99099 15.1449 8.84775 15.0017 8.84775 14.8237C8.84775 14.6479 8.98881 14.5046 9.16462 14.5046H9.16679C9.34259 14.5046 9.48369 14.6479 9.48369 14.8237C9.48369 15.0017 9.34259 15.1449 9.16679 15.1449Z" fill="#60CD8C"/>
<path fill-rule="evenodd" clip-rule="evenodd" d="M6.25835 7.70043C6.14115 7.70043 6.02612 7.63316 5.97187 7.5203C5.8959 7.36186 5.9632 7.1687 6.11946 7.09274L7.4282 6.45463C7.58881 6.37866 7.77765 6.44379 7.85361 6.6044C7.92958 6.76284 7.86445 6.95383 7.70601 7.03196L6.39726 7.66787C6.35168 7.68958 6.30393 7.70043 6.25835 7.70043Z" fill="#60CD8C"/>
<path fill-rule="evenodd" clip-rule="evenodd" d="M0.893363 10.3158C0.776162 10.3158 0.661142 10.2485 0.606882 10.1356C0.530918 9.97501 0.596015 9.78402 0.754454 9.70806L4.37687 7.94135C4.53748 7.86538 4.7263 7.93268 4.80226 8.09112C4.87822 8.24956 4.81313 8.44272 4.65469 8.51868L1.03227 10.2832C0.986694 10.3049 0.938942 10.3158 0.893363 10.3158Z" fill="#60CD8C"/>
<path fill-rule="evenodd" clip-rule="evenodd" d="M15.233 7.70045C15.1874 7.70045 15.1396 7.68959 15.0962 7.66789L13.7875 7.0298C13.629 6.95384 13.5639 6.76285 13.6399 6.60224C13.7158 6.4438 13.9069 6.37651 14.0653 6.45464L15.3719 7.09058C15.5303 7.16872 15.5954 7.35971 15.5195 7.51814C15.4652 7.63318 15.3523 7.70045 15.233 7.70045Z" fill="#60CD8C"/>
<path fill-rule="evenodd" clip-rule="evenodd" d="M20.6004 10.3158C20.5548 10.3158 20.5071 10.3049 20.4637 10.2832L16.8391 8.51868C16.6807 8.44054 16.6156 8.24955 16.6915 8.08894C16.7675 7.9305 16.9585 7.86538 17.1169 7.94134L20.7393 9.70588C20.8978 9.78402 20.965 9.97501 20.8869 10.1356C20.8326 10.2485 20.7198 10.3158 20.6004 10.3158Z" fill="#60CD8C"/>
<path fill-rule="evenodd" clip-rule="evenodd" d="M16.1513 9.03307C15.4503 9.03307 14.8794 8.46008 14.8794 7.75253C14.8794 7.3879 15.2462 5.1893 16.1513 5.1893C17.0564 5.1893 17.4232 7.3879 17.4232 7.75253C17.4232 8.46008 16.8523 9.03307 16.1513 9.03307ZM16.1513 5.83825C15.8995 5.99234 15.5154 7.22512 15.5154 7.75253C15.5154 8.1063 15.7997 8.39281 16.1513 8.39281C16.5007 8.39281 16.7872 8.1063 16.7872 7.75253C16.7872 7.22512 16.4031 5.99234 16.1513 5.83825Z" fill="#60CD8C"/>
<path fill-rule="evenodd" clip-rule="evenodd" d="M16.1511 10.3136C15.9753 10.3136 15.8321 10.1704 15.8321 9.9924V7.75253C15.8321 7.57673 15.9753 7.43349 16.1511 7.43349C16.3269 7.43349 16.468 7.57673 16.468 7.75253V9.9924C16.468 10.1704 16.3269 10.3136 16.1511 10.3136Z" fill="#60CD8C"/>
<path fill-rule="evenodd" clip-rule="evenodd" d="M5.3428 9.03307C4.64176 9.03307 4.07095 8.46008 4.07095 7.75253C4.07095 7.3879 4.43775 5.1893 5.3428 5.1893C6.24786 5.1893 6.61466 7.3879 6.61466 7.75253C6.61466 8.46008 6.04384 9.03307 5.3428 9.03307ZM5.3428 5.83825C5.09104 5.99234 4.70689 7.22512 4.70689 7.75253C4.70689 8.1063 4.99337 8.39281 5.3428 8.39281C5.69441 8.39281 5.97874 8.1063 5.97874 7.75253C5.97874 7.22512 5.59457 5.99234 5.3428 5.83825Z" fill="#60CD8C"/>
<path fill-rule="evenodd" clip-rule="evenodd" d="M5.3424 10.3136C5.16659 10.3136 5.02553 10.1704 5.02553 9.9924V7.75253C5.02553 7.57673 5.16659 7.43349 5.3424 7.43349C5.5182 7.43349 5.66144 7.57673 5.66144 7.75253V9.9924C5.66144 10.1704 5.5182 10.3136 5.3424 10.3136Z" fill="#60CD8C"/>
<path fill-rule="evenodd" clip-rule="evenodd" d="M10.7446 4.82031C10.7923 4.82031 10.8423 4.83117 10.8857 4.85505L14.0653 6.4568C14.2216 6.53494 14.2867 6.7281 14.2064 6.88654C14.1282 7.04281 13.9373 7.10793 13.781 7.02979L10.7446 5.49965L7.7082 7.02979C7.54976 7.10793 7.35878 7.04281 7.28064 6.88654C7.20251 6.7281 7.26545 6.53494 7.42172 6.4568L10.6013 4.85505C10.6469 4.83117 10.6947 4.82031 10.7446 4.82031Z" fill="#60CD8C"/>
</svg>
