<svg width="22" height="22" viewBox="0 0 22 22" fill="none" xmlns="http://www.w3.org/2000/svg">
<g clip-path="url(#clip0)">
<path d="M2.7731 7.44688C2.48257 7.42472 2.19594 7.52463 1.98215 7.72259C1.76835 7.92055 1.64672 8.19865 1.6465 8.49003V8.83774C1.64863 9.37994 2.06513 9.83041 2.6055 9.87498C2.76776 9.8875 2.92794 9.90407 3.08604 9.9247L3.06552 10.5262C3.06233 10.6184 3.0959 10.7081 3.15882 10.7755C3.22175 10.8429 3.30889 10.8826 3.40107 10.8858H3.41324C3.60075 10.8859 3.75458 10.7373 3.76096 10.5499L3.77834 10.0412C4.57513 10.2016 5.34876 10.4609 6.08126 10.8131L5.84134 11.4602C5.80918 11.5467 5.8127 11.6424 5.85111 11.7262C5.88952 11.8101 5.95968 11.8752 6.04614 11.9074C6.13264 11.9395 6.22837 11.936 6.31224 11.8975C6.39611 11.859 6.46125 11.7888 6.49331 11.7022L6.70194 11.1393C7.43045 11.5562 8.10349 12.0634 8.70513 12.6487L8.33203 13.0973C8.20912 13.2449 8.22921 13.4643 8.37688 13.5872C8.52456 13.7101 8.74391 13.69 8.86682 13.5423L9.1895 13.1543C10.6197 14.7439 11.497 16.7537 11.6903 18.8832H11.0348C10.8428 18.8832 10.6871 19.0389 10.6871 19.231C10.6871 19.423 10.8428 19.5787 11.0348 19.5787H11.7261C11.7261 19.6367 11.7303 19.6941 11.7303 19.7525V20.2741C11.7303 20.8502 12.1973 21.3173 12.7734 21.3173H13.1211C13.6972 21.3173 14.1643 20.8502 14.1643 20.2741V19.7525C14.1643 19.6941 14.1608 19.6367 14.1601 19.5787H17.985C17.985 19.6367 17.9891 19.6941 17.9891 19.7525V20.2741C17.9891 20.8502 18.4562 21.3173 19.0323 21.3173H19.38C19.9561 21.3173 20.4232 20.8502 20.4232 20.2741V19.7525C20.4232 19.6941 20.4193 19.6367 20.419 19.5787H21.1186C21.3106 19.5787 21.4663 19.423 21.4663 19.231C21.4663 19.0389 21.3106 18.8832 21.1186 18.8832H20.4232V15.4061H21.1186C21.3106 15.4061 21.4663 15.2504 21.4663 15.0584C21.4663 14.8663 21.3106 14.7107 21.1186 14.7107H20.4232V11.2335H21.1186C21.3106 11.2335 21.4663 11.0778 21.4663 10.8858C21.4663 10.6937 21.3106 10.5381 21.1186 10.5381H20.4232V7.06091H21.1186C21.3106 7.06091 21.4663 6.90524 21.4663 6.7132C21.4663 6.52116 21.3106 6.36548 21.1186 6.36548H20.4232V2.88833H21.1186C21.3106 2.88833 21.4663 2.73265 21.4663 2.54061C21.4663 2.34857 21.3106 2.1929 21.1186 2.1929H20.4232V1.49747C20.4232 0.921351 19.9561 0.454319 19.38 0.454319H19.0323C18.4562 0.454319 17.9891 0.921351 17.9891 1.49747V2.1929H14.1643V1.49747C14.1643 0.921351 13.6972 0.454319 13.1211 0.454319H12.7734C12.1973 0.454319 11.7303 0.921351 11.7303 1.49747V2.1929H11.0348C10.8428 2.1929 10.6871 2.34857 10.6871 2.54061C10.6871 2.73265 10.8428 2.88833 11.0348 2.88833H11.7303V4.00276C11.0925 3.59979 10.4306 3.23633 9.74828 2.91441L9.97081 2.31355C10.0139 2.19703 9.99159 2.06636 9.91223 1.97076C9.83287 1.87517 9.70854 1.82918 9.58607 1.85011C9.4636 1.87104 9.36161 1.95571 9.3185 2.07224L9.10987 2.63241C7.49958 1.9491 5.80054 1.49756 4.06347 1.29127L4.08051 0.814204C4.08723 0.622166 3.937 0.46104 3.74496 0.454319C3.55292 0.447597 3.3918 0.597826 3.38508 0.789864L3.37012 1.21929C3.16358 1.2026 2.95704 1.18452 2.74841 1.17374C2.46064 1.16063 2.17985 1.26477 1.97022 1.46235C1.76237 1.65854 1.64516 1.93212 1.6465 2.21793V2.56565C1.64428 3.11961 2.07764 3.57761 2.63088 3.60601C2.85237 3.61714 3.07178 3.63522 3.29154 3.65504L3.16497 7.48652C3.03458 7.47226 2.90453 7.45696 2.7731 7.44688ZM13.4688 20.2741C13.4688 20.4661 13.3132 20.6218 13.1211 20.6218H12.7734C12.5814 20.6218 12.4257 20.4661 12.4257 20.2741V19.7525C12.4257 19.581 12.4215 19.4106 12.4132 19.2414C12.4132 19.2376 12.4153 19.2344 12.4153 19.231C12.4153 19.2275 12.4114 19.2171 12.4111 19.2097C12.2756 16.6836 11.2411 14.2892 9.49444 12.4592C9.47205 12.4006 9.42672 12.3536 9.36892 12.3292C8.58811 11.5333 7.68752 10.8645 6.69985 10.3472C6.681 10.3324 6.6606 10.3197 6.639 10.3093C6.63378 10.3093 6.62857 10.3093 6.62335 10.3068C5.38991 9.67251 4.04251 9.29012 2.65974 9.18198C2.48079 9.16654 2.34306 9.01735 2.34193 8.83774V8.49003C2.34212 8.29628 2.49903 8.13922 2.69277 8.13883H2.72024C8.77615 8.62984 13.4472 13.6768 13.4688 19.7525V20.2741ZM11.7303 6.97051V9.02203L10.2657 10.779C9.45315 10.012 8.54086 9.35808 7.55349 8.83496L8.89742 5.21142C9.90007 5.69809 10.8494 6.28762 11.7303 6.97051ZM14.1295 18.8832C13.9221 16.0321 12.7311 13.3413 10.7601 11.2707L11.7303 10.1073V10.8858C11.7303 11.0778 11.8859 11.2335 12.078 11.2335C12.27 11.2335 12.4257 11.0778 12.4257 10.8858V7.53868C12.7882 7.85371 13.136 8.18462 13.4688 8.5314V13.6675C13.4688 13.8595 13.6245 14.0152 13.8166 14.0152C14.0086 14.0152 14.1643 13.8595 14.1643 13.6675V9.30333C15.5109 10.8938 16.5367 12.7301 17.1849 14.7107H14.1643C13.9722 14.7107 13.8166 14.8663 13.8166 15.0584C13.8166 15.2504 13.9722 15.4061 14.1643 15.4061H17.3952C17.7111 16.5409 17.9021 17.7069 17.9648 18.8832H14.1295ZM19.0323 1.14975H19.38C19.572 1.14975 19.7277 1.30543 19.7277 1.49747V14.7079C19.4574 13.7391 19.1085 12.794 18.6846 11.882V1.49747C18.6846 1.30543 18.8403 1.14975 19.0323 1.14975ZM17.9891 10.5419C17.2736 9.28613 16.4143 8.11794 15.4286 7.06091H17.9891V10.5419ZM17.9891 2.88833V6.36548H14.7477C14.5572 6.18154 14.3625 6.00282 14.1643 5.82687V2.88833H17.9891ZM12.4257 1.49747C12.4257 1.30543 12.5814 1.14975 12.7734 1.14975H13.1211C13.3132 1.14975 13.4688 1.30543 13.4688 1.49747V5.23888C13.1312 4.96767 12.7824 4.71036 12.4257 4.46278V1.49747ZM2.34193 2.566V2.21828C2.34159 2.12349 2.38063 2.03282 2.44972 1.96792C2.51585 1.90435 2.60416 1.86905 2.6959 1.86952H2.71433C4.93921 1.97672 7.1244 2.49916 9.15716 3.4099C9.16677 3.41689 9.17688 3.42317 9.18741 3.42868C9.19436 3.43111 9.20167 3.43042 9.20862 3.4325C15.6192 6.33069 19.7357 12.7173 19.7277 19.7525V20.2741C19.7277 20.4661 19.572 20.6218 19.38 20.6218H19.0323C18.8403 20.6218 18.6846 20.4661 18.6846 20.2741V19.7525C18.6953 10.763 11.6438 3.34985 2.66496 2.91128C2.48236 2.90089 2.34015 2.74887 2.34193 2.566ZM3.98419 3.73328C5.45904 3.92882 6.89959 4.32821 8.26457 4.92003L6.9276 8.5248C5.95043 8.07637 4.9181 7.7595 3.85762 7.58249L3.98419 3.73328Z" fill="#60CD8C"/>
</g>
<defs>
<clipPath id="clip0">
<rect width="21" height="21" fill="white" transform="translate(0.990234 0.316895)"/>
</clipPath>
</defs>
</svg>
