<svg width="22" height="22" viewBox="0 0 22 22" fill="none" xmlns="http://www.w3.org/2000/svg">
<g clip-path="url(#clip0)">
<path d="M4.29419 17.1598L3.83381 17.0398L2.91306 16.5598L3.60362 13.4398L2.68287 10.1998L1.30175 7.0798L0.496094 5.9998L4.29419 5.6398L8.09228 5.2798L11.8904 4.7998H14.3073L14.5375 5.0398C14.5375 5.1598 14.5836 5.4478 14.7677 5.6398C14.9979 5.8798 14.5375 5.9998 14.5375 6.2398C14.5375 6.4798 14.3073 6.4798 14.3073 6.5998C14.3073 6.7198 14.3073 7.1998 14.3073 7.4398C14.3073 7.6798 14.7677 8.0398 14.7677 8.1598C14.7677 8.2558 14.8444 8.5198 14.8828 8.6398L15.113 8.9998C15.2665 9.1598 15.5964 9.5038 15.6885 9.5998C15.7805 9.6958 15.957 10.1998 16.0337 10.4398L16.4941 10.9198C16.7243 10.9198 17.2307 10.9198 17.4149 10.9198C17.6451 10.9198 17.9903 11.2798 18.2205 11.2798C18.4507 11.2798 18.4507 11.9998 18.4507 12.1198C18.4507 12.2158 18.4507 12.3998 18.4507 12.4798V12.8398L17.8752 13.5598L17.9903 14.0398H18.9111L18.6809 14.6398L19.2564 15.5998L20.062 15.8398V16.0798L20.6375 16.3198L19.4866 16.5598C18.6042 16.2398 16.8164 15.5998 16.7243 15.5998C16.6322 15.5998 16.5325 15.5998 16.4941 15.5998H15.5734V15.8398L14.5375 16.6798L14.8828 18.9598L14.3073 18.7198L11.5451 18.2398L10.5092 18.1198L9.01303 18.4798L7.86209 18.8398V19.6798L7.6319 20.0398L7.28662 20.3998V20.0398L6.59606 19.6798L5.33003 18.7198L5.44512 18.2398L4.75456 17.2798L4.29419 17.1598ZM4.29419 17.1598V16.4398L4.75456 15.8398L5.44512 16.0798L5.7904 15.8398C5.7904 15.7198 5.7904 15.4558 5.7904 15.3598C5.7904 15.2398 5.9055 14.6398 5.7904 14.6398C5.69833 14.6398 5.52185 14.3998 5.44512 14.2798C5.59858 14.1998 5.85946 13.9918 5.67531 13.7998C5.44512 13.5598 5.21494 13.7998 5.33003 13.4398C5.44512 13.0798 5.56022 12.7198 5.44512 12.5998C5.33003 12.4798 4.98475 12.2398 4.98475 12.1198C4.98475 12.0238 5.06148 11.9198 5.09984 11.8798H6.02059V12.2398C6.13569 11.8798 6.36587 11.1358 6.36587 11.0398C6.36587 10.9198 6.59606 10.4398 6.59606 10.1998C6.59606 10.0078 6.97971 9.7198 7.17153 9.5998C7.13316 9.7198 7.10247 9.9598 7.28662 9.9598C7.51681 9.9598 7.28662 8.0398 7.28662 7.7998C7.28662 7.6078 7.05643 6.1998 6.94134 5.5198" stroke="#60CD8C" stroke-width="0.6" stroke-linejoin="round"/>
<path d="M5.44531 18L6.13587 17.88H6.48116V17.52C6.40443 17.4 6.29701 17.136 6.48116 17.04C6.66531 16.944 6.8648 16.84 6.94153 16.8C6.94153 16.68 6.94153 16.416 6.94153 16.32C6.94153 16.224 7.32518 16.04 7.517 15.96L7.74719 15.6H8.20756L8.43775 15.24C8.43775 14.92 8.43775 14.232 8.43775 14.04C8.43775 13.848 8.43775 13.08 8.43775 12.72C8.32265 12.72 8.06945 12.696 7.97737 12.6C7.8853 12.504 7.24845 12.24 6.94153 12.12L6.48116 12.36L6.13587 12.12M8.66794 13.56C8.82139 13.6 9.15133 13.656 9.2434 13.56C9.33548 13.464 9.81887 13.12 10.0491 12.96C10.0874 13.04 10.1872 13.2 10.2792 13.2C10.3066 13.2 10.3471 13.1864 10.3943 13.1657M16.3792 10.56C16.2641 10.6 15.9879 10.68 15.8037 10.68C15.5736 10.68 15.5736 10.32 15.4585 10.08C15.3434 9.83997 14.3075 9.95997 14.1924 10.08C14.0773 10.2 14.5377 10.44 14.7679 10.56C14.9981 10.68 15.8037 11.28 16.0339 11.64C16.2641 12 15.8037 12.12 15.5736 12.12C15.3434 12.12 14.883 12.6 14.5377 12.84C14.2615 13.032 13.8855 12.84 13.7321 12.72L13.3868 12.6L13.0415 13.56L12.2358 13.32C12.0057 13.36 11.5223 13.416 11.4302 13.32C11.3151 13.2 10.9698 12.96 10.8547 12.96C10.767 12.96 10.5457 13.0993 10.3943 13.1657M16.6094 15.6C16.6094 15.48 15.9188 15.12 16.0339 15C16.126 14.904 16.6861 14.48 16.9547 14.28L17.4151 13.8C17.3383 13.68 17.1618 13.416 17.0698 13.32C16.9777 13.224 17.3383 13.28 17.5301 13.32C17.4918 13.32 17.4611 13.32 17.6452 13.32C17.8754 13.32 18.2207 13.08 18.1056 12.96C17.9905 12.84 17.6452 12.72 17.5301 12.36C17.4151 12 17.4151 12.12 17.4151 11.88C17.4151 11.688 17.4151 11.24 17.4151 11.04M9.81887 18C9.81887 17.8 9.81887 17.376 9.81887 17.28C9.81887 17.16 10.1642 16.92 10.0491 16.68C9.93397 16.44 9.81887 16.44 9.81887 16.2C9.81887 15.96 10.2792 15.72 10.2792 15.72C10.2792 15.72 10.4711 15.52 10.5094 15.48C10.5094 15.36 10.5094 15.096 10.5094 15C10.5094 14.88 10.5094 14.76 10.5094 14.52C10.5094 13.92 10.5094 14.28 10.3943 13.8M13.3868 18.48L13.7321 18.24L12.8113 18.12L13.1566 17.52C13.195 17.44 13.2947 17.232 13.3868 17.04C13.5019 16.8 13.8472 16.56 13.7321 16.44C13.64 16.344 13.31 16.08 13.1566 15.96C13.195 15.96 13.2256 15.912 13.0415 15.72C12.5811 15.36 11.8906 15.24 11.8906 15C11.8906 14.76 12.0057 14.76 11.8906 14.52C11.7985 14.328 11.622 14.28 11.5453 14.28L11.3151 14.4L11.0849 14.52L10.3943 13.1657M15.4585 15.72L14.883 15.96L14.5377 15.48C14.4226 15.36 14.1694 15.096 14.0773 15C13.9622 14.88 13.9622 14.76 13.8472 14.76C13.7551 14.76 13.5019 14.76 13.3868 14.76L13.1566 14.4C13.0799 14.28 12.9034 14.04 12.8113 14.04C12.7192 14.04 12.3893 14.04 12.2358 14.04L12.1207 13.56" stroke="#60CD8C" stroke-width="0.6" stroke-linejoin="round"/>
<rect x="10.8918" y="2.84883" width="9.01208" height="5.41591" rx="1.7" fill="white" stroke="#60CD8C" stroke-width="0.6"/>
<path d="M13.7696 5.60481L13.2518 5.08703L12.6855 5.65327L13.4864 6.45417C13.5615 6.52924 13.6634 6.57141 13.7696 6.57141C13.8757 6.57141 13.9776 6.52924 14.0527 6.45417L15.6545 4.85237L15.0882 4.28613L13.7696 5.60481Z" fill="#60CD8C"/>
<path d="M15.7695 5.36963H18.1722V6.17053H15.7695V5.36963Z" fill="#60CD8C"/>
</g>
<defs>
<clipPath id="clip0">
<rect width="21" height="21" fill="white" transform="translate(0.166016 0.316895)"/>
</clipPath>
</defs>
</svg>
