<svg width="22" height="22" viewBox="0 0 22 22" fill="none" xmlns="http://www.w3.org/2000/svg">
<g clip-path="url(#clip0)">
<path d="M20.0087 6.48981C19.2178 6.48981 18.556 7.06605 18.4036 7.82912H15.2581L15.7495 7.15947C16.1722 6.58323 16.4048 5.86972 16.4048 5.15051C16.4048 3.30428 14.935 1.80225 13.1285 1.80225C11.322 1.80225 9.85225 3.30428 9.85225 5.15051C9.85225 5.86972 10.0849 6.58323 10.5075 7.15947L10.9989 7.82912H4.57715C4.42481 7.06605 3.763 6.48981 2.97211 6.48981C2.06885 6.48981 1.33398 7.24083 1.33398 8.16395V17.5391C1.33398 18.4622 2.06885 19.2132 2.97211 19.2132H20.0087C20.9119 19.2132 21.6468 18.4622 21.6468 17.5391V8.16395C21.6468 7.24083 20.9119 6.48981 20.0087 6.48981ZM18.3705 15.865H17.06V14.5256H18.3705V15.865ZM18.3705 13.856H17.06C16.6986 13.856 16.4048 14.1563 16.4048 14.5256V15.865C16.4048 16.2343 16.6986 16.5346 17.06 16.5346H18.3705V17.2043H17.06C16.6986 17.2043 16.4048 17.5046 16.4048 17.8739V18.5436H15.7495V14.8605C15.7495 14.3067 15.3085 13.856 14.7666 13.856H11.818C11.2761 13.856 10.8351 14.3067 10.8351 14.8605V18.5436H10.1799V14.1908C10.1799 14.0057 10.0334 13.856 9.85225 13.856H7.55887C7.3777 13.856 7.23125 14.0057 7.23125 14.1908V14.455C7.23125 15.9098 6.82597 17.3181 6.06556 18.5436H5.2419C6.11306 17.2582 6.576 15.7568 6.576 14.1908C6.576 14.0057 6.42955 13.856 6.24837 13.856H4.61024V13.1863H5.59312C6.13501 13.1863 6.576 12.7357 6.576 12.1819V11.2316C6.576 10.943 6.75619 10.6879 7.02419 10.5965L8.62824 10.05C9.16424 9.86721 9.52463 9.3566 9.52463 8.77936V8.49877H10.1799V9.05994C10.1799 9.78149 9.72972 10.42 9.05973 10.648L7.67944 11.1181C7.41144 11.2095 7.23125 11.4647 7.23125 11.7536V12.1819C7.23125 12.7357 7.67223 13.1863 8.21412 13.1863H14.7666C15.3085 13.1863 15.7495 12.7357 15.7495 12.1819V8.49877H16.4048V12.1819C16.4048 12.7357 16.8458 13.1863 17.3876 13.1863H18.3705V13.856ZM15.0943 18.5436H11.4904V14.8605C11.4904 14.6756 11.6372 14.5256 11.818 14.5256H14.7666C14.9475 14.5256 15.0943 14.6756 15.0943 14.8605V18.5436ZM9.52463 18.5436H6.83417C7.51301 17.3181 7.8747 15.9426 7.88617 14.5256H9.52463V18.5436ZM4.61024 12.5167V8.49877H8.86938V8.77936C8.86938 9.06798 8.68918 9.32312 8.42118 9.41452L6.81713 9.96096C6.28113 10.1438 5.92074 10.6544 5.92074 11.2316V12.1819C5.92074 12.3667 5.77397 12.5167 5.59312 12.5167H4.61024ZM18.3705 12.5167H17.3876C17.2068 12.5167 17.06 12.3667 17.06 12.1819V8.49877H18.3705V12.5167ZM13.1285 2.4719C14.5737 2.4719 15.7495 3.67359 15.7495 5.15051C15.7495 5.72608 15.5634 6.29696 15.2253 6.75801L13.1285 9.61475L11.0317 6.75801C10.6936 6.29696 10.5075 5.72608 10.5075 5.15051C10.5075 3.67359 11.6834 2.4719 13.1285 2.4719ZM14.1114 10.1729C14.1114 10.5359 13.6612 10.8426 13.1285 10.8426C12.5958 10.8426 12.1456 10.5359 12.1456 10.1729C12.1456 10.0122 12.2403 9.85683 12.3976 9.73495L12.8664 10.3738C12.928 10.4582 13.0253 10.5077 13.1285 10.5077C13.2317 10.5077 13.3287 10.4582 13.3906 10.3738L13.8594 9.73495C14.0167 9.85683 14.1114 10.0122 14.1114 10.1729ZM12.0031 9.19722C11.6801 9.446 11.4904 9.79656 11.4904 10.1729C11.4904 10.9115 12.2252 11.5122 13.1285 11.5122C14.0318 11.5122 14.7666 10.9115 14.7666 10.1729C14.7666 9.79656 14.5769 9.446 14.2539 9.19722L14.7666 8.49877H15.0943V12.1819C15.0943 12.3667 14.9475 12.5167 14.7666 12.5167H8.21412C8.03328 12.5167 7.8865 12.3667 7.8865 12.1819V11.7536L9.26711 11.2832C10.2048 10.9638 10.8351 10.0701 10.8351 9.05994V8.49877H11.4904L12.0031 9.19722ZM1.98924 8.16395C1.98924 7.61014 2.43022 7.15947 2.97211 7.15947C3.51401 7.15947 3.95499 7.61014 3.95499 8.16395V16.2004C3.6811 15.9898 3.34069 15.865 2.97211 15.865C2.60353 15.865 2.26313 15.9898 1.98924 16.2004V8.16395ZM1.98924 17.5391C1.98924 16.9853 2.43022 16.5346 2.97211 16.5346C3.51401 16.5346 3.95499 16.9853 3.95499 17.5391C3.95499 17.7242 4.10144 17.8739 4.28262 17.8739C4.46379 17.8739 4.61024 17.7242 4.61024 17.5391V14.5256H5.91321C5.85129 15.8673 5.41718 17.1473 4.64923 18.2472L4.44184 18.5436H2.97211C2.43022 18.5436 1.98924 18.0929 1.98924 17.5391ZM20.0087 18.5436H17.06V17.8739H18.6981C18.8793 17.8739 19.0258 17.7242 19.0258 17.5391C19.0258 16.9853 19.4668 16.5346 20.0087 16.5346C20.5505 16.5346 20.9915 16.9853 20.9915 17.5391C20.9915 18.0929 20.5505 18.5436 20.0087 18.5436ZM20.9915 16.2004C20.7176 15.9898 20.3772 15.865 20.0087 15.865C19.6401 15.865 19.2997 15.9898 19.0258 16.2004V8.16395C19.0258 7.61014 19.4668 7.15947 20.0087 7.15947C20.5505 7.15947 20.9915 7.61014 20.9915 8.16395V16.2004Z" fill="#60CD8C"/>
<path d="M13.1285 6.48981C14.0318 6.48981 14.7666 5.7388 14.7666 4.81568C14.7666 3.89257 14.0318 3.14155 13.1285 3.14155C12.2252 3.14155 11.4904 3.89257 11.4904 4.81568C11.4904 5.7388 12.2252 6.48981 13.1285 6.48981ZM13.1285 3.8112C13.6704 3.8112 14.1114 4.26188 14.1114 4.81568C14.1114 5.36949 13.6704 5.82016 13.1285 5.82016C12.5866 5.82016 12.1456 5.36949 12.1456 4.81568C12.1456 4.26188 12.5866 3.8112 13.1285 3.8112Z" fill="#60CD8C"/>
</g>
<defs>
<clipPath id="clip0">
<rect width="21" height="21" fill="white" transform="translate(0.990234 0.316895)"/>
</clipPath>
</defs>
</svg>
