<svg width="22" height="22" viewBox="0 0 22 22" fill="none" xmlns="http://www.w3.org/2000/svg">
<g clip-path="url(#clip0)">
<path d="M20.3831 12.4619H16.6614C16.4428 12.4619 16.2656 12.6391 16.2656 12.8577C16.2656 13.0762 16.4428 13.2534 16.6614 13.2534H20.3831C20.6016 13.2534 20.7788 13.0762 20.7788 12.8577C20.7788 12.6391 20.6016 12.4619 20.3831 12.4619Z" fill="#60CD8C"/>
<path d="M15.4392 12.5779C15.3652 12.5042 15.2635 12.4619 15.1594 12.4619C15.0549 12.4619 14.9532 12.5042 14.8796 12.5779C14.806 12.6515 14.7637 12.7536 14.7637 12.8577C14.7637 12.9617 14.806 13.0638 14.8796 13.1374C14.9532 13.211 15.0549 13.2534 15.1594 13.2534C15.2635 13.2534 15.3656 13.2111 15.4392 13.1374C15.5128 13.0638 15.5552 12.9617 15.5552 12.8577C15.5552 12.7536 15.5128 12.6515 15.4392 12.5779Z" fill="#60CD8C"/>
<path d="M13.1816 12.4619H10.0649C9.92907 12.4619 9.80275 12.5316 9.73025 12.6464L4.88534 20.3238C4.76871 20.5087 4.82396 20.7531 5.00881 20.8697C5.07438 20.9111 5.14744 20.9308 5.21962 20.9308C5.35093 20.9308 5.47939 20.8655 5.5547 20.7463L10.2831 13.2534H13.1816C13.4001 13.2534 13.5773 13.0762 13.5773 12.8577C13.5773 12.6391 13.4002 12.4619 13.1816 12.4619Z" fill="#60CD8C"/>
<path d="M6.59184 10.8125L1.21168 5.43231C1.0571 5.27777 0.806592 5.27777 0.651974 5.43231C0.497435 5.58685 0.497435 5.83743 0.651974 5.99197L5.80822 11.1482L0.578998 19.4077C0.462095 19.5924 0.517025 19.8369 0.70168 19.9538C0.767373 19.9954 0.840626 20.0153 0.913008 20.0153C1.04412 20.0153 1.17246 19.9501 1.24777 19.8312L6.64641 11.304C6.74539 11.1476 6.72275 10.9434 6.59184 10.8125Z" fill="#60CD8C"/>
<path d="M5.25086 3.65156L2.38459 0.785338C2.23001 0.630799 1.97951 0.630799 1.82489 0.785338C1.67035 0.939876 1.67035 1.19046 1.82489 1.34504L4.69119 4.21127C4.76848 4.28856 4.86975 4.32718 4.97103 4.32718C5.0723 4.32718 5.17357 4.28856 5.25086 4.21127C5.4054 4.05673 5.4054 3.80614 5.25086 3.65156Z" fill="#60CD8C"/>
<path d="M6.20675 4.60726C6.13318 4.53365 6.03108 4.4917 5.927 4.4917C5.82291 4.4917 5.72081 4.53365 5.6472 4.60726C5.5736 4.68087 5.53125 4.78297 5.53125 4.88744C5.53125 4.99153 5.57356 5.09323 5.6472 5.16684C5.72081 5.24089 5.82291 5.28319 5.927 5.28319C6.03108 5.28319 6.13318 5.24085 6.20675 5.16684C6.28075 5.09323 6.32274 4.99153 6.32274 4.88744C6.32274 4.78297 6.28075 4.68126 6.20675 4.60726Z" fill="#60CD8C"/>
<path d="M20.3855 10.4038H19.218C18.9995 10.4038 18.8223 10.581 18.8223 10.7996C18.8223 11.0181 18.9995 11.1953 19.218 11.1953H20.3855C20.604 11.1953 20.7812 11.0181 20.7812 10.7996C20.7812 10.581 20.6041 10.4038 20.3855 10.4038Z" fill="#60CD8C"/>
<path d="M17.5408 10.4038H16.6125C16.394 10.4038 16.2168 10.581 16.2168 10.7996C16.2168 11.0181 16.394 11.1953 16.6125 11.1953H17.5408C17.7594 11.1953 17.9366 11.0181 17.9366 10.7996C17.9366 10.581 17.7594 10.4038 17.5408 10.4038Z" fill="#60CD8C"/>
<path d="M20.3825 8.34584H16.7621L17.5338 7.35664C17.5346 7.35553 17.5355 7.35442 17.5363 7.35335C18.1254 6.62589 18.4497 5.70986 18.4497 4.7723C18.4497 2.50943 16.6087 0.668457 14.3458 0.668457C12.083 0.668457 10.242 2.50943 10.242 4.7723C10.242 5.71089 10.5661 6.62601 11.1555 7.35379C11.1606 7.36134 11.166 7.36874 11.1717 7.37603L11.9287 8.34584H9.94486L7.22248 5.62347C7.0679 5.46893 6.8174 5.46897 6.66278 5.62347C6.50824 5.77801 6.50824 6.02859 6.66278 6.18317L9.50107 9.02142C9.57531 9.09562 9.67595 9.13733 9.7809 9.13733H12.3886C12.4372 9.13733 12.4837 9.12811 12.5267 9.11204L13.5349 10.4037H13.3779C13.1593 10.4037 12.9821 10.5809 12.9821 10.7994C12.9821 11.018 13.1593 11.1952 13.3779 11.1952H14.829C15.0475 11.1952 15.2247 11.018 15.2247 10.7994C15.2247 10.678 15.1699 10.5695 15.0838 10.4969L16.1445 9.13729H20.3825C20.601 9.13729 20.7783 8.96012 20.7783 8.74155C20.7783 8.52298 20.601 8.34584 20.3825 8.34584ZM14.3458 10.1561L11.819 6.91906C11.8105 6.90572 11.8011 6.89282 11.7909 6.88043C11.3025 6.28927 11.0335 5.54056 11.0335 4.7723C11.0335 2.94589 12.5194 1.45995 14.3458 1.45995C16.1722 1.45995 17.6582 2.94589 17.6582 4.7723C17.6582 5.53245 17.3941 6.27502 16.9147 6.86318C16.9104 6.86852 16.9062 6.8739 16.9022 6.87941L14.3458 10.1561Z" fill="#60CD8C"/>
<path d="M11.2964 10.4038H10.0149C9.79636 10.4038 9.61914 10.581 9.61914 10.7996C9.61914 11.0181 9.79636 11.1953 10.0149 11.1953H11.2964C11.515 11.1953 11.6922 11.0181 11.6922 10.7996C11.6921 10.581 11.515 10.4038 11.2964 10.4038Z" fill="#60CD8C"/>
<path d="M2.17424 3.48421L1.19318 2.50311C1.03865 2.34857 0.788139 2.34857 0.633482 2.50311C0.478943 2.65765 0.478943 2.90824 0.633482 3.06278L1.61457 4.04387C1.69186 4.12116 1.79314 4.15978 1.89441 4.15978C1.99568 4.15978 2.09695 4.12112 2.17424 4.04387C2.32878 3.88933 2.32878 3.63874 2.17424 3.48421Z" fill="#60CD8C"/>
<path d="M4.27775 5.58867L3.29666 4.60762C3.14208 4.45304 2.89158 4.45308 2.737 4.60762C2.58246 4.76216 2.58246 5.01274 2.737 5.16728L3.71809 6.14837C3.79538 6.22566 3.89665 6.26428 3.99792 6.26428C4.09919 6.26428 4.20046 6.22562 4.27775 6.14837C4.43229 5.99379 4.43229 5.7432 4.27775 5.58867Z" fill="#60CD8C"/>
<path d="M6.38322 7.6932L5.40213 6.71211C5.24759 6.55753 4.99708 6.55757 4.84247 6.71211C4.68793 6.86665 4.68793 7.11724 4.84247 7.27177L5.82356 8.25287C5.90084 8.33016 6.00212 8.36878 6.10339 8.36878C6.20466 8.36878 6.30593 8.33012 6.38322 8.25287C6.53776 8.09833 6.53776 7.84774 6.38322 7.6932Z" fill="#60CD8C"/>
<path d="M8.38334 9.69229L7.50764 8.81659C7.35306 8.66205 7.10255 8.66205 6.94794 8.81659C6.7934 8.97113 6.7934 9.22171 6.94794 9.37625L7.82368 10.252C7.90097 10.3292 8.00224 10.3679 8.10351 10.3679C8.20478 10.3679 8.30605 10.3292 8.38334 10.252C8.53788 10.0974 8.53788 9.84683 8.38334 9.69229Z" fill="#60CD8C"/>
<path d="M3.82387 18.8912C3.63898 18.7745 3.39465 18.8299 3.27798 19.0147L2.45174 20.324C2.33512 20.5088 2.39036 20.7532 2.57522 20.8699C2.64079 20.9112 2.71384 20.931 2.78603 20.931C2.91734 20.931 3.0458 20.8657 3.12111 20.7464L3.94735 19.4371C4.06397 19.2522 4.00873 19.0078 3.82387 18.8912Z" fill="#60CD8C"/>
<path d="M5.64317 16.006C5.45828 15.8893 5.21394 15.9446 5.09728 16.1294L4.25837 17.4589C4.14175 17.6437 4.19703 17.8881 4.38185 18.0048C4.44742 18.0461 4.52048 18.0659 4.59266 18.0659C4.72397 18.0659 4.85243 18.0006 4.92774 17.8813L5.76664 16.5518C5.88327 16.367 5.82798 16.1226 5.64317 16.006Z" fill="#60CD8C"/>
<path d="M7.19732 13.5436C7.01243 13.4269 6.76802 13.4822 6.65143 13.667L6.06501 14.5964C5.94839 14.7812 6.00367 15.0256 6.18849 15.1423C6.25406 15.1836 6.32712 15.2034 6.3993 15.2034C6.53061 15.2034 6.65911 15.1381 6.73438 15.0188L7.32079 14.0895C7.43742 13.9046 7.38213 13.6602 7.19732 13.5436Z" fill="#60CD8C"/>
<path d="M8.60347 11.3204C8.41857 11.2037 8.17424 11.2591 8.05757 11.4439L7.48299 12.3544C7.36637 12.5392 7.42161 12.7836 7.60646 12.9003C7.67204 12.9417 7.74509 12.9614 7.81728 12.9614C7.94859 12.9614 8.07704 12.8961 8.15236 12.7768L8.72694 11.8663C8.84356 11.6815 8.78832 11.4371 8.60347 11.3204Z" fill="#60CD8C"/>
<path d="M14.3482 2.81348C13.2354 2.81348 12.3301 3.71882 12.3301 4.83166C12.3301 5.9445 13.2354 6.84984 14.3482 6.84984C15.461 6.84984 16.3664 5.94446 16.3664 4.83166C16.3664 3.71886 15.461 2.81348 14.3482 2.81348ZM14.3482 6.05839C13.6718 6.05835 13.1215 5.50807 13.1215 4.83166C13.1215 4.15525 13.6718 3.60493 14.3482 3.60493C15.0247 3.60493 15.575 4.15521 15.575 4.83166C15.5749 5.50811 15.0246 6.05839 14.3482 6.05839Z" fill="#60CD8C"/>
</g>
<defs>
<clipPath id="clip0">
<rect width="21" height="21" fill="white" transform="translate(0.166016 0.316895)"/>
</clipPath>
</defs>
</svg>
