<svg width="22" height="22" viewBox="0 0 22 22" fill="none" xmlns="http://www.w3.org/2000/svg">
<path d="M5.28442 15.4767L4.82405 15.3567L3.9033 14.8767L4.59386 11.7567L3.67311 8.5167L2.29198 5.3967L1.48633 4.3167L5.28442 3.9567L9.08251 3.5967L12.8806 3.1167H15.2976L15.5278 3.3567C15.5278 3.4767 15.5738 3.7647 15.7579 3.9567C15.9881 4.1967 15.5278 4.3167 15.5278 4.5567C15.5278 4.7967 15.2976 4.7967 15.2976 4.9167C15.2976 5.0367 15.2976 5.5167 15.2976 5.7567C15.2976 5.9967 15.7579 6.3567 15.7579 6.4767C15.7579 6.5727 15.8347 6.8367 15.873 6.9567L16.1032 7.3167C16.2567 7.4767 16.5866 7.8207 16.6787 7.9167C16.7708 8.0127 16.9472 8.5167 17.024 8.7567L17.4844 9.2367C17.7145 9.2367 18.221 9.2367 18.4051 9.2367C18.6353 9.2367 18.9806 9.5967 19.2108 9.5967C19.4409 9.5967 19.4409 10.3167 19.4409 10.4367C19.4409 10.5327 19.4409 10.7167 19.4409 10.7967V11.1567L18.8655 11.8767L18.9806 12.3567H19.9013L19.6711 12.9567L20.2466 13.9167L21.0523 14.1567V14.3967L21.6277 14.6367L20.4768 14.8767C19.5944 14.5567 17.8066 13.9167 17.7145 13.9167C17.6225 13.9167 17.5227 13.9167 17.4844 13.9167H16.5636V14.1567L15.5278 14.9967L15.873 17.2767L15.2976 17.0367L12.5353 16.5567L11.4995 16.4367L10.0033 16.7967L8.85232 17.1567V17.9967L8.62214 18.3567L8.27686 18.7167V18.3567L7.58629 17.9967L6.32026 17.0367L6.43536 16.5567L5.7448 15.5967L5.28442 15.4767ZM5.28442 15.4767V14.7567L5.7448 14.1567L6.43536 14.3967L6.78064 14.1567C6.78064 14.0367 6.78064 13.7727 6.78064 13.6767C6.78064 13.5567 6.89573 12.9567 6.78064 12.9567C6.68856 12.9567 6.51209 12.7167 6.43536 12.5967C6.58882 12.5167 6.84969 12.3087 6.66554 12.1167C6.43536 11.8767 6.20517 12.1167 6.32026 11.7567C6.43536 11.3967 6.55045 11.0367 6.43536 10.9167C6.32026 10.7967 5.97498 10.5567 5.97498 10.4367C5.97498 10.3407 6.05171 10.2367 6.09008 10.1967H7.01083V10.5567C7.12592 10.1967 7.35611 9.4527 7.35611 9.3567C7.35611 9.2367 7.58629 8.7567 7.58629 8.5167C7.58629 8.3247 7.96994 8.0367 8.16176 7.9167C8.1234 8.0367 8.09271 8.2767 8.27686 8.2767C8.50704 8.2767 8.27686 6.3567 8.27686 6.1167C8.27686 5.9247 8.04667 4.5167 7.93158 3.8367" stroke="#60CD8C" stroke-width="0.6" stroke-linejoin="round"/>
<path d="M6.43555 16.3169L7.12611 16.1969H7.47139V15.8369C7.39466 15.7169 7.28724 15.4529 7.47139 15.3569C7.65554 15.2609 7.85504 15.1569 7.93176 15.1169C7.93176 14.9969 7.93176 14.7329 7.93176 14.6369C7.93176 14.5409 8.31541 14.3569 8.50723 14.2769L8.73742 13.9169H9.1978L9.42798 13.5569C9.42798 13.2369 9.42798 12.5489 9.42798 12.3569C9.42798 12.1649 9.42798 11.3969 9.42798 11.0369C9.31289 11.0369 9.05968 11.0129 8.96761 10.9169C8.87553 10.8209 8.23868 10.5569 7.93176 10.4369L7.47139 10.6769L7.12611 10.4369M9.65817 11.8769C9.81163 11.9169 10.1416 11.9729 10.2336 11.8769C10.3257 11.7809 10.8091 11.4369 11.0393 11.2769C11.0777 11.3569 11.1774 11.5169 11.2695 11.5169C11.2969 11.5169 11.3373 11.5033 11.3846 11.4825M17.3694 8.87686C17.2544 8.91687 16.9781 8.99688 16.794 8.99688C16.5638 8.99688 16.5638 8.63686 16.4487 8.39686C16.3336 8.15686 15.2978 8.27686 15.1827 8.39686C15.0676 8.51686 15.5279 8.75686 15.7581 8.87686C15.9883 8.99686 16.794 9.59686 17.0242 9.95686C17.2544 10.3169 16.794 10.4369 16.5638 10.4369C16.3336 10.4369 15.8732 10.9169 15.5279 11.1569C15.2517 11.3489 14.8757 11.1569 14.7223 11.0369L14.377 10.9169L14.0317 11.8769L13.2261 11.6369C12.9959 11.6769 12.5125 11.7329 12.4204 11.6369C12.3053 11.5169 11.96 11.2769 11.8449 11.2769C11.7572 11.2769 11.5359 11.4162 11.3846 11.4825M17.5996 13.9169C17.5996 13.7969 16.9091 13.4369 17.0242 13.3169C17.1162 13.2209 17.6764 12.7969 17.9449 12.5969L18.4053 12.1169C18.3286 11.9969 18.1521 11.7329 18.06 11.6369C17.9679 11.5409 18.3286 11.5969 18.5204 11.6369C18.482 11.6369 18.4513 11.6369 18.6355 11.6369C18.8657 11.6369 19.2109 11.3969 19.0959 11.2769C18.9808 11.1569 18.6355 11.0369 18.5204 10.6769C18.4053 10.3169 18.4053 10.4369 18.4053 10.1969C18.4053 10.0049 18.4053 9.55687 18.4053 9.35688M10.8091 16.3169C10.8091 16.1169 10.8091 15.6929 10.8091 15.5969C10.8091 15.4769 11.1544 15.2369 11.0393 14.9969C10.9242 14.7569 10.8091 14.7569 10.8091 14.5169C10.8091 14.2769 11.2695 14.0369 11.2695 14.0369C11.2695 14.0369 11.4613 13.8369 11.4997 13.7969C11.4997 13.6769 11.4997 13.4129 11.4997 13.3169C11.4997 13.1969 11.4997 13.0769 11.4997 12.8369C11.4997 12.2369 11.4997 12.5969 11.3846 12.1169M14.377 16.7969L14.7223 16.5569L13.8015 16.4369L14.1468 15.8369C14.1852 15.7569 14.2849 15.5489 14.377 15.3569C14.4921 15.1169 14.8374 14.8769 14.7223 14.7569C14.6302 14.6609 14.3003 14.3969 14.1468 14.2769C14.1852 14.2769 14.2159 14.2289 14.0317 14.0369C13.5714 13.6769 12.8808 13.5569 12.8808 13.3169C12.8808 13.0769 12.9959 13.0769 12.8808 12.8369C12.7887 12.6449 12.6122 12.5969 12.5355 12.5969L12.3053 12.7169L12.0751 12.8369L11.3846 11.4825M16.4487 14.0369L15.8732 14.2769L15.5279 13.7969C15.4129 13.6769 15.1596 13.4129 15.0676 13.3169C14.9525 13.1969 14.9525 13.0769 14.8374 13.0769C14.7453 13.0769 14.4921 13.0769 14.377 13.0769L14.1468 12.7169C14.0701 12.5969 13.8936 12.3569 13.8015 12.3569C13.7095 12.3569 13.3795 12.3569 13.2261 12.3569L13.111 11.8769" stroke="#60CD8C" stroke-width="0.6" stroke-linejoin="round"/>
</svg>
