<svg width="22" height="22" viewBox="0 0 22 22" fill="none" xmlns="http://www.w3.org/2000/svg">
<path d="M1.58402 17.7084C1.58402 18.4103 2.01745 19.3944 3.37407 19.3944H21.2165C21.2165 19.3944 21.2165 10.3695 21.2165 4.58672H15.2771M1.58402 17.7084C1.58402 15.657 1.58402 6.51116 1.58402 5.28031C1.58402 3.83518 2.43034 3.43066 3.52451 3.43066C3.88439 3.43066 3.99409 3.43066 4.3041 3.43066V4.58672M1.58402 17.7084C1.58402 16.8619 2.12067 16.0901 3.52451 16.0901C4.06262 16.0901 3.98319 16.0901 4.3041 16.0901V4.58672M4.3041 4.58672H4.59295H8.99128" stroke="#60CD8C" stroke-width="0.65" stroke-linejoin="round"/>
<path d="M15.0392 6.32812L15.552 6.656C15.552 6.74677 15.5868 6.9646 15.7261 7.10982C15.9002 7.29134 15.552 7.38211 15.552 7.56363C15.552 7.74516 15.3779 7.74516 15.3779 7.83592C15.3779 7.92668 15.3779 8.28973 15.3779 8.47126C15.3779 8.65278 15.7261 8.92507 15.7261 9.01583C15.7261 9.08844 15.7841 9.28812 15.8131 9.37888L15.9872 9.65117C16.1033 9.77219 16.3528 10.0324 16.4225 10.105C16.4921 10.1776 16.6256 10.5588 16.6836 10.7403L17.0318 11.1034C17.2059 11.1034 17.589 11.1034 17.7283 11.1034C17.9024 11.1034 18.1635 11.3757 18.3376 11.3757C18.5117 11.3757 18.5117 11.9202 18.5117 12.011C18.5117 12.0836 18.5117 12.2228 18.5117 12.2833V12.5556L18.0765 13.1002L18.1635 13.4632H18.8599L18.6858 13.917L19.1211 14.6431L19.7304 14.8246V15.0062L20.1657 15.1877L19.2952 15.3692C18.6278 15.1272 17.2756 14.6431 17.2059 14.6431C17.1363 14.6431 17.0609 14.6431 17.0318 14.6431H16.3354V14.8246L15.552 15.46L15.8131 17.1845L15.3779 17.003L13.2886 16.6399L12.5051 16.5491L11.3735 16.8214L10.503 17.0937V17.7291L10.3289 18.0013L10.0677 18.2736V18.0013L9.54538 17.7291L8.58782 17.003L8.67487 16.6399L8.15256 15.9138L7.80435 15.823M9.80654 6.87969L7.80435 7.10982L4.93164 7.38211L5.541 8.19897L6.58562 10.5588L7.28204 13.0094L6.75973 15.3692L7.45614 15.7323L7.80435 15.823M7.80435 15.823V15.2785L8.15256 14.8246L8.67487 15.0062L8.93602 14.8246C8.93602 14.7339 8.93602 14.5342 8.93602 14.4616C8.93602 14.3708 9.02307 13.917 8.93602 13.917C8.86638 13.917 8.7329 13.7355 8.67487 13.6447C8.79094 13.5842 8.98825 13.4269 8.84897 13.2817C8.67487 13.1002 8.50076 13.2817 8.58782 13.0094C8.67487 12.7371 8.76192 12.4648 8.67487 12.3741C8.58782 12.2833 8.32666 12.1018 8.32666 12.011C8.32666 11.9384 8.38469 11.8597 8.41371 11.8295H9.11013V12.1018C9.19718 11.8295 9.37128 11.2667 9.37128 11.1941C9.37128 11.1034 9.54538 10.7403 9.54538 10.5588C9.54538 10.4136 9.83556 10.1957 9.98064 10.105C9.95163 10.1957 9.92841 10.3773 10.0677 10.3773C10.2418 10.3773 10.0677 8.92507 10.0677 8.74355C10.0677 8.59833 9.89359 7.53338 9.80654 7.01906" stroke="#60CD8C" stroke-width="0.6" stroke-linejoin="round"/>
<path d="M8.67188 16.4589L9.19419 16.3681H9.45534V16.0959C9.39731 16.0051 9.31606 15.8054 9.45534 15.7328C9.59462 15.6602 9.74551 15.5815 9.80355 15.5513C9.80355 15.4605 9.80355 15.2608 9.80355 15.1882C9.80355 15.1156 10.0937 14.9765 10.2388 14.9159L10.4129 14.6437H10.7611L10.9352 14.3714C10.9352 14.1293 10.9352 13.609 10.9352 13.4637C10.9352 13.3185 10.9352 12.7376 10.9352 12.4654C10.8482 12.4654 10.6567 12.4472 10.587 12.3746C10.5174 12.302 10.0357 12.1023 9.80355 12.0115L9.45534 12.1931L9.19419 12.0115M11.1093 13.1007C11.2254 13.1309 11.4749 13.1733 11.5446 13.1007C11.6142 13.0281 11.9798 12.7679 12.1539 12.6469C12.183 12.7074 12.2584 12.8284 12.328 12.8284C12.3488 12.8284 12.3794 12.8181 12.4151 12.8024M16.9418 10.8316C16.8547 10.8619 16.6458 10.9224 16.5065 10.9224C16.3324 10.9224 16.3324 10.6501 16.2454 10.4686C16.1583 10.287 15.3749 10.3778 15.2878 10.4686C15.2008 10.5593 15.549 10.7409 15.7231 10.8316C15.8972 10.9224 16.5065 11.3762 16.6806 11.6485C16.8547 11.9208 16.5065 12.0115 16.3324 12.0115C16.1583 12.0115 15.8101 12.3746 15.549 12.5561C15.34 12.7013 15.0557 12.5561 14.9396 12.4654L14.6784 12.3746L14.4173 13.1007L13.8079 12.9192C13.6338 12.9494 13.2682 12.9918 13.1986 12.9192C13.1115 12.8284 12.8504 12.6469 12.7633 12.6469C12.697 12.6469 12.5296 12.7523 12.4151 12.8024M17.1159 14.6437C17.1159 14.5529 16.5936 14.2806 16.6806 14.1899C16.7503 14.1172 17.1739 13.7965 17.3771 13.6453L17.7253 13.2822C17.6672 13.1915 17.5337 12.9918 17.4641 12.9192C17.3945 12.8466 17.6672 12.8889 17.8123 12.9192C17.7833 12.9192 17.7601 12.9192 17.8994 12.9192C18.0735 12.9192 18.3346 12.7376 18.2476 12.6469C18.1605 12.5561 17.8994 12.4653 17.8123 12.1931C17.7253 11.9208 17.7253 12.0116 17.7253 11.83C17.7253 11.6848 17.7253 11.346 17.7253 11.1947M11.9798 16.4589C11.9798 16.3076 11.9798 15.987 11.9798 15.9143C11.9798 15.8236 12.241 15.6421 12.1539 15.4605C12.0669 15.279 11.9798 15.279 11.9798 15.0975C11.9798 14.9159 12.328 14.7344 12.328 14.7344C12.328 14.7344 12.4731 14.5832 12.5022 14.5529C12.5022 14.4621 12.5022 14.2625 12.5022 14.1899C12.5022 14.0991 12.5022 14.0083 12.5022 13.8268C12.5022 13.373 12.5022 13.6453 12.4151 13.2822M14.6784 16.822L14.9396 16.6404L14.2432 16.5497L14.5043 16.0959C14.5334 16.0354 14.6088 15.878 14.6784 15.7328C14.7655 15.5513 15.0267 15.3698 14.9396 15.279C14.87 15.2064 14.6204 15.0067 14.5043 14.9159C14.5334 14.9159 14.5566 14.8796 14.4173 14.7344C14.0691 14.4621 13.5468 14.3714 13.5468 14.1899C13.5468 14.0083 13.6338 14.0083 13.5468 13.8268C13.4771 13.6816 13.3437 13.6453 13.2856 13.6453L13.1115 13.736L12.9374 13.8268L12.4151 12.8024M16.2454 14.7344L15.8101 14.9159L15.549 14.5529C15.4619 14.4621 15.2704 14.2625 15.2008 14.1899C15.1137 14.0991 15.1137 14.0083 15.0267 14.0083C14.957 14.0083 14.7655 14.0083 14.6784 14.0083L14.5043 13.736C14.4463 13.6453 14.3128 13.4637 14.2432 13.4637C14.1735 13.4637 13.924 13.4637 13.8079 13.4637L13.7209 13.1007" stroke="#60CD8C" stroke-width="0.6" stroke-linejoin="round"/>
<path d="M14.9117 3.06099C14.2827 2.15064 13.2858 1.62842 12.1768 1.62842C11.0679 1.62842 10.071 2.15064 9.44199 3.06099C8.81607 3.96674 8.67155 5.11345 9.05461 6.12655C9.15707 6.40321 9.31995 6.67201 9.53755 6.92389L11.9575 9.76638C12.0122 9.83071 12.0924 9.86779 12.1768 9.86779C12.2612 9.86779 12.3414 9.83073 12.3962 9.76638L14.8154 6.92466C15.034 6.67133 15.1967 6.40283 15.2983 6.12839C15.6821 5.11345 15.5376 3.96674 14.9117 3.06099ZM14.7588 5.92662C14.6804 6.13836 14.5525 6.34771 14.3788 6.54908C14.3783 6.54956 14.3778 6.55004 14.3775 6.55062L12.1768 9.13537L9.97486 6.549C9.80124 6.34781 9.67332 6.13848 9.5942 5.9247C9.2774 5.08685 9.39763 4.13874 9.9159 3.38865C10.4358 2.63616 11.2599 2.20459 12.1768 2.20459C13.0937 2.20459 13.9178 2.63615 14.4377 3.38865C14.956 4.13874 15.0764 5.08685 14.7588 5.92662Z" fill="#60CD8C"/>
<path d="M12.1778 3.33789C11.2882 3.33789 10.5645 4.06157 10.5645 4.9512C10.5645 5.84082 11.2881 6.5645 12.1778 6.5645C13.0674 6.5645 13.7911 5.84082 13.7911 4.9512C13.7911 4.06167 13.0673 3.33789 12.1778 3.33789ZM12.1778 5.98831C11.6059 5.98831 11.1406 5.52305 11.1406 4.95118C11.1406 4.37932 11.6059 3.91405 12.1778 3.91405C12.7496 3.91405 13.2149 4.37932 13.2149 4.95118C13.2149 5.52305 12.7496 5.98831 12.1778 5.98831Z" fill="#60CD8C"/>
</svg>
