<svg width="22" height="22" viewBox="0 0 22 22" fill="none" xmlns="http://www.w3.org/2000/svg">
<g clip-path="url(#clip0)">
<path d="M20.0298 2.97995C19.2372 2.97995 18.5739 3.43101 18.4213 4.38858H15.2689L14.575 4.38893C14.4285 4.38839 14.0408 4.38839 13.8064 4.38893C13.3032 4.38839 12.6884 4.38839 12.3103 4.38839C11.8373 4.38839 11.9591 4.38858 11.6483 4.38858C11.493 4.38858 11.3916 4.38858 11.297 4.38858H11.0005H4.56468C4.41201 3.43101 3.74876 2.96631 2.95615 2.96631C2.05092 2.96631 1.31445 3.65034 1.31445 4.80875V16.744C1.31445 17.9024 2.05092 18.6744 2.95615 18.6744H20.0298C20.935 18.6744 21.6715 17.732 21.6715 16.5736V4.80875C21.6715 3.65034 20.935 2.97995 20.0298 2.97995ZM4.59785 5.22892H8.86626H18.3881C18.3881 5.22892 18.3881 13.0583 18.3881 13.7586C18.3881 13.7586 17.7707 15.5413 17.2615 15.4271C16.7523 15.313 17.0122 15.7963 17.0122 15.7963L15.6363 17.8341L4.59785 5.22892ZM1.97113 4.80875C1.97113 4.11378 2.41308 3.64385 2.95615 3.64385C3.49922 3.64385 3.94117 4.11378 3.94117 4.80875V15.2591C3.66668 14.9948 3.2805 14.8937 2.91112 14.8937C2.54174 14.8937 2.24562 15.046 1.97113 15.3103V4.80875ZM1.97113 16.744C1.97113 16.049 2.41308 15.6687 2.95615 15.6687C3.49922 15.6687 3.94117 15.8786 3.94117 16.5736C3.94117 16.8059 4.08794 16.9937 4.26951 16.9937C4.45108 16.9937 4.59785 16.8059 4.59785 16.5736V5.22892L15.6363 17.8341C15.6363 17.8341 7.6332 17.8341 5.90581 17.8341H4.42908H2.95615C2.41308 17.8341 1.97113 17.439 1.97113 16.744ZM20.0298 17.8341H15.6363L17.0122 15.7963C17.0122 15.7963 16.7523 15.313 17.2615 15.4271C17.7707 15.5413 18.3881 13.7586 18.3881 13.7586V16.5736C18.3881 16.5736 18.3764 16.9544 18.7107 16.9544C19.0449 16.9544 19.0448 16.6499 19.0448 16.5736C19.0448 15.8786 19.4867 15.6054 20.0298 15.6054C20.4898 15.6054 21.0148 15.9591 21.0148 16.654C21.0148 17.349 20.5729 17.8341 20.0298 17.8341ZM21.0148 15.3089C20.7403 15.0447 20.3992 14.9686 20.0298 14.9686C19.6604 14.9686 19.3193 15.0447 19.0448 15.3089V4.80875C19.0448 4.11378 19.4867 3.74568 20.0298 3.74568C20.5729 3.74568 21.0148 4.11378 21.0148 4.80875V15.3089Z" fill="#60CD8C"/>
<path d="M7.61183 14.3866L7.32696 14.3066L6.75724 13.9867L7.18453 11.9077L6.61481 9.74872L5.76023 7.66968L5.26172 6.95002L7.61183 6.71013L9.96193 6.47024L12.312 6.15039H13.8076L13.95 6.31032C13.95 6.39028 13.9785 6.58219 14.0924 6.71013C14.2349 6.87006 13.95 6.95002 13.95 7.10994C13.95 7.26987 13.8076 7.26987 13.8076 7.34983C13.8076 7.4298 13.8076 7.74965 13.8076 7.90957C13.8076 8.0695 14.0924 8.30939 14.0924 8.38935C14.0924 8.45332 14.1399 8.62924 14.1636 8.7092L14.3061 8.94909C14.401 9.05571 14.6052 9.28493 14.6621 9.3489C14.7191 9.41287 14.8283 9.74872 14.8758 9.90864L15.1607 10.2285C15.3031 10.2285 15.6164 10.2285 15.7304 10.2285C15.8728 10.2285 16.0865 10.4684 16.2289 10.4684C16.3713 10.4684 16.3713 10.9482 16.3713 11.0281C16.3713 11.0921 16.3713 11.2147 16.3713 11.268V11.5079L16.0152 11.9877L16.0865 12.3075H16.6562L16.5137 12.7073L16.8698 13.347L17.3683 13.507V13.6669L17.7244 13.8268L17.0123 13.9867C16.4663 13.7735 15.3601 13.347 15.3031 13.347C15.2461 13.347 15.1844 13.347 15.1607 13.347H14.5909V13.507L13.95 14.0667L14.1636 15.586L13.8076 15.4261L12.0984 15.1062L11.4575 15.0263L10.5317 15.2662L9.8195 15.506V16.0658L9.67707 16.3057L9.46342 16.5456V16.3057L9.03613 16.0658L8.25276 15.4261L8.32398 15.1062L7.89669 14.4665L7.61183 14.3866ZM7.61183 14.3866V13.9068L7.89669 13.507L8.32398 13.6669L8.53763 13.507C8.53763 13.427 8.53763 13.2511 8.53763 13.1871C8.53763 13.1072 8.60884 12.7073 8.53763 12.7073C8.48065 12.7073 8.37146 12.5474 8.32398 12.4675C8.41893 12.4141 8.58035 12.2755 8.46641 12.1476C8.32398 11.9877 8.18155 12.1476 8.25276 11.9077C8.32398 11.6678 8.39519 11.4279 8.32398 11.348C8.25276 11.268 8.03912 11.1081 8.03912 11.0281C8.03912 10.9642 8.08659 10.8949 8.11033 10.8682H8.68006V11.1081C8.75127 10.8682 8.8937 10.3724 8.8937 10.3085C8.8937 10.2285 9.03613 9.90864 9.03613 9.74872C9.03613 9.62078 9.27352 9.42887 9.39221 9.3489C9.36847 9.42887 9.34948 9.58879 9.46342 9.58879C9.60586 9.58879 9.46342 8.30939 9.46342 8.14946C9.46342 8.02152 9.32099 7.08329 9.24978 6.63017" stroke="#60CD8C" stroke-width="0.6" stroke-linejoin="round"/>
<path d="M8.32422 14.9465L8.75151 14.8666H8.96516V14.6267C8.91768 14.5467 8.85121 14.3708 8.96516 14.3068C9.0791 14.2429 9.20254 14.1736 9.25002 14.1469C9.25002 14.0669 9.25002 13.891 9.25002 13.8271C9.25002 13.7631 9.4874 13.6405 9.60609 13.5872L9.74853 13.3473H10.0334L10.1758 13.1074C10.1758 12.8942 10.1758 12.4357 10.1758 12.3078C10.1758 12.1798 10.1758 11.6681 10.1758 11.4282C10.1046 11.4282 9.94793 11.4122 9.89096 11.3482C9.83398 11.2842 9.43993 11.1083 9.25002 11.0284L8.96516 11.1883L8.75151 11.0284M10.3182 11.9879C10.4132 12.0146 10.6174 12.0519 10.6743 11.9879C10.7313 11.9239 11.0304 11.6947 11.1728 11.5881C11.1966 11.6414 11.2583 11.748 11.3153 11.748C11.3322 11.748 11.3572 11.739 11.3865 11.7252M15.0897 9.98884C15.0185 10.0155 14.8475 10.0688 14.7336 10.0688C14.5912 10.0688 14.5912 9.82892 14.52 9.66899C14.4487 9.50907 13.8078 9.58903 13.7366 9.66899C13.6654 9.74896 13.9502 9.90888 14.0927 9.98884C14.2351 10.0688 14.7336 10.4686 14.876 10.7085C15.0185 10.9484 14.7336 11.0284 14.5912 11.0284C14.4487 11.0284 14.1639 11.3482 13.9502 11.5081C13.7793 11.6361 13.5467 11.5081 13.4517 11.4282L13.2381 11.3482L13.0244 11.9879L12.5259 11.828C12.3835 11.8546 12.0844 11.892 12.0274 11.828C11.9562 11.748 11.7426 11.5881 11.6713 11.5881C11.6171 11.5881 11.4801 11.681 11.3865 11.7252M15.2321 13.3473C15.2321 13.2673 14.8048 13.0274 14.876 12.9475C14.933 12.8835 15.2796 12.601 15.4458 12.4677L15.7306 12.1478C15.6831 12.0679 15.5739 11.892 15.517 11.828C15.46 11.764 15.6831 11.8013 15.8018 11.828C15.7781 11.828 15.7591 11.828 15.873 11.828C16.0155 11.828 16.2291 11.6681 16.1579 11.5881C16.0867 11.5081 15.873 11.4282 15.8018 11.1883C15.7306 10.9484 15.7306 11.0284 15.7306 10.8684C15.7306 10.7405 15.7306 10.442 15.7306 10.3087M11.0304 14.9465C11.0304 14.8133 11.0304 14.5307 11.0304 14.4668C11.0304 14.3868 11.244 14.2269 11.1728 14.067C11.1016 13.907 11.0304 13.907 11.0304 13.7471C11.0304 13.5872 11.3153 13.4273 11.3153 13.4273C11.3153 13.4273 11.434 13.294 11.4577 13.2673C11.4577 13.1874 11.4577 13.0114 11.4577 12.9475C11.4577 12.8675 11.4577 12.7876 11.4577 12.6276C11.4577 12.2278 11.4577 12.4677 11.3865 12.1478M13.2381 15.2664L13.4517 15.1065L12.882 15.0265L13.0956 14.6267C13.1194 14.5734 13.1811 14.4348 13.2381 14.3068C13.3093 14.1469 13.5229 13.987 13.4517 13.907C13.3948 13.8431 13.1906 13.6671 13.0956 13.5872C13.1194 13.5872 13.1384 13.5552 13.0244 13.4273C12.7396 13.1874 12.3123 13.1074 12.3123 12.9475C12.3123 12.7876 12.3835 12.7876 12.3123 12.6276C12.2553 12.4997 12.1461 12.4677 12.0986 12.4677L11.9562 12.5477L11.8138 12.6276L11.3865 11.7252M14.52 13.4273L14.1639 13.5872L13.9502 13.2673C13.879 13.1874 13.7223 13.0114 13.6654 12.9475C13.5942 12.8675 13.5942 12.7876 13.5229 12.7876C13.466 12.7876 13.3093 12.7876 13.2381 12.7876L13.0956 12.5477C13.0482 12.4677 12.939 12.3078 12.882 12.3078C12.825 12.3078 12.6209 12.3078 12.5259 12.3078L12.4547 11.9879" stroke="#60CD8C" stroke-width="0.6" stroke-linejoin="round"/>
</g>
<defs>
<clipPath id="clip0">
<rect width="21" height="21" fill="white" transform="translate(0.990234 0.316895)"/>
</clipPath>
</defs>
</svg>
