<svg width="22" height="22" viewBox="0 0 22 22" fill="none" xmlns="http://www.w3.org/2000/svg">
<g clip-path="url(#clip0)">
<path d="M4.53567 6.70264L4.9517 6.42529C4.85896 6.28619 4.70285 6.20264 4.53567 6.20264C4.36849 6.20264 4.21238 6.28619 4.11965 6.42529L4.53567 6.70264ZM9.19187 6.70264L9.60789 6.42528C9.51516 6.28619 9.35904 6.20264 9.19186 6.20264C9.02469 6.20264 8.86857 6.28619 8.77584 6.42529L9.19187 6.70264ZM11.52 8.03298V7.53298V8.03298ZM13.8481 6.70264L14.2641 6.42528C14.1714 6.28619 14.0152 6.20264 13.8481 6.20264C13.6809 6.20264 13.5248 6.28619 13.432 6.42529L13.8481 6.70264ZM18.5043 6.70264L18.9203 6.42528C18.8275 6.28619 18.6714 6.20264 18.5043 6.20264C18.3371 6.20264 18.181 6.28619 18.0882 6.42529L18.5043 6.70264ZM21.165 8.53298C21.4411 8.53298 21.665 8.30912 21.665 8.03298C21.665 7.75684 21.4411 7.53298 21.165 7.53298V8.53298ZM1.875 7.53298C1.59886 7.53298 1.375 7.75684 1.375 8.03298C1.375 8.30912 1.59886 8.53298 1.875 8.53298V7.53298ZM4.11965 6.97999C4.47975 7.52014 4.86616 7.92015 5.33218 8.17905C5.80154 8.4398 6.30758 8.53298 6.86377 8.53298L6.86377 7.53298C6.42221 7.53298 6.09679 7.45987 5.81783 7.30489C5.53553 7.14806 5.25677 6.88289 4.9517 6.42529L4.11965 6.97999ZM6.86377 8.53298C7.41996 8.53298 7.926 8.4398 8.39536 8.17905C8.86138 7.92015 9.2478 7.52014 9.60789 6.97999L8.77584 6.42529C8.47078 6.88289 8.19202 7.14806 7.90972 7.30489C7.63075 7.45987 7.30533 7.53298 6.86377 7.53298L6.86377 8.53298ZM8.77584 6.97999C9.13595 7.52014 9.52237 7.92015 9.98838 8.17905C10.4577 8.4398 10.9638 8.53298 11.52 8.53298L11.52 7.53298C11.0784 7.53298 10.753 7.45987 10.474 7.30489C10.1917 7.14806 9.91297 6.88289 9.60789 6.42528L8.77584 6.97999ZM11.52 8.53298C12.0762 8.53298 12.5822 8.4398 13.0516 8.17905C13.5176 7.92014 13.904 7.52013 14.2641 6.97998L13.432 6.42529C13.127 6.8829 12.8482 7.14806 12.5659 7.30489C12.287 7.45987 11.9615 7.53298 11.52 7.53298L11.52 8.53298ZM13.432 6.97999C13.7921 7.52014 14.1786 7.92014 14.6446 8.17904C15.1139 8.4398 15.62 8.53298 16.1762 8.53298V7.53298C15.7346 7.53298 15.4092 7.45987 15.1302 7.30489C14.8479 7.14806 14.5692 6.88289 14.2641 6.42528L13.432 6.97999ZM16.1762 8.53298C16.7324 8.53298 17.2384 8.4398 17.7078 8.17905C18.1738 7.92014 18.5602 7.52013 18.9203 6.97998L18.0882 6.42529C17.7832 6.8829 17.5044 7.14806 17.2221 7.30489C16.9432 7.45987 16.6177 7.53298 16.1762 7.53298V8.53298ZM18.0882 6.97999C18.8691 8.15123 19.9796 8.53298 21.165 8.53298V7.53298C20.2218 7.53298 19.4698 7.24955 18.9203 6.42528L18.0882 6.97999ZM1.875 8.53298C2.98803 8.53298 4.1683 8.1551 4.9517 6.97999L4.11965 6.42529C3.57272 7.24569 2.75748 7.53298 1.875 7.53298V8.53298Z" fill="#60CD8C"/>
<path d="M4.53567 10.0283L4.9517 9.75097C4.85896 9.61187 4.70285 9.52832 4.53567 9.52832C4.36849 9.52832 4.21238 9.61187 4.11965 9.75097L4.53567 10.0283ZM9.19187 10.0283L9.60789 9.75097C9.51516 9.61187 9.35904 9.52832 9.19186 9.52832C9.02469 9.52832 8.86857 9.61187 8.77584 9.75097L9.19187 10.0283ZM11.52 11.3587V10.8587V11.3587ZM13.8481 10.0283L14.2641 9.75097C14.1714 9.61187 14.0152 9.52832 13.8481 9.52832C13.6809 9.52832 13.5248 9.61187 13.432 9.75097L13.8481 10.0283ZM18.5043 10.0283L18.9203 9.75097C18.8275 9.61187 18.6714 9.52832 18.5043 9.52832C18.3371 9.52832 18.181 9.61187 18.0882 9.75097L18.5043 10.0283ZM21.165 11.8587C21.4411 11.8587 21.665 11.6348 21.665 11.3587C21.665 11.0825 21.4411 10.8587 21.165 10.8587V11.8587ZM1.875 10.8587C1.59886 10.8587 1.375 11.0825 1.375 11.3587C1.375 11.6348 1.59886 11.8587 1.875 11.8587V10.8587ZM4.11965 10.3057C4.47975 10.8458 4.86616 11.2458 5.33218 11.5047C5.80154 11.7655 6.30758 11.8587 6.86377 11.8587L6.86377 10.8587C6.42221 10.8587 6.09679 10.7856 5.81783 10.6306C5.53553 10.4737 5.25677 10.2086 4.9517 9.75097L4.11965 10.3057ZM6.86377 11.8587C7.41996 11.8587 7.926 11.7655 8.39536 11.5047C8.86138 11.2458 9.2478 10.8458 9.60789 10.3057L8.77584 9.75097C8.47078 10.2086 8.19202 10.4737 7.90972 10.6306C7.63075 10.7856 7.30533 10.8587 6.86377 10.8587L6.86377 11.8587ZM8.77584 10.3057C9.13595 10.8458 9.52237 11.2458 9.98838 11.5047C10.4577 11.7655 10.9638 11.8587 11.52 11.8587L11.52 10.8587C11.0784 10.8587 10.753 10.7856 10.474 10.6306C10.1917 10.4737 9.91297 10.2086 9.60789 9.75097L8.77584 10.3057ZM11.52 11.8587C12.0762 11.8587 12.5822 11.7655 13.0516 11.5047C13.5176 11.2458 13.904 10.8458 14.2641 10.3057L13.432 9.75097C13.127 10.2086 12.8482 10.4737 12.5659 10.6306C12.287 10.7856 11.9615 10.8587 11.52 10.8587L11.52 11.8587ZM13.432 10.3057C13.7921 10.8458 14.1786 11.2458 14.6446 11.5047C15.1139 11.7655 15.62 11.8587 16.1762 11.8587V10.8587C15.7346 10.8587 15.4092 10.7856 15.1302 10.6306C14.8479 10.4737 14.5692 10.2086 14.2641 9.75097L13.432 10.3057ZM16.1762 11.8587C16.7324 11.8587 17.2384 11.7655 17.7078 11.5047C18.1738 11.2458 18.5602 10.8458 18.9203 10.3057L18.0882 9.75097C17.7832 10.2086 17.5044 10.4737 17.2221 10.6306C16.9432 10.7856 16.6177 10.8587 16.1762 10.8587V11.8587ZM18.0882 10.3057C18.8691 11.4769 19.9796 11.8587 21.165 11.8587V10.8587C20.2218 10.8587 19.4698 10.5752 18.9203 9.75097L18.0882 10.3057ZM1.875 11.8587C2.98803 11.8587 4.1683 11.4808 4.9517 10.3057L4.11965 9.75097C3.57272 10.5714 2.75748 10.8587 1.875 10.8587V11.8587Z" fill="#60CD8C"/>
<path d="M4.53567 13.687L4.9517 13.4097C4.85896 13.2706 4.70285 13.187 4.53567 13.187C4.36849 13.187 4.21238 13.2706 4.11965 13.4097L4.53567 13.687ZM9.19187 13.687L9.60789 13.4097C9.51516 13.2706 9.35904 13.187 9.19186 13.187C9.02469 13.187 8.86857 13.2706 8.77584 13.4097L9.19187 13.687ZM11.52 15.0174V14.5174V15.0174ZM13.8481 13.687L14.2641 13.4097C14.1714 13.2706 14.0152 13.187 13.8481 13.187C13.6809 13.187 13.5248 13.2706 13.432 13.4097L13.8481 13.687ZM18.5043 13.687L18.9203 13.4097C18.8275 13.2706 18.6714 13.187 18.5043 13.187C18.3371 13.187 18.181 13.2706 18.0882 13.4097L18.5043 13.687ZM21.165 15.5174C21.4411 15.5174 21.665 15.2935 21.665 15.0174C21.665 14.7412 21.4411 14.5174 21.165 14.5174V15.5174ZM1.875 14.5174C1.59886 14.5174 1.375 14.7412 1.375 15.0174C1.375 15.2935 1.59886 15.5174 1.875 15.5174V14.5174ZM4.11965 13.9644C4.47975 14.5045 4.86616 14.9045 5.33219 15.1634C5.80154 15.4242 6.30758 15.5174 6.86377 15.5174L6.86377 14.5174C6.42221 14.5174 6.09679 14.4442 5.81783 14.2893C5.53553 14.1324 5.25677 13.8673 4.9517 13.4097L4.11965 13.9644ZM6.86377 15.5174C7.41996 15.5174 7.926 15.4242 8.39536 15.1634C8.86138 14.9045 9.2478 14.5045 9.60789 13.9644L8.77584 13.4097C8.47078 13.8673 8.19202 14.1324 7.90972 14.2893C7.63075 14.4442 7.30533 14.5174 6.86377 14.5174L6.86377 15.5174ZM8.77584 13.9644C9.13595 14.5045 9.52237 14.9045 9.98838 15.1634C10.4577 15.4242 10.9638 15.5174 11.52 15.5174L11.52 14.5174C11.0784 14.5174 10.753 14.4442 10.474 14.2893C10.1917 14.1324 9.91297 13.8673 9.60789 13.4097L8.77584 13.9644ZM11.52 15.5174C12.0762 15.5174 12.5822 15.4242 13.0516 15.1634C13.5176 14.9045 13.904 14.5045 14.2641 13.9644L13.432 13.4097C13.127 13.8673 12.8482 14.1324 12.5659 14.2893C12.287 14.4442 11.9615 14.5174 11.52 14.5174L11.52 15.5174ZM13.432 13.9644C13.7921 14.5045 14.1786 14.9045 14.6446 15.1634C15.1139 15.4242 15.62 15.5174 16.1762 15.5174V14.5174C15.7346 14.5174 15.4092 14.4442 15.1302 14.2893C14.8479 14.1324 14.5692 13.8673 14.2641 13.4097L13.432 13.9644ZM16.1762 15.5174C16.7324 15.5174 17.2384 15.4242 17.7078 15.1634C18.1738 14.9045 18.5602 14.5045 18.9203 13.9644L18.0882 13.4097C17.7832 13.8673 17.5044 14.1324 17.2221 14.2893C16.9432 14.4442 16.6177 14.5174 16.1762 14.5174V15.5174ZM18.0882 13.9644C18.8691 15.1356 19.9796 15.5174 21.165 15.5174V14.5174C20.2218 14.5174 19.4698 14.2339 18.9203 13.4097L18.0882 13.9644ZM1.875 15.5174C2.98803 15.5174 4.1683 15.1395 4.9517 13.9644L4.11965 13.4097C3.57272 14.2301 2.75748 14.5174 1.875 14.5174V15.5174Z" fill="#60CD8C"/>
</g>
<defs>
<clipPath id="clip0">
<rect width="21" height="21" fill="white" transform="translate(0.990234 0.316895)"/>
</clipPath>
</defs>
</svg>
