<svg width="22" height="22" viewBox="0 0 22 22" fill="none" xmlns="http://www.w3.org/2000/svg">
<path d="M1.80472 17.0677C1.80472 17.7643 2.23485 18.7409 3.58112 18.7409H21.2875C21.2875 18.7409 21.2875 9.78483 21.2875 4.04617H9.15549H4.79071H4.50406M1.80472 17.0677C1.80472 15.032 1.80472 5.95593 1.80472 4.73446C1.80472 3.30036 2.64459 2.89893 3.73041 2.89893C4.08755 2.89893 4.19641 2.89893 4.50406 2.89893V4.04617M1.80472 17.0677C1.80472 16.2278 2.33728 15.4618 3.73041 15.4618C4.26442 15.4618 4.1856 15.4618 4.50406 15.4618V4.04617" stroke="#60CD8C" stroke-width="0.65" stroke-linejoin="round"/>
<path d="M14.3943 14.4025H10.7315L13.0768 12.3011H21.2555V10.9403H19.7517V8.93477H21.2555V7.52615H15.1347V4.06396H13.5517V7.52615H8.24872V4.06396H6.63947V9.2925H4.50195V10.5583H6.63947V12.9964H4.50195V14.1872H6.63947V18.5324H8.35425M14.3943 14.4025C14.7841 14.118 15.5795 13.6746 16.89 13.6746C18.2005 13.6746 19.3973 14.2768 20.2408 15.2114C21.1454 16.2136 21.2907 17.7127 21.2555 18.5324C21.2555 18.5324 20.2363 18.5324 19.3973 18.5324M14.3943 14.4025C13.8399 14.8072 13.3805 15.4122 13.2273 15.7868H8.35425V18.5324M8.35425 18.5324H14.3943M19.3973 18.5324C17.4435 18.5324 14.3943 18.5324 14.3943 18.5324M19.3973 18.5324C19.7517 17.4645 18.8543 15.454 16.89 15.4309C14.9258 15.4078 14.1401 17.1525 14.3943 18.5324M8.35425 14.1872C8.73416 13.958 12.4348 10.5901 14.2376 8.93477H8.35425V14.1872ZM14.6862 10.8209L16.8232 8.93477H18.1423V10.8209H14.6862Z" stroke="#60CD8C" stroke-width="0.65" stroke-linejoin="round"/>
</svg>
