<svg width="22" height="22" viewBox="0 0 22 22" fill="none" xmlns="http://www.w3.org/2000/svg">
<path d="M18.9731 2.85687C16.0462 1.45105 11.0886 1.29113 10.8692 1.28369C10.6609 1.28369 5.70337 1.45105 2.77644 2.85687C2.6473 2.91837 2.56487 3.04854 2.56445 3.19159V11.1951C2.56445 11.4405 2.71322 17.2535 10.7465 20.8089C10.8424 20.8514 10.9518 20.8514 11.0477 20.8089C19.0512 17.2535 19.1814 11.4331 19.1851 11.1914V3.19159C19.1847 3.04854 19.1023 2.91837 18.9731 2.85687ZM18.4413 11.1876C18.4413 11.2434 18.3037 16.6919 10.8692 20.0614C3.46448 16.7142 3.30083 11.4145 3.29712 11.1914V3.42961C6.03437 2.20975 10.6126 2.03495 10.8692 2.02751C11.1258 2.02007 15.704 2.20975 18.4413 3.42961V11.1876Z" fill="#60CD8C"/>
<path d="M17.2189 4.60895C14.9279 3.49322 11.0563 3.38165 10.8964 3.37793H10.8704C10.6956 3.38165 6.82401 3.50438 4.54793 4.60895C4.41878 4.67045 4.33636 4.80062 4.33594 4.94367V11.1657C4.33594 11.3591 4.45495 15.9299 10.7328 18.7155C10.8287 18.758 10.9381 18.758 11.034 18.7155C17.3156 15.9299 17.4309 11.3591 17.4309 11.162V4.94367C17.4305 4.80062 17.348 4.67045 17.2189 4.60895ZM5.06488 5.18169C7.18476 4.26307 10.6435 4.12919 10.8704 4.11803C12.3039 4.17912 13.729 4.36832 15.1288 4.68333L5.06488 10.924V5.18169ZM16.6759 11.1583C16.6722 11.3294 16.542 15.3832 10.8704 17.9679C9.36248 17.3204 8.00878 16.3609 6.89839 15.1526L16.6759 9.06443V11.1583ZM6.40747 14.565C5.77518 13.7349 5.33558 12.7745 5.12067 11.7533L16.0771 4.96226C16.278 5.02921 16.4751 5.10359 16.661 5.18169L16.6759 8.19044L6.40747 14.565Z" fill="#60CD8C"/>
</svg>
