<svg width="22" height="22" viewBox="0 0 22 22" fill="none" xmlns="http://www.w3.org/2000/svg">
<g clip-path="url(#clip0)">
<rect x="1.56133" y="0.888965" width="3.56852" height="3.56852" rx="0.675" stroke="#60CD8C" stroke-width="0.65"/>
<rect x="17.7312" y="0.888477" width="3.56852" height="3.56852" rx="0.675" stroke="#60CD8C" stroke-width="0.65"/>
<rect x="17.7312" y="17.0594" width="3.56852" height="3.56852" rx="0.675" stroke="#60CD8C" stroke-width="0.65"/>
<rect x="1.56133" y="17.0594" width="3.56852" height="3.56852" rx="0.675" stroke="#60CD8C" stroke-width="0.65"/>
<path d="M5.10352 2.67285H17.7591" stroke="#60CD8C" stroke-width="0.65"/>
<path d="M3.3457 4.43066V17.0862" stroke="#60CD8C" stroke-width="0.65"/>
<path d="M19.5176 4.43066V17.0862" stroke="#60CD8C" stroke-width="0.65"/>
<path d="M5.10352 18.8438H17.7591" stroke="#60CD8C" stroke-width="0.65"/>
<path d="M11.4312 8.2373C10.0411 8.2373 8.91016 9.36828 8.91016 10.7583C8.91016 12.1484 10.0411 13.2794 11.4312 13.2794C12.8212 13.2794 13.9522 12.1484 13.9522 10.7583C13.9522 9.36828 12.8212 8.2373 11.4312 8.2373ZM11.4312 12.6491C10.3886 12.6491 9.54041 11.8009 9.54041 10.7583C9.54041 9.71579 10.3886 8.86756 11.4312 8.86756C12.4737 8.86756 13.322 9.71579 13.322 10.7583C13.322 11.8009 12.4737 12.6491 11.4312 12.6491Z" fill="#60CD8C"/>
<path d="M16.4563 9.5572L15.6458 9.38098C15.5753 9.16519 15.488 8.9547 15.3849 8.75193L15.8337 8.05393C15.9138 7.92921 15.8962 7.76547 15.7914 7.66071L14.5286 6.39794C14.4239 6.29318 14.2601 6.27556 14.1354 6.3557L13.4374 6.80444C13.2347 6.70137 13.0242 6.61406 12.8084 6.54358L12.6322 5.73301C12.6007 5.58818 12.4724 5.48486 12.3242 5.48486H10.5385C10.3903 5.48486 10.262 5.58818 10.2305 5.73301L10.0543 6.54358C9.83853 6.61406 9.62804 6.70137 9.42527 6.80444L8.72727 6.3557C8.60255 6.27556 8.43881 6.29318 8.33405 6.39794L7.07128 7.66071C6.96652 7.76547 6.9489 7.92921 7.02904 8.05393L7.47778 8.75193C7.37471 8.9547 7.2874 9.16519 7.21692 9.38098L6.40635 9.5572C6.26152 9.58874 6.1582 9.71691 6.1582 9.86512V11.6509C6.1582 11.7991 6.26152 11.9273 6.40635 11.9588L7.21692 12.135C7.2874 12.3508 7.37471 12.5613 7.47778 12.7641L7.02904 13.4621C6.9489 13.5868 6.96652 13.7505 7.07128 13.8553L8.33405 15.1181C8.43881 15.2228 8.60255 15.2405 8.72727 15.1603L9.42527 14.7116C9.62804 14.8147 9.83853 14.902 10.0543 14.9724L10.2305 15.783C10.262 15.9278 10.3903 16.0312 10.5385 16.0312H12.3242C12.4724 16.0312 12.6007 15.9278 12.6322 15.783L12.8084 14.9724C13.0242 14.902 13.2347 14.8147 13.4374 14.7116L14.1354 15.1603C14.2601 15.2405 14.4239 15.2229 14.5286 15.1181L15.7914 13.8553C15.8962 13.7505 15.9138 13.5868 15.8337 13.4621L15.3849 12.7641C15.488 12.5613 15.5753 12.3508 15.6458 12.135L16.4563 11.9588C16.6012 11.9273 16.7045 11.7991 16.7045 11.6509V9.86512C16.7045 9.71691 16.6012 9.58874 16.4563 9.5572ZM16.0742 11.3969L15.331 11.5584C15.2168 11.5833 15.1258 11.6692 15.0944 11.7817C15.0127 12.0747 14.8952 12.358 14.7452 12.6238C14.6878 12.7255 14.6913 12.8507 14.7546 12.9491L15.1661 13.5892L14.2626 14.4928L13.6224 14.0812C13.5241 14.018 13.3989 14.0145 13.2972 14.0719C13.0313 14.2219 12.748 14.3394 12.4551 14.421C12.3426 14.4524 12.2566 14.5435 12.2318 14.6577L12.0702 15.4009H10.7925L10.6309 14.6577C10.6061 14.5435 10.5201 14.4524 10.4076 14.421C10.1147 14.3394 9.83137 14.2219 9.5656 14.0719C9.46382 14.0145 9.33862 14.0181 9.24029 14.0812L8.60014 14.4928L7.69663 13.5892L8.10811 12.9491C8.17136 12.8507 8.17498 12.7255 8.11753 12.6238C7.96755 12.358 7.85007 12.0747 7.76832 11.7817C7.73694 11.6692 7.64594 11.5833 7.53177 11.5584L6.78846 11.3969V10.1191L7.53169 9.95757C7.64586 9.93271 7.73694 9.84678 7.76832 9.73429C7.84999 9.44133 7.96747 9.15803 8.11745 8.89226C8.1749 8.79048 8.17136 8.66528 8.10811 8.56695L7.69655 7.9268L8.60006 7.02321L9.24029 7.43477C9.33862 7.49802 9.46382 7.50156 9.56552 7.44411C9.83137 7.29413 10.1147 7.17665 10.4076 7.09498C10.5201 7.0636 10.6061 6.97252 10.6309 6.85835L10.7925 6.11512H12.0702L12.2318 6.85835C12.2566 6.97252 12.3426 7.0636 12.4551 7.09498C12.748 7.17665 13.0313 7.29413 13.2971 7.44411C13.3989 7.50156 13.5241 7.49794 13.6224 7.43477L14.2626 7.02321L15.1661 7.9268L14.7546 8.56695C14.6913 8.66528 14.6877 8.79048 14.7452 8.89226C14.8952 9.15803 15.0126 9.44133 15.0944 9.73429C15.1258 9.84678 15.2168 9.93271 15.3309 9.95757L16.0742 10.1191V11.3969Z" fill="#60CD8C"/>
</g>
<defs>
<clipPath id="clip0">
<rect width="21" height="21" fill="white" transform="translate(0.990234 0.316895)"/>
</clipPath>
</defs>
</svg>
