<svg width="18" height="18" viewBox="0 0 18 18" fill="none" xmlns="http://www.w3.org/2000/svg">
<path opacity="0.8" d="M16.3461 3.8107C16.2091 3.61721 16.0662 3.42852 15.9141 3.24685C14.262 1.26432 11.7759 0 9.00019 0C8.99502 0 8.99095 0.000369253 8.98652 0.000369253C8.98357 0.000369253 8.98135 0 8.9784 0C8.96843 0 8.95809 0.00110776 8.94738 0.00110776C6.19275 0.0169857 3.72835 1.27762 2.08591 3.24685C1.93452 3.42889 1.79088 3.61721 1.65389 3.8107C0.614069 5.27848 0 7.06825 0 9.00018C0 10.9317 0.613699 12.7223 1.65389 14.1897C1.79088 14.3832 1.93452 14.5718 2.08591 14.7535C3.72798 16.7227 6.19238 17.9834 8.94738 17.9993C8.95809 17.9993 8.96843 18.0004 8.9784 18.0004C8.98135 18.0004 8.98357 18 8.98615 18C8.99059 18 8.99465 18.0004 8.99982 18.0004C11.7759 18.0004 14.2617 16.7364 15.9141 14.7539C16.0655 14.5722 16.2091 14.3832 16.3461 14.1897C17.3859 12.7219 18 10.9321 18 8.99981C18 7.06862 17.3859 5.27848 16.3461 3.8107ZM6.36925 1.17053C5.54213 1.96849 4.85458 3.13496 4.38082 4.5348C3.74608 4.29774 3.17484 4.01231 2.68226 3.68958C3.64786 2.54268 4.91772 1.65942 6.36925 1.17053ZM2.24875 4.25417C2.80854 4.62785 3.45547 4.95464 4.17072 5.22383C3.86202 6.35153 3.68478 7.6033 3.67813 8.92412H0.739984C0.755862 7.18678 1.31528 5.57905 2.24875 4.25417ZM0.767678 9.66262H3.69254C3.74017 10.7682 3.90818 11.8172 4.16998 12.7769C3.45437 13.0461 2.8078 13.3729 2.24875 13.7469C1.42126 12.5723 0.887686 11.1758 0.767678 9.66262ZM2.68447 14.3093C3.17706 13.9873 3.74682 13.7026 4.38009 13.4656C4.85384 14.8658 5.54176 16.0315 6.36925 16.8295C4.91772 16.3409 3.65044 15.4558 2.68447 14.3093ZM8.63093 17.2353C7.11552 17.0278 5.80762 15.4736 5.06616 13.2352C6.13515 12.9146 7.34519 12.7204 8.63093 12.689V17.2353ZM8.63093 11.9513C7.27503 11.9838 5.99705 12.1931 4.85901 12.5424C4.62601 11.6577 4.47683 10.6869 4.43215 9.66299H8.63093V11.9513ZM8.63093 8.92412H4.41664C4.42329 7.68379 4.58465 6.51215 4.86233 5.45904C5.99889 5.80725 7.27614 6.01698 8.63056 6.04911L8.63093 8.92412ZM8.63093 5.31134C7.34593 5.27995 6.13626 5.08647 5.06837 4.76595C5.80947 2.52865 7.11625 0.972983 8.63093 0.765093V5.31134ZM17.2593 8.92412H14.2787C14.272 7.60884 14.097 6.36224 13.7905 5.2386C14.5216 4.96683 15.1822 4.63487 15.7512 4.25454C16.6844 5.57942 17.2434 7.18678 17.2593 8.92412ZM15.317 3.69032C14.8145 4.01932 14.2303 4.30919 13.5804 4.54883C13.1022 3.12979 12.4047 1.94929 11.5647 1.14838C13.0431 1.63247 14.3363 2.52569 15.317 3.69032ZM9.36944 0.770632C10.8682 1.00215 12.1592 2.55486 12.8925 4.77703C11.8346 5.09053 10.6386 5.28032 9.36944 5.31134V0.770632ZM9.36944 6.04948C10.708 6.01772 11.9708 5.81242 13.0974 5.4716C13.3736 6.52175 13.5339 7.68896 13.5402 8.92449H9.36944V6.04948ZM9.36944 9.66262H13.525C13.4803 10.6818 13.3319 11.6481 13.1011 12.5302C11.973 12.1883 10.7087 11.9834 9.37018 11.9513L9.36944 9.66262ZM9.36944 17.2297V12.6894C10.6393 12.7204 11.8353 12.9102 12.8947 13.2237C12.1603 15.4466 10.8679 16.9982 9.36944 17.2297ZM11.5647 16.8524C12.4047 16.0518 13.1037 14.8721 13.5819 13.4526C14.2303 13.6919 14.8137 13.9814 15.3155 14.3097C14.3348 15.4739 13.0431 16.3679 11.5647 16.8524ZM15.7512 13.7469C15.1822 13.3666 14.5216 13.0339 13.7901 12.7625C14.0494 11.8069 14.2159 10.7626 14.2628 9.66299H17.232C17.1119 11.1758 16.5799 12.5727 15.7512 13.7469Z" fill="#2C2C2C"/>
</svg>
