<svg width="18" height="21" viewBox="0 0 18 21" fill="none" xmlns="http://www.w3.org/2000/svg">
<path d="M12.2796 13.8794C14.4344 10.4981 14.1635 10.92 14.2256 10.8318C15.0102 9.72526 15.4248 8.42289 15.4248 7.06543C15.4248 3.46552 12.5035 0.5 8.89893 0.5C5.30605 0.5 2.37305 3.45966 2.37305 7.06543C2.37305 8.42202 2.7964 9.75848 3.60664 10.8799L5.5182 13.8795C3.47442 14.1936 0 15.1295 0 17.1904C0 17.9417 0.49035 19.0123 2.82638 19.8466C4.45753 20.4292 6.61412 20.75 8.89893 20.75C13.1714 20.75 17.7979 19.5448 17.7979 17.1904C17.7979 15.1292 14.3275 14.1942 12.2796 13.8794ZM4.59774 10.2273C4.59121 10.2171 4.58441 10.2071 4.57729 10.1973C3.90307 9.26979 3.55957 8.17052 3.55957 7.06543C3.55957 4.09841 5.94867 1.68652 8.89893 1.68652C11.843 1.68652 14.2383 4.09948 14.2383 7.06543C14.2383 8.1723 13.9013 9.23428 13.2635 10.1374C13.2064 10.2128 13.5045 9.74954 8.89893 16.9764L4.59774 10.2273ZM8.89893 19.5635C4.23217 19.5635 1.18652 18.1917 1.18652 17.1904C1.18652 16.5174 2.75147 15.4108 6.21928 14.9795L8.39861 18.3992C8.50753 18.5701 8.69619 18.6736 8.89889 18.6736C9.10158 18.6736 9.29028 18.5701 9.39916 18.3992L11.5785 14.9795C15.0463 15.4108 16.6113 16.5174 16.6113 17.1904C16.6113 18.1832 13.5931 19.5635 8.89893 19.5635Z" fill="#202020"/>
<path d="M8.89891 4.09912C7.26329 4.09912 5.9326 5.42981 5.9326 7.06543C5.9326 8.70105 7.26329 10.0317 8.89891 10.0317C10.5345 10.0317 11.8652 8.70105 11.8652 7.06543C11.8652 5.42981 10.5345 4.09912 8.89891 4.09912ZM8.89891 8.84521C7.91754 8.84521 7.11913 8.0468 7.11913 7.06543C7.11913 6.08406 7.91754 5.28564 8.89891 5.28564C9.88028 5.28564 10.6787 6.08406 10.6787 7.06543C10.6787 8.0468 9.88028 8.84521 8.89891 8.84521Z" fill="#202020"/>
</svg>
