<svg width="17" height="17" viewBox="0 0 17 17" fill="none" xmlns="http://www.w3.org/2000/svg">
<path opacity="0.8" d="M16.1894 0.559596C16.0308 0.480135 15.844 0.480135 15.6855 0.559596L1.06087 7.87185C0.783062 8.0109 0.670576 8.34878 0.809593 8.62659C0.888725 8.78472 1.03763 8.89645 1.21158 8.92818L7.01585 9.98396L8.07163 15.7882C8.11484 16.0261 8.30534 16.2098 8.54468 16.2444C8.57114 16.2482 8.59784 16.2501 8.62454 16.25C8.83774 16.2501 9.03265 16.1297 9.12797 15.9389L16.4403 1.31443C16.5795 1.03669 16.4671 0.698744 16.1894 0.559596ZM8.87601 13.9264L8.05252 9.39951C8.00993 9.17092 7.8311 8.99209 7.60254 8.94954L3.07345 8.12382L14.6792 2.32073L8.87601 13.9264Z" fill="#2C2C2C"/>
</svg>
