<svg width="18" height="18" viewBox="0 0 18 18" fill="none" xmlns="http://www.w3.org/2000/svg">
<path d="M17.5385 3.69232C17.7934 3.69232 18 3.48569 18 3.23078V0.46154C18 0.20663 17.7934 0 17.5385 0H14.7692C14.5143 0 14.3077 0.20663 14.3077 0.46154V1.38462H3.69232V0.46154C3.69232 0.20663 3.48569 0 3.23078 0H0.46154C0.206631 0 0 0.20663 0 0.46154V3.23078C0 3.48569 0.206631 3.69232 0.46154 3.69232H1.38462V14.3077H0.46154C0.206631 14.3077 0 14.5144 0 14.7692V17.5385C0 17.7934 0.206631 18 0.46154 18H3.23078C3.48569 18 3.69232 17.7934 3.69232 17.5385V16.6154H14.3077V17.5385C14.3077 17.7934 14.5144 18 14.7693 18H17.5385C17.7934 18 18 17.7934 18 17.5385V14.7692C18 14.5143 17.7934 14.3077 17.5385 14.3077H16.6154V3.69232H17.5385ZM15.6923 14.3077H14.7692C14.5143 14.3077 14.3077 14.5143 14.3077 14.7692V15.6923H3.69232V14.7692C3.69232 14.5143 3.48569 14.3077 3.23078 14.3077H2.3077V3.69232H3.23078C3.48569 3.69232 3.69232 3.48569 3.69232 3.23078V2.3077H14.3077V3.23078C14.3077 3.48569 14.5144 3.69232 14.7693 3.69232H15.6923L15.6923 14.3077Z" fill="black"/>
<path fill-rule="evenodd" clip-rule="evenodd" d="M5.71488 2.25369L2.25334 5.71523L1.89979 5.36168L5.36133 1.90014L5.71488 2.25369Z" fill="black"/>
<path fill-rule="evenodd" clip-rule="evenodd" d="M7.7918 2.25369L2.25334 7.79215L1.89979 7.4386L7.43825 1.90014L7.7918 2.25369Z" fill="black"/>
<path fill-rule="evenodd" clip-rule="evenodd" d="M9.86872 2.25369L2.25334 9.86908L1.89979 9.51552L9.51517 1.90014L9.86872 2.25369Z" fill="black"/>
<path fill-rule="evenodd" clip-rule="evenodd" d="M11.9457 2.25369L2.25334 11.946L1.89979 11.5924L11.5921 1.90014L11.9457 2.25369Z" fill="black"/>
<path fill-rule="evenodd" clip-rule="evenodd" d="M14.0226 2.25369L2.25334 14.0229L1.89979 13.6694L13.669 1.90014L14.0226 2.25369Z" fill="black"/>
<path fill-rule="evenodd" clip-rule="evenodd" d="M15.4072 2.94601L2.25334 16.0999L1.89979 15.7463L15.0536 2.59245L15.4072 2.94601Z" fill="black"/>
<path fill-rule="evenodd" clip-rule="evenodd" d="M16.0996 4.33063L3.63803 16.7922L3.28447 16.4386L15.746 3.97708L16.0996 4.33063Z" fill="black"/>
<path fill-rule="evenodd" clip-rule="evenodd" d="M16.0997 6.40755L6.4074 16.0999L6.05385 15.7463L15.7462 6.054L16.0997 6.40755Z" fill="black"/>
<path fill-rule="evenodd" clip-rule="evenodd" d="M16.1003 8.48446L8.4849 16.0998L8.13135 15.7463L15.7467 8.13091L16.1003 8.48446Z" fill="black"/>
<path fill-rule="evenodd" clip-rule="evenodd" d="M16.0999 10.5614L10.5615 16.0999L10.2079 15.7463L15.7464 10.2079L16.0999 10.5614Z" fill="black"/>
<path fill-rule="evenodd" clip-rule="evenodd" d="M16.0996 12.6383L12.638 16.0999L12.2845 15.7463L15.746 12.2848L16.0996 12.6383Z" fill="black"/>
</svg>
