<svg width="18" height="18" viewBox="0 0 18 18" fill="none" xmlns="http://www.w3.org/2000/svg">
<path d="M17.4727 11.8477H6.15234V0.527344C6.15234 0.236109 5.91623 0 5.625 0H0.527344C0.236109 0 0 0.236109 0 0.527344V17.4727C0 17.7639 0.236109 18 0.527344 18H17.4727C17.7639 18 18 17.7639 18 17.4727V12.375C18 12.0838 17.7639 11.8477 17.4727 11.8477ZM1.05469 1.05469H5.09766V2.56641H3.9375C3.64627 2.56641 3.41016 2.80252 3.41016 3.09375C3.41016 3.38498 3.64627 3.62109 3.9375 3.62109H5.09766V4.81641H4.5C4.20877 4.81641 3.97266 5.05252 3.97266 5.34375C3.97266 5.63498 4.20877 5.87109 4.5 5.87109H5.09766V7.06641H3.9375C3.64627 7.06641 3.41016 7.30252 3.41016 7.59375C3.41016 7.88498 3.64627 8.12109 3.9375 8.12109H5.09766V9.31641H4.5C4.20877 9.31641 3.97266 9.55252 3.97266 9.84375C3.97266 10.135 4.20877 10.3711 4.5 10.3711H5.09766V11.8477H1.05469V1.05469ZM1.05469 12.9023H5.09766V16.9453H1.05469V12.9023ZM16.9453 16.9453H6.15234V12.9023H7.62891V14.0625C7.62891 14.3537 7.86502 14.5898 8.15625 14.5898C8.44748 14.5898 8.68359 14.3537 8.68359 14.0625V12.9023H9.87891V13.5C9.87891 13.7912 10.115 14.0273 10.4062 14.0273C10.6975 14.0273 10.9336 13.7912 10.9336 13.5V12.9023H12.1289V14.0625C12.1289 14.3537 12.365 14.5898 12.6562 14.5898C12.9475 14.5898 13.1836 14.3537 13.1836 14.0625V12.9023H14.3789V13.5C14.3789 13.7912 14.615 14.0273 14.9062 14.0273C15.1975 14.0273 15.4336 13.7912 15.4336 13.5V12.9023H16.9453V16.9453Z" fill="#202020"/>
</svg>
