<svg width="49" height="49" viewBox="0 0 49 49" fill="none" xmlns="http://www.w3.org/2000/svg">
<g filter="url(#filter0_d)">
<path d="M10 17C10 13.134 13.134 10 17 10H32C35.866 10 39 13.134 39 17V32C39 35.866 35.866 39 32 39H17C13.134 39 10 35.866 10 32V17Z" fill="white"/>
<path d="M33.4 25.4987C33.3996 25.3222 33.308 25.1585 33.1577 25.0659L31.3894 23.9758L33.1596 22.874C33.3089 22.7811 33.3997 22.6178 33.4 22.442C33.4003 22.2661 33.3099 22.1026 33.1609 22.0092L24.9707 16.8776C24.8051 16.7739 24.5949 16.7739 24.4293 16.8776L16.2391 22.0092C16.0901 22.1026 15.9998 22.2661 16 22.442C16.0003 22.6178 16.0911 22.7811 16.2404 22.874L17.9985 23.9682L16.2396 25.0676C16.0904 25.1608 15.9999 25.3244 16 25.5003C16.0002 25.6763 16.0911 25.8396 16.2404 25.9326L17.9985 27.0269L16.2396 28.1261C16.0907 28.2193 16.0001 28.3825 16 28.5581C15.9999 28.7338 16.0903 28.8971 16.2391 28.9904L24.4294 34.122C24.5121 34.1739 24.6061 34.1998 24.7 34.1998C24.7939 34.1998 24.8879 34.1739 24.9707 34.122L33.1609 28.9904C33.3102 28.8968 33.4006 28.7328 33.4 28.5566C33.3993 28.3803 33.3077 28.2169 33.1577 28.1245L31.3894 27.0344L33.1596 25.9326C33.3094 25.8393 33.4004 25.6752 33.4 25.4987ZM17.4722 22.4398L24.7 17.9112L31.9278 22.4398C31.8584 22.4831 24.9071 26.8095 24.7 26.9385L17.4722 22.4398ZM31.9245 28.562L24.7 33.0885L17.4708 28.559L18.9623 27.6267L24.4307 31.0303C24.5131 31.0816 24.6066 31.1072 24.7 31.1072C24.7935 31.1072 24.8869 31.0816 24.9694 31.0303L30.4226 27.6361L31.9245 28.562ZM24.7 29.997L17.473 25.499L18.9623 24.5682L24.4307 27.9717C24.5131 28.023 24.6066 28.0487 24.7 28.0487C24.7935 28.0487 24.8869 28.023 24.9694 27.9717L30.4226 24.5775L31.9222 25.5019C31.8808 25.5277 24.8913 29.8779 24.7 29.997Z" fill="#393939"/>
<circle cx="32.1992" cy="19" r="4" fill="#EC2828"/>
<rect x="33.457" y="20.8855" width="4.44444" height="0.888889" transform="rotate(-135 33.457 20.8855)" fill="white"/>
<rect x="30.3145" y="20.2571" width="4.44444" height="0.888889" transform="rotate(-45 30.3145 20.2571)" fill="white"/>
</g>
<defs>
<filter id="filter0_d" x="0" y="0" width="49" height="49" filterUnits="userSpaceOnUse" color-interpolation-filters="sRGB">
<feFlood flood-opacity="0" result="BackgroundImageFix"/>
<feColorMatrix in="SourceAlpha" type="matrix" values="0 0 0 0 0 0 0 0 0 0 0 0 0 0 0 0 0 0 127 0"/>
<feOffset/>
<feGaussianBlur stdDeviation="5"/>
<feColorMatrix type="matrix" values="0 0 0 0 0 0 0 0 0 0 0 0 0 0 0 0 0 0 0.5 0"/>
<feBlend mode="normal" in2="BackgroundImageFix" result="effect1_dropShadow"/>
<feBlend mode="normal" in="SourceGraphic" in2="effect1_dropShadow" result="shape"/>
</filter>
</defs>
</svg>
