<svg width="19" height="19" viewBox="0 0 19 19" fill="none" xmlns="http://www.w3.org/2000/svg">
<path d="M18.3303 4.68751H14.9821V0.669656C14.9821 0.299809 14.6823 0 14.3125 0H4.93751C4.56766 0 4.26785 0.299809 4.26785 0.669656V4.68751H0.919655C0.549809 4.68751 0.25 4.98732 0.25 5.35713V14.0625C0.25 14.4323 0.549809 14.7321 0.919655 14.7321H4.26785V18.0803C4.26785 18.4502 4.56766 18.75 4.93751 18.75H14.3125C14.6823 18.75 14.9821 18.4502 14.9821 18.0803V14.7321H18.3303C18.7002 14.7321 19 14.4323 19 14.0625V5.35713C19 4.98732 18.7002 4.68751 18.3303 4.68751ZM5.60713 1.33927H13.6428V4.68747H5.60713V1.33927ZM13.6428 17.4107H5.60713V11.3839H13.6428V17.4107ZM17.6607 13.3928H14.9821V11.3839H15.6518C16.0216 11.3839 16.3214 11.0841 16.3214 10.7143C16.3214 10.3444 16.0216 10.0446 15.6518 10.0446H3.5982C3.22835 10.0446 2.92854 10.3444 2.92854 10.7143C2.92854 11.0841 3.22835 11.3839 3.5982 11.3839H4.26785V13.3929H1.58927V6.02678H17.6607V13.3928Z" fill="#202020"/>
<path d="M16.3212 7.36606H15.6516C15.2817 7.36606 14.9819 7.66586 14.9819 8.03571C14.9819 8.40556 15.2817 8.70537 15.6516 8.70537H16.3212C16.6911 8.70537 16.9909 8.40556 16.9909 8.03571C16.9909 7.66586 16.6911 7.36606 16.3212 7.36606Z" fill="#202020"/>
<path d="M11.634 12.7232H7.61619C7.24634 12.7232 6.94653 13.023 6.94653 13.3929C6.94653 13.7627 7.24634 14.0625 7.61619 14.0625H11.634C12.0039 14.0625 12.3037 13.7627 12.3037 13.3929C12.3037 13.023 12.0039 12.7232 11.634 12.7232Z" fill="#202020"/>
<path d="M11.634 14.7321H7.61619C7.24634 14.7321 6.94653 15.0319 6.94653 15.4018C6.94653 15.7716 7.24634 16.0714 7.61619 16.0714H11.634C12.0039 16.0714 12.3037 15.7716 12.3037 15.4018C12.3037 15.0319 12.0039 14.7321 11.634 14.7321Z" fill="#202020"/>
</svg>
