<svg width="16" height="16" viewBox="0 0 16 16" fill="none" xmlns="http://www.w3.org/2000/svg">
<path d="M0 3.80952V0H3.80952V1.08844H1.08844V3.80952H0Z" fill="#202020"/>
<path d="M3.80952 16H0V12.1905H1.08844V14.9116H3.80952V16Z" fill="#202020"/>
<path d="M12.1905 0H16V3.80952H14.9116V1.08844H12.1905V0Z" fill="#202020"/>
<path d="M16 12.1905V16H12.1905V14.9116H14.9116V12.1905H16Z" fill="#202020"/>
<path fill-rule="evenodd" clip-rule="evenodd" d="M8.00022 11.1905C9.76227 11.1905 11.1907 9.76205 11.1907 8C11.1907 6.23795 9.76227 4.80952 8.00022 4.80952C6.23817 4.80952 4.80974 6.23795 4.80974 8C4.80974 9.76205 6.23817 11.1905 8.00022 11.1905ZM8.00022 12.1905C10.3146 12.1905 12.1907 10.3143 12.1907 8C12.1907 5.68566 10.3146 3.80952 8.00022 3.80952C5.68588 3.80952 3.80974 5.68566 3.80974 8C3.80974 10.3143 5.68588 12.1905 8.00022 12.1905Z" fill="#202020"/>
</svg>
