<svg width="50" height="50" viewBox="0 0 50 50" fill="none" xmlns="http://www.w3.org/2000/svg">
<g filter="url(#filter0_d)">
<path d="M10 17C10 13.134 13.134 10 17 10H33C36.866 10 40 13.134 40 17V33C40 36.866 36.866 40 33 40H17C13.134 40 10 36.866 10 33V17Z" fill="white"/>
<path d="M27.4762 20.6947C27.2816 20.6947 27.1236 20.8519 27.1236 21.0464C27.1236 21.2407 27.2816 21.3982 27.4762 21.3982C27.6711 21.3982 27.8287 21.2407 27.8287 21.0464C27.8287 20.8519 27.6711 20.6947 27.4762 20.6947Z" fill="#202020"/>
<path d="M21.0709 27.0873C20.876 27.0873 20.7184 27.2449 20.7184 27.4391C20.7184 27.6338 20.876 27.791 21.0709 27.791C21.2655 27.791 21.4235 27.6338 21.4235 27.4391C21.4235 27.2449 21.2655 27.0873 21.0709 27.0873Z" fill="#202020"/>
<path d="M33.6106 18.1645C33.4916 18.1369 33.3666 18.1728 33.2806 18.2593L31.8192 19.7295H31.1186L30.3473 18.9319V18.2229L31.7878 16.7638C31.873 16.6775 31.9077 16.5533 31.8795 16.4353C31.8514 16.3174 31.7644 16.2223 31.6493 16.1835C31.2874 16.0617 30.9087 16 30.5235 16C29.3754 16 28.3322 16.5344 27.6616 17.4661C27.034 18.3382 26.8405 19.4071 27.1177 20.43L24.521 23.0216L20.1949 18.694V17.8447C20.1949 17.7211 20.1299 17.6065 20.0237 17.543L17.5311 16.0502C17.3923 15.967 17.2148 15.9889 17.1005 16.1031L16.1036 17.098C15.9893 17.2122 15.9674 17.3894 16.0505 17.5279L17.546 20.0156C17.6096 20.1216 17.7243 20.1863 17.8481 20.1865L18.6989 20.1867L23.0254 24.5143L20.4386 27.096C19.4137 26.8195 18.3422 27.0129 17.4679 27.6397C16.535 28.3086 16 29.3494 16 30.4954C16 30.8796 16.0618 31.2577 16.1838 31.6187C16.2228 31.7343 16.3191 31.8216 16.438 31.8491C16.5572 31.8767 16.682 31.8408 16.7681 31.7543L18.2294 30.2843H18.9339L19.7366 31.0854V31.7885L18.2637 33.2469C18.177 33.3328 18.141 33.4575 18.1687 33.5764C18.1962 33.6951 18.2837 33.7912 18.3995 33.8301C18.7612 33.9519 19.1401 34.0136 19.5251 34.0136C20.6733 34.0136 21.716 33.4795 22.3863 32.5484C23.0144 31.6758 23.2081 30.6065 22.9311 29.5836L25.0086 27.5101L25.4845 28.026L25.2661 28.2439C25.1284 28.3813 25.1284 28.6041 25.2661 28.7415C25.4038 28.8788 25.6269 28.8788 25.7647 28.7415L25.9625 28.5442L30.4277 33.3849C30.431 33.3885 30.4344 33.3919 30.4379 33.3954C31.2641 34.22 32.6027 34.2203 33.4294 33.3952C34.2537 32.5721 34.2537 31.2328 33.4294 30.4097C33.4258 30.4062 33.4221 30.4027 33.4184 30.3993L28.5606 25.9513L28.7561 25.7562C28.8938 25.6189 28.8938 25.3961 28.7561 25.2586C28.6184 25.1212 28.3953 25.1212 28.2575 25.2586L28.0406 25.4752L27.5227 25.0008L29.6103 22.9173C29.907 22.9965 30.2133 23.0366 30.5235 23.0366C32.4674 23.0366 34.0486 21.4583 34.0486 19.5184C34.0486 19.134 33.9868 18.756 33.8648 18.3948C33.8258 18.2793 33.7296 18.192 33.6106 18.1645ZM19.0946 19.5864C19.0285 19.5203 18.9389 19.4866 18.8452 19.4866L18.0479 19.4864L16.7968 17.4015L17.4044 16.795L19.4898 18.044V18.8397C19.4898 18.9329 19.5269 19.0222 19.5928 19.0882L24.0225 23.5193L23.5239 24.0168L19.0946 19.5864ZM28.0615 26.4494L32.9358 30.9123C33.4803 31.4615 33.4787 32.3507 32.9307 32.8979C32.3816 33.446 31.4926 33.4476 30.9412 32.9027L26.4614 28.0461L28.0615 26.4494ZM27.5415 25.9732L25.9834 27.528L25.5075 27.012L27.0236 25.4987L27.5415 25.9732ZM30.5235 22.3329C30.2152 22.3329 29.912 22.2836 29.6225 22.1863C29.4957 22.1438 29.3555 22.1765 29.2608 22.2709C27.4935 24.0348 23.6854 27.8353 22.2832 29.2349C22.1884 29.3295 22.1555 29.4694 22.1983 29.5961C22.4914 30.4646 22.3512 31.3909 21.8136 32.1378C21.2775 32.8826 20.4433 33.3099 19.5251 33.3099C19.422 33.3099 19.3194 33.3043 19.2177 33.2934L20.3374 32.1846C20.4041 32.1186 20.4417 32.0287 20.4417 31.9349V30.9395C20.4417 30.8462 20.4045 30.7568 20.3384 30.6908L19.3291 29.6835C19.263 29.6176 19.1734 29.5804 19.0799 29.5804H18.0826C17.9886 29.5804 17.8985 29.618 17.8323 29.6845L16.7214 30.802C16.7104 30.7005 16.7049 30.5982 16.7049 30.4952C16.7049 29.5787 17.1329 28.7462 17.8793 28.2112C18.6275 27.6746 19.5558 27.5346 20.4261 27.8272C20.5529 27.8699 20.6931 27.8371 20.7878 27.7425C20.8073 27.7233 27.7605 20.7835 27.7655 20.7785C27.8602 20.684 27.893 20.5442 27.8503 20.4175C27.5571 19.549 27.697 18.623 28.2342 17.8766C28.7707 17.1311 29.605 16.7037 30.5234 16.7037C30.6297 16.7037 30.7353 16.7096 30.84 16.7212L29.7436 17.8318C29.6786 17.8976 29.6422 17.9863 29.6422 18.0786V19.0739C29.6422 19.1652 29.6776 19.2527 29.7411 19.3183L30.7151 20.3255C30.7815 20.3943 30.873 20.433 30.9687 20.433H31.966C32.0599 20.433 32.15 20.3956 32.2162 20.329L33.3271 19.2116C33.3381 19.3131 33.3436 19.4154 33.3436 19.5184C33.3436 21.0703 32.0785 22.3329 30.5235 22.3329Z" fill="#202020"/>
<path d="M26.2299 21.7925L21.8185 26.1953C21.681 26.3326 21.681 26.5553 21.8185 26.6928C21.9562 26.8302 22.1794 26.8302 22.3172 26.6928L26.7285 22.29C26.8662 22.1527 26.8662 21.93 26.7285 21.7925C26.5908 21.6551 26.3676 21.6551 26.2299 21.7925Z" fill="#202020"/>
<path d="M30.6846 31.1393C30.8223 31.2763 31.0456 31.2763 31.1833 31.1385C31.3207 31.0009 31.3203 30.7781 31.1824 30.6409L28.0049 27.4798C27.8671 27.3426 27.6437 27.343 27.5064 27.4806C27.3688 27.6183 27.3693 27.841 27.5071 27.9781L30.6846 31.1393Z" fill="#202020"/>
</g>
<defs>
<filter id="filter0_d" x="0" y="0" width="50" height="50" filterUnits="userSpaceOnUse" color-interpolation-filters="sRGB">
<feFlood flood-opacity="0" result="BackgroundImageFix"/>
<feColorMatrix in="SourceAlpha" type="matrix" values="0 0 0 0 0 0 0 0 0 0 0 0 0 0 0 0 0 0 127 0"/>
<feOffset/>
<feGaussianBlur stdDeviation="5"/>
<feColorMatrix type="matrix" values="0 0 0 0 0 0 0 0 0 0 0 0 0 0 0 0 0 0 0.5 0"/>
<feBlend mode="normal" in2="BackgroundImageFix" result="effect1_dropShadow"/>
<feBlend mode="normal" in="SourceGraphic" in2="effect1_dropShadow" result="shape"/>
</filter>
</defs>
</svg>
