<svg width="22" height="21" viewBox="0 0 22 21" fill="none" xmlns="http://www.w3.org/2000/svg">
<path d="M5.63937 7.15088C5.47941 6.99092 5.21938 6.99092 5.05947 7.15088C4.8991 7.31125 4.8991 7.57088 5.05947 7.73084C5.21943 7.89122 5.47945 7.89122 5.63937 7.73084C5.79969 7.57088 5.79969 7.31125 5.63937 7.15088Z" fill="#009846"/>
<path d="M11.1934 18.3635C11.3742 18.1186 11.4719 17.8235 11.4719 17.5132C11.4719 16.7216 10.828 16.0777 10.0365 16.0777H3.0643C2.68069 16.0777 2.32022 16.227 2.04923 16.498C1.77813 16.7691 1.62884 17.1295 1.62884 17.5132C1.62884 17.831 1.73285 18.1249 1.90835 18.363C1.25528 18.7064 0.808594 19.3914 0.808594 20.1791V20.5892C0.808594 20.8158 0.992256 20.9994 1.21874 20.9994H11.882C12.1085 20.9994 12.2922 20.8158 12.2922 20.5892V20.1791C12.2922 19.3917 11.8459 18.7071 11.1934 18.3635ZM2.62922 17.078C2.74533 16.9618 2.89987 16.8979 3.0643 16.8979H10.0365C10.3757 16.8979 10.6516 17.1739 10.6516 17.5131C10.6516 17.6776 10.5877 17.8321 10.4715 17.9482C10.3554 18.0644 10.2009 18.1283 10.0364 18.1283H3.0643C2.72507 18.1283 2.44912 17.8523 2.44912 17.5131C2.44912 17.3487 2.51306 17.1941 2.62922 17.078ZM1.62884 20.1791C1.62884 19.5006 2.18081 18.9486 2.85923 18.9486H10.2415C10.92 18.9486 11.4719 19.5006 11.4719 20.1791H1.62884Z" fill="#009846"/>
<path d="M21.4273 17.2317C21.288 17.0159 21.1218 16.825 20.9333 16.6644L19.0169 14.9928C19.0019 14.9704 18.9846 14.949 18.9648 14.9292C18.9315 14.896 18.8938 14.87 18.8537 14.8506L12.3305 9.16017C12.5501 8.93061 12.671 8.63041 12.671 8.31118C12.671 7.98232 12.543 7.67326 12.3103 7.44062C12.2088 7.33927 12.0935 7.25958 11.9702 7.20121L12.4665 6.70492C12.6052 6.74179 12.7478 6.76066 12.8904 6.76066C13.3104 6.76062 13.7305 6.60074 14.0502 6.28098C14.3602 5.97102 14.5309 5.55901 14.5309 5.12084C14.5309 4.68267 14.3602 4.27066 14.0503 3.9607L10.5703 0.480666C10.2604 0.170708 9.84833 0 9.41005 0C8.97198 0 8.56007 0.170708 8.25017 0.480666C7.82181 0.909036 7.68081 1.51726 7.82624 2.0645L2.8748 7.01611C2.73797 6.97972 2.59561 6.96053 2.45017 6.96053C2.01181 6.96053 1.59999 7.13111 1.29029 7.44078C0.650632 8.08047 0.650632 9.12133 1.29029 9.76106L4.77023 13.2412C5.0901 13.561 5.51021 13.7209 5.93032 13.7209C6.35047 13.7209 6.77058 13.561 7.09045 13.2412C7.5188 12.8128 7.65981 12.2046 7.51437 11.6573L8.00962 11.162C8.06913 11.2863 8.14989 11.401 8.25021 11.5013C8.48259 11.7337 8.79155 11.8617 9.12033 11.8617C9.43921 11.8617 9.73927 11.741 9.96916 11.5216L15.6827 18.0864C15.6984 18.111 15.7168 18.1344 15.7383 18.1559C15.7456 18.1633 15.7534 18.1699 15.7612 18.1766L17.4637 20.1328C17.5061 20.1828 17.5513 20.2319 17.5983 20.2789C18.0659 20.7463 18.6835 21 19.3319 21C19.4462 21 19.5616 20.9921 19.6772 20.9761C20.4494 20.8692 21.1168 20.4072 21.5082 19.7084C21.9369 18.9425 21.905 17.9702 21.4273 17.2317ZM8.83023 1.06071C8.98522 0.905714 9.1912 0.820319 9.41009 0.820319C9.62927 0.820319 9.83537 0.905714 9.99032 1.06071L13.4703 4.54079C13.6253 4.69579 13.7106 4.90182 13.7106 5.12088C13.7106 5.33995 13.6253 5.54597 13.4703 5.70097C13.1506 6.02077 12.6302 6.02077 12.3105 5.70097L8.83044 2.22073C8.83052 2.22081 8.83035 2.22064 8.83044 2.22073C8.51065 1.90097 8.51044 1.38047 8.83023 1.06071ZM6.51042 12.6611C6.19059 12.981 5.67008 12.981 5.35025 12.6611L1.87031 9.18105C1.55044 8.86117 1.55044 8.34076 1.87031 8.02083C2.02502 7.86608 2.23099 7.78085 2.45017 7.78085C2.66931 7.78085 2.87516 7.86604 3.02983 8.02067L6.51038 11.5014C6.83021 11.8211 6.83021 12.3414 6.51042 12.6611ZM8.23721 9.77443L7.09041 10.9213L3.6101 7.44087L8.25017 2.80053L11.7304 6.28098L10.5815 7.42996C10.5778 7.43348 10.5742 7.43693 10.5702 7.44083L8.25136 9.75983C8.24656 9.76454 8.24192 9.76946 8.23721 9.77443ZM9.70166 10.6301C9.70084 10.6309 9.70006 10.6317 9.69924 10.6325L9.41042 10.9213C9.33294 10.9988 9.22996 11.0414 9.12028 11.0414C9.01065 11.0414 8.90763 10.9988 8.83019 10.9213C8.75263 10.8438 8.70994 10.7406 8.70994 10.6309C8.70994 10.5235 8.75091 10.4225 8.82527 10.3463L11.1549 8.01657C11.3146 7.86128 11.5727 7.86321 11.7305 8.02083C11.808 8.09835 11.8507 8.20147 11.8507 8.31118C11.8507 8.42082 11.8082 8.52365 11.7305 8.60113L11.4433 8.88828C11.4414 8.89021 11.4394 8.89217 11.4375 8.89414L9.70166 10.6301ZM10.551 10.9408L11.7497 9.74203L16.8249 14.1691L14.9729 16.0212L10.551 10.9408ZM15.5127 16.6414L17.4444 14.7095L18.064 15.25L16.0525 17.2617L15.5127 16.6414ZM20.7925 19.3077C20.5278 19.7803 20.0803 20.0922 19.5647 20.1636C19.0503 20.2348 18.5449 20.0654 18.1782 19.6988C18.1466 19.6673 18.1164 19.6344 18.0883 19.6011C18.087 19.5996 18.0857 19.598 18.0843 19.5965L16.5922 17.8819L18.6836 15.7904L20.3959 17.2841C20.3972 17.2853 20.3985 17.2864 20.3999 17.2875C20.528 17.3965 20.6418 17.5274 20.7383 17.6769C21.0484 18.1562 21.0702 18.8116 20.7925 19.3077Z" fill="#009846"/>
<path d="M8.53893 4.25066C8.37873 4.0905 8.11911 4.0905 7.95891 4.25066L6.21876 5.99089C6.05859 6.15105 6.05859 6.41077 6.21876 6.57089C6.29886 6.651 6.40381 6.69103 6.50877 6.69103C6.61372 6.69103 6.71868 6.65096 6.79878 6.57089L8.53893 4.83067C8.6991 4.67054 8.6991 4.41087 8.53893 4.25066Z" fill="#009846"/>
</svg>
