<svg width="19" height="21" viewBox="0 0 19 21" fill="none" xmlns="http://www.w3.org/2000/svg">
<path d="M18.7023 18.2436L16.4205 15.4111C17.1599 15.1978 17.7986 14.7412 18.2257 14.1207C18.7631 13.2238 18.5201 12.1293 18.2849 11.0721C18.1428 10.529 18.0577 9.97337 18.0311 9.41379C18.0576 8.85372 18.1426 8.29762 18.2849 7.75407C18.5186 6.6961 18.7631 5.60229 18.2257 4.7069C17.6692 3.77855 16.5487 3.43495 15.465 3.10329C14.9255 2.95978 14.4031 2.76222 13.9062 2.51384C13.4552 2.23143 13.0366 1.90376 12.6571 1.53626C11.8531 0.815741 10.9415 0 9.78126 0C8.62104 0 7.70943 0.815741 6.90508 1.5359C6.52573 1.90349 6.10714 2.2313 5.65636 2.51384C5.15949 2.76173 4.63718 2.95878 4.09789 3.10184C3.01417 3.4335 1.8937 3.7771 1.33721 4.70545C0.799846 5.60229 1.04284 6.69683 1.27796 7.75407C1.42013 8.29767 1.50506 8.85372 1.53145 9.41379C1.50492 9.97387 1.41989 10.53 1.27758 11.0735C1.04397 12.1315 0.799471 13.2253 1.33683 14.1207C1.76451 14.7415 2.40392 15.1979 3.14392 15.4107L0.86022 18.2432C0.733097 18.4011 0.762581 18.6285 0.926124 18.7513C1.00468 18.8103 1.10425 18.8366 1.20296 18.8247L3.88415 18.5014L4.54601 20.7375C4.58477 20.8686 4.69652 20.9675 4.83513 20.9935C4.85861 20.9978 4.88247 21 4.90638 21C5.02215 21.0001 5.13151 20.9485 5.20262 20.8602L7.59731 17.8862C8.18661 18.4401 8.96069 18.7738 9.78126 18.8276C10.6018 18.7738 11.3759 18.4401 11.9652 17.8862L14.3599 20.8592C14.4308 20.9478 14.5401 20.9998 14.6561 21C14.6801 21 14.7039 20.9978 14.7274 20.9935C14.866 20.9675 14.9778 20.8686 15.0165 20.7375L15.6784 18.5017L18.3596 18.8251C18.5651 18.8499 18.7526 18.7093 18.7783 18.5109C18.7907 18.4156 18.7634 18.3194 18.7023 18.2436ZM5.06387 19.8526L4.51676 18.0039C4.4659 17.8324 4.29322 17.7222 4.10989 17.7443L2.00994 17.9977L3.89202 15.6617L4.09939 15.7257C4.63816 15.8689 5.15996 16.066 5.65636 16.3137C6.10729 16.5962 6.52596 16.9238 6.90545 17.2913L7.03445 17.4065L5.06387 19.8526ZM9.78126 18.1034C8.91503 18.1034 8.18642 17.4517 7.41469 16.7609C6.99484 16.3559 6.53107 15.9958 6.03135 15.6866C5.48766 15.4118 4.91533 15.1934 4.32401 15.0349C3.33291 14.7311 2.39656 14.4444 1.98557 13.7586C1.59333 13.1036 1.79582 12.1909 2.01069 11.2241C2.16533 10.6313 2.25608 10.0246 2.28144 9.41379C2.25622 8.80294 2.16561 8.19629 2.01107 7.60345C1.7962 6.63709 1.5937 5.72431 1.98594 5.06897C2.39843 4.38321 3.33329 4.09645 4.32439 3.79267C4.91561 3.63418 5.48775 3.41571 6.03135 3.14095C6.53093 2.83183 6.99461 2.47166 7.41432 2.06669C8.18642 1.37586 8.91503 0.724138 9.78126 0.724138C10.6475 0.724138 11.3761 1.37586 12.1478 2.06669C12.5677 2.47171 13.0315 2.83183 13.5312 3.14095C14.0749 3.41576 14.6472 3.63422 15.2385 3.79267C16.2296 4.09645 17.166 4.38321 17.577 5.06897C17.9692 5.72395 17.7667 6.63672 17.5518 7.60345C17.3972 8.19629 17.3064 8.80294 17.2811 9.41379C17.3063 10.0246 17.3969 10.6313 17.5515 11.2241C17.7663 12.1905 17.9688 13.1033 17.5766 13.7586C17.1641 14.4444 16.2292 14.7311 15.2381 15.0349C14.6469 15.1934 14.0748 15.4119 13.5312 15.6866C13.0316 15.9958 12.5679 16.3559 12.1482 16.7609C11.3761 17.4517 10.6475 18.1034 9.78126 18.1034ZM15.4545 17.7443C15.2712 17.7222 15.0985 17.8324 15.0476 18.0039L14.4987 19.8526L12.5284 17.4068L12.6574 17.2917C13.0368 16.9241 13.4554 16.5963 13.9062 16.3137C14.403 16.0659 14.9253 15.8688 15.4646 15.7257L15.672 15.6617L17.5545 17.9977L15.4545 17.7443Z" fill="#009846"/>
<path d="M9.78109 2.89656C6.05326 2.89656 3.03125 5.81442 3.03125 9.4138C3.03125 13.0132 6.05326 15.931 9.78109 15.931C13.5089 15.931 16.5309 13.0132 16.5309 9.4138C16.5266 5.81614 13.5071 2.90076 9.78109 2.89656ZM9.78109 15.2069C6.46748 15.2069 3.78123 12.6132 3.78123 9.4138C3.78123 6.21438 6.46748 3.62069 9.78109 3.62069C13.0947 3.62069 15.781 6.21438 15.781 9.4138C15.777 12.6117 13.0931 15.2031 9.78109 15.2069Z" fill="#009846"/>
<path d="M14.1085 7.90143C13.9674 7.71428 13.7422 7.60354 13.5025 7.60345H11.2068L10.4943 5.49367C10.365 5.11372 9.94116 4.90698 9.54765 5.03185C9.3213 5.10368 9.14374 5.27512 9.06935 5.49367L8.35874 7.60345H6.06117C5.64695 7.60327 5.311 7.92727 5.31081 8.32722C5.31067 8.55895 5.42542 8.77669 5.61943 8.91305L7.47789 10.2165L6.76803 12.3263C6.63997 12.7066 6.85554 13.1152 7.24942 13.2388C7.47784 13.3105 7.72796 13.2722 7.92225 13.1359L9.78183 11.8328L11.6407 13.1362C11.9025 13.324 12.2608 13.324 12.5226 13.1362C12.7884 12.9539 12.899 12.6249 12.7949 12.3266L12.085 10.2165L13.9435 8.91305C14.2784 8.6777 14.3523 8.22476 14.1085 7.90143ZM11.4235 9.78564C11.292 9.87792 11.237 10.0415 11.2874 10.1908L12.0817 12.5508L10.0023 11.0923C9.87094 11.0002 9.6931 11.0002 9.56172 11.0923L7.48239 12.5508L8.27625 10.1908C8.32645 10.0416 8.27151 9.87823 8.14012 9.786L6.06117 8.32758H8.63099C8.79345 8.32758 8.9374 8.22657 8.9876 8.07739L9.78183 5.71743L10.5761 8.07703C10.6263 8.22621 10.7702 8.32722 10.9327 8.32722L13.5025 8.32758L11.4235 9.78564Z" fill="#009846"/>
</svg>
