<svg width="18" height="18" viewBox="0 0 18 18" fill="none" xmlns="http://www.w3.org/2000/svg">
<path d="M18 8.99887C17.9996 8.81631 17.9048 8.64693 17.7494 8.55109L15.9201 7.42342L17.7513 6.28363C17.9057 6.18751 17.9997 6.01859 18 5.83672C18.0003 5.65483 17.9068 5.48562 17.7526 5.38905L9.28 0.0804723C9.10875 -0.0268241 8.89124 -0.0268241 8.72 0.0804723L0.247359 5.38905C0.0932347 5.48562 -0.000245609 5.65483 4.84692e-07 5.83672C0.000281734 6.01862 0.0942542 6.18755 0.248695 6.28363L2.06739 7.41558L0.247887 8.55285C0.0935511 8.64932 -0.00014014 8.81852 3.56409e-05 9.00053C0.000211422 9.18253 0.094219 9.35156 0.24873 9.44775L2.06743 10.5797L0.247887 11.7169C0.0937972 11.8132 0.000141109 11.9821 3.56409e-05 12.1638C-6.98277e-05 12.3455 0.0934104 12.5145 0.247395 12.611L8.72003 17.9195C8.80567 17.9732 8.90284 18 9.00002 18C9.09719 18 9.19439 17.9732 9.28 17.9195L17.7526 12.611C17.9071 12.5142 18.0007 12.3444 18 12.1622C17.9993 11.9799 17.9045 11.8108 17.7494 11.7152L15.9201 10.5875L17.7513 9.44771C17.9063 9.35124 18.0004 9.18144 18 8.99887ZM1.52297 5.83451L9.00002 1.14971L16.4771 5.83451C16.4052 5.87923 9.21429 10.3549 9.00002 10.4883L1.52297 5.83451ZM16.4736 12.1677L9.00002 16.8504L1.52149 12.1646L3.06446 11.2003L8.72137 14.7212C8.80666 14.7743 8.90334 14.8008 9.00002 14.8008C9.0967 14.8008 9.19338 14.7743 9.27866 14.7212L14.92 11.21L16.4736 12.1677ZM9.00002 13.6523L1.52384 8.99912L3.06446 8.03623L8.72137 11.5571C8.80666 11.6102 8.90334 11.6367 9.00002 11.6367C9.0967 11.6367 9.19338 11.6102 9.27866 11.5571L14.92 8.04593L16.4712 9.00218C16.4284 9.02886 9.19795 13.5291 9.00002 13.6523Z" fill="#0096D4"/>
</svg>
