<svg width="22" height="22" viewBox="0 0 22 22" fill="none" xmlns="http://www.w3.org/2000/svg">
<path d="M5.25761 7.15524C5.09755 6.99518 4.83737 6.99518 4.67736 7.15524C4.5169 7.31571 4.5169 7.5755 4.67736 7.73557C4.83741 7.89604 5.0976 7.89604 5.25761 7.73557C5.41803 7.5755 5.41803 7.31571 5.25761 7.15524Z" fill="#0096D5"/>
<path d="M21.0549 17.2423C20.9155 17.0263 20.7492 16.8353 20.5606 16.6746L18.643 15.0021C18.6281 14.9796 18.6108 14.9582 18.591 14.9384C18.5576 14.9051 18.5199 14.8791 18.4797 14.8597L11.9526 9.1658C12.1723 8.93609 12.2933 8.63571 12.2933 8.31629C12.2933 7.98722 12.1652 7.67797 11.9324 7.44519C11.8309 7.34378 11.7155 7.26403 11.5922 7.20563L12.0888 6.70903C12.2275 6.74593 12.3702 6.76481 12.5129 6.76481C12.9332 6.76477 13.3535 6.60479 13.6734 6.28483C13.9836 5.97469 14.1544 5.56243 14.1544 5.12399C14.1544 4.68554 13.9836 4.27329 13.6735 3.96314L10.1914 0.480961C9.88127 0.170813 9.46899 0 9.03045 0C8.59211 0 8.17996 0.170813 7.86987 0.480961C7.44126 0.909595 7.30017 1.51819 7.44569 2.06576L2.49127 7.02041C2.35436 6.98401 2.21192 6.9648 2.06639 6.9648C1.62777 6.9648 1.2157 7.13549 0.905813 7.44535C0.265771 8.08543 0.265771 9.12693 0.905813 9.76705L4.38784 13.2493C4.7079 13.5693 5.12826 13.7294 5.54863 13.7294C5.96903 13.7294 6.38939 13.5693 6.70945 13.2493C7.13806 12.8206 7.27916 12.2121 7.13363 11.6645L7.62918 11.1689C7.68872 11.2932 7.76953 11.408 7.86991 11.5083C8.10244 11.7409 8.41158 11.869 8.74055 11.869C9.05963 11.869 9.35987 11.7482 9.58989 11.5287L15.3069 18.0975C15.3226 18.1221 15.341 18.1456 15.3625 18.1671C15.3699 18.1744 15.3777 18.1811 15.3854 18.1877L17.089 20.1452C17.1313 20.1952 17.1766 20.2443 17.2236 20.2913C17.6915 20.7591 18.3095 21.0129 18.9583 21.0129C19.0727 21.0129 19.1881 21.005 19.3037 20.989C20.0764 20.8821 20.7443 20.4198 21.1359 19.7205C21.5648 18.9541 21.5329 17.9812 21.0549 17.2423ZM8.45028 1.06136C8.60537 0.90627 8.81147 0.820823 9.03049 0.820823C9.2498 0.820823 9.45602 0.90627 9.61107 1.06136L13.0931 4.54358C13.2482 4.69868 13.3336 4.90483 13.3336 5.12403C13.3336 5.34323 13.2482 5.54938 13.0931 5.70447C12.7732 6.02447 12.2526 6.02447 11.9327 5.70447L8.45049 2.22209C8.13051 1.90213 8.1303 1.38132 8.45028 1.06136ZM6.12908 12.6689C5.80906 12.9889 5.28824 12.989 4.96821 12.6689L1.48619 9.18669C1.16612 8.86661 1.16612 8.34588 1.48619 8.02576C1.64098 7.87091 1.84708 7.78563 2.06639 7.78563C2.28566 7.78563 2.49164 7.87087 2.6464 8.02559L6.12904 11.5084C6.44906 11.8283 6.44906 12.349 6.12908 12.6689ZM7.8569 9.78043L6.70941 10.928L3.22702 7.44544L7.86987 2.80225L11.3522 6.28483L10.2026 7.43452C10.1989 7.43805 10.1953 7.4415 10.1913 7.44539L7.87106 9.76582C7.86626 9.77054 7.86162 9.77547 7.8569 9.78043ZM9.32224 10.6366L9.31981 10.639L9.03082 10.928C8.9533 11.0055 8.85025 11.0482 8.74051 11.0482C8.63081 11.0482 8.52772 11.0055 8.45024 10.928C8.37264 10.8504 8.32992 10.7472 8.32992 10.6375C8.32992 10.53 8.37091 10.4289 8.44532 10.3527L10.7764 8.02149C10.9361 7.86611 11.1944 7.86804 11.3523 8.02576C11.4299 8.10333 11.4726 8.2065 11.4726 8.31629C11.4726 8.42599 11.43 8.52888 11.3523 8.60641L11.065 8.89374C11.063 8.89567 11.061 8.89764 11.0591 8.89961L9.32224 10.6366ZM10.1721 10.9475L11.3715 9.74801L16.4497 14.1778L14.5966 16.031L10.1721 10.9475ZM15.1368 16.6516L17.0696 14.7186L17.6896 15.2594L15.6769 17.2723L15.1368 16.6516ZM20.4198 19.3195C20.1549 19.7925 19.7071 20.1046 19.1912 20.176C18.6765 20.2472 18.1708 20.0777 17.8038 19.7109C17.7723 19.6793 17.7421 19.6465 17.7139 19.6131C17.7126 19.6116 17.7113 19.61 17.7099 19.6085L16.2169 17.8929L18.3095 15.8001L20.0229 17.2947L20.0269 17.2981C20.1551 17.4072 20.2689 17.5381 20.3655 17.6878C20.6758 18.1674 20.6976 18.8232 20.4198 19.3195Z" fill="#0096D5"/>
<path d="M8.15891 4.25328C7.99861 4.09302 7.73884 4.09302 7.57854 4.25328L5.83734 5.99457C5.67709 6.15484 5.67709 6.41471 5.83734 6.57494C5.91749 6.65509 6.02251 6.69515 6.12753 6.69515C6.23255 6.69515 6.33757 6.65505 6.41772 6.57494L8.15891 4.83364C8.31917 4.67342 8.31917 4.41359 8.15891 4.25328Z" fill="#0096D5"/>
</svg>
