<svg width="17" height="21" viewBox="0 0 17 21" fill="none" xmlns="http://www.w3.org/2000/svg">
<path d="M15.5286 0.980957H1.82918C1.50678 0.980957 1.2454 1.2433 1.2454 1.5669V4.14503H0.58378C0.261378 4.14503 0 4.40737 0 4.73097C0 5.05456 0.261378 5.31691 0.58378 5.31691H1.2454V7.27004H0.58378C0.261378 7.27004 0 7.53239 0 7.85598C0 8.17957 0.261378 8.44192 0.58378 8.44192H1.2454V10.3951H0.58378C0.261378 10.3951 0 10.6574 0 10.981C0 11.3046 0.261378 11.5669 0.58378 11.5669H1.2454V13.5201H0.58378C0.261378 13.5201 0 13.7824 0 14.106C0 14.4296 0.261378 14.6919 0.58378 14.6919H1.2454V16.6451H0.58378C0.261378 16.6451 0 16.9074 0 17.231C0 17.5546 0.261378 17.817 0.58378 17.817H1.2454V20.3951C1.2454 20.7187 1.50678 20.981 1.82918 20.981H15.5286C15.851 20.981 16.1123 20.7187 16.1123 20.3951V1.5669C16.1123 1.2433 15.851 0.980957 15.5286 0.980957ZM15.1341 20.0361H2.2992V17.817H3.07458C3.39698 17.817 3.65836 17.5546 3.65836 17.231C3.65836 16.9074 3.39698 16.6451 3.07458 16.6451H2.2992V14.6919H3.07458C3.39698 14.6919 3.65836 14.4296 3.65836 14.106C3.65836 13.7824 3.39698 13.5201 3.07458 13.5201H2.2992V11.5669H3.07458C3.39698 11.5669 3.65836 11.3046 3.65836 10.981C3.65836 10.6574 3.39698 10.3951 3.07458 10.3951H2.2992V8.44192H3.07458C3.39698 8.44192 3.65836 8.17957 3.65836 7.85598C3.65836 7.53239 3.39698 7.27004 3.07458 7.27004H2.2992V5.31691H3.07458C3.39698 5.31691 3.65836 5.05456 3.65836 4.73097C3.65836 4.40737 3.39698 4.14503 3.07458 4.14503H2.2992V1.92747H15.1341V20.0361Z" fill="#0096D5"/>
<path d="M4.98156 15.0433C4.98156 15.3669 5.24293 15.6292 5.56534 15.6292C5.88774 15.6292 6.14912 15.3669 6.14912 15.0433C6.14912 13.488 7.09535 11.8792 8.67883 11.8792C10.2623 11.8792 11.2085 13.488 11.2085 15.0433C11.2085 15.3669 11.4699 15.6292 11.7923 15.6292C12.1147 15.6292 12.3761 15.3669 12.3761 15.0433C12.3761 13.5544 11.699 12.0122 10.459 11.2247C11.0596 10.7156 11.4421 9.95481 11.4421 9.10578C11.4421 7.57652 10.2025 6.33233 8.67883 6.33233C7.1552 6.33233 5.91561 7.57652 5.91561 9.10578C5.91561 9.95481 6.29806 10.7156 6.89869 11.2247C5.6587 12.0122 4.98156 13.5546 4.98156 15.0433ZM7.08317 9.10578C7.08317 8.22269 7.799 7.50421 8.67883 7.50421C9.55867 7.50421 10.2745 8.22269 10.2745 9.10578C10.2745 9.98887 9.55867 10.7074 8.67883 10.7074C7.799 10.7074 7.08317 9.98887 7.08317 9.10578Z" fill="#0096D5"/>
</svg>
