<svg width="27" height="17" viewBox="0 0 27 17" fill="none" xmlns="http://www.w3.org/2000/svg">
<path fill-rule="evenodd" clip-rule="evenodd" d="M13.5039 14.0667C13.4433 14.0667 13.3826 14.0529 13.3274 14.0253L0.80708 7.92231C0.605761 7.82579 0.523047 7.58036 0.619569 7.37904C0.716092 7.17772 0.956006 7.09221 1.15732 7.18873L13.5039 13.2062L25.8506 7.19149C26.0519 7.09221 26.2918 7.17772 26.3883 7.37904C26.4876 7.58036 26.4021 7.82579 26.2008 7.92231L13.6804 14.0253C13.6253 14.0529 13.5646 14.0667 13.5039 14.0667Z" fill="#0096D5"/>
<path fill-rule="evenodd" clip-rule="evenodd" d="M13.5039 16.0992C13.4433 16.0992 13.3826 16.0854 13.3274 16.0605L0.80708 9.95756C0.605761 9.85828 0.523047 9.6156 0.619569 9.41428C0.716092 9.21297 0.956006 9.12746 1.15732 9.22398L13.5039 15.2415L25.8506 9.22398C26.0519 9.12746 26.2918 9.21297 26.3883 9.41428C26.4876 9.6156 26.4021 9.85828 26.2008 9.95756L13.6804 16.0605C13.6253 16.0854 13.5646 16.0992 13.5039 16.0992Z" fill="#0096D5"/>
<path fill-rule="evenodd" clip-rule="evenodd" d="M0.983511 9.99894C0.760131 9.99894 0.578125 9.81693 0.578125 9.59079V7.55554C0.578125 7.33216 0.760131 7.15012 0.983511 7.15012C1.20689 7.15012 1.38617 7.33216 1.38617 7.55554V9.59079C1.38617 9.81693 1.20689 9.99894 0.983511 9.99894Z" fill="#0096D5"/>
<path fill-rule="evenodd" clip-rule="evenodd" d="M26.0243 9.99894C25.8009 9.99894 25.6216 9.81693 25.6216 9.59079V7.55554C25.6216 7.33216 25.8009 7.15012 26.0243 7.15012C26.2476 7.15012 26.4297 7.33216 26.4297 7.55554V9.59079C26.4297 9.81693 26.2476 9.99894 26.0243 9.99894Z" fill="#0096D5"/>
<path fill-rule="evenodd" clip-rule="evenodd" d="M13.5039 16.0992C13.2806 16.0992 13.1014 15.9172 13.1014 15.6938V13.6585C13.1014 13.4351 13.2806 13.2531 13.504 13.2531C13.7274 13.2531 13.9066 13.4351 13.9066 13.6585V15.6938C13.9066 15.9172 13.7273 16.0992 13.5039 16.0992Z" fill="#0096D5"/>
<path fill-rule="evenodd" clip-rule="evenodd" d="M17.5548 13.1152C17.3315 13.1152 17.1495 12.9332 17.1495 12.7071C17.1495 12.4837 17.3287 12.3017 17.5494 12.3017H17.5548C17.7782 12.3017 17.9603 12.4837 17.9603 12.7071C17.9603 12.9332 17.7782 13.1152 17.5548 13.1152Z" fill="#0096D5"/>
<path fill-rule="evenodd" clip-rule="evenodd" d="M23.6137 10.1616C23.3903 10.1616 23.2083 9.97963 23.2083 9.75349C23.2083 9.53011 23.3876 9.3481 23.6082 9.3481H23.6137C23.8371 9.3481 24.0163 9.53011 24.0163 9.75349C24.0163 9.97963 23.8371 10.1616 23.6137 10.1616Z" fill="#0096D5"/>
<path fill-rule="evenodd" clip-rule="evenodd" d="M21.5952 11.1462C21.3718 11.1462 21.1898 10.9641 21.1898 10.738C21.1898 10.5146 21.3663 10.3326 21.5896 10.3326H21.5952C21.8158 10.3326 21.9978 10.5146 21.9978 10.738C21.9978 10.9641 21.8158 11.1462 21.5952 11.1462Z" fill="#0096D5"/>
<path fill-rule="evenodd" clip-rule="evenodd" d="M19.5738 12.1307C19.3504 12.1307 19.1684 11.9487 19.1684 11.7226C19.1684 11.4992 19.3477 11.3172 19.571 11.3172H19.5738C19.7972 11.3172 19.9792 11.4992 19.9792 11.7226C19.9792 11.9487 19.7972 12.1307 19.5738 12.1307Z" fill="#0096D5"/>
<path fill-rule="evenodd" clip-rule="evenodd" d="M15.5364 14.0998C15.313 14.0998 15.131 13.9178 15.131 13.6916C15.131 13.4682 15.3075 13.2862 15.5309 13.2862H15.5364C15.7598 13.2862 15.939 13.4682 15.939 13.6916C15.939 13.9178 15.7598 14.0998 15.5364 14.0998Z" fill="#0096D5"/>
<path fill-rule="evenodd" clip-rule="evenodd" d="M9.47754 13.1152C9.25416 13.1152 9.06939 12.9332 9.06939 12.7071C9.06939 12.4837 9.24864 12.3017 9.47202 12.3017H9.47754C9.70092 12.3017 9.88016 12.4837 9.88016 12.7071C9.88016 12.9332 9.70092 13.1152 9.47754 13.1152Z" fill="#0096D5"/>
<path fill-rule="evenodd" clip-rule="evenodd" d="M3.41857 10.1616C3.19519 10.1616 3.01315 9.97963 3.01315 9.75349C3.01315 9.53011 3.18967 9.3481 3.41305 9.3481H3.41857C3.64195 9.3481 3.82119 9.53011 3.82119 9.75349C3.82119 9.97963 3.64195 10.1616 3.41857 10.1616Z" fill="#0096D5"/>
<path fill-rule="evenodd" clip-rule="evenodd" d="M5.43742 11.1462C5.21404 11.1462 5.03204 10.9641 5.03204 10.738C5.03204 10.5146 5.21128 10.3326 5.4319 10.3326H5.43742C5.6608 10.3326 5.84281 10.5146 5.84281 10.738C5.84281 10.9641 5.6608 11.1462 5.43742 11.1462Z" fill="#0096D5"/>
<path fill-rule="evenodd" clip-rule="evenodd" d="M7.45586 12.1307C7.23248 12.1307 7.05048 11.9487 7.05048 11.7226C7.05048 11.4992 7.22975 11.3172 7.45314 11.3172H7.45586C7.67924 11.3172 7.86128 11.4992 7.86128 11.7226C7.86128 11.9487 7.67924 12.1307 7.45586 12.1307Z" fill="#0096D5"/>
<path fill-rule="evenodd" clip-rule="evenodd" d="M11.4962 14.0998C11.2728 14.0998 11.0908 13.9178 11.0908 13.6916C11.0908 13.4682 11.2701 13.2862 11.4935 13.2862H11.4962C11.7196 13.2862 11.8989 13.4682 11.8989 13.6916C11.8989 13.9178 11.7196 14.0998 11.4962 14.0998Z" fill="#0096D5"/>
<path fill-rule="evenodd" clip-rule="evenodd" d="M7.80061 4.64054C7.65169 4.64054 7.50554 4.55506 7.43659 4.41166C7.34007 4.21034 7.42558 3.9649 7.62414 3.86838L9.28706 3.05757C9.49113 2.96105 9.73108 3.0438 9.82761 3.24788C9.92413 3.4492 9.84138 3.69187 9.64006 3.79116L7.97711 4.59917C7.9192 4.62675 7.85852 4.64054 7.80061 4.64054Z" fill="#0096D5"/>
<path fill-rule="evenodd" clip-rule="evenodd" d="M0.983582 7.96369C0.834662 7.96369 0.688514 7.87818 0.619569 7.73477C0.523047 7.53069 0.605761 7.28802 0.80708 7.19149L5.40984 4.94665C5.61392 4.85013 5.85384 4.93564 5.95036 5.13696C6.04688 5.33827 5.96417 5.58371 5.76285 5.68023L1.16008 7.92231C1.10217 7.94989 1.0415 7.96369 0.983582 7.96369Z" fill="#0096D5"/>
<path fill-rule="evenodd" clip-rule="evenodd" d="M19.204 4.64056C19.1461 4.64056 19.0854 4.62676 19.0303 4.59919L17.3673 3.78841C17.166 3.69189 17.0832 3.44921 17.1798 3.24514C17.2763 3.04382 17.519 2.95831 17.7203 3.05759L19.3805 3.86564C19.5818 3.96492 19.6645 4.2076 19.568 4.40892C19.4991 4.55508 19.3557 4.64056 19.204 4.64056Z" fill="#0096D5"/>
<path fill-rule="evenodd" clip-rule="evenodd" d="M26.0241 7.96368C25.9662 7.96368 25.9055 7.94989 25.8503 7.92231L21.2448 5.68023C21.0435 5.58095 20.9608 5.33827 21.0573 5.13419C21.1538 4.93287 21.3965 4.85012 21.5978 4.94664L26.2006 7.18873C26.4019 7.28801 26.4874 7.53069 26.3881 7.73476C26.3192 7.87817 26.1758 7.96368 26.0241 7.96368Z" fill="#0096D5"/>
<path fill-rule="evenodd" clip-rule="evenodd" d="M20.3709 6.33383C19.4801 6.33383 18.7548 5.60577 18.7548 4.70673C18.7548 4.24342 19.2209 1.4498 20.3709 1.4498C21.5209 1.4498 21.9869 4.24342 21.9869 4.70673C21.9869 5.60577 21.2616 6.33383 20.3709 6.33383ZM20.3709 2.27438C20.051 2.47018 19.5628 4.03659 19.5628 4.70673C19.5628 5.15625 19.9241 5.5203 20.3709 5.5203C20.8149 5.5203 21.1789 5.15625 21.1789 4.70673C21.1789 4.03659 20.6908 2.47018 20.3709 2.27438Z" fill="#0096D5"/>
<path fill-rule="evenodd" clip-rule="evenodd" d="M20.3706 7.96093C20.1473 7.96093 19.9652 7.77892 19.9652 7.55278V4.70673C19.9652 4.48335 20.1473 4.30134 20.3706 4.30134C20.594 4.30134 20.7733 4.48335 20.7733 4.70673V7.55278C20.7733 7.77892 20.594 7.96093 20.3706 7.96093Z" fill="#0096D5"/>
<path fill-rule="evenodd" clip-rule="evenodd" d="M6.63727 6.33383C5.7465 6.33383 5.02121 5.60577 5.02121 4.70673C5.02121 4.24342 5.48727 1.4498 6.63727 1.4498C7.78726 1.4498 8.25333 4.24342 8.25333 4.70673C8.25333 5.60577 7.52803 6.33383 6.63727 6.33383ZM6.63727 2.27438C6.31737 2.47018 5.82926 4.03659 5.82926 4.70673C5.82926 5.15625 6.19326 5.5203 6.63727 5.5203C7.08403 5.5203 7.44531 5.15625 7.44531 4.70673C7.44531 4.03659 6.95717 2.47018 6.63727 2.27438Z" fill="#0096D5"/>
<path fill-rule="evenodd" clip-rule="evenodd" d="M6.63673 7.96093C6.41335 7.96093 6.2341 7.77892 6.2341 7.55278V4.70673C6.2341 4.48335 6.41335 4.30134 6.63673 4.30134C6.86011 4.30134 7.04212 4.48335 7.04212 4.70673V7.55278C7.04212 7.77892 6.86011 7.96093 6.63673 7.96093Z" fill="#0096D5"/>
<path fill-rule="evenodd" clip-rule="evenodd" d="M13.501 0.980957C13.5617 0.980957 13.6251 0.994755 13.6802 1.02509L17.7204 3.06034C17.919 3.15962 18.0017 3.40506 17.8996 3.60638C17.8004 3.80494 17.5577 3.88768 17.3591 3.7884L13.501 1.84415L9.64284 3.7884C9.44152 3.88768 9.19885 3.80494 9.09957 3.60638C9.00029 3.40506 9.08027 3.15962 9.27883 3.06034L13.319 1.02509C13.3769 0.994755 13.4376 0.980957 13.501 0.980957Z" fill="#0096D5"/>
</svg>
