<svg width="22" height="20" viewBox="0 0 22 20" fill="none" xmlns="http://www.w3.org/2000/svg">
<path d="M21.1878 19.6131L19.9462 12.7435C19.9155 12.5739 19.7536 12.4613 19.5846 12.4921C19.4156 12.5228 19.3034 12.6853 19.3341 12.8549L19.859 15.7594L15.8117 11.042L18.5338 10.4324L18.9369 10.6575L19.1119 11.6259C19.1425 11.7956 19.3044 11.9081 19.4735 11.8774C19.6425 11.8467 19.7546 11.6842 19.7241 11.5146L19.5227 10.4009C19.5061 10.3089 19.4493 10.2293 19.368 10.1839L15.1773 7.84311C15.1775 7.8432 15.1772 7.84307 15.1773 7.84311C15.1654 7.83647 15.1527 7.83049 15.1402 7.82555C15.1362 7.82401 15.1322 7.82297 15.1282 7.8216C15.1195 7.81853 15.1107 7.81558 15.1018 7.81329C15.0968 7.81201 15.0917 7.81126 15.0865 7.81026C15.0785 7.80868 15.0705 7.80711 15.0624 7.80615C15.057 7.80549 15.0516 7.80528 15.0461 7.80494C15.0382 7.80445 15.0304 7.80403 15.0226 7.80411C15.017 7.80416 15.0114 7.80457 15.0059 7.8049C14.9982 7.8054 14.9905 7.80611 14.9828 7.80719C14.9772 7.80798 14.9716 7.80897 14.966 7.8101C14.9585 7.81159 14.9511 7.81333 14.9436 7.81537C14.938 7.81691 14.9325 7.81857 14.927 7.8204C14.9198 7.82285 14.9126 7.82563 14.9056 7.82862C14.9001 7.83095 14.8947 7.83323 14.8893 7.83589C14.8869 7.83705 14.8845 7.83784 14.8821 7.83904L14.1715 8.21073C14.7002 7.2216 14.9672 6.26362 14.9672 5.34713C14.9672 2.93962 13.0153 0.980957 10.6161 0.980957C8.21682 0.980957 6.26514 2.93962 6.26514 5.34713C6.26514 6.27251 6.53717 7.24021 7.07616 8.23956L6.31047 7.83904C6.30811 7.8378 6.30558 7.83697 6.30318 7.8358C6.29797 7.83323 6.29259 7.83099 6.28729 7.82874C6.28013 7.82571 6.27288 7.82289 6.26556 7.8204C6.26013 7.81857 6.25463 7.81695 6.24912 7.81541C6.24167 7.81338 6.23418 7.81159 6.22665 7.8101C6.22106 7.80897 6.21543 7.80798 6.2098 7.80719C6.20223 7.80611 6.19461 7.80544 6.187 7.80494C6.18128 7.80457 6.17557 7.8042 6.1699 7.80411C6.16229 7.80403 6.15471 7.80445 6.14709 7.8049C6.14138 7.80528 6.13567 7.80548 6.12996 7.80619C6.12222 7.8071 6.11456 7.80864 6.1069 7.81014C6.10148 7.81122 6.09602 7.81201 6.09064 7.81338C6.08215 7.81554 6.07383 7.8184 6.06551 7.82127C6.06117 7.82276 6.05674 7.82393 6.05239 7.82563C6.03989 7.83057 6.02768 7.8363 6.01576 7.84291L1.82477 10.1839C1.7434 10.2293 1.68661 10.3089 1.67005 10.4009L0.489695 16.9315C0.459066 17.1011 0.571236 17.2636 0.740278 17.2943C0.909361 17.3252 1.0712 17.2125 1.10183 17.0428L1.45593 15.0836L5.48169 12.9482L5.15793 17.1429L0.722562 19.1413L0.878649 18.2774C0.909279 18.1078 0.79715 17.9454 0.628108 17.9146C0.45919 17.8839 0.297226 17.9964 0.266555 18.166L0.00500346 19.6132C-0.0156094 19.7271 0.0284309 19.8432 0.119326 19.9146C0.17508 19.9584 0.242755 19.981 0.31105 19.981C0.354222 19.981 0.397641 19.9719 0.438411 19.9536L5.45371 17.6939L10.4669 19.9526C10.4668 19.9526 10.467 19.9527 10.4669 19.9526L10.469 19.9535C10.4718 19.9548 10.4747 19.9557 10.4776 19.9569C10.4822 19.9588 10.4868 19.9606 10.4916 19.9623C10.4961 19.9639 10.5006 19.9655 10.5053 19.967C10.5082 19.9679 10.5112 19.9687 10.5142 19.9695C10.5181 19.9706 10.5219 19.9716 10.5259 19.9725C10.5324 19.974 10.5389 19.9752 10.5454 19.9763C10.5485 19.9768 10.5516 19.9775 10.5547 19.9779C10.5568 19.9782 10.5589 19.9785 10.5611 19.9788C10.5714 19.98 10.582 19.9806 10.5924 19.9807C10.5937 19.9807 10.595 19.981 10.5964 19.981C10.597 19.981 10.5977 19.9808 10.5984 19.9808C10.6109 19.9808 10.6234 19.9797 10.636 19.9781C10.6375 19.9779 10.6391 19.978 10.6407 19.9777C10.643 19.9774 10.6453 19.9766 10.6477 19.9762C10.6575 19.9746 10.6672 19.9725 10.6768 19.9699C10.6794 19.9692 10.6821 19.9687 10.6848 19.968C10.6845 19.9681 10.6851 19.9679 10.6848 19.968C10.6856 19.9678 10.6873 19.9671 10.6881 19.9668C10.7002 19.9631 10.7121 19.9588 10.7238 19.9535L15.7389 17.6939L20.7542 19.9535C20.759 19.9557 20.764 19.9573 20.769 19.9592C20.7739 19.9611 20.7787 19.9632 20.7837 19.9649C20.7902 19.967 20.7968 19.9687 20.8035 19.9704C20.8076 19.9714 20.8115 19.9728 20.8157 19.9736C20.8237 19.9754 20.8318 19.9765 20.8398 19.9776C20.8427 19.978 20.8455 19.9787 20.8484 19.979C20.8595 19.9802 20.8705 19.9808 20.8816 19.9808C20.8967 19.9808 20.9119 19.9793 20.927 19.9771C20.9305 19.9766 20.934 19.9761 20.9374 19.9754C20.9523 19.9727 20.967 19.9692 20.9816 19.9642C20.9825 19.9639 20.9834 19.9634 20.9843 19.9631C20.9939 19.9598 21.0035 19.9561 21.0129 19.9516C21.0156 19.9503 21.0179 19.9485 21.0206 19.9471C21.0285 19.9432 21.036 19.9387 21.0435 19.934C21.0511 19.9294 21.0585 19.9247 21.0656 19.9194C21.0681 19.9176 21.0708 19.9163 21.0732 19.9145C21.0787 19.9102 21.0835 19.9052 21.0886 19.9006C21.0927 19.8969 21.097 19.8934 21.1009 19.8895C21.1103 19.8802 21.1189 19.8702 21.1269 19.8599C21.1284 19.8579 21.1302 19.8562 21.1317 19.8542C21.141 19.8416 21.1492 19.8284 21.1564 19.8146C21.1584 19.8107 21.16 19.8066 21.1619 19.8026C21.1667 19.7925 21.1711 19.7823 21.1748 19.7717C21.1767 19.7663 21.1782 19.761 21.1797 19.7555C21.1826 19.7458 21.1849 19.7359 21.1868 19.7259C21.1879 19.7202 21.1888 19.7144 21.1896 19.7086C21.191 19.698 21.1916 19.6872 21.1919 19.6765C21.192 19.6714 21.1924 19.6663 21.1923 19.6611C21.192 19.6452 21.1907 19.6292 21.1878 19.6131ZM15.7203 8.86078L15.4014 8.93562L15.381 8.67126L15.7203 8.86078ZM15.0417 12.359L13.7427 11.3412C13.6528 11.2708 13.5318 11.2554 13.4271 11.301L10.9087 12.4009V12.0589C11.0969 11.9051 11.5244 11.5425 12.0368 11.0221L14.843 9.78508L15.0417 12.359ZM14.7524 8.61099L14.7921 9.12568L13.0391 9.89851C13.2131 9.68199 13.3754 9.46664 13.526 9.25245L14.7524 8.61099ZM6.44039 8.61099L7.72973 9.28542C7.92067 9.55485 8.12982 9.82624 8.35776 10.0994C8.55706 10.3382 8.7557 10.5601 8.9468 10.7633L6.30355 10.3837L6.44039 8.61099ZM5.53848 12.212L1.59704 14.3026L1.79393 13.2131L5.61725 11.1912L5.53848 12.212ZM5.67408 10.4555L1.935 12.4329L2.25586 10.6576L5.81178 8.6713L5.67408 10.4555ZM5.78078 17.157L6.07528 13.3413L9.74958 18.9451L5.78078 17.157ZM10.2853 15.954L8.36919 12.9238L10.2853 13.154V15.954ZM10.2853 12.5252L7.79236 12.2257C7.67319 12.2117 7.55626 12.2673 7.49223 12.3693C7.4282 12.4712 7.4284 12.6011 7.49277 12.7029L10.2853 17.1191V18.6266L6.15368 12.3253L6.25542 11.0075L9.68729 11.5002C9.94611 11.7412 10.1559 11.9202 10.2853 12.0271L10.2853 12.5252ZM10.6163 11.4903C9.83084 10.8256 6.88725 8.1471 6.88725 5.34717C6.88721 3.28385 8.56008 1.60521 10.6163 1.60521C12.6726 1.60521 14.3454 3.28385 14.3454 5.34717C14.3454 8.1471 11.4018 10.8256 10.6163 11.4903ZM10.9074 19.1865V17.8011L11.8373 18.7675L10.9074 19.1865ZM12.4406 18.4957L10.9074 16.9023V13.0822L13.5056 11.9475L15.1067 13.202L15.412 17.157L12.4406 18.4957ZM15.4499 9.56524L16.5284 9.31217L17.7164 9.9758L15.5196 10.4678L15.4499 9.56524ZM16.0348 17.1429L15.792 13.9967L19.7879 18.8339L16.0348 17.1429ZM15.7088 12.9178L15.6207 11.7761L20.0781 16.9716L20.3639 18.5529L15.7088 12.9178Z" fill="#0096D5"/>
<path fill-rule="evenodd" clip-rule="evenodd" d="M10.5961 7.71173C11.6901 7.71173 12.5769 6.82491 12.5769 5.73096C12.5769 4.63701 11.6901 3.75019 10.5961 3.75019C9.50218 3.75019 8.61536 4.63701 8.61536 5.73096C8.61536 6.82491 9.50218 7.71173 10.5961 7.71173ZM10.5961 8.28865C12.0087 8.28865 13.1538 7.14353 13.1538 5.73096C13.1538 4.31838 12.0087 3.17326 10.5961 3.17326C9.18355 3.17326 8.03843 4.31838 8.03843 5.73096C8.03843 7.14353 9.18355 8.28865 10.5961 8.28865Z" fill="#0096D5"/>
<path fill-rule="evenodd" clip-rule="evenodd" d="M9.27473 7.37768C9.15033 7.27816 9.13016 7.09663 9.22968 6.97223L11.7924 3.76888C11.8919 3.64448 12.0734 3.62431 12.1978 3.72383C12.3222 3.82336 12.3424 4.00488 12.2429 4.12928L9.68018 7.33263C9.58066 7.45703 9.39914 7.4772 9.27473 7.37768Z" fill="#0096D5"/>
</svg>
