<svg width="24" height="21" viewBox="0 0 24 21" fill="none" xmlns="http://www.w3.org/2000/svg">
<path d="M23.1596 16.9508V3.77376C23.1596 3.66786 23.1176 3.56629 23.0427 3.49141C22.9678 3.41653 22.8662 3.37446 22.7603 3.37446H5.56126C5.45978 2.67551 5.09748 2.0409 4.54719 1.59819C3.99689 1.15548 3.2994 0.937507 2.59495 0.988087C1.89049 1.03867 1.2313 1.35405 0.749899 1.87084C0.268497 2.38762 0.000575651 3.06749 0 3.77376V18.1487C0.000832287 18.8898 0.295585 19.6002 0.819593 20.1242C1.3436 20.6482 2.05407 20.943 2.79513 20.9438H13.7161C14.8474 20.9438 15.4559 20.9438 16.4597 20.9438C17.6454 20.9438 18.5369 20.9438 18.7673 20.9438C19.395 20.9438 19.6608 20.9181 20.4158 20.9438C20.99 20.9634 21.0011 20.9438 21.2962 20.9438C21.6501 20.9438 21.9617 20.9438 22.0787 20.9438C22.4422 20.9438 23.1216 21.0673 23.1397 20.0282C23.1216 19.8504 23.131 19.4967 23.1397 19.2348C23.1596 18.6335 23.1397 18.3056 23.1397 17.507L23.1596 16.9508ZM18.368 15.3536C17.3898 15.3525 16.7629 15.3536 16.004 15.3536H12.5438L14.141 13.7564H22.361L22.5131 15.3536C21.2962 15.3536 19.7083 15.3527 18.368 15.3536ZM14.3949 16.9508H9.18399C9.07809 16.9508 8.97652 16.9929 8.90164 17.0677C8.82676 17.1426 8.78469 17.2442 8.78469 17.3501V20.1452H7.98608V17.3501C7.98608 17.2442 7.94401 17.1426 7.86912 17.0677C7.79424 16.9929 7.69268 16.9508 7.58677 16.9508H5.59025V16.1522H7.58677C7.69268 16.1522 7.79424 16.1101 7.86912 16.0352C7.94401 15.9603 7.98608 15.8588 7.98608 15.7529V11.3605C7.98608 11.2546 7.94401 11.1531 7.86912 11.0782C7.79424 11.0033 7.69268 10.9612 7.58677 10.9612H5.59025V10.1626H7.58677C7.69268 10.1626 7.79424 10.1206 7.86912 10.0457C7.94401 9.97079 7.98608 9.86922 7.98608 9.76332V4.17306H8.78469V7.7668C8.78469 7.8727 8.82676 7.97427 8.90164 8.04915C8.97652 8.12403 9.07809 8.1661 9.18399 8.1661H14.7742C14.8801 8.1661 14.9817 8.12403 15.0566 8.04915C15.1315 7.97427 15.1735 7.8727 15.1735 7.7668V4.17306H15.9722V7.7668C15.9722 7.8727 16.0142 7.97427 16.0891 8.04915C16.164 8.12403 16.2656 8.1661 16.3715 8.1661H22.361V8.96471H21.1631C21.0572 8.96471 20.9556 9.00678 20.8808 9.08166C20.8059 9.15655 20.7638 9.25811 20.7638 9.36402V11.7598C20.7638 11.8657 20.8059 11.9673 20.8808 12.0422C20.9556 12.1171 21.0572 12.1591 21.1631 12.1591H22.361V12.9578H13.9756C13.9232 12.9577 13.8713 12.9681 13.8228 12.9881C13.7744 13.0082 13.7304 13.0376 13.6933 13.0747L11.2975 15.4705C11.2416 15.5264 11.2036 15.5975 11.1882 15.675C11.1728 15.7524 11.1807 15.8327 11.2109 15.9057C11.2411 15.9787 11.2923 16.041 11.358 16.0849C11.4236 16.1288 11.5008 16.1522 11.5798 16.1522H15.0251C14.7896 16.3973 14.5785 16.6647 14.3949 16.9508ZM5.59025 15.3536V11.7598H7.18747V15.3536H5.59025ZM5.59025 9.36402V4.17306H7.18747V9.36402H5.59025ZM9.58329 4.17306H14.3749V7.3675H9.58329V4.17306ZM22.361 11.3605H21.5624V9.76332H22.361V11.3605ZM22.361 7.3675H16.7708V4.17306H22.361V7.3675ZM0.798608 3.77376C0.798608 3.24425 1.00895 2.73643 1.38337 2.36201C1.75779 1.98759 2.26562 1.77724 2.79513 1.77724C3.32464 1.77724 3.83246 1.98759 4.20688 2.36201C4.5813 2.73643 4.79165 3.24425 4.79165 3.77376V16.1944C4.53171 15.9283 4.22117 15.7168 3.8783 15.5724C3.53544 15.428 3.16716 15.3536 2.79513 15.3536C2.42309 15.3536 2.05482 15.428 1.71195 15.5724C1.36908 15.7168 1.05855 15.9283 0.798608 16.1944V3.77376ZM0.798608 18.1487C0.798608 17.6192 1.00895 17.1114 1.38337 16.7369C1.75779 16.3625 2.26562 16.1522 2.79513 16.1522C3.32464 16.1522 3.83246 16.3625 4.20688 16.7369C4.5813 17.1114 4.79165 17.6192 4.79165 18.1487C4.79165 18.2546 4.83372 18.3562 4.9086 18.4311C4.98348 18.5059 5.08505 18.548 5.19095 18.548C5.29685 18.548 5.39842 18.5059 5.4733 18.4311C5.54819 18.3562 5.59025 18.2546 5.59025 18.1487V17.7494H7.18747V20.1452H2.79513C2.2658 20.1446 1.75832 19.9341 1.38403 19.5598C1.00974 19.1855 0.799202 18.678 0.798608 18.1487ZM9.58329 20.1452V17.7494H13.9759C13.7116 18.3818 13.5758 19.0605 13.5766 19.7459C13.5766 19.8802 13.5817 20.0133 13.5918 20.1452H9.58329ZM19.1666 20.1452H18.6631C18.4849 20.1452 18.4849 20.1452 18.1712 20.1452C17.8575 20.1452 17.7974 20.1452 17.3842 20.1452C17.1728 20.1452 16.7548 20.1452 16.4597 20.1452C16.1646 20.1452 16.004 20.1452 15.82 20.1452H14.3933C14.4938 20.1452 14.905 20.1452 14.7834 20.1452C14.618 20.1452 14.6031 20.1452 14.3933 20.1452H15.1735C15.2795 20.1452 14.6697 20.1452 14.3933 20.1452C14.3933 20.0406 14.3949 19.8518 14.3949 19.7459C14.3949 19.64 14.3933 19.6935 14.3949 19.6132C14.3954 19.5886 14.3949 19.5652 14.3949 19.5216L14.3933 19.3466C14.488 18.3244 14.9372 17.3676 15.6631 16.6417C16.389 15.9158 16.362 16.2469 17.3842 16.1522H18.368C18.444 16.1522 18.5058 16.1522 18.5724 16.1522C18.6389 16.1522 18.6424 16.1522 18.7483 16.1522C18.8542 16.1522 18.8196 16.1522 18.9432 16.1522C19.0097 16.1522 19.0715 16.1522 19.1666 16.1522H19.8437C20.6355 16.1522 21.0848 16.1522 21.6933 16.1522C22.2009 16.1522 22.361 16.1522 22.361 17.1528V17.507C22.361 15.6477 22.361 17.8696 22.361 18.4711C22.361 18.4711 22.361 18.8508 22.361 19.2348C22.361 19.3407 22.361 19.5109 22.361 19.6518C22.4359 19.7266 22.361 20.1452 21.9691 20.1452H21.2962C20.9131 20.1452 20.6877 20.1452 19.8437 20.1452C19.648 20.1452 19.8437 20.1452 19.1666 20.1452ZM15.2039 11.9127C15.2342 11.9856 15.2854 12.048 15.351 12.0919C15.4167 12.1357 15.4939 12.1591 15.5729 12.1591H19.5659C19.6718 12.1591 19.7734 12.1171 19.8482 12.0422C19.9231 11.9673 19.9652 11.8657 19.9652 11.7598V9.36402C19.9652 9.25811 19.9231 9.15655 19.8482 9.08166C19.7734 9.00678 19.6718 8.96471 19.5659 8.96471H17.9687C17.9162 8.96471 17.8643 8.97504 17.8159 8.9951C17.7674 9.01517 17.7234 9.04458 17.6863 9.08166L15.2905 11.4775C15.2346 11.5333 15.1966 11.6045 15.1812 11.6819C15.1658 11.7594 15.1737 11.8397 15.2039 11.9127ZM18.134 9.76332H19.1666V11.3605H16.5368L18.134 9.76332ZM15.9418 9.21118C15.9115 9.13822 15.8604 9.07587 15.7947 9.032C15.729 8.98812 15.6518 8.96471 15.5729 8.96471H9.18399C9.07809 8.96471 8.97652 9.00678 8.90164 9.08166C8.82676 9.15655 8.78469 9.25811 8.78469 9.36402V15.7529C8.78468 15.8319 8.8081 15.9091 8.85198 15.9747C8.89585 16.0404 8.95822 16.0916 9.03118 16.1218C9.10415 16.152 9.18443 16.1599 9.26189 16.1445C9.33935 16.1291 9.4105 16.0911 9.46635 16.0352L15.8552 9.64637C15.9111 9.59053 15.9491 9.51937 15.9645 9.44191C15.9799 9.36444 15.972 9.28415 15.9418 9.21118ZM9.58329 14.7889V9.76332H14.6089L9.58329 14.7889Z" fill="#0096D5"/>
</svg>
