<svg width="17" height="17" viewBox="0 0 17 17" fill="none" xmlns="http://www.w3.org/2000/svg">
<path d="M12.4755 10.9731C13.3121 9.83069 13.8124 8.42747 13.8124 6.90628C13.8124 3.09829 10.7142 0 6.9062 0C3.09824 0 0 3.09829 0 6.90628C0 10.7143 3.09827 13.8126 6.90624 13.8126C8.42742 13.8126 9.83076 13.3121 10.9731 12.4755L15.4976 17L17 15.4976C17 15.4975 12.4755 10.9731 12.4755 10.9731ZM6.90624 11.6875C4.2697 11.6875 2.12501 9.54282 2.12501 6.90628C2.12501 4.26973 4.2697 2.12502 6.90624 2.12502C9.54277 2.12502 11.6875 4.26973 11.6875 6.90628C11.6875 9.54282 9.54274 11.6875 6.90624 11.6875Z" fill="#ffffff"/>
</svg>
