<svg width="21" height="20" viewBox="0 0 21 20" fill="none" xmlns="http://www.w3.org/2000/svg">
<path d="M18.1998 10.4987C18.1994 10.3222 18.1078 10.1585 17.9575 10.0659L16.1892 8.97578L17.9594 7.87398C18.1087 7.78107 18.1995 7.61777 18.1998 7.44197C18.2001 7.26614 18.1097 7.10257 17.9607 7.00922L9.77047 1.87759C9.60493 1.77387 9.39467 1.77387 9.22913 1.87759L1.03892 7.00922C0.889932 7.10257 0.799567 7.26614 0.799805 7.44197C0.800077 7.61781 0.890917 7.7811 1.04021 7.87398L2.79829 8.9682L1.03943 10.0676C0.890237 10.1608 0.799669 10.3244 0.799839 10.5003C0.800009 10.6763 0.890883 10.8396 1.04024 10.9326L2.79832 12.0269L1.03943 13.1261C0.890475 13.2193 0.799941 13.3825 0.799839 13.5581C0.799737 13.7338 0.890101 13.8971 1.03895 13.9904L9.22917 19.122C9.31195 19.1739 9.40589 19.1998 9.49982 19.1998C9.59375 19.1998 9.68772 19.1739 9.77047 19.122L17.9607 13.9904C18.11 13.8968 18.2004 13.7328 18.1998 13.5566C18.1992 13.3803 18.1075 13.2169 17.9575 13.1245L16.1892 12.0344L17.9594 10.9326C18.1092 10.8393 18.2002 10.6752 18.1998 10.4987ZM2.27201 7.43983L9.49982 2.91119L16.7276 7.43983C16.6582 7.48306 9.70695 11.8095 9.49982 11.9385L2.27201 7.43983ZM16.7243 13.562L9.49982 18.0885L2.27058 13.559L3.76211 12.6267L9.23046 16.0303C9.31291 16.0816 9.40636 16.1072 9.49982 16.1072C9.59328 16.1072 9.68673 16.0816 9.76918 16.0303L15.2224 12.6361L16.7243 13.562ZM9.49982 14.997L2.27285 10.499L3.76211 9.56816L9.23046 12.9717C9.31291 13.023 9.40636 13.0487 9.49982 13.0487C9.59328 13.0487 9.68673 13.023 9.76918 12.9717L15.2224 9.57754L16.722 10.5019C16.6806 10.5277 9.69115 14.8779 9.49982 14.997Z" fill="white"/>
<circle cx="17" cy="4" r="4" fill="#EC2828"/>
<path d="M18.257 5.88598L15.1143 2.74329L15.7428 2.11475L18.8855 5.25744L18.257 5.88598Z" fill="white"/>
<path d="M15.1146 5.25746L18.2573 2.11476L18.8858 2.7433L15.7431 5.88599L15.1146 5.25746Z" fill="white"/>
</svg>
