<svg width="23" height="10" viewBox="0 0 23 10" fill="none" xmlns="http://www.w3.org/2000/svg">
<path d="M5.10658 9H0.282578V0.431999H5.10658V1.536H1.57858V3.984H4.89058V5.076H1.57858V7.884H5.10658V9ZM13.9943 9H12.4223L8.09027 2.076H8.04227C8.05827 2.396 8.07827 2.764 8.10227 3.18C8.12627 3.588 8.13827 4.008 8.13827 4.44V9H6.96227V0.431999H8.52227L12.8423 7.32H12.8783C12.8703 7.152 12.8583 6.94 12.8423 6.684C12.8343 6.428 12.8263 6.156 12.8183 5.868C12.8103 5.572 12.8023 5.296 12.7943 5.04V0.431999H13.9943V9ZM19.8547 4.392H22.9507V8.664C22.4947 8.816 22.0267 8.928 21.5467 9C21.0747 9.08 20.5347 9.12 19.9267 9.12C18.6147 9.12 17.6067 8.732 16.9027 7.956C16.2067 7.172 15.8587 6.092 15.8587 4.716C15.8587 3.82 16.0307 3.044 16.3747 2.388C16.7267 1.724 17.2347 1.212 17.8987 0.852C18.5627 0.492 19.3667 0.312 20.3107 0.312C20.7827 0.312 21.2347 0.36 21.6667 0.456C22.0987 0.544 22.4987 0.668 22.8667 0.827999L22.3987 1.908C22.1027 1.78 21.7707 1.668 21.4027 1.572C21.0427 1.476 20.6627 1.428 20.2627 1.428C19.3107 1.428 18.5627 1.724 18.0187 2.316C17.4747 2.908 17.2027 3.712 17.2027 4.728C17.2027 5.376 17.3027 5.948 17.5027 6.444C17.7027 6.932 18.0187 7.316 18.4507 7.596C18.8827 7.876 19.4467 8.016 20.1427 8.016C20.4867 8.016 20.7747 8 21.0067 7.968C21.2467 7.928 21.4667 7.884 21.6667 7.836V5.508H19.8547V4.392Z" fill="#0096D5"/>
</svg>
