<svg width="14" height="13" viewBox="0 0 14 13" fill="none" xmlns="http://www.w3.org/2000/svg">
<path d="M11.3603 0.399902H2.43225C1.42425 0.399902 0.65625 1.13836 0.65625 2.10759V10.6922C0.65625 11.6614 1.42425 12.3999 2.43225 12.3999H11.3603C12.3683 12.3999 13.1362 11.6614 13.1362 10.6922V2.10759C13.1362 1.13836 12.3683 0.399902 11.3603 0.399902ZM6.89625 9.9999C8.96025 9.9999 10.6403 8.43067 10.6403 6.53836C10.6403 6.21529 10.5922 5.84606 10.4962 5.56913H11.5522V10.4614C11.5522 10.6922 11.3602 10.923 11.0722 10.923H2.72025C2.48025 10.923 2.24025 10.7384 2.24025 10.4614V5.52298H3.34425C3.24825 5.84606 3.20025 6.16913 3.20025 6.49221C3.15225 8.43067 4.83225 9.9999 6.89625 9.9999ZM6.89625 8.61529C5.55225 8.61529 4.49625 7.5999 4.49625 6.35375C4.49625 5.10759 5.55225 4.09221 6.89625 4.09221C8.24025 4.09221 9.29625 5.10759 9.29625 6.35375C9.29625 7.64606 8.24025 8.61529 6.89625 8.61529ZM11.5043 3.67682C11.5043 3.95375 11.2642 4.18452 10.9762 4.18452H9.63225C9.34425 4.18452 9.10425 3.95375 9.10425 3.67682V2.43067C9.10425 2.15375 9.34425 1.92298 9.63225 1.92298H10.9762C11.2642 1.92298 11.5043 2.15375 11.5043 2.43067V3.67682Z" fill="#0096D5"/>
</svg>
