<svg width="6" height="15" viewBox="0 0 6 15" fill="none" xmlns="http://www.w3.org/2000/svg">
<path d="M2.83198 0.490234C1.60536 0.490234 0.607422 1.48817 0.607422 2.71479C0.607422 3.94141 1.60536 4.93934 2.83198 4.93934C4.05859 4.93934 5.05653 3.94141 5.05653 2.71479C5.05653 1.48817 4.05859 0.490234 2.83198 0.490234ZM2.83198 3.72595C2.27442 3.72595 1.82081 3.27234 1.82081 2.71479C1.82081 2.15723 2.27442 1.70363 2.83198 1.70363C3.38953 1.70363 3.84314 2.15723 3.84314 2.71479C3.84314 3.27234 3.38953 3.72595 2.83198 3.72595Z" fill="#FFFFFF"/>
<path d="M4.85357 13.4332V6.15283H0V7.36623H0.808929V13.4332H0V14.6466H5.6625V13.4332H4.85357ZM3.64018 13.4332H2.02232V7.36623H3.64018V13.4332Z" fill="#FFFFFF"/>
</svg>
