<svg width="23" height="12" viewBox="0 0 23 12" fill="none" xmlns="http://www.w3.org/2000/svg">
<path d="M6.70367 0.431999L3.16367 4.584L5.93567 7.86H7.41167V11.328H6.16367V9H5.34767L1.69967 4.656V9H0.403672V0.431999H1.69967V4.584L5.27567 0.431999H6.70367ZM14.0874 9L13.1754 6.528H9.86342L8.95142 9H7.60742L10.8594 0.396H12.2034L15.4434 9H14.0874ZM11.9514 2.988C11.9274 2.9 11.8834 2.768 11.8194 2.592C11.7634 2.416 11.7074 2.232 11.6514 2.04C11.5954 1.848 11.5514 1.692 11.5194 1.572C11.4554 1.82 11.3834 2.084 11.3034 2.364C11.2234 2.644 11.1594 2.852 11.1114 2.988L10.2474 5.4H12.8154L11.9514 2.988ZM21.915 2.436C21.915 3.02 21.723 3.484 21.339 3.828C20.963 4.172 20.463 4.388 19.839 4.476V4.524C20.583 4.612 21.147 4.836 21.531 5.196C21.923 5.548 22.119 6.008 22.119 6.576C22.119 7.328 21.823 7.94 21.231 8.412C20.647 8.884 19.775 9.12 18.615 9.12C18.103 9.12 17.623 9.084 17.175 9.012C16.727 8.94 16.323 8.82 15.963 8.652V7.512C16.339 7.688 16.755 7.828 17.211 7.932C17.675 8.028 18.107 8.076 18.507 8.076C19.267 8.076 19.835 7.944 20.211 7.68C20.595 7.408 20.787 7.024 20.787 6.528C20.787 6.032 20.551 5.668 20.079 5.436C19.607 5.204 18.955 5.088 18.123 5.088H17.019V4.032H18.051C18.947 4.032 19.595 3.904 19.995 3.648C20.403 3.392 20.607 3.04 20.607 2.592C20.607 2.208 20.455 1.908 20.151 1.692C19.847 1.476 19.439 1.368 18.927 1.368C18.415 1.368 17.975 1.436 17.607 1.572C17.247 1.7 16.899 1.872 16.563 2.088L15.963 1.212C16.331 0.955999 16.767 0.743999 17.271 0.576C17.775 0.4 18.355 0.312 19.011 0.312C19.947 0.312 20.663 0.512 21.159 0.912C21.663 1.312 21.915 1.82 21.915 2.436Z" fill="#0096D4"/>
</svg>
