<svg width="19" height="19" viewBox="0 0 19 19" fill="none" xmlns="http://www.w3.org/2000/svg">
<path d="M18.2 9.49872C18.1997 9.32224 18.108 9.1585 17.9578 9.06586L16.1894 7.97578L17.9596 6.87398C18.1089 6.78107 18.1998 6.61777 18.2 6.44197C18.2003 6.26614 18.11 6.10257 17.9609 6.00922L9.77071 0.877595C9.60518 0.773875 9.39492 0.773875 9.22938 0.877595L1.03916 6.00922C0.890176 6.10257 0.799811 6.26614 0.800049 6.44197C0.800321 6.61781 0.891161 6.7811 1.04045 6.87398L2.79853 7.9682L1.03967 9.06756C0.890482 9.16081 0.799913 9.32438 0.800083 9.50031C0.800253 9.67625 0.891127 9.83965 1.04049 9.93263L2.79856 11.0269L1.03967 12.1261C0.890719 12.2193 0.800185 12.3825 0.800083 12.5581C0.799981 12.7338 0.890346 12.8971 1.0392 12.9904L9.22941 18.122C9.3122 18.1739 9.40613 18.1998 9.50006 18.1998C9.594 18.1998 9.68796 18.1739 9.77071 18.122L17.9609 12.9904C18.1103 12.8968 18.2007 12.7328 18.2 12.5566C18.1994 12.3803 18.1078 12.2169 17.9578 12.1245L16.1894 11.0344L17.9596 9.93259C18.1095 9.83934 18.2004 9.6752 18.2 9.49872ZM2.27225 6.43983L9.50006 1.91119L16.7279 6.43983C16.6584 6.48306 9.7072 10.8095 9.50006 10.9385L2.27225 6.43983ZM16.7245 12.562L9.50006 17.0885L2.27082 12.559L3.76236 11.6267L9.2307 15.0303C9.31315 15.0816 9.40661 15.1072 9.50006 15.1072C9.59352 15.1072 9.68698 15.0816 9.76942 15.0303L15.2227 11.6361L16.7245 12.562ZM9.50006 13.997L2.2731 9.49896L3.76236 8.56816L9.2307 11.9717C9.31315 12.023 9.40661 12.0487 9.50006 12.0487C9.59352 12.0487 9.68698 12.023 9.76942 11.9717L15.2227 8.57754L16.7222 9.50191C16.6808 9.52771 9.6914 13.8779 9.50006 13.997Z" fill="white"/>
</svg>
