<svg width="14" height="12" viewBox="0 0 14 12" fill="none" xmlns="http://www.w3.org/2000/svg">
<path fill-rule="evenodd" clip-rule="evenodd" d="M1.94737 0.240234C1.30701 0.240234 0.75 0.72094 0.75 1.35866C0.757154 7.10935 5.83431 11.7337 12.0526 11.7402C12.693 11.7402 13.25 11.2595 13.25 10.6218V8.60129C13.25 7.96358 12.6926 7.48287 12.0522 7.48287C11.3459 7.484 10.6442 7.38159 9.97369 7.17973C9.57424 7.05254 9.12852 7.13479 8.81053 7.40177L7.57687 8.25581C6.27155 7.62546 5.20642 6.65235 4.51605 5.46591L5.39786 4.39187C5.71031 4.0959 5.82679 3.65742 5.68558 3.25232L5.68478 3.2501C5.46544 2.63947 5.35431 2.00071 5.35528 1.35866C5.35528 0.72094 4.79827 0.240234 4.15791 0.240234H1.94737ZM1.94764 1.06918C1.77323 1.06918 1.63184 1.1988 1.63184 1.35867C1.63844 6.63194 6.30023 10.9053 12.0529 10.9113C12.2273 10.9113 12.3687 10.7817 12.3687 10.6218V8.6013C12.3687 8.44143 12.2273 8.31182 12.0529 8.31182C11.2528 8.31206 10.4579 8.1948 9.69836 7.96445C9.58559 7.93015 9.46137 7.95677 9.37687 8.03335L7.82132 9.11657C7.72472 9.18342 7.59496 9.19376 7.48723 9.1432C5.7653 8.39318 4.37826 7.12173 3.56006 5.54329C3.50538 5.44459 3.51689 5.32591 3.58975 5.23761L4.73924 3.84235C4.84247 3.76113 4.88486 3.63236 4.84786 3.51235C4.59861 2.81734 4.47237 2.09026 4.47394 1.35867C4.47394 1.1988 4.33255 1.06918 4.15814 1.06918H1.94764Z" fill="white"/>
<path d="M12.7488 4.49022C12.6107 4.49022 12.4988 4.37828 12.4988 4.24021C12.4966 2.44619 11.0428 0.992416 9.24881 0.990213C9.11074 0.990213 8.9988 0.878276 8.9988 0.740206C8.9988 0.602136 9.11074 0.490222 9.24881 0.490222C11.319 0.492425 12.9966 2.17005 12.9988 4.24021C12.9988 4.37828 12.8869 4.49022 12.7488 4.49022Z" fill="white"/>
<path fill-rule="evenodd" clip-rule="evenodd" d="M9.24884 0.690222C9.2212 0.690222 9.19883 0.712617 9.19883 0.740206C9.19883 0.767819 9.22122 0.790213 9.24884 0.790213C11.1531 0.792552 12.6965 2.33568 12.6988 4.23997C12.6988 4.26758 12.7212 4.29022 12.7488 4.29022C12.7764 4.29022 12.7988 4.26785 12.7988 4.24021C12.7966 2.28044 11.2086 0.692308 9.24884 0.690222ZM8.79883 0.740206C8.79883 0.491655 9.00033 0.290222 9.24884 0.290222C11.4293 0.292543 13.1965 2.05955 13.1988 4.24C13.1988 4.4885 12.9974 4.69022 12.7488 4.69022C12.5004 4.69022 12.299 4.48887 12.2988 4.24046C12.2968 2.55671 10.9323 1.19228 9.24859 1.19021C9.00018 1.19008 8.79883 0.988651 8.79883 0.740206Z" fill="white"/>
<path d="M10.7488 4.49027C10.6107 4.49027 10.4988 4.37833 10.4988 4.24026C10.4988 3.54992 9.93915 2.99028 9.24881 2.99028C9.11074 2.99028 8.9988 2.87835 8.9988 2.74028C8.9988 2.60221 9.11074 2.49027 9.24881 2.49027C10.2153 2.49027 10.9988 3.27378 10.9988 4.24026C10.9988 4.37833 10.8869 4.49027 10.7488 4.49027Z" fill="white"/>
<path fill-rule="evenodd" clip-rule="evenodd" d="M9.24883 2.69027C9.22122 2.69027 9.19883 2.71267 9.19883 2.74028C9.19883 2.76789 9.22122 2.79028 9.24883 2.79028C10.0496 2.79028 10.6988 3.43946 10.6988 4.24027C10.6988 4.26788 10.7212 4.29027 10.7488 4.29027C10.7764 4.29027 10.7988 4.26788 10.7988 4.24027C10.7988 3.38424 10.1049 2.69027 9.24883 2.69027ZM8.79883 2.74028C8.79883 2.49175 9.00031 2.29027 9.24883 2.29027C10.3258 2.29027 11.1988 3.16333 11.1988 4.24027C11.1988 4.48879 10.9973 4.69027 10.7488 4.69027C10.5003 4.69027 10.2988 4.48879 10.2988 4.24027C10.2988 3.66038 9.82872 3.19028 9.24883 3.19028C9.00031 3.19028 8.79883 2.9888 8.79883 2.74028Z" fill="white"/>
</svg>
