<svg width="24" height="12" viewBox="0 0 24 12" fill="none" xmlns="http://www.w3.org/2000/svg">
<path d="M8.73516 4.704C8.73516 5.728 8.53516 6.604 8.13516 7.332C7.74316 8.06 7.15116 8.568 6.35916 8.856L8.41116 11.04H6.63516L5.00316 9.108C4.96316 9.108 4.91916 9.108 4.87116 9.108C4.83116 9.116 4.79116 9.12 4.75116 9.12C3.84716 9.12 3.09916 8.936 2.50716 8.568C1.91516 8.2 1.47516 7.684 1.18716 7.02C0.899156 6.356 0.755156 5.58 0.755156 4.692C0.755156 3.812 0.899156 3.044 1.18716 2.388C1.48316 1.732 1.92716 1.22 2.51916 0.852C3.11116 0.484 3.85916 0.3 4.76316 0.3C5.64316 0.3 6.37516 0.484 6.95916 0.852C7.55116 1.212 7.99516 1.724 8.29116 2.388C8.58716 3.044 8.73516 3.816 8.73516 4.704ZM2.12316 4.704C2.12316 5.728 2.33516 6.536 2.75916 7.128C3.18316 7.72 3.84716 8.016 4.75116 8.016C5.66316 8.016 6.32716 7.72 6.74316 7.128C7.15916 6.536 7.36716 5.728 7.36716 4.704C7.36716 3.68 7.15916 2.876 6.74316 2.292C6.33516 1.708 5.67516 1.416 4.76316 1.416C3.85116 1.416 3.18316 1.708 2.75916 2.292C2.33516 2.876 2.12316 3.68 2.12316 4.704ZM15.7027 9L14.7907 6.528H11.4787L10.5667 9H9.22266L12.4747 0.396H13.8187L17.0587 9H15.7027ZM13.5667 2.988C13.5427 2.9 13.4987 2.768 13.4347 2.592C13.3787 2.416 13.3227 2.232 13.2667 2.04C13.2107 1.848 13.1667 1.692 13.1347 1.572C13.0707 1.82 12.9987 2.084 12.9187 2.364C12.8387 2.644 12.7747 2.852 12.7267 2.988L11.8627 5.4H14.4307L13.5667 2.988ZM23.5422 9H17.4822V8.076L21.8742 1.548H17.6142V0.431999H23.4342V1.356L19.0422 7.884H23.5422V9Z" fill="white"/>
</svg>
