<svg width="22" height="10" viewBox="0 0 22 10" fill="none" xmlns="http://www.w3.org/2000/svg">
<path d="M2.81344 0.431999C3.93344 0.431999 4.74944 0.66 5.26144 1.116C5.77344 1.564 6.02944 2.192 6.02944 3C6.02944 3.48 5.92144 3.928 5.70544 4.344C5.49744 4.76 5.14544 5.1 4.64944 5.364C4.15344 5.62 3.48144 5.748 2.63344 5.748H1.70944V9H0.413438V0.431999H2.81344ZM2.71744 1.524H1.70944V4.656H2.48944C3.21744 4.656 3.76544 4.532 4.13344 4.284C4.50944 4.036 4.69744 3.624 4.69744 3.048C4.69744 2.536 4.53744 2.156 4.21744 1.908C3.89744 1.652 3.39744 1.524 2.71744 1.524ZM11.5411 6.54C11.2851 7.108 11.0251 7.584 10.7611 7.968C10.5051 8.344 10.1891 8.632 9.81309 8.832C9.44509 9.024 8.96909 9.12 8.38509 9.12C7.93709 9.12 7.52909 9.06 7.16109 8.94V7.728C7.51309 7.88 7.89709 7.956 8.31309 7.956C8.74509 7.956 9.07709 7.86 9.30909 7.668C9.54909 7.476 9.76109 7.168 9.94509 6.744L6.75309 0.431999H8.15709L10.3051 4.848C10.3531 4.944 10.4091 5.068 10.4731 5.22C10.5451 5.372 10.6011 5.508 10.6411 5.628H10.6891C10.7291 5.532 10.7771 5.404 10.8331 5.244C10.8971 5.084 10.9531 4.952 11.0011 4.848L12.8971 0.431999H14.2531L11.5411 6.54ZM18.9328 1.428C18.0768 1.428 17.4088 1.724 16.9288 2.316C16.4488 2.9 16.2088 3.704 16.2088 4.728C16.2088 5.744 16.4328 6.544 16.8808 7.128C17.3288 7.712 18.0088 8.004 18.9208 8.004C19.2888 8.004 19.6408 7.972 19.9768 7.908C20.3208 7.836 20.6688 7.744 21.0208 7.632V8.748C20.6848 8.876 20.3408 8.968 19.9888 9.024C19.6448 9.088 19.2368 9.12 18.7648 9.12C17.8848 9.12 17.1568 8.94 16.5808 8.58C16.0048 8.212 15.5728 7.7 15.2848 7.044C14.9968 6.38 14.8528 5.604 14.8528 4.716C14.8528 3.852 15.0088 3.088 15.3208 2.424C15.6408 1.76 16.1048 1.244 16.7128 0.875999C17.3208 0.5 18.0648 0.312 18.9448 0.312C19.3768 0.312 19.7968 0.36 20.2048 0.456C20.6208 0.544 21.0008 0.672 21.3448 0.84L20.8648 1.92C20.5848 1.792 20.2808 1.68 19.9528 1.584C19.6328 1.48 19.2928 1.428 18.9328 1.428Z" fill="#0096D4"/>
</svg>
