<svg width="22" height="22" viewBox="0 0 22 22" fill="none" xmlns="http://www.w3.org/2000/svg">
<path d="M9.31437 19.6292V16.8473H13.8627C15.0859 16.8473 21.356 16.8473 21.356 16.8473C21.356 16.8473 21.356 18.7278 21.356 19.7262C21.356 19.7262 20.3587 19.7262 19.5756 19.7262C17.752 19.7262 14.8941 19.6759 14.8941 19.6759L9.31437 19.6292ZM9.31437 19.6292H7.71384V15.2265H5.71875V14.0199H7.71384V11.5495H5.71875V10.267H7.71384V4.96924H9.21587V8.47725H14.1655V4.96924H15.643V8.47725H21.356V9.90451H19.9524V11.9365H21.356V13.3154H13.7223L11.5333 15.4447H21.1331M9.31437 15.2265C9.66897 14.9943 13.123 11.5817 14.8058 9.90451H9.31437V15.2265ZM15.2244 11.8156L17.219 9.90451H18.4503V11.8156H15.2244Z" stroke="#EB5757" stroke-width="0.6" stroke-linejoin="round"/>
<path d="M5.71509 3.96119C5.71509 2.86617 4.77252 1.81543 3.66389 1.81543C2.55525 1.81543 1.54688 2.52103 1.54688 3.96119C1.54688 5.32 1.57627 15.2246 1.5724 17.4893M5.71509 3.96119V17.4893C5.71509 15.4403 3.62108 15.4403 3.62108 15.4403C3.62108 15.4403 1.5759 15.4403 1.5724 17.4893M5.71509 3.96119H8.96107H21.3571C21.3571 10.3451 21.3571 19.7416 21.3571 19.7416L3.67484 19.6236C3.67484 19.6236 1.56878 19.606 1.5724 17.4893" stroke="#60CD8C" stroke-width="0.65" stroke-linejoin="round"/>
</svg>
