<svg width="22" height="22" viewBox="0 0 22 22" fill="none" xmlns="http://www.w3.org/2000/svg">
<g clip-path="url(#clip0)">
<path d="M16.1304 6.9834C13.174 6.9834 10.7687 9.38864 10.7687 12.3451C10.7687 13.0706 10.9171 13.7853 11.1976 14.445H7.20088V12.4244C7.20088 12.2098 7.02694 12.0359 6.81235 12.0359C6.59777 12.0359 6.42383 12.2098 6.42383 12.4244V14.8336C6.42383 15.0481 6.59777 15.2221 6.81235 15.2221H11.6063C11.7163 15.3952 11.8363 15.5626 11.9664 15.7228C11.9723 15.7319 11.9787 15.7408 11.9855 15.7495L15.3343 20.0398H13.5132C13.2986 20.0398 13.1247 20.2137 13.1247 20.4283C13.1247 20.6429 13.2986 20.8169 13.5132 20.8169H18.76C18.9746 20.8169 19.1485 20.6429 19.1485 20.4283C19.1485 20.2137 18.9746 20.0398 18.76 20.0398H16.9263L20.2938 15.7236C20.2952 15.7218 20.2965 15.72 20.2978 15.7182C21.068 14.7677 21.4921 13.5703 21.4921 12.3451C21.4921 9.38861 19.0868 6.9834 16.1304 6.9834ZM19.686 15.2391C19.6811 15.245 19.6765 15.2511 19.6721 15.2572L16.1304 19.7968L12.6251 15.3062C12.6159 15.2912 12.6056 15.2768 12.5942 15.263C11.9182 14.4447 11.5458 13.4084 11.5458 12.3451C11.5458 9.81711 13.6025 7.76045 16.1304 7.76045C18.6584 7.76045 20.715 9.81711 20.715 12.3451C20.715 13.3971 20.3496 14.4249 19.686 15.2391Z" fill="#60CD8C"/>
<path d="M19.1619 11.446C19.0962 11.2417 18.8773 11.1294 18.673 11.1951C18.4688 11.2608 18.3565 11.4797 18.4222 11.684C18.7006 12.5492 18.4747 13.4855 17.8326 14.1276C16.8934 15.0668 15.3652 15.0668 14.426 14.1276C13.971 13.6727 13.7204 13.0677 13.7204 12.4243C13.7204 11.7809 13.971 11.176 14.426 10.721C15.0399 10.107 15.9415 9.8707 16.7789 10.1042C16.9855 10.1619 17.1999 10.041 17.2575 9.83434C17.3151 9.62764 17.1943 9.41337 16.9876 9.35575C15.8805 9.04703 14.6884 9.35968 13.8765 10.1716C13.2748 10.7733 12.9434 11.5734 12.9434 12.4244C12.9434 13.2754 13.2748 14.0754 13.8765 14.6772C14.4976 15.2983 15.3134 15.6088 16.1293 15.6088C16.9452 15.6088 17.761 15.2983 18.3821 14.6772C19.2312 13.828 19.53 12.59 19.1619 11.446Z" fill="#60CD8C"/>
<path d="M18.3847 10.1748L18.3812 10.1713C18.2297 10.0197 17.984 10.0197 17.8324 10.1713C17.6809 10.3228 17.6809 10.5685 17.8324 10.7201L17.8359 10.7236C17.9117 10.7994 18.011 10.8372 18.1103 10.8372C18.2096 10.8372 18.309 10.7994 18.3847 10.7236C18.5362 10.572 18.5362 10.3263 18.3847 10.1748Z" fill="#60CD8C"/>
<path d="M10.7021 17.2427H1.98618C1.7716 17.2427 1.59766 17.4166 1.59766 17.6312C1.59766 17.8458 1.7716 18.0197 1.98618 18.0197H10.3136V20.4286C10.3136 20.6432 10.4875 20.8171 10.7021 20.8171C10.9167 20.8171 11.0906 20.6432 11.0906 20.4286V17.6312C11.0906 17.4166 10.9167 17.2427 10.7021 17.2427Z" fill="#60CD8C"/>
<path d="M8.68751 0.924316C8.47293 0.924316 8.29899 1.09826 8.29899 1.31284V4.11046H1.98618C1.7716 4.11046 1.59766 4.2844 1.59766 4.49899C1.59766 4.71357 1.7716 4.88751 1.98618 4.88751H8.68751C8.90209 4.88751 9.07604 4.71357 9.07604 4.49899V1.31284C9.07604 1.09826 8.90209 0.924316 8.68751 0.924316Z" fill="#60CD8C"/>
<path d="M4.93323 6.9082H1.98618C1.7716 6.9082 1.59766 7.08215 1.59766 7.29673C1.59766 7.51131 1.7716 7.68525 1.98618 7.68525H4.5447V14.4454H1.98618C1.7716 14.4454 1.59766 14.6193 1.59766 14.8339C1.59766 15.0485 1.7716 15.2224 1.98618 15.2224H4.93323C5.14781 15.2224 5.32175 15.0485 5.32175 14.8339V7.29673C5.32175 7.08215 5.14781 6.9082 4.93323 6.9082Z" fill="#60CD8C"/>
<path d="M7.08622 10.79C7.01405 10.7178 6.91393 10.6763 6.81187 10.6763C6.70943 10.6763 6.6097 10.7178 6.53753 10.79C6.46496 10.8621 6.42383 10.9623 6.42383 11.0643C6.42383 11.1668 6.46496 11.2665 6.53753 11.3387C6.6097 11.4112 6.70943 11.4524 6.81187 11.4524C6.91393 11.4524 7.01366 11.4112 7.08622 11.3387C7.1584 11.2665 7.19992 11.1664 7.19992 11.0643C7.19992 10.9623 7.1584 10.8621 7.08622 10.79Z" fill="#60CD8C"/>
<path d="M11.5459 6.9082H6.81235C6.59777 6.9082 6.42383 7.08215 6.42383 7.29673V9.45281C6.42383 9.6674 6.59777 9.84134 6.81235 9.84134C7.02694 9.84134 7.20088 9.6674 7.20088 9.45281V7.68525H11.5459C11.7605 7.68525 11.9344 7.51131 11.9344 7.29673C11.9344 7.08215 11.7605 6.9082 11.5459 6.9082Z" fill="#60CD8C"/>
<path d="M17.1403 0.924316C16.9257 0.924316 16.7517 1.09826 16.7517 1.31284V4.11003L10.9548 4.11046V1.31284C10.9548 1.09826 10.7808 0.924316 10.5663 0.924316C10.3517 0.924316 10.1777 1.09826 10.1777 1.31284V4.49899C10.1777 4.60202 10.2187 4.70086 10.2915 4.77371C10.3644 4.84656 10.4633 4.88751 10.5663 4.88751L17.1403 4.88705C17.3549 4.88705 17.5288 4.71306 17.5288 4.49852V1.31284C17.5288 1.09826 17.3549 0.924316 17.1403 0.924316Z" fill="#60CD8C"/>
<path d="M21.1018 4.11046H19.3923V1.31284C19.3923 1.09826 19.2183 0.924316 19.0038 0.924316C18.7892 0.924316 18.6152 1.09826 18.6152 1.31284V4.49899C18.6152 4.71357 18.7892 4.88751 19.0038 4.88751H21.1018C21.3164 4.88751 21.4903 4.71357 21.4903 4.49899C21.4903 4.2844 21.3164 4.11046 21.1018 4.11046Z" fill="#60CD8C"/>
<path d="M21.1017 6.9082H19.8749C19.6603 6.9082 19.4863 7.08215 19.4863 7.29673C19.4863 7.51131 19.6603 7.68525 19.8749 7.68525H21.1017C21.3163 7.68525 21.4902 7.51131 21.4902 7.29673C21.4902 7.08215 21.3163 6.9082 21.1017 6.9082Z" fill="#60CD8C"/>
</g>
<defs>
<clipPath id="clip0">
<rect width="21" height="21" fill="white" transform="translate(0.990234 0.316895)"/>
</clipPath>
</defs>
</svg>
