<svg width="22" height="22" viewBox="0 0 22 22" fill="none" xmlns="http://www.w3.org/2000/svg">
<rect x="0.744922" y="0.895312" width="3.56614" height="3.56614" rx="0.675" stroke="#60CD8C" stroke-width="0.65"/>
<rect x="16.907" y="0.894824" width="3.56614" height="3.56614" rx="0.675" stroke="#60CD8C" stroke-width="0.65"/>
<rect x="16.907" y="17.0564" width="3.56614" height="3.56614" rx="0.675" stroke="#60CD8C" stroke-width="0.65"/>
<rect x="0.744922" y="17.0564" width="3.56614" height="3.56614" rx="0.675" stroke="#60CD8C" stroke-width="0.65"/>
<path d="M4.28516 2.67773H16.9336" stroke="#60CD8C" stroke-width="0.65"/>
<path d="M2.52734 4.43506V17.0835" stroke="#60CD8C" stroke-width="0.65"/>
<path d="M18.6914 4.43506V17.0835" stroke="#60CD8C" stroke-width="0.65"/>
<path d="M4.28516 18.8398H16.9336" stroke="#60CD8C" stroke-width="0.65"/>
<path d="M15.6865 9.96432L15.6866 9.96434C15.7656 10.0123 15.813 10.0991 15.813 10.1915V16.2449C15.813 16.3885 15.6996 16.509 15.5548 16.509H5.66172C5.51688 16.509 5.40352 16.3885 5.40352 16.2449V12.0832V12.0832C5.40355 11.9884 5.45339 11.8998 5.5356 11.8528M15.6865 9.96432L5.57287 11.9179M15.6865 9.96432C15.6073 9.91628 15.509 9.91501 15.4286 9.96112L15.4286 9.96113L15.0332 10.1879M15.6865 9.96432L15.0332 10.1879M5.5356 11.8528L5.57287 11.9179M5.5356 11.8528L5.53555 11.8528L5.57287 11.9179M5.5356 11.8528L8.83323 9.96112L8.83326 9.9611C8.87169 9.93909 8.91506 9.92747 8.95925 9.92744H8.95927C9.10411 9.92737 9.21754 10.0479 9.2176 10.1915V10.1915V11.6321M5.57287 11.9179L8.87054 10.0262C8.8977 10.0106 8.92825 10.0025 8.95931 10.0024C9.06048 10.0024 9.14256 10.087 9.1426 10.1915V11.6751L9.2176 11.6321M9.2176 11.6321L12.1309 9.96112L12.1309 9.9611C12.1694 9.93909 12.2127 9.92747 12.2569 9.92744H12.257C12.4018 9.92737 12.5152 10.0479 12.5153 10.1915V10.1915V11.6323M9.2176 11.6321V11.7186L12.5153 11.6323M15.0332 10.1879L14.8969 5.26583C14.8969 5.26581 14.8969 5.2658 14.8969 5.26578C14.8931 5.12496 14.7807 5.00894 14.6387 5.00898C14.6387 5.00898 14.6387 5.00898 14.6387 5.00898H13.3563C13.3563 5.00898 13.3563 5.00898 13.3563 5.00898C13.3563 5.00898 13.3563 5.00898 13.3563 5.00898C13.2143 5.00894 13.1019 5.12498 13.0981 5.26583M15.0332 10.1879L13.0981 5.26583M13.0981 5.26583L13.0981 5.26578L13.1731 5.26786L13.0981 5.26583ZM13.0981 5.26583L12.9285 11.3958L12.5153 11.6323M13.0981 5.26583L12.5153 11.6323M8.70119 10.6426V12.0832V12.0832C8.70126 12.2268 8.81469 12.3473 8.95953 12.3473H8.95955C9.00374 12.3472 9.04711 12.3356 9.08553 12.3136L9.08557 12.3136L11.9989 10.6426V12.0832V12.0832C11.9989 12.2268 12.1124 12.3473 12.2572 12.3473H12.2572C12.3014 12.3472 12.3448 12.3356 12.3832 12.3136L12.3832 12.3136L14.111 11.3225L14.9142 10.8619L14.9142 10.8619L15.2966 10.6426V15.9807H12.3321V14.9207C12.3321 14.7771 12.2187 14.6565 12.0739 14.6565H9.1426C8.99776 14.6565 8.8844 14.7771 8.8844 14.9207V15.9807H5.91992V12.2381L8.70119 10.6426ZM13.601 5.76566L13.6073 5.53732H14.3877L14.3941 5.76566H13.601ZM13.4533 11.0939L13.5863 6.29399H14.4088L14.5246 10.4796L13.4533 11.0939ZM10.35 15.9807H9.40081V15.1849H10.35V15.9807ZM11.8157 15.9807H10.8664V15.1849H11.8157V15.9807Z" fill="#60CD8C" stroke="#60CD8C" stroke-width="0.15"/>
<path d="M8.44166 13.2375H7.20185C7.15072 13.2375 7.10077 13.2469 7.06081 13.2654C7.02718 13.2809 6.97187 13.3175 6.97187 13.3841V13.6706C6.97187 13.7372 7.02718 13.7738 7.06081 13.7893C7.10077 13.8078 7.15072 13.8172 7.20185 13.8172H8.44166C8.49279 13.8172 8.54274 13.8078 8.58271 13.7893C8.61633 13.7738 8.67164 13.7372 8.67164 13.6706V13.3841C8.67164 13.3175 8.61633 13.2809 8.58271 13.2654C8.54274 13.2469 8.49279 13.2375 8.44166 13.2375Z" fill="#60CD8C" stroke="#60CD8C" stroke-width="0.15"/>
<path d="M11.2327 13.2375H9.99287C9.94173 13.2375 9.89179 13.2469 9.85182 13.2654C9.81819 13.2809 9.76289 13.3175 9.76289 13.3841V13.6706C9.76289 13.7372 9.81819 13.7738 9.85182 13.7893C9.89179 13.8078 9.94173 13.8172 9.99287 13.8172H11.2327C11.2838 13.8172 11.3338 13.8078 11.3737 13.7893C11.4073 13.7738 11.4627 13.7372 11.4627 13.6706V13.3841C11.4627 13.3175 11.4073 13.2809 11.3737 13.2654C11.3338 13.2469 11.2838 13.2375 11.2327 13.2375Z" fill="#60CD8C" stroke="#60CD8C" stroke-width="0.15"/>
<path d="M14.0217 13.2375H12.7819C12.7308 13.2375 12.6809 13.2469 12.6409 13.2654C12.6073 13.2809 12.552 13.3175 12.552 13.3841V13.6706C12.552 13.7372 12.6073 13.7738 12.6409 13.7893C12.6809 13.8078 12.7308 13.8172 12.7819 13.8172H14.0217C14.0729 13.8172 14.1228 13.8078 14.1628 13.7893C14.1964 13.7738 14.2517 13.7372 14.2517 13.6706V13.3841C14.2517 13.3175 14.1964 13.2809 14.1628 13.2654C14.1228 13.2469 14.0729 13.2375 14.0217 13.2375Z" fill="#60CD8C" stroke="#60CD8C" stroke-width="0.15"/>
</svg>
