<svg width="22" height="22" viewBox="0 0 22 22" fill="none" xmlns="http://www.w3.org/2000/svg">
<path d="M4.4602 15.4767L3.99983 15.3567L3.07908 14.8767L3.76964 11.7567L2.84889 8.5167L1.46777 5.3967L0.662109 4.3167L4.4602 3.9567L8.25829 3.5967L12.0564 3.1167H14.4734L14.7035 3.3567C14.7035 3.4767 14.7496 3.7647 14.9337 3.9567C15.1639 4.1967 14.7035 4.3167 14.7035 4.5567C14.7035 4.7967 14.4734 4.7967 14.4734 4.9167C14.4734 5.0367 14.4734 5.5167 14.4734 5.7567C14.4734 5.9967 14.9337 6.3567 14.9337 6.4767C14.9337 6.5727 15.0105 6.8367 15.0488 6.9567L15.279 7.3167C15.4325 7.4767 15.7624 7.8207 15.8545 7.9167C15.9466 8.0127 16.123 8.5167 16.1998 8.7567L16.6601 9.2367C16.8903 9.2367 17.3967 9.2367 17.5809 9.2367C17.8111 9.2367 18.1564 9.5967 18.3865 9.5967C18.6167 9.5967 18.6167 10.3167 18.6167 10.4367C18.6167 10.5327 18.6167 10.7167 18.6167 10.7967V11.1567L18.0413 11.8767L18.1564 12.3567H19.0771L18.8469 12.9567L19.4224 13.9167L20.228 14.1567V14.3967L20.8035 14.6367L19.6526 14.8767C18.7702 14.5567 16.9824 13.9167 16.8903 13.9167C16.7982 13.9167 16.6985 13.9167 16.6601 13.9167H15.7394V14.1567L14.7035 14.9967L15.0488 17.2767L14.4734 17.0367L11.7111 16.5567L10.6753 16.4367L9.17904 16.7967L8.02811 17.1567V17.9967L7.79792 18.3567L7.45264 18.7167V18.3567L6.76208 17.9967L5.49604 17.0367L5.61114 16.5567L4.92058 15.5967L4.4602 15.4767ZM4.4602 15.4767V14.7567L4.92058 14.1567L5.61114 14.3967L5.95642 14.1567C5.95642 14.0367 5.95642 13.7727 5.95642 13.6767C5.95642 13.5567 6.07151 12.9567 5.95642 12.9567C5.86434 12.9567 5.68787 12.7167 5.61114 12.5967C5.7646 12.5167 6.02548 12.3087 5.84133 12.1167C5.61114 11.8767 5.38095 12.1167 5.49604 11.7567C5.61114 11.3967 5.72623 11.0367 5.61114 10.9167C5.49604 10.7967 5.15076 10.5567 5.15076 10.4367C5.15076 10.3407 5.22749 10.2367 5.26586 10.1967H6.18661V10.5567C6.3017 10.1967 6.53189 9.4527 6.53189 9.3567C6.53189 9.2367 6.76208 8.7567 6.76208 8.5167C6.76208 8.3247 7.14572 8.0367 7.33754 7.9167C7.29918 8.0367 7.26849 8.2767 7.45264 8.2767C7.68283 8.2767 7.45264 6.3567 7.45264 6.1167C7.45264 5.9247 7.22245 4.5167 7.10736 3.8367" stroke="#60CD8C" stroke-width="0.6" stroke-linejoin="round"/>
<path d="M5.61133 16.3169L6.30189 16.1969H6.64717V15.8369C6.57044 15.7169 6.46302 15.4529 6.64717 15.3569C6.83132 15.2609 7.03082 15.1569 7.10755 15.1169C7.10755 14.9969 7.10755 14.7329 7.10755 14.6369C7.10755 14.5409 7.49119 14.3569 7.68301 14.2769L7.9132 13.9169H8.37358L8.60376 13.5569C8.60376 13.2369 8.60376 12.5489 8.60376 12.3569C8.60376 12.1649 8.60376 11.3969 8.60376 11.0369C8.48867 11.0369 8.23546 11.0129 8.14339 10.9169C8.05131 10.8209 7.41446 10.5569 7.10755 10.4369L6.64717 10.6769L6.30189 10.4369M8.83395 11.8769C8.98741 11.9169 9.31734 11.9729 9.40942 11.8769C9.50149 11.7809 9.98489 11.4369 10.2151 11.2769C10.2534 11.3569 10.3532 11.5169 10.4453 11.5169C10.4727 11.5169 10.5131 11.5033 10.5604 11.4825M16.5452 8.87686C16.4301 8.91687 16.1539 8.99688 15.9698 8.99688C15.7396 8.99688 15.7396 8.63686 15.6245 8.39686C15.5094 8.15686 14.4735 8.27686 14.3584 8.39686C14.2434 8.51686 14.7037 8.75686 14.9339 8.87686C15.1641 8.99686 15.9698 9.59686 16.1999 9.95686C16.4301 10.3169 15.9698 10.4369 15.7396 10.4369C15.5094 10.4369 15.049 10.9169 14.7037 11.1569C14.4275 11.3489 14.0515 11.1569 13.8981 11.0369L13.5528 10.9169L13.2075 11.8769L12.4019 11.6369C12.1717 11.6769 11.6883 11.7329 11.5962 11.6369C11.4811 11.5169 11.1358 11.2769 11.0207 11.2769C10.933 11.2769 10.7117 11.4162 10.5604 11.4825M16.7754 13.9169C16.7754 13.7969 16.0849 13.4369 16.1999 13.3169C16.292 13.2209 16.8521 12.7969 17.1207 12.5969L17.5811 12.1169C17.5043 11.9969 17.3279 11.7329 17.2358 11.6369C17.1437 11.5409 17.5043 11.5969 17.6962 11.6369C17.6578 11.6369 17.6271 11.6369 17.8113 11.6369C18.0414 11.6369 18.3867 11.3969 18.2716 11.2769C18.1565 11.1569 17.8113 11.0369 17.6962 10.6769C17.5811 10.3169 17.5811 10.4369 17.5811 10.1969C17.5811 10.0049 17.5811 9.55687 17.5811 9.35688M9.98489 16.3169C9.98489 16.1169 9.98489 15.6929 9.98489 15.5969C9.98489 15.4769 10.3302 15.2369 10.2151 14.9969C10.1 14.7569 9.98489 14.7569 9.98489 14.5169C9.98489 14.2769 10.4453 14.0369 10.4453 14.0369C10.4453 14.0369 10.6371 13.8369 10.6754 13.7969C10.6754 13.6769 10.6754 13.4129 10.6754 13.3169C10.6754 13.1969 10.6754 13.0769 10.6754 12.8369C10.6754 12.2369 10.6754 12.5969 10.5604 12.1169M13.5528 16.7969L13.8981 16.5569L12.9773 16.4369L13.3226 15.8369C13.361 15.7569 13.4607 15.5489 13.5528 15.3569C13.6679 15.1169 14.0132 14.8769 13.8981 14.7569C13.806 14.6609 13.4761 14.3969 13.3226 14.2769C13.361 14.2769 13.3917 14.2289 13.2075 14.0369C12.7471 13.6769 12.0566 13.5569 12.0566 13.3169C12.0566 13.0769 12.1717 13.0769 12.0566 12.8369C11.9645 12.6449 11.788 12.5969 11.7113 12.5969L11.4811 12.7169L11.2509 12.8369L10.5604 11.4825M15.6245 14.0369L15.049 14.2769L14.7037 13.7969C14.5886 13.6769 14.3354 13.4129 14.2434 13.3169C14.1283 13.1969 14.1283 13.0769 14.0132 13.0769C13.9211 13.0769 13.6679 13.0769 13.5528 13.0769L13.3226 12.7169C13.2459 12.5969 13.0694 12.3569 12.9773 12.3569C12.8852 12.3569 12.5553 12.3569 12.4019 12.3569L12.2868 11.8769" stroke="#60CD8C" stroke-width="0.6" stroke-linejoin="round"/>
</svg>
