<svg width="22" height="22" viewBox="0 0 22 22" fill="none" xmlns="http://www.w3.org/2000/svg">
<g clip-path="url(#clip0)">
<path d="M18.8691 2.28564H16.9004V1.95752C16.9004 1.69645 16.7967 1.44607 16.6121 1.26146C16.4275 1.07686 16.1771 0.973145 15.916 0.973145C15.6549 0.973145 15.4046 1.07686 15.22 1.26146C15.0354 1.44607 14.9316 1.69645 14.9316 1.95752V2.28564H11.6504V1.95752C11.6504 1.69645 11.5467 1.44607 11.3621 1.26146C11.1775 1.07686 10.9271 0.973145 10.666 0.973145C10.4049 0.973145 10.1546 1.07686 9.96996 1.26146C9.78535 1.44607 9.68164 1.69645 9.68164 1.95752V2.28564H6.40039V1.95752C6.40039 1.69645 6.29668 1.44607 6.11207 1.26146C5.92747 1.07686 5.67709 0.973145 5.41602 0.973145C5.15494 0.973145 4.90456 1.07686 4.71996 1.26146C4.53535 1.44607 4.43164 1.69645 4.43164 1.95752V2.28564H2.46289C2.02792 2.28613 1.6109 2.45914 1.30333 2.76671C0.995762 3.07428 0.822754 3.4913 0.822266 3.92627V19.02C0.822754 19.455 0.995762 19.872 1.30333 20.1796C1.6109 20.4871 2.02792 20.6602 2.46289 20.6606H18.8691C19.3041 20.6602 19.7211 20.4871 20.0287 20.1796C20.3363 19.872 20.5093 19.455 20.5098 19.02V3.92627C20.5093 3.4913 20.3363 3.07428 20.0287 2.76671C19.7211 2.45914 19.3041 2.28613 18.8691 2.28564ZM15.5879 1.95752C15.5879 1.8705 15.6225 1.78704 15.684 1.7255C15.7455 1.66396 15.829 1.62939 15.916 1.62939C16.003 1.62939 16.0865 1.66396 16.148 1.7255C16.2096 1.78704 16.2441 1.8705 16.2441 1.95752V3.92627C16.2441 4.01329 16.2096 4.09675 16.148 4.15829C16.0865 4.21982 16.003 4.25439 15.916 4.25439C15.829 4.25439 15.7455 4.21982 15.684 4.15829C15.6225 4.09675 15.5879 4.01329 15.5879 3.92627V1.95752ZM10.3379 1.95752C10.3379 1.8705 10.3725 1.78704 10.434 1.7255C10.4955 1.66396 10.579 1.62939 10.666 1.62939C10.753 1.62939 10.8365 1.66396 10.898 1.7255C10.9596 1.78704 10.9941 1.8705 10.9941 1.95752V3.92627C10.9941 4.01329 10.9596 4.09675 10.898 4.15829C10.8365 4.21982 10.753 4.25439 10.666 4.25439C10.579 4.25439 10.4955 4.21982 10.434 4.15829C10.3725 4.09675 10.3379 4.01329 10.3379 3.92627V1.95752ZM5.08789 1.95752C5.08789 1.8705 5.12246 1.78704 5.184 1.7255C5.24553 1.66396 5.32899 1.62939 5.41602 1.62939C5.50304 1.62939 5.5865 1.66396 5.64804 1.7255C5.70957 1.78704 5.74414 1.8705 5.74414 1.95752V3.92627C5.74414 4.01329 5.70957 4.09675 5.64804 4.15829C5.5865 4.21982 5.50304 4.25439 5.41602 4.25439C5.32899 4.25439 5.24553 4.21982 5.184 4.15829C5.12246 4.09675 5.08789 4.01329 5.08789 3.92627V1.95752ZM2.46289 2.94189H4.43164V3.92627C4.43164 4.18734 4.53535 4.43772 4.71996 4.62233C4.90456 4.80693 5.15494 4.91064 5.41602 4.91064C5.67709 4.91064 5.92747 4.80693 6.11207 4.62233C6.29668 4.43772 6.40039 4.18734 6.40039 3.92627V2.94189H9.68164V3.92627C9.68164 4.18734 9.78535 4.43772 9.96996 4.62233C10.1546 4.80693 10.4049 4.91064 10.666 4.91064C10.9271 4.91064 11.1775 4.80693 11.3621 4.62233C11.5467 4.43772 11.6504 4.18734 11.6504 3.92627V2.94189H14.9316V3.92627C14.9316 4.18734 15.0354 4.43772 15.22 4.62233C15.4046 4.80693 15.6549 4.91064 15.916 4.91064C16.1771 4.91064 16.4275 4.80693 16.6121 4.62233C16.7967 4.43772 16.9004 4.18734 16.9004 3.92627V2.94189H18.8691C19.1301 2.9422 19.3803 3.04601 19.5649 3.23055C19.7494 3.41509 19.8532 3.66529 19.8535 3.92627V6.22314H1.47852V3.92627C1.47882 3.66529 1.58263 3.41509 1.76717 3.23055C1.95171 3.04601 2.20191 2.9422 2.46289 2.94189ZM18.8691 20.0044H2.46289C2.20191 20.0041 1.95171 19.9003 1.76717 19.7157C1.58263 19.5312 1.47882 19.281 1.47852 19.02V6.87939H19.8535V19.02C19.8532 19.281 19.7494 19.5312 19.5649 19.7157C19.3803 19.9003 19.1301 20.0041 18.8691 20.0044Z" fill="#60CD8C"/>
<path d="M18.2129 9.17627H16.9004C16.8134 9.17627 16.7299 9.21084 16.6684 9.27237C16.6068 9.33391 16.5723 9.41737 16.5723 9.50439V10.8169C16.5723 10.9039 16.6068 10.9874 16.6684 11.0489C16.7299 11.1104 16.8134 11.145 16.9004 11.145H18.2129C18.2999 11.145 18.3834 11.1104 18.4449 11.0489C18.5064 10.9874 18.541 10.9039 18.541 10.8169V9.50439C18.541 9.41737 18.5064 9.33391 18.4449 9.27237C18.3834 9.21084 18.2999 9.17627 18.2129 9.17627ZM17.8848 10.4888H17.2285V9.83252H17.8848V10.4888Z" fill="#60CD8C"/>
<path d="M11.6504 15.7388H10.3379C10.2509 15.7388 10.1674 15.7733 10.1059 15.8349C10.0443 15.8964 10.0098 15.9799 10.0098 16.0669V17.3794C10.0098 17.4664 10.0443 17.5499 10.1059 17.6114C10.1674 17.6729 10.2509 17.7075 10.3379 17.7075H11.6504C11.7374 17.7075 11.8209 17.6729 11.8824 17.6114C11.9439 17.5499 11.9785 17.4664 11.9785 17.3794V16.0669C11.9785 15.9799 11.9439 15.8964 11.8824 15.8349C11.8209 15.7733 11.7374 15.7388 11.6504 15.7388ZM11.3223 17.0513H10.666V16.395H11.3223V17.0513Z" fill="#60CD8C"/>
<path d="M8.36914 9.17627H7.05664C6.96962 9.17627 6.88616 9.21084 6.82462 9.27237C6.76309 9.33391 6.72852 9.41737 6.72852 9.50439V10.8169C6.72852 10.9039 6.76309 10.9874 6.82462 11.0489C6.88616 11.1104 6.96962 11.145 7.05664 11.145H8.36914C8.45616 11.145 8.53962 11.1104 8.60116 11.0489C8.6627 10.9874 8.69727 10.9039 8.69727 10.8169V9.50439C8.69727 9.41737 8.6627 9.33391 8.60116 9.27237C8.53962 9.21084 8.45616 9.17627 8.36914 9.17627ZM8.04102 10.4888H7.38477V9.83252H8.04102V10.4888Z" fill="#60CD8C"/>
<path d="M5.08789 12.4575H3.77539C3.68837 12.4575 3.60491 12.4921 3.54337 12.5536C3.48184 12.6152 3.44727 12.6986 3.44727 12.7856V14.0981C3.44727 14.1852 3.48184 14.2686 3.54337 14.3302C3.60491 14.3917 3.68837 14.4263 3.77539 14.4263H5.08789C5.17491 14.4263 5.25837 14.3917 5.31991 14.3302C5.38145 14.2686 5.41602 14.1852 5.41602 14.0981V12.7856C5.41602 12.6986 5.38145 12.6152 5.31991 12.5536C5.25837 12.4921 5.17491 12.4575 5.08789 12.4575ZM4.75977 13.77H4.10352V13.1138H4.75977V13.77Z" fill="#60CD8C"/>
<path d="M8.36914 12.4575H7.05664C6.96962 12.4575 6.88616 12.4921 6.82462 12.5536C6.76309 12.6152 6.72852 12.6986 6.72852 12.7856V14.0981C6.72852 14.1852 6.76309 14.2686 6.82462 14.3302C6.88616 14.3917 6.96962 14.4263 7.05664 14.4263H8.36914C8.45616 14.4263 8.53962 14.3917 8.60116 14.3302C8.6627 14.2686 8.69727 14.1852 8.69727 14.0981V12.7856C8.69727 12.6986 8.6627 12.6152 8.60116 12.5536C8.53962 12.4921 8.45616 12.4575 8.36914 12.4575ZM8.04102 13.77H7.38477V13.1138H8.04102V13.77Z" fill="#60CD8C"/>
<path d="M5.08789 15.7388H3.77539C3.68837 15.7388 3.60491 15.7733 3.54337 15.8349C3.48184 15.8964 3.44727 15.9799 3.44727 16.0669V17.3794C3.44727 17.4664 3.48184 17.5499 3.54337 17.6114C3.60491 17.6729 3.68837 17.7075 3.77539 17.7075H5.08789C5.17491 17.7075 5.25837 17.6729 5.31991 17.6114C5.38145 17.5499 5.41602 17.4664 5.41602 17.3794V16.0669C5.41602 15.9799 5.38145 15.8964 5.31991 15.8349C5.25837 15.7733 5.17491 15.7388 5.08789 15.7388ZM4.75977 17.0513H4.10352V16.395H4.75977V17.0513Z" fill="#60CD8C"/>
<path d="M8.36914 15.7388H7.05664C6.96962 15.7388 6.88616 15.7733 6.82462 15.8349C6.76309 15.8964 6.72852 15.9799 6.72852 16.0669V17.3794C6.72852 17.4664 6.76309 17.5499 6.82462 17.6114C6.88616 17.6729 6.96962 17.7075 7.05664 17.7075H8.36914C8.45616 17.7075 8.53962 17.6729 8.60116 17.6114C8.6627 17.5499 8.69727 17.4664 8.69727 17.3794V16.0669C8.69727 15.9799 8.6627 15.8964 8.60116 15.8349C8.53962 15.7733 8.45616 15.7388 8.36914 15.7388ZM8.04102 17.0513H7.38477V16.395H8.04102V17.0513Z" fill="#60CD8C"/>
<path d="M15.3091 10.5291L13.6685 10.2784L12.9316 8.70873C12.9052 8.65232 12.8632 8.60461 12.8106 8.57119C12.758 8.53777 12.6969 8.52002 12.6346 8.52002C12.5723 8.52002 12.5112 8.53777 12.4586 8.57119C12.406 8.60461 12.364 8.65232 12.3376 8.70873L11.601 10.2784L9.96039 10.5291C9.90072 10.5382 9.84471 10.5636 9.79852 10.6024C9.75233 10.6413 9.71776 10.6921 9.6986 10.7494C9.67945 10.8066 9.67645 10.868 9.68994 10.9269C9.70344 10.9857 9.7329 11.0397 9.77508 11.0828L10.972 12.3095L10.6889 14.0455C10.6792 14.1062 10.6866 14.1684 10.7105 14.2251C10.7343 14.2817 10.7736 14.3306 10.8238 14.366C10.8741 14.4014 10.9333 14.422 10.9947 14.4254C11.056 14.4288 11.1171 14.4149 11.171 14.3853L12.6346 13.5763L14.0982 14.3853C14.1521 14.4151 14.2133 14.4291 14.2748 14.4258C14.3363 14.4224 14.3956 14.4018 14.4459 14.3664C14.4963 14.3309 14.5356 14.282 14.5595 14.2252C14.5833 14.1684 14.5907 14.1061 14.5808 14.0453L14.2978 12.3093L15.4947 11.0826C15.5368 11.0395 15.5663 10.9855 15.5798 10.9267C15.5933 10.8678 15.5903 10.8064 15.5711 10.7492C15.552 10.6919 15.5174 10.6411 15.4712 10.6022C15.425 10.5634 15.369 10.538 15.3094 10.5289L15.3091 10.5291ZM13.7122 11.9695C13.6764 12.0062 13.6496 12.0509 13.6342 12.0999C13.6187 12.1488 13.615 12.2008 13.6232 12.2515L13.8242 13.484L12.7933 12.9139C12.7447 12.887 12.69 12.873 12.6345 12.873C12.579 12.873 12.5244 12.887 12.4758 12.9139L11.4448 13.484L11.6458 12.2515C11.6541 12.2008 11.6503 12.1488 11.6349 12.0999C11.6194 12.0509 11.5927 12.0062 11.5568 11.9695L10.6905 11.0814L11.8731 10.9009C11.9263 10.8928 11.9768 10.8717 12.0199 10.8394C12.0631 10.8072 12.0976 10.7648 12.1205 10.716L12.6346 9.62043L13.1487 10.7158C13.1716 10.7646 13.2062 10.8069 13.2493 10.8392C13.2925 10.8715 13.3429 10.8926 13.3962 10.9007L14.5788 11.0812L13.7122 11.9695Z" fill="#60CD8C"/>
<path d="M18.2129 12.4575H16.9004C16.8134 12.4575 16.7299 12.4921 16.6684 12.5536C16.6068 12.6152 16.5723 12.6986 16.5723 12.7856V14.0981C16.5723 14.1852 16.6068 14.2686 16.6684 14.3302C16.7299 14.3917 16.8134 14.4263 16.9004 14.4263H18.2129C18.2999 14.4263 18.3834 14.3917 18.4449 14.3302C18.5064 14.2686 18.541 14.1852 18.541 14.0981V12.7856C18.541 12.6986 18.5064 12.6152 18.4449 12.5536C18.3834 12.4921 18.2999 12.4575 18.2129 12.4575ZM17.8848 13.77H17.2285V13.1138H17.8848V13.77Z" fill="#60CD8C"/>
<path d="M18.2129 15.7388H16.9004C16.8134 15.7388 16.7299 15.7733 16.6684 15.8349C16.6068 15.8964 16.5723 15.9799 16.5723 16.0669V17.3794C16.5723 17.4664 16.6068 17.5499 16.6684 17.6114C16.7299 17.6729 16.8134 17.7075 16.9004 17.7075H18.2129C18.2999 17.7075 18.3834 17.6729 18.4449 17.6114C18.5064 17.5499 18.541 17.4664 18.541 17.3794V16.0669C18.541 15.9799 18.5064 15.8964 18.4449 15.8349C18.3834 15.7733 18.2999 15.7388 18.2129 15.7388ZM17.8848 17.0513H17.2285V16.395H17.8848V17.0513Z" fill="#60CD8C"/>
<path d="M14.9316 15.7388H13.6191C13.5321 15.7388 13.4487 15.7733 13.3871 15.8349C13.3256 15.8964 13.291 15.9799 13.291 16.0669V17.3794C13.291 17.4664 13.3256 17.5499 13.3871 17.6114C13.4487 17.6729 13.5321 17.7075 13.6191 17.7075H14.9316C15.0187 17.7075 15.1021 17.6729 15.1637 17.6114C15.2252 17.5499 15.2598 17.4664 15.2598 17.3794V16.0669C15.2598 15.9799 15.2252 15.8964 15.1637 15.8349C15.1021 15.7733 15.0187 15.7388 14.9316 15.7388ZM14.6035 17.0513H13.9473V16.395H14.6035V17.0513Z" fill="#60CD8C"/>
</g>
<defs>
<clipPath id="clip0">
<rect width="21" height="21" fill="white" transform="translate(0.166016 0.316895)"/>
</clipPath>
</defs>
</svg>
