<svg width="22" height="22" viewBox="0 0 22 22" fill="none" xmlns="http://www.w3.org/2000/svg">
<path d="M20.9085 10.0296V5.04902L16.1718 3.47002V10.0296H15.4952V2.58629H7.37516V10.0296H6.69849V5.96962H6.02182V3.60129H4.66849V1.57129H3.99182V3.60129H2.63849V5.96962H1.96182V10.0296H1.28516V19.503H7.37516V20.1796H15.4952V19.503H21.5852V10.0296H20.9085ZM3.31516 4.27796H5.34516V5.96962H3.31516V4.27796ZM2.63849 6.64629H6.02182V10.0296H2.63849V6.64629ZM7.37516 18.8263H1.96182V10.7063H7.37516V18.8263ZM12.1118 19.503H10.7585V16.1196H12.1118V19.503ZM14.8185 19.503H12.7885V15.443H10.0818V19.503H8.05182V3.26296H14.8185V19.503ZM16.8485 4.40923L20.2318 5.53689V10.0296H19.5552V5.96962H18.8785V10.0296H18.2018V5.96962H17.5252V10.0296H16.8485V4.40923ZM18.8785 18.8263H17.5252V17.473H18.8785V18.8263ZM20.9085 18.8263H19.5552V16.7963H16.8485V18.8263H15.4952V10.7063H20.9085V18.8263Z" fill="#60CD8C"/>
<path d="M6.69867 11.3833H2.63867V12.06H6.69867V11.3833Z" fill="#60CD8C"/>
<path d="M6.69867 12.7368H2.63867V13.4135H6.69867V12.7368Z" fill="#60CD8C"/>
<path d="M6.69867 14.0898H2.63867V14.7665H6.69867V14.0898Z" fill="#60CD8C"/>
<path d="M6.69867 15.4429H2.63867V16.1195H6.69867V15.4429Z" fill="#60CD8C"/>
<path d="M9.06641 4.61621V6.64621H11.0964V4.61621H9.06641ZM10.4197 5.96954H9.74307V5.29288H10.4197V5.96954Z" fill="#60CD8C"/>
<path d="M11.7734 4.61621V6.64621H13.8034V4.61621H11.7734ZM13.1268 5.96954H12.4501V5.29288H13.1268V5.96954Z" fill="#60CD8C"/>
<path d="M9.06641 7.32275V9.35275H11.0964V7.32275H9.06641ZM10.4197 8.67609H9.74307V7.99942H10.4197V8.67609Z" fill="#60CD8C"/>
<path d="M11.7734 7.32275V9.35275H13.8034V7.32275H11.7734ZM13.1268 8.67609H12.4501V7.99942H13.1268V8.67609Z" fill="#60CD8C"/>
<path d="M9.06641 10.0303V12.0603H11.0964V10.0303H9.06641ZM10.4197 11.3836H9.74307V10.7069H10.4197V11.3836Z" fill="#60CD8C"/>
<path d="M11.7734 10.0303V12.0603H13.8034V10.0303H11.7734ZM13.1268 11.3836H12.4501V10.7069H13.1268V11.3836Z" fill="#60CD8C"/>
<path d="M9.06641 12.7368V14.7668H11.0964V12.7368H9.06641ZM10.4197 14.0902H9.74307V13.4135H10.4197V14.0902Z" fill="#60CD8C"/>
<path d="M11.7734 12.7368V14.7668H13.8034V12.7368H11.7734ZM13.1268 14.0902H12.4501V13.4135H13.1268V14.0902Z" fill="#60CD8C"/>
<path d="M16.8485 11.3833H16.1719V12.06H16.8485V11.3833Z" fill="#60CD8C"/>
<path d="M18.8787 11.3833H17.5254V12.06H18.8787V11.3833Z" fill="#60CD8C"/>
<path d="M20.2314 11.3833H19.5547V12.06H20.2314V11.3833Z" fill="#60CD8C"/>
<path d="M16.8485 12.7368H16.1719V13.4135H16.8485V12.7368Z" fill="#60CD8C"/>
<path d="M18.8787 12.7368H17.5254V13.4135H18.8787V12.7368Z" fill="#60CD8C"/>
<path d="M20.2314 12.7368H19.5547V13.4135H20.2314V12.7368Z" fill="#60CD8C"/>
<path d="M16.8485 14.0898H16.1719V14.7665H16.8485V14.0898Z" fill="#60CD8C"/>
<path d="M18.8787 14.0898H17.5254V14.7665H18.8787V14.0898Z" fill="#60CD8C"/>
<path d="M20.2314 14.0898H19.5547V14.7665H20.2314V14.0898Z" fill="#60CD8C"/>
<path d="M16.8485 15.4429H16.1719V16.1195H16.8485V15.4429Z" fill="#60CD8C"/>
<path d="M18.8787 15.4429H17.5254V16.1195H18.8787V15.4429Z" fill="#60CD8C"/>
<path d="M20.2314 15.4429H19.5547V16.1195H20.2314V15.4429Z" fill="#60CD8C"/>
</svg>
