<svg width="22" height="22" viewBox="0 0 22 22" fill="none" xmlns="http://www.w3.org/2000/svg">
<g clip-path="url(#clip0)">
<path d="M16.1998 10.7566L16.6601 11.2366C16.8903 11.2366 17.3967 11.2366 17.5809 11.2366C17.8111 11.2366 18.1564 11.5966 18.3865 11.5966C18.6167 11.5966 18.6167 12.3166 18.6167 12.4366C18.6167 12.5326 18.6167 12.7166 18.6167 12.7966V13.1566L18.0413 13.8766L18.1564 14.3566H19.0771L18.8469 14.9566L19.4224 15.9166L20.228 16.1566V16.3966L20.8035 16.6366L19.6526 16.8766C18.7702 16.5566 16.9824 15.9166 16.8903 15.9166C16.7982 15.9166 16.6985 15.9166 16.6601 15.9166H15.7394V16.1566L14.7035 16.9966L15.0488 19.2766L14.4734 19.0366L11.7111 18.5566L10.6753 18.4366L9.17904 18.7966L8.02811 19.1566V19.9966L7.79792 20.3566L7.45264 20.7166V20.3566L6.76208 19.9966L5.49604 19.0366L5.61114 18.5566L4.92058 17.5966L4.4602 17.4766M13.2169 4.99512L12.0564 5.11663L8.25829 5.59663L4.4602 5.95663L0.662109 6.31663L1.46777 7.39663L2.84889 10.5166L3.76964 13.7566L3.07908 16.8766L3.99983 17.3566L4.4602 17.4766M4.4602 17.4766V16.7566L4.92058 16.1566L5.61114 16.3966L5.95642 16.1566C5.95642 16.0366 5.95642 15.7726 5.95642 15.6766C5.95642 15.5566 6.07151 14.9566 5.95642 14.9566C5.86434 14.9566 5.68787 14.7166 5.61114 14.5966C5.7646 14.5166 6.02548 14.3086 5.84133 14.1166C5.61114 13.8766 5.38095 14.1166 5.49604 13.7566C5.61114 13.3966 5.72623 13.0366 5.61114 12.9166C5.49604 12.7966 5.15076 12.5566 5.15076 12.4366C5.15076 12.3406 5.22749 12.2366 5.26586 12.1966H6.18661V12.5566C6.3017 12.1966 6.53189 11.4526 6.53189 11.3566C6.53189 11.2366 6.76208 10.7566 6.76208 10.5166C6.76208 10.3246 7.14572 10.0366 7.33754 9.91663C7.29918 10.0366 7.26849 10.2766 7.45264 10.2766C7.68283 10.2766 7.45264 8.35663 7.45264 8.11663C7.45264 7.92463 7.22245 6.51663 7.10736 5.83663" stroke="#60CD8C" stroke-width="0.6" stroke-linejoin="round"/>
<path d="M5.61133 18.3357L6.30189 18.2203H6.64717V17.8742C6.57044 17.7588 6.46302 17.505 6.64717 17.4127C6.83132 17.3204 7.03082 17.2204 7.10755 17.182C7.10755 17.0666 7.10755 16.8128 7.10755 16.7205C7.10755 16.6282 7.49119 16.4513 7.68301 16.3744L7.9132 16.0282H8.37358L8.60376 15.6821C8.60376 15.3745 8.60376 14.713 8.60376 14.5284C8.60376 14.3438 8.60376 13.6054 8.60376 13.2593C8.48867 13.2593 8.23546 13.2362 8.14339 13.1439C8.05131 13.0516 7.41446 12.7978 7.10755 12.6824L6.64717 12.9132L6.30189 12.6824M8.83395 14.0669C8.98741 14.1054 9.31734 14.1592 9.40942 14.0669C9.50149 13.9746 9.98489 13.6439 10.2151 13.49C10.2534 13.567 10.3532 13.7208 10.4453 13.7208C10.4727 13.7208 10.5131 13.7077 10.5604 13.6878M16.5452 11.1826C16.4301 11.2211 16.1539 11.298 15.9698 11.298C15.7396 11.298 15.7396 10.9519 15.6245 10.7211C15.5094 10.4904 14.4735 10.6057 14.3584 10.7211C14.2434 10.8365 14.7037 11.0672 14.9339 11.1826C15.1641 11.298 15.9698 11.8748 16.1999 12.221C16.4301 12.5671 15.9698 12.6824 15.7396 12.6824C15.5094 12.6824 15.049 13.1439 14.7037 13.3747C14.4275 13.5593 14.0515 13.3747 13.8981 13.2593L13.5528 13.1439L13.2075 14.0669L12.4019 13.8362C12.1717 13.8746 11.6883 13.9285 11.5962 13.8362C11.4811 13.7208 11.1358 13.49 11.0207 13.49C10.933 13.49 10.7117 13.624 10.5604 13.6878M16.7754 16.0282C16.7754 15.9129 16.0849 15.5668 16.1999 15.4514C16.292 15.3591 16.8521 14.9514 17.1207 14.7592L17.5811 14.2977C17.5043 14.1823 17.3279 13.9285 17.2358 13.8362C17.1437 13.7439 17.5043 13.7977 17.6962 13.8362C17.6578 13.8362 17.6271 13.8362 17.8113 13.8362C18.0414 13.8362 18.3867 13.6054 18.2716 13.49C18.1565 13.3747 17.8113 13.2593 17.6962 12.9132C17.5811 12.5671 17.5811 12.6825 17.5811 12.4517C17.5811 12.2671 17.5811 11.4903 17.5811 11.298M9.98489 18.3357C9.98489 18.1434 9.98489 17.7358 9.98489 17.6435C9.98489 17.5281 10.3302 17.2973 10.2151 17.0666C10.1 16.8359 9.98489 16.8359 9.98489 16.6051C9.98489 16.3744 10.4453 16.1436 10.4453 16.1436C10.4453 16.1436 10.6371 15.9513 10.6754 15.9129C10.6754 15.7975 10.6754 15.5437 10.6754 15.4514C10.6754 15.336 10.6754 15.2206 10.6754 14.9899C10.6754 14.413 10.6754 14.7592 10.5604 14.2977M13.5528 18.7972L13.8981 18.5664L12.9773 18.4511L13.3226 17.8742C13.361 17.7973 13.4607 17.5973 13.5528 17.4127C13.6679 17.182 14.0132 16.9512 13.8981 16.8359C13.806 16.7435 13.4761 16.4897 13.3226 16.3744C13.361 16.3744 13.3917 16.3282 13.2075 16.1436C12.7471 15.7975 12.0566 15.6821 12.0566 15.4514C12.0566 15.2206 12.1717 15.2206 12.0566 14.9899C11.9645 14.8053 11.788 14.7592 11.7113 14.7592L11.4811 14.8745L11.2509 14.9899L10.5604 13.6878M15.6245 16.1436L15.049 16.3744L14.7037 15.9129C14.5886 15.7975 14.3354 15.5437 14.2434 15.4514C14.1283 15.336 14.1283 15.2206 14.0132 15.2206C13.9211 15.2206 13.6679 15.2206 13.5528 15.2206L13.3226 14.8745C13.2459 14.7591 13.0694 14.5284 12.9773 14.5284C12.8852 14.5284 12.5553 14.5284 12.4019 14.5284L12.2868 14.0669" stroke="#60CD8C" stroke-width="0.6" stroke-linejoin="round"/>
<path d="M15.5308 3.12788L15.1065 2.70361L14.6426 3.16758L15.2988 3.82383C15.3604 3.88535 15.4438 3.9199 15.5308 3.9199C15.6178 3.9199 15.7013 3.88535 15.7628 3.82383L17.0753 2.51133L16.6113 2.04736L15.5308 3.12788Z" fill="#60CD8C"/>
<path d="M15.5308 5.75288L15.1065 5.32861L14.6426 5.79258L15.2988 6.44883C15.3604 6.51035 15.4438 6.5449 15.5308 6.5449C15.6178 6.5449 15.7013 6.51035 15.7628 6.44883L17.0753 5.13633L16.6113 4.67236L15.5308 5.75288Z" fill="#60CD8C"/>
<path d="M15.5308 8.706L15.1065 8.28174L14.6426 8.74571L15.2988 9.40196C15.3604 9.46347 15.4438 9.49803 15.5308 9.49803C15.6178 9.49803 15.7013 9.46347 15.7628 9.40196L17.0753 8.08946L16.6113 7.62549L15.5308 8.706Z" fill="#60CD8C"/>
<path d="M17.1699 2.93555H19.1387V3.5918H17.1699V2.93555Z" fill="#60CD8C"/>
<path d="M17.1699 5.56055H19.1387V6.2168H17.1699V5.56055Z" fill="#60CD8C"/>
<path d="M17.1699 8.51367H19.1387V9.16992H17.1699V8.51367Z" fill="#60CD8C"/>
<rect x="13.2277" y="0.924023" width="7.27607" height="9.69289" rx="1.7" stroke="#60CD8C" stroke-width="0.6"/>
</g>
<defs>
<clipPath id="clip0">
<rect width="21" height="21" fill="white" transform="translate(0.166016 0.316895)"/>
</clipPath>
</defs>
</svg>
