<svg width="22" height="22" viewBox="0 0 22 22" fill="none" xmlns="http://www.w3.org/2000/svg">
<g clip-path="url(#clip0)">
<path d="M13.7747 10.9067C13.5584 10.9067 13.3828 11.0823 13.3828 11.2986C13.3828 11.5149 13.5584 11.6905 13.7747 11.6905C13.991 11.6905 14.1666 11.5149 14.1666 11.2986C14.1666 11.0823 13.991 10.9067 13.7747 10.9067Z" fill="#60CD8C"/>
<path d="M5.39644 15.2099L1.47751 20.1477C1.38398 20.2654 1.36622 20.4263 1.43159 20.5616C1.49696 20.6971 1.63412 20.7832 1.78444 20.7832H21.0656C21.2159 20.7832 21.353 20.6971 21.4184 20.5616C21.4839 20.4263 21.466 20.2654 21.3725 20.1477L17.4536 15.2099C17.3793 15.1162 17.2662 15.0615 17.1466 15.0615H13.7137L16.6445 10.4648C17.332 9.43404 17.6953 8.23204 17.6953 6.98854C17.6953 3.53116 14.8825 0.718262 11.425 0.718262C7.96747 0.718262 5.15472 3.53116 5.15472 6.98854C5.15472 8.23204 5.51799 9.43389 6.20548 10.4648L9.13626 15.0615H5.70337C5.58381 15.0615 5.47084 15.1162 5.39644 15.2099ZM3.93327 18.3142H6.30284L4.96551 19.9994H2.59578L3.93327 18.3142ZM9.63607 15.8453L10.7104 17.5305H7.92552L9.26301 15.8453H9.63607ZM13.2141 15.8453H13.5871L14.9245 17.5305H12.1397L13.2141 15.8453ZM15.5466 18.3142L16.8839 19.9994H5.96606L7.30355 18.3142H15.5466ZM17.8846 19.9994L16.5472 18.3142H18.9169L20.2542 19.9994H17.8846ZM18.2948 17.5305H15.9252L14.5877 15.8453H16.9574L18.2948 17.5305ZM6.85976 10.0331C6.25707 9.13079 5.93851 8.07803 5.93851 6.98854C5.93851 3.96332 8.39977 1.50205 11.425 1.50205C14.4502 1.50205 16.9115 3.96332 16.9115 6.98854C16.9115 8.07803 16.5929 9.13079 15.9904 10.0331C15.9887 10.0354 15.9873 10.0377 15.9858 10.0399C15.7285 10.4436 11.6232 16.8826 11.425 17.1934C10.9264 16.4113 7.37197 10.8363 6.8642 10.0399C6.86282 10.0377 6.86129 10.0354 6.85976 10.0331ZM8.26231 15.8453L6.92497 17.5305H4.55525L5.89273 15.8453H8.26231Z" fill="#60CD8C"/>
<path d="M11.4228 10.9067C13.5743 10.9067 15.3418 9.16446 15.3418 6.98777C15.3418 4.82685 13.5838 3.06885 11.4228 3.06885C9.26191 3.06885 7.50391 4.82685 7.50391 6.98777C7.50391 9.16507 9.27201 10.9067 11.4228 10.9067ZM11.4228 3.85263C13.1516 3.85263 14.558 5.25901 14.558 6.98777C14.558 8.73261 13.1403 10.1229 11.4228 10.1229C9.70493 10.1229 8.28769 8.73261 8.28769 6.98777C8.28769 5.25901 9.69406 3.85263 11.4228 3.85263Z" fill="#60CD8C"/>
<path d="M13.074 12.2448C12.8888 12.1331 12.6478 12.1928 12.536 12.3781L11.0876 14.7812C10.9758 14.9666 11.0355 15.2074 11.2209 15.3192C11.4071 15.4314 11.6476 15.3704 11.7588 15.1858L13.2073 12.7827C13.3191 12.5974 13.2594 12.3566 13.074 12.2448Z" fill="#60CD8C"/>
</g>
<defs>
<clipPath id="clip0">
<rect width="21" height="21" fill="white" transform="translate(0.990234 0.316895)"/>
</clipPath>
</defs>
</svg>
