<svg width="22" height="22" viewBox="0 0 22 22" fill="none" xmlns="http://www.w3.org/2000/svg">
<path d="M18.413 1.08936H3.78359C3.43931 1.08936 3.16018 1.34557 3.16018 1.6616V4.46999V4.62428C3.16013 4.65509 3.16017 4.49311 3.16017 4.80914C3.16017 5.12517 3.1602 5.03098 3.1602 5.03098L3.16018 5.22124V7.23143V7.41571C3.16018 7.52047 3.16018 7.42011 3.16018 7.73614C3.16018 8.05217 3.16018 8.02576 3.16018 8.16749V8.37591V10.2834V10.5029C3.16018 10.657 3.16018 10.5396 3.16018 10.8556C3.16018 11.1717 3.16018 11.1869 3.16018 11.2547V11.4279V13.3354V13.5057C3.16018 13.6904 3.16018 13.5916 3.16018 13.9076C3.16018 14.2236 3.16018 14.1688 3.16018 14.2363V14.4798V16.3873V16.6683C3.16018 16.7813 3.16018 16.6936 3.16018 17.0096C3.16018 17.3256 3.16018 17.2413 3.16018 17.3175V17.5318V20.0497C3.16018 20.3657 3.43931 20.6219 3.78359 20.6219H18.413C18.7573 20.6219 19.0364 20.3657 19.0364 20.0497V1.6616C19.0364 1.34557 18.7573 1.08936 18.413 1.08936ZM18.2171 19.8707H4.02679V17.5318V17.1095C4.02679 17.0096 4.02679 17.1817 4.02679 16.8657C4.02679 16.5496 4.02679 16.8099 4.02679 16.49V16.3873V14.4798V14.2363C4.02679 14.0954 4.02679 14.2236 4.02679 13.9076C4.02679 13.5916 4.02679 13.664 4.02679 13.5057V13.3354V11.4279V11.1315C4.02679 10.9836 4.02679 10.7926 4.02679 10.7926C4.02679 10.7926 4.02679 10.6385 4.02679 10.48V10.2834V8.37591V8.13668C4.02679 8.01344 4.02679 8.13228 4.02679 7.81625C4.02679 7.50022 4.02679 7.51431 4.02679 7.44036V7.23143V5.22124V5.03098C4.02679 4.97552 4.02679 5.16165 4.02679 4.84562C4.02679 4.52959 4.02679 4.74136 4.02679 4.65509V4.46999V1.84061H18.2171V19.8707Z" fill="#60CD8C"/>
<rect x="2.24023" y="4.09424" width="2.52029" height="0.751252" rx="0.375626" fill="#60CD8C"/>
<rect x="2.24023" y="7.09961" width="2.52029" height="0.751252" rx="0.375626" fill="#60CD8C"/>
<rect x="2.24023" y="10.104" width="2.52029" height="0.751252" rx="0.375626" fill="#60CD8C"/>
<rect x="2.24023" y="13.1094" width="2.52029" height="0.751252" rx="0.375626" fill="#60CD8C"/>
<rect x="2.24023" y="16.1143" width="2.52029" height="0.751252" rx="0.375626" fill="#60CD8C"/>
<g clip-path="url(#clip0)">
<path d="M15.6931 10.4238V8.61186H14.6037L10.8944 6.02588L7.18505 8.61186H6.0957V10.4238H7.25789V13.8729H6.0957V15.6848H15.6931V13.8729H14.5126V10.4238H15.6931ZM10.8944 6.7114L13.6204 8.61186H8.16836L10.8944 6.7114ZM15.1307 14.4352V15.1225H6.65805V14.4352H15.1307ZM7.82024 13.8729V10.4238H8.49507V13.8729H7.82024ZM9.0574 13.8729V10.4238H9.98549V13.8729H9.0574ZM10.5478 13.8729V10.4238H11.2226V13.8729H10.5478ZM11.785 13.8729V10.4238H12.7131V13.8729H11.785ZM13.2754 13.8729V10.4238H13.9502V13.8729H13.2754ZM6.65805 9.86145V9.17419H15.1307V9.86145H6.65805Z" fill="#60CD8C"/>
</g>
<defs>
<clipPath id="clip0">
<rect width="9.65896" height="9.65896" fill="white" transform="translate(6.06445 6.02588)"/>
</clipPath>
</defs>
</svg>
