<svg width="22" height="22" viewBox="0 0 22 22" fill="none" xmlns="http://www.w3.org/2000/svg">
<g clip-path="url(#clip0)">
<path d="M20.5423 9.97853L9.19746 3.49003C8.32241 2.98876 7.12468 3.259 6.54783 4.08453L4.35005 7.22638C4.13436 7.5351 4.02039 7.89695 4.02039 8.27352C4.02039 8.92405 4.37009 9.53 4.93259 9.85464L7.32523 11.2364L6.89302 11.8132C6.65893 12.1251 6.53026 12.5119 6.53026 12.902C6.53026 13.3032 6.67717 13.6805 6.9138 13.9925L6.27699 14.9506H3.18373V13.6916C3.18373 13.4602 2.99663 13.2774 2.7654 13.2774H1.09216C0.860934 13.2774 0.673828 13.4602 0.673828 13.6916V17.8785C0.673828 18.11 0.860934 18.2972 1.09216 18.2972H2.76544C2.99667 18.2972 3.18377 18.11 3.18377 17.8785V17.4606H6.27703C7.11817 17.4606 7.89882 17.0428 8.36535 16.3424L9.05103 15.3129C9.18307 15.3416 9.31625 15.3676 9.45238 15.3676C10.1182 15.3676 10.7449 15.0127 11.0873 14.4411L11.5469 13.6744L15.107 15.7303C15.1712 15.7675 15.2435 15.7863 15.3162 15.7863C15.3566 15.7863 15.3971 15.7806 15.4367 15.7688C15.547 15.7352 15.6389 15.6579 15.6904 15.5549L16.0001 14.9341C16.0509 14.938 16.0998 14.949 16.1516 14.949C17.766 14.949 19.0798 13.634 19.0798 12.0181C19.0798 11.8406 19.0536 11.6578 19.0147 11.4708L20.5219 10.7166C20.66 10.6475 20.7486 10.5081 20.7531 10.3536C20.7571 10.1993 20.6763 10.055 20.5423 9.97853ZM2.49584 17.611H1.30643V13.9106H2.49584V17.611ZM7.84121 15.9701C7.53034 16.4366 6.83788 16.7189 6.27699 16.7189H3.18377V15.5516H6.22926C6.51033 15.5516 6.73819 15.4765 6.89302 15.2432L7.40765 14.4411L8.44288 15.045L7.84121 15.9701ZM10.4473 14.1749C10.1548 14.6615 9.30428 14.8397 8.81732 14.5468L7.55238 13.8005C7.2599 13.6252 7.22043 13.1835 7.22043 12.8424C7.22043 12.6324 7.28184 12.3499 7.40765 12.1816L7.84121 11.5428L10.9979 13.36L10.4473 14.1749ZM15.2049 14.9777L5.26011 9.2521C4.95578 9.07645 4.70946 8.62526 4.70946 8.27352C4.70946 8.06967 4.81576 7.82228 4.93259 7.65521L6.07507 6.03629L16.5705 12.2146L15.2049 14.9777ZM16.2465 14.3083L17.2999 12.3341L18.4323 11.7567C18.437 11.808 18.4323 12.0641 18.4323 12.1138C18.4323 13.1736 17.458 14.1821 16.2465 14.3083ZM17.011 11.6637L6.4385 5.46362L7.1103 4.51649C7.33051 4.20193 7.79455 3.99888 8.17857 3.99888C8.38324 3.99888 8.63963 3.98284 8.81732 4.08453L19.7312 10.3424L17.011 11.6637Z" fill="#60CD8C"/>
<path d="M14.4789 13.2781C14.7099 13.2781 14.8972 13.0908 14.8972 12.8597C14.8972 12.6287 14.7099 12.4414 14.4789 12.4414C14.2478 12.4414 14.0605 12.6287 14.0605 12.8597C14.0605 13.0908 14.2478 13.2781 14.4789 13.2781Z" fill="#60CD8C"/>
</g>
<defs>
<clipPath id="clip0">
<rect width="21" height="21" fill="white" transform="translate(0.166016 0.316895)"/>
</clipPath>
</defs>
</svg>
