<svg width="22" height="22" viewBox="0 0 22 22" fill="none" xmlns="http://www.w3.org/2000/svg">
<g clip-path="url(#clip0)">
<path d="M1.91602 21.317H17.666C17.8593 21.317 18.016 21.1603 18.016 20.967V11.867H17.316V20.617H1.91602C1.33616 20.617 0.866016 20.1468 0.866016 19.567C0.866016 18.9871 1.33616 18.517 1.91602 18.517H2.61602C2.8093 18.517 2.96602 18.3603 2.96602 18.167V7.66699H8.56602V6.96699H2.96602V4.51699C2.96602 4.32371 2.8093 4.16699 2.61602 4.16699H1.91602C0.949927 4.16819 0.167212 4.9509 0.166016 5.91699V19.567C0.167212 20.5331 0.949927 21.3158 1.91602 21.317ZM0.866016 7.31699V5.91699C0.866016 5.33713 1.33616 4.86699 1.91602 4.86699H2.26602V17.817H1.91602C1.5373 17.8165 1.16868 17.9394 0.866016 18.167V7.31699Z" fill="#60CD8C"/>
<path d="M8.21602 8.7168H4.01602C3.82273 8.7168 3.66602 8.87351 3.66602 9.0668V11.8668C3.66602 12.0601 3.82273 12.2168 4.01602 12.2168H8.21602C8.4093 12.2168 8.56602 12.0601 8.56602 11.8668V10.8168H9.96602V10.1168H8.56602V9.0668C8.56602 8.87351 8.4093 8.7168 8.21602 8.7168ZM7.86602 11.5168H4.36602V9.4168H7.86602V11.5168Z" fill="#60CD8C"/>
<path d="M11.716 18.517H15.916C16.1093 18.517 16.266 18.3603 16.266 18.167V15.367C16.266 15.1737 16.1093 15.017 15.916 15.017H14.166V12.917H13.466V15.017H11.716C11.5227 15.017 11.366 15.1737 11.366 15.367V16.417H8.56602V15.367C8.56602 15.1737 8.4093 15.017 8.21602 15.017H4.01602C3.82273 15.017 3.66602 15.1737 3.66602 15.367V18.167C3.66602 18.3603 3.82273 18.517 4.01602 18.517H8.21602C8.4093 18.517 8.56602 18.3603 8.56602 18.167V17.117H11.366V18.167C11.366 18.3603 11.5227 18.517 11.716 18.517ZM12.066 15.717H15.566V17.817H12.066V15.717ZM7.86602 17.817H4.36602V15.717H7.86602V17.817Z" fill="#60CD8C"/>
<path d="M15.2164 3.1167C13.4767 3.1167 12.0664 4.52695 12.0664 6.2667C12.0664 8.00645 13.4767 9.4167 15.2164 9.4167C16.9562 9.4167 18.3664 8.00645 18.3664 6.2667C18.3645 4.52781 16.9553 3.11858 15.2164 3.1167ZM15.2164 8.7167C13.8632 8.7167 12.7664 7.61987 12.7664 6.2667C12.7664 4.91353 13.8632 3.8167 15.2164 3.8167C16.5696 3.8167 17.6664 4.91353 17.6664 6.2667C17.6649 7.61919 16.5689 8.71516 15.2164 8.7167Z" fill="#60CD8C"/>
<path d="M20.8156 7.66689C21.0089 7.66689 21.1656 7.51018 21.1656 7.31689V5.21689C21.1656 5.02361 21.0089 4.86689 20.8156 4.86689H19.5406C19.4659 4.63721 19.3732 4.41367 19.2637 4.19834L20.1667 3.29856C20.2325 3.23293 20.2696 3.14373 20.2696 3.05076C20.2696 2.95779 20.2325 2.86858 20.1667 2.80295L18.6806 1.31545C18.615 1.24983 18.5259 1.21292 18.4331 1.21292C18.3403 1.21309 18.2513 1.25 18.1857 1.3158L17.2842 2.21882C17.0689 2.10928 16.8453 2.01682 16.6156 1.94197V0.666895C16.6156 0.473608 16.4589 0.316895 16.2656 0.316895H14.1656C13.9723 0.316895 13.8156 0.473608 13.8156 0.666895V1.94197C13.5859 2.01682 13.3624 2.10928 13.1471 2.21882L12.2469 1.3158C12.1813 1.25 12.0923 1.21309 11.9995 1.21292C11.9067 1.21292 11.8177 1.24983 11.752 1.31545L10.2642 2.80193C10.1984 2.86755 10.1613 2.95676 10.1613 3.04973C10.1613 3.1427 10.1984 3.23191 10.2642 3.29753L11.1672 4.19731C11.0577 4.41299 10.9652 4.63687 10.8907 4.86689H9.61563C9.42234 4.86689 9.26562 5.02361 9.26562 5.21689V7.31689C9.26562 7.51018 9.42234 7.66689 9.61563 7.66689H10.8907C10.9654 7.89658 11.058 8.12012 11.1676 8.33545L10.2645 9.23523C10.1986 9.30085 10.1615 9.39023 10.1615 9.4832C10.1615 9.57634 10.1986 9.66555 10.2645 9.73118L11.7507 11.2149C11.8874 11.3515 12.1089 11.3515 12.2456 11.2149L13.1457 10.315C13.3616 10.4245 13.5856 10.517 13.8156 10.5918V11.8669C13.8156 12.0602 13.9723 12.2169 14.1656 12.2169H16.2656C16.4589 12.2169 16.6156 12.0602 16.6156 11.8669V10.5918C16.8455 10.517 17.069 10.4245 17.2845 10.315L18.1846 11.2149C18.3214 11.3513 18.5425 11.3513 18.6792 11.2149L20.1667 9.73083C20.2327 9.66521 20.2698 9.576 20.2698 9.48286C20.2698 9.38972 20.2327 9.30051 20.1667 9.23489L19.2637 8.33511C19.3732 8.11995 19.4659 7.89641 19.5406 7.66689H20.8156ZM18.941 7.22769C18.8489 7.57615 18.7103 7.9106 18.5287 8.22197C18.4485 8.35955 18.4712 8.53386 18.584 8.64614L19.424 9.48337L18.4325 10.4729L17.5956 9.63496C17.4833 9.52251 17.3091 9.49995 17.1717 9.57993C16.8605 9.7616 16.5259 9.9002 16.1774 9.99197C16.0233 10.0321 15.9158 10.1712 15.9156 10.3303V11.5169H14.5156V10.3303C14.5156 10.1714 14.4085 10.0325 14.2548 9.99197C13.9064 9.9002 13.5718 9.7616 13.2605 9.57993C13.1231 9.49995 12.949 9.52251 12.8367 9.63496L11.9991 10.4725L11.0076 9.48337L11.8476 8.64614C11.9604 8.53386 11.9831 8.35955 11.9029 8.22197C11.7213 7.9106 11.5827 7.57615 11.4906 7.22769C11.4501 7.07405 11.3111 6.96689 11.1522 6.96689H9.96563V5.56689H11.1522C11.3109 5.56672 11.4497 5.45974 11.4902 5.3061C11.5823 4.95764 11.7209 4.62319 11.9026 4.31182C11.9827 4.17424 11.96 3.99993 11.8472 3.88765L11.0073 3.05007L11.9991 2.05818L12.8367 2.89814C12.949 3.01094 13.1233 3.03367 13.2609 2.95352C13.5721 2.77185 13.9067 2.63325 14.2552 2.54148C14.4086 2.50081 14.5155 2.36204 14.5156 2.20344V1.01689H15.9156V2.20344C15.9156 2.36238 16.0228 2.50132 16.1764 2.54182C16.5249 2.63359 16.8595 2.77219 17.1707 2.95386C17.3085 3.03435 17.4831 3.01162 17.5956 2.89849L18.4331 2.05852L19.425 3.05042L18.5851 3.88799C18.4723 4.00027 18.4495 4.17458 18.5299 4.31216C18.7114 4.62354 18.85 4.95798 18.9421 5.30645C18.9826 5.45957 19.1208 5.56638 19.2791 5.56689H20.4656V6.96689H19.2791C19.1203 6.96707 18.9815 7.07405 18.941 7.22769Z" fill="#60CD8C"/>
<path d="M15.2164 4.86719C14.4433 4.86719 13.8164 5.49404 13.8164 6.26719C13.8164 7.04033 14.4433 7.66719 15.2164 7.66719C15.9896 7.66719 16.6164 7.04033 16.6164 6.26719C16.6164 5.49404 15.9896 4.86719 15.2164 4.86719ZM15.2164 6.96719C14.8298 6.96719 14.5164 6.65376 14.5164 6.26719C14.5164 5.88062 14.8298 5.56719 15.2164 5.56719C15.603 5.56719 15.9164 5.88062 15.9164 6.26719C15.9164 6.65376 15.603 6.96719 15.2164 6.96719Z" fill="#60CD8C"/>
</g>
<defs>
<clipPath id="clip0">
<rect width="21" height="21" fill="white" transform="translate(0.166016 0.316895)"/>
</clipPath>
</defs>
</svg>
