<svg width="20" height="20" viewBox="0 0 20 20" fill="none" xmlns="http://www.w3.org/2000/svg">
<path d="M19.1896 1.11033e-05L14.0828 6.943e-06C13.6359 6.57894e-06 13.2738 0.362043 13.2738 0.808934C13.2738 1.25583 13.6359 1.61786 14.0828 1.61786L17.238 1.61787L10 8.85588L2.76197 1.61785L5.91721 1.61786C6.36418 1.61786 6.72614 1.2559 6.72614 0.808929C6.72614 0.362037 6.36411 3.64059e-07 5.91721 0L0.808927 3.37002e-05C0.362035 3.33362e-05 -3.64059e-07 0.362069 0 0.808961L3.83414e-06 5.91729C4.1982e-06 6.36418 0.362041 6.72622 0.808933 6.72622C1.25582 6.72622 1.61786 6.36418 1.61786 5.91729L1.61786 2.76204L8.85585 10L1.61787 17.238L1.61787 14.0828C1.61787 13.6359 1.25583 13.2738 0.808938 13.2738C0.362046 13.2738 9.8311e-06 13.6359 1.01952e-05 14.0828L1.47919e-05 19.1896C-0.000556898 19.6347 0.363424 20.0006 0.810353 20L5.91723 20C6.3642 20 6.72616 19.638 6.72616 19.1911C6.72616 18.7442 6.36412 18.3821 5.91723 18.3821L2.76199 18.3821L10 11.1441L17.238 18.3821L14.0828 18.3821C13.6359 18.3821 13.2739 18.7442 13.2739 19.1911C13.2739 19.638 13.6359 20 14.0828 20L19.1897 20C19.6472 20.0006 20.0006 19.6263 20 19.1897L20 14.0828C20 13.6359 19.638 13.2739 19.1911 13.2739C18.7442 13.2739 18.3821 13.6359 18.3821 14.0828L18.3821 17.238L11.1441 10L18.3821 2.76198L18.3821 5.91723C18.3821 6.36412 18.7442 6.72616 19.1911 6.72616C19.638 6.72616 20 6.3642 20 5.91723L20 0.81035C20.0006 0.36342 19.6347 -0.000560587 19.1896 1.11033e-05Z" fill="#0096D5"/>
</svg>
