<svg width="21" height="21" viewBox="0 0 21 21" fill="none" xmlns="http://www.w3.org/2000/svg">
<path d="M12.5872 4.00621L10.7356 2.65199L10.4995 2.47928L10.2633 2.65199L1.10761 9.34834L0.772321 9.59357L1.03004 9.91936L2.5898 11.8912L2.82875 12.1932L3.13964 11.9659L10.4995 6.58306L17.8593 11.9658L18.1702 12.1931L18.4091 11.8911L19.9689 9.9193L20.2266 9.5935L19.8913 9.34827L17.0074 7.23906V3.82969V3.42969H16.6074H12.9872H12.5872V3.82969V4.00621Z" stroke="#60CD8C" stroke-width="0.8"/>
<path d="M10.7348 6.83412L10.4987 6.66142L10.2626 6.83412L4.15449 11.3014L3.99062 11.4212V11.6242V17.258V17.658H4.39062H9.29018H9.69018V17.258V13.848H11.3071V17.258V17.658H11.7071H16.6066H17.0066V17.258V11.6242V11.4212L16.8427 11.3013L10.7348 6.83412Z" stroke="#60CD8C" stroke-width="0.8"/>
</svg>
