<svg width="22" height="21" viewBox="0 0 22 21" fill="none" xmlns="http://www.w3.org/2000/svg">
<g clip-path="url(#clip0)">
<path d="M19.1337 7.89145V7.49146H18.7337H16.2185H15.8184V7.89145V17.0295V17.4295H16.2185H18.7337H19.1337V17.0295V7.89145Z" stroke="#60CD8C" stroke-width="0.8"/>
<path d="M15.8595 7.89145V7.49146H15.4595H12.9918H12.5918V7.89145V17.0295V17.4295H12.9918H15.4595H15.8595V17.0295V7.89145Z" stroke="#60CD8C" stroke-width="0.8"/>
<path d="M9.92392 4.39206C9.92392 4.97939 10.4001 5.45556 10.9874 5.45562C11.5746 5.45474 12.0503 4.97884 12.051 4.39167L9.92392 4.39206ZM9.92392 4.39206C9.92392 3.80468 10.4001 3.3285 10.9875 3.3285L9.92392 4.39206ZM9.92392 4.39206L10.9875 3.3285L9.92392 4.39206ZM10.9875 3.3285C11.5747 3.3285 12.0508 3.8044 12.051 4.39161L10.9875 3.3285ZM11.1574 1.12194L10.9999 1.05444L10.8423 1.12194L1.89676 4.95482L1.6543 5.05871V5.32249V6.83959V7.23959H2.0543H19.9454H20.3454V6.83959V5.32249V5.05871L20.103 4.95482L11.1574 1.12194Z" stroke="#60CD8C" stroke-width="0.8"/>
<path d="M11.1042 5.49611C11.7141 5.49611 12.2085 5.00172 12.2085 4.39186C12.2085 3.78199 11.7141 3.2876 11.1042 3.2876C10.4944 3.2876 10 3.78199 10 4.39186C10 5.00172 10.4944 5.49611 11.1042 5.49611Z" stroke="#60CD8C" stroke-width="0.8"/>
<path d="M20.844 18.0394V17.6394H20.444H1.55625H1.15625V18.0394V19.5106V19.9106H1.55625H20.444H20.844V19.5106V18.0394Z" stroke="#60CD8C" stroke-width="0.8"/>
<path d="M6.17948 7.89145V7.49146H5.77948H3.50156H3.10156V7.89145V17.0295V17.4295H3.50156H5.77948H6.17948V17.0295V7.89145Z" stroke="#60CD8C" stroke-width="0.8"/>
<path d="M9.40642 7.89145V7.49146H9.00642H6.53867H6.13867V7.89145V17.0295V17.4295H6.53867H9.00642H9.40642V17.0295V7.89145Z" stroke="#60CD8C" stroke-width="0.8"/>
<path d="M12.633 7.89145V7.49146H12.233H9.76523H9.36523V7.89145V17.0295V17.4295H9.76523H12.233H12.633V17.0295V7.89145Z" stroke="#60CD8C" stroke-width="0.8"/>
</g>
<defs>
<clipPath id="clip0">
<rect width="21" height="21" fill="white" transform="translate(0.5)"/>
</clipPath>
</defs>
</svg>
