<svg width="21" height="21" viewBox="0 0 21 21" fill="none" xmlns="http://www.w3.org/2000/svg">
<path d="M10.4039 13.1486C10.4039 10.5077 12.5471 8.57456 15.2423 8.57456C17.9376 8.57456 20.0807 10.5078 20.0807 13.1486C20.0807 14.4238 19.5764 15.5806 18.6639 16.4155C17.7747 17.2291 16.5623 17.6852 15.2423 17.6852C13.9224 17.6852 12.7101 17.2291 11.8208 16.4155L11.5508 16.7106L11.8208 16.4154C10.9083 15.5807 10.4039 14.4238 10.4039 13.1486Z" stroke="#60CD8C" stroke-width="0.8"/>
<path d="M4.46441 11.2813C2.64041 11.2813 1.15586 12.766 1.15586 14.59C1.15586 15.461 1.49988 16.2485 2.12112 16.8169C2.72753 17.3717 3.55692 17.6852 4.46445 17.6852C5.37204 17.6852 6.20147 17.3717 6.80782 16.8169L7.07784 17.112L6.80783 16.8169C7.42906 16.2485 7.77309 15.4609 7.77309 14.59L4.46441 11.2813ZM4.46441 11.2813C6.28846 11.2813 7.77305 12.766 7.77309 14.59L4.46441 11.2813Z" stroke="#60CD8C" stroke-width="0.8"/>
<path d="M10.8907 8.88204L10.8907 8.88203C12.0448 7.80835 13.5923 7.22332 15.2412 7.22332C16.3459 7.22332 17.4048 7.48604 18.3309 7.98247L18.3679 7.99843L18.4031 8.02375C18.4061 8.02593 18.409 8.02718 18.4113 8.02783C18.4134 8.02842 18.4158 8.02877 18.4191 8.02848L10.8907 8.88204ZM10.8907 8.88204C9.70375 9.98631 9.05127 11.5045 9.05132 13.149C9.05132 13.2946 9.05648 13.4392 9.0667 13.5826M10.8907 8.88204L9.0667 13.5826M9.0667 13.5826H9.01439C8.55262 11.4956 6.68874 9.92994 4.46421 9.92994C3.3386 9.92994 2.30519 10.3314 1.49953 10.9973C1.28652 10.3209 1.25364 9.4206 1.4177 8.61215C1.52002 8.10796 1.69169 7.67928 1.9093 7.38675C2.12305 7.09941 2.35518 6.97254 2.60225 6.97254H2.60265H2.60305H2.60346H2.60388H2.6043H2.60473H2.60517H2.60561H2.60606H2.60652H2.60698H2.60745H2.60792H2.6084H2.60889H2.60938H2.60988H2.61038H2.6109H2.61141H2.61194H2.61247H2.61301H2.61355H2.6141H2.61465H2.61522H2.61578H2.61636H2.61694H2.61753H2.61812H2.61872H2.61932H2.61994H2.62055H2.62118H2.62181H2.62245H2.62309H2.62374H2.62439H2.62505H2.62572H2.6264H2.62708H2.62776H2.62845H2.62915H2.62986H2.63057H2.63129H2.63201H2.63274H2.63347H2.63421H2.63496H2.63572H2.63648H2.63724H2.63802H2.63879H2.63958H2.64037H2.64117H2.64197H2.64278H2.64359H2.64441H2.64524H2.64608H2.64692H2.64776H2.64861H2.64947H2.65033H2.6512H2.65208H2.65296H2.65385H2.65475H2.65565H2.65655H2.65746H2.65838H2.65931H2.66024H2.66118H2.66212H2.66307H2.66402H2.66498H2.66595H2.66692H2.6679H2.66889H2.66988H2.67087H2.67188H2.67288H2.6739H2.67492H2.67595H2.67698H2.67802H2.67906H2.68011H2.68117H2.68223H2.6833H2.68438H2.68546H2.68654H2.68764H2.68873H2.68984H2.69095H2.69206H2.69319H2.69432H2.69545H2.69659H2.69773H2.69889H2.70004H2.70121H2.70238H2.70355H2.70473H2.70592H2.70711H2.70831H2.70952H2.71073H2.71194H2.71317H2.7144H2.71563H2.71687H2.71812H2.71937H2.72062H2.72189H2.72316H2.72443H2.72571H2.727H2.72829H2.72959H2.7309H2.73221H2.73352H2.73484H2.73617H2.7375H2.73884H2.74019H2.74154H2.74289H2.74426H2.74562H2.747H2.74838H2.74976H2.75115H2.75255H2.75395H2.75536H2.75678H2.7582H2.75962H2.76105H2.76249H2.76393H2.76538H2.76684H2.7683H2.76976H2.77124H2.77271H2.7742H2.77568H2.77718H2.77868H2.78018H2.7817H2.78321H2.78474H2.78626H2.7878H2.78934H2.79088H2.79244H2.79399H2.79556H2.79712H2.7987H2.80028H2.80186H2.80345H2.80505H2.80665H2.80826H2.80987H2.81149H2.81312H2.81475H2.81638H2.81803H2.81967H2.82133H2.82298H2.82465H2.82632H2.82799H2.82967H2.83136H2.83305H2.83475H2.83645H2.83816H2.83988H2.8416H2.84332H2.84505H2.84679H2.84853H2.85028H2.85203H2.85379H2.85556H2.85732H2.8591H2.86088H2.86267H2.86446H2.86626H2.86806H2.86987H2.87168H2.8735H2.87533H2.87716H2.87899H2.88084H2.88268H2.88453H2.88639H2.88826H2.89012H2.892H2.89388H2.89576H2.89766H2.89955H2.90145H2.90336H2.90527H2.90719H2.90911H2.91104H2.91298H2.91492H2.91686H2.91881H2.92077H2.92273H2.9247H2.92667H2.92865H2.93063H2.93262H2.93461H2.93661H2.93862H2.94063H2.94264H2.94466H2.94669H2.94872H2.95076H2.9528H2.95485H2.9569H2.95896H2.96102H2.96309H2.96517H2.96724H2.96933H2.97142H2.97352H2.97562H2.97772H2.97983H2.98195H2.98407H2.9862H2.98833H2.99047H2.99262H2.99476H2.99692H2.99908H3.00124H3.00341H3.00559H3.00777H3.00995H3.01215H3.01434H3.01654H3.01875H3.02096H3.02318H3.0254H3.02763H3.02986H3.0321H3.03434H3.03659H3.03885H3.04111H3.04337H3.04564H3.04791H3.05019H3.05248H3.05477H3.05707H3.05937H3.06167H3.06398H3.0663H3.06862H3.07095H3.07328H3.07562H3.07796H3.08031H3.08266H3.08502H3.08738H3.08975H3.09212H3.0945H3.09688H3.09927H3.10166H3.10406H3.10647H3.10887H3.11129H3.11371H3.11613H3.11856H3.121H3.12344H3.12588H3.12833H3.13079H3.13325H3.13571H3.13818H3.14066H3.14314H3.14562H3.14811H3.15061H3.15311H3.15561H3.15812H3.16064H3.16316H3.16569H3.16822H3.17075H3.17329H3.17584H3.17839H3.18095H3.18351H3.18607H3.18864H3.19122H3.1938H3.19639H3.19898H3.20157H3.20417H3.20678H3.20939H3.21201H3.21463H3.21725H3.21988H3.22252H3.22516H3.22781H3.23046H3.23311H3.23577H3.23844H3.24111H3.24378H3.24646H3.24915H3.25184H3.25453H3.25723H3.25994H3.26265H3.26536H3.26808H3.27081H3.27354H3.27627H3.27901H3.28175H3.2845H3.28726H3.29002H3.29278H3.29555H3.29832H3.3011H3.30388H3.30667H3.30946H3.31226H3.31506H3.31787H3.32068H3.3235H3.32632H3.32915H3.33198H3.33481H3.33765H3.3405H3.34335H3.34621H3.34907H3.35193H3.3548H3.35768H3.36056H3.36344H3.36633H3.36922H3.37212H3.37502H3.37793H3.38084H3.38376H3.38668H3.38961H3.39254H3.39548H3.39842H3.40137H3.40432H3.40727H3.41023H3.4132H3.41617H3.41914H3.42212H3.42511H3.42809H3.43109H3.43409H3.43709H3.4401H3.44311H3.44612H3.44915H3.45217H3.4552H3.45824H3.46128H3.46432H3.46737H3.47043H3.47348H3.47655H3.47962H3.48269H3.48577H3.48885H3.49193H3.49503H3.49812H3.50122H3.50433H3.50744H3.51055H3.51367H3.51679H3.51992H3.52305H3.52619H3.52933H3.53248H3.53563H3.53879H3.54195H3.54511H3.54828H3.55146H3.55463H3.55782H3.95782V6.57254V4.42624C3.95782 4.33426 4.03243 4.25964 4.12441 4.25964C4.21641 4.25964 4.291 4.33423 4.291 4.42624V6.57254V6.97254H4.691H4.69725H4.70351H4.70977H4.71603H4.72231H4.72859H4.73488H4.74118H4.74748H4.75379H4.76011H4.76643H4.77277H4.7791H4.78545H4.7918H4.79816H4.80453H4.8109H4.81728H4.82367H4.83007H4.83647H4.84288H4.84929H4.85571H4.86214H4.86858H4.87502H4.88147H4.88793H4.89439H4.90086H4.90734H4.91383H4.92032H4.92682H4.93332H4.93983H4.94635H4.95288H4.95941H4.96595H4.97249H4.97904H4.9856H4.99217H4.99874H5.00532H5.0119H5.0185H5.02509H5.0317H5.03831H5.04493H5.05156H5.05819H5.06483H5.07147H5.07812H5.08478H5.09145H5.09812H5.1048H5.11148H5.11817H5.12487H5.13157H5.13828H5.145H5.15173H5.15846H5.16519H5.17193H5.17868H5.18544H5.1922H5.19897H5.20575H5.21253H5.21931H5.22611H5.23291H5.23972H5.24653H5.25335H5.26017H5.26701H5.27384H5.28069H5.28754H5.2944H5.30126H5.30813H5.31501H5.32189H5.32878H5.33567H5.34257H5.34948H5.35639H5.36331H5.37024H5.37717H5.38411H5.39105H5.398H5.40496H5.41192H5.41889H5.42586H5.43284H5.43983H5.44682H5.45382H5.46082H5.46784H5.47485H5.48188H5.4889H5.49594H5.50298H5.51003H5.51708H5.52414H5.5312H5.53827H5.54535H5.55243H5.55952H5.56661H5.57371H5.58082H5.58793H5.59505H5.60217H5.6093H5.61643H5.62357H5.63072H5.63787H5.64503H5.65219H5.65936H5.66654H5.67372H5.68091H5.6881H5.6953H5.7025H5.70971H5.71693H5.72415H5.73137H5.73861H5.74584H5.75309H5.76033H5.76759H5.77485H5.78212H5.78939H5.79666H5.80395H5.81123H5.81853H5.82583H5.83313H5.84044H5.84776H5.85508H5.86241H5.86974H5.87707H5.88442H5.89177H5.89912H5.90648H5.91384H5.92121H5.92859H5.93597H5.94336H5.95075H5.95815H5.96555H5.97295H5.98037H5.98779H5.99521H6.00264H6.01007H6.01751H6.02496H6.03241H6.03986H6.04732H6.05479H6.06226H6.06973H6.07721H6.0847H6.09219H6.09969H6.10719H6.1147H6.12221H6.12973H6.13725H6.14478H6.15231H6.15985H6.16739H6.17494H6.18249H6.19005H6.19761H6.20518H6.21275H6.22033H6.22791H6.2355H6.24309H6.25069H6.25829H6.2659H6.27351H6.28113H6.28875H6.29638H6.30401H6.31165H6.31929H6.32694H6.33459H6.34225H6.34991H6.35758H6.36525H6.37292H6.3806H6.38829H6.39598H6.40368H6.41138H6.41908H6.42679H6.4345H6.44222H6.44994H6.45767H6.46541H6.47314H6.48089H6.48863H6.49638H6.50414H6.5119H6.51967H6.52744H6.53521H6.54299H6.55077H6.55856H6.56635H6.57415H6.58195H6.58976H6.59757H6.60539H6.61321H6.62103H6.62886H6.63669H6.64453H6.65237H6.66022H6.66807H6.67593H6.68379H6.69165H6.69952H6.70739H6.71527H6.72315H6.73104H6.73893H6.74683H6.75473H6.76263H6.77054H6.77845H6.78637H6.79429H6.80221H6.81014H6.81808H6.82601H6.83395H6.8419H6.84985H6.85781H6.86577H6.87373H6.8817H6.88967H6.89764H6.90562H6.91361H6.92159H6.92959H6.93758H6.94558H6.95359H6.96159H6.96961H6.97762H6.98564H6.99367H7.0017H7.00973H7.01777H7.02581H7.03385H7.0419H7.04995H7.05801H7.06607H7.07413H7.0822H7.09027H7.09835H7.10643H7.11451H7.1226H7.13069H7.13879H7.14688H7.15499H7.16309H7.1712H7.17932H7.18744H7.19556H7.20368H7.21181H7.21995H7.22808H7.23623H7.24437H7.25252H7.26067H7.26883H7.27698H7.28515H7.29331H7.30148H7.30966H7.31784H7.32602H7.3342H7.34239H7.35058H7.35878H7.36698H7.37518H7.38338H7.39159H7.39981H7.40802H7.41624H7.42447H7.4327H7.44093H7.44916H7.4574H7.46564H7.47388H7.48213H7.49038H7.49864H7.5069H7.51516H7.52342H7.53169H7.53996H7.54824H7.55652H7.5648H7.57308H7.58137H7.58966H7.59796H7.60626H7.61456H7.62286H7.63117H7.63948H7.6478H7.65612H7.66444H7.67276H7.68109H7.68942H7.69775H7.70609H7.71443H7.72277H7.73112H7.73947H7.74782H7.75618H7.76454H7.7729H7.78127H7.78963H7.79801H7.80638H7.81476H7.82314H7.83152H7.83991H7.8483H7.85669H7.86508H7.87348H7.88188H7.89029H7.8987H7.90711H7.91552H7.92393H7.93235H7.94078H7.9492H7.95763H7.96606H7.97449H7.98293H7.99137H7.99981H8.00825H8.0167H8.02515H8.0336H8.04206H8.05052H8.05898H8.06744H8.07591H8.08438H8.09285H8.10133H8.1098H8.11828H8.12677H8.13525H8.14374H8.15223H8.16073H8.16922H8.17772H8.18622H8.19473H8.20323H8.21174H8.22025H8.22877H8.23728H8.2458H8.25433H8.26285H8.27138H8.27991H8.28844H8.29697H8.30551H8.31405H8.32259H8.33113H8.33968H8.34823H8.35678H8.36533H8.37389H8.38245H8.39101H8.39957H8.40814H8.41671H8.42528H8.43385H8.44243H8.451H8.45958H8.46816H8.47675H8.48534H8.49392H8.50251H8.51111H8.5197H8.5283H8.5369H8.5455H8.55411H8.56271H8.57132H8.57993H8.58854H8.59716H8.60578H8.92946L8.99698 6.65597C9.27644 5.34571 9.6389 3.62767 9.80407 2.80988L9.80407 2.80987C9.93211 2.17582 10.184 1.92837 10.3949 1.81517C10.6323 1.68772 10.8998 1.68175 11.1625 1.68228H11.1633H16.8914C17.0817 1.68228 17.3237 1.68788 17.5312 1.80296C17.7044 1.899 17.9205 2.11019 17.9699 2.68363C18.0398 3.49685 18.391 7.43928 18.4363 7.94817L18.4411 8.00199L18.4411 8.00209C18.4423 8.01553 18.4325 8.02725 18.4192 8.02847L9.0667 13.5826ZM18.3006 6.97258H17.8635H17.8596H17.8556H17.8516H17.8476H17.8437H17.8396H17.8356H17.8316H17.8275H17.8235H17.8194H17.8153H17.8112H17.807H17.8029H17.7988H17.7946H17.7904H17.7862H17.782H17.7778H17.7736H17.7693H17.765H17.7608H17.7565H17.7522H17.7478H17.7435H17.7392H17.7348H17.7304H17.726H17.7216H17.7172H17.7128H17.7084H17.7039H17.6994H17.695H17.6905H17.6859H17.6814H17.6769H17.6723H17.6678H17.6632H17.6586H17.654H17.6494H17.6447H17.6401H17.6354H17.6308H17.6261H17.6214H17.6167H17.6119H17.6072H17.6025H17.5977H17.5929H17.5881H17.5833H17.5785H17.5737H17.5688H17.564H17.5591H17.5542H17.5493H17.5444H17.5395H17.5345H17.5296H17.5246H17.5197H17.5147H17.5097H17.5046H17.4996H17.4946H17.4895H17.4845H17.4794H17.4743H17.4692H17.4641H17.4589H17.4538H17.4486H17.4435H17.4383H17.4331H17.4279H17.4227H17.4174H17.4122H17.4069H17.4016H17.3964H17.3911H17.3858H17.3804H17.3751H17.3698H17.3644H17.359H17.3536H17.3482H17.3428H17.3374H17.332H17.3265H17.3211H17.3156H17.3101H17.3046H17.2991H17.2936H17.288H17.2825H17.2769H17.2714H17.2658H17.2602H17.2546H17.249H17.2433H17.2377H17.232H17.2264H17.2207H17.215H17.2093H17.2036H17.1978H17.1921H17.1863H17.1806H17.1748H17.169H17.1632H17.1574H17.1516H17.1457H17.1399H17.134H17.1282H17.1223H17.1164H17.1105H17.1045H17.0986H17.0927H17.0867H17.0807H17.0748H17.0688H17.0628H17.0568H17.0507H17.0447H17.0386H17.0326H17.0265H17.0204H17.0143H17.0082H17.0021H16.996H16.9898H16.9837H16.9775H16.9713H16.9651H16.9589H16.9527H16.9465H16.9403H16.934H16.9278H16.9215H16.9152H16.9089H16.9026H16.8963H16.89H16.8837H16.8773H16.871H16.8646H16.8582H16.8518H16.8454H16.839H16.8326H16.8261H16.8197H16.8132H16.8068H16.8003H16.7938H16.7873H16.7808H16.7742H16.7677H16.7612H16.7546H16.748H16.7415H16.7349H16.7283H16.7217H16.715H16.7084H16.7017H16.6951H16.6884H16.6818H16.6751H16.6684H16.6617H16.6549H16.6482H16.6415H16.6347H16.6279H16.6212H16.6144H16.6076H16.6008H16.594H16.5871H16.5803H16.5735H16.5666H16.5597H16.5529H16.546H16.5391H16.5322H16.5252H16.5183H16.5114H16.5044H16.4974H16.4905H16.4835H16.4765H16.4695H16.4625H16.4555H16.4484H16.4414H16.4343H16.4273H16.4202H16.4131H16.406H16.3989H16.3918H16.3847H16.3775H16.3704H16.3632H16.3561H16.3489H16.3417H16.3345H16.3273H16.3201H16.3128H16.3056H16.2984H16.2911H16.2838H16.2766H16.2693H16.262H16.2547H16.2474H16.24H16.2327H16.2254H16.218H16.2107H16.2033H16.1959H16.1885H16.1811H16.1737H16.1663H16.1588H16.1514H16.1439H16.1365H16.129H16.1215H16.114H16.1066H16.099H16.0915H16.084H16.0765H16.0689H16.0614H16.0538H16.0462H16.0386H16.0311H16.0235H16.0158H16.0082H16.0006H15.993H15.9853H15.9777H15.97H15.9623H15.9546H15.9469H15.9392H15.9315H15.9238H15.9161H15.9083H15.9006H15.8928H15.8851H15.8773H15.8695H15.8617H15.8539H15.8461H15.8383H15.8304H15.8226H15.8148H15.8069H15.799H15.7912H15.7833H15.7754H15.7675H15.7596H15.7517H15.7437H15.7358H15.7279H15.7199H15.7119H15.704H15.696H15.688H15.68H15.672H15.664H15.656H15.6479H15.6399H15.6319H15.6238H15.6157H15.6077H15.5996H15.5915H15.5834H15.5753H15.5672H15.5591H15.5509H15.5428H15.5346H15.5265H15.5183H15.5101H15.502H15.4938H15.4856H15.4774H15.4692H15.4609H15.4527H15.4445H15.4362H15.428H15.4197H15.4114H15.4031H15.3949H15.3866H15.3783H15.3699H15.3616H15.3533H15.345H15.3366H15.3283H15.3199H15.3115H15.3032H15.2948H15.2864H15.278H15.2696H15.2612H15.2527H15.2443H15.2359H15.2274H15.219H15.2105H15.202H15.1936H15.1851H15.1766H15.1681H15.1596H15.1511H15.1425H15.134H15.1255H15.1169H15.1084H15.0998H15.0913H15.0827H15.0741H15.0655H15.0569H15.0483H15.0397H15.0311H15.0224H15.0138H15.0052H14.9965H14.9879H14.9792H14.9705H14.9618H14.9532H14.9445H14.9358H14.9271H14.9183H14.9096H14.9009H14.8922H14.8834H14.8747H14.8659H14.8571H14.8484H14.8396H14.8308H14.822H14.8132H14.8044H14.7956H14.7868H14.7779H14.7691H14.7603H14.7514H14.7426H14.7337H14.7248H14.716H14.7071H14.6982H14.6893H14.6804H14.6715H14.6626H14.6536H14.6447H14.6358H14.6268H14.6179H14.6089H14.6H14.591H14.582H14.573H14.564H14.5551H14.546H14.537H14.528H14.519H14.51H14.5009H14.4919H14.4829H14.4738H14.4647H14.4557H14.4466H14.4375H14.4284H14.4193H14.4102H14.4011H14.392H14.3829H14.3738H14.3647H14.3555H14.3464H14.3372H13.9372V6.97254H13.6583L18.3006 6.97258ZM18.3006 6.97258L18.2619 6.53715C18.1393 5.15758 17.968 3.229 17.9215 2.68783C17.8967 2.40031 17.8365 2.08704 17.587 1.89585C17.4634 1.80109 17.3283 1.7642 17.2158 1.74762C17.1079 1.73173 16.9918 1.73092 16.8915 1.73092H14.3372H14.0583H13.9372M18.3006 6.97258L13.9372 1.73092M13.9372 1.73092H13.6583L11.163 1.73092L11.1628 1.73092C11.1501 1.73093 11.1369 1.73088 11.1232 1.73084C10.921 1.73018 10.6209 1.7292 10.3689 1.88925C10.0752 2.07578 9.935 2.40729 9.85174 2.81949L10.2438 2.89868L13.9372 1.73092ZM9.4733 6.57254L9.08206 6.48929L8.97923 6.97254H9.4733H9.48158H9.48986H9.49814H9.50643H9.51471H9.523H9.53129H9.53957H9.54786H9.55615H9.56444H9.57274H9.58103H9.58932H9.59762H9.60591H9.61421H9.6225H9.6308H9.6391H9.6474H9.6557H9.664H9.6723H9.6806H9.68891H9.69721H9.70552H9.71382H9.72213H9.73044H9.73875H9.74705H9.75536H9.76367H9.77198H9.7803H9.78861H9.79692H9.80523H9.81355H9.82186H9.83018H9.8385H9.84681H9.85513H9.86345H9.87177H9.88009H9.88841H9.89673H9.90505H9.91337H9.92169H9.93001H9.93834H9.94666H9.95498H9.96331H9.97163H9.97996H9.98829H9.99661H10.0049H10.0133H10.0216H10.0299H10.0383H10.0466H10.0549H10.0632H10.0716H10.0799H10.0882H10.0966H10.1049H10.1132H10.1216H10.1299H10.1382H10.1466H10.1549H10.1632H10.1716H10.1799H10.1882H10.1966H10.2049H10.2133H10.2216H10.2299H10.2383H10.2466H10.2549H10.2633H10.2716H10.28H10.2883H10.2966H10.305H10.3133H10.3216H10.33H10.3383H10.3467H10.355H10.3633H10.3717H10.38H10.3884H10.3967H10.405H10.4134H10.4217H10.4301H10.4384H10.4467H10.4551H10.4634H10.4718H10.4801H10.4885H10.4968H10.5051H10.5135H10.5218H10.5302H10.5385H10.5468H10.5552H10.5635H10.5719H10.5802H10.5885H10.5969H10.6052H10.6136H10.6219H10.6302H10.6386H10.6469H10.6552H10.6636H10.6719H10.6803H10.6886H10.6969H10.7053H10.7136H10.722H10.7303H10.7386H10.747H10.7553H10.7636H10.772H10.7803H10.7886H10.797H10.8053H10.8136H10.822H10.8303H10.8386H10.847H10.8553H10.8636H10.872H10.8803H10.8886H10.897H10.9053H10.9136H10.922H10.9303H10.9386H10.9469H10.9553H10.9636H10.9719H10.9802H10.9886H10.9969H11.0052H11.0135H11.0219H11.0302H11.0385H11.0468H11.0551H11.0635H11.0718H11.0801H11.0884H11.0967H11.1051H11.1134H11.1217H11.13H11.1383H11.1466H11.1549H11.1633H11.1716H11.1799H11.1882H11.1965H11.2048H11.2131H11.2214H11.2297H11.238H11.2463H11.2547H11.263H11.2713H11.2796H11.2879H11.2962H11.3045H11.3128H11.3211H11.3294H11.3377H11.346H11.3542H11.3625H11.3708H11.3791H11.3874H11.3957H11.404H11.4123H11.4206H11.4289H11.4371H11.4454H11.4537H11.462H11.4703H11.4786H11.4868H11.4951H11.5034H11.5117H11.5199H11.5282H11.5365H11.5448H11.553H11.5613H11.5696H11.5778H11.5861H11.5944H11.6026H11.6109H11.6192H11.6274H11.6357H11.644H11.6522H11.6605H11.6687H11.677H11.6852H11.6935H11.7017H11.71H11.7182H11.7265H11.7347H11.743H11.7512H11.7595H11.7677H11.7759H11.7842H11.7924H11.8006H11.8089H11.8171H11.8253H11.8336H11.8418L9.4733 6.57254Z" stroke="#60CD8C" stroke-width="0.8"/>
</svg>
