<svg width="22" height="21" viewBox="0 0 22 21" fill="none" xmlns="http://www.w3.org/2000/svg">
<path d="M16.5996 9.09985V11.1998H19.3996V9.09985H16.5996ZM18.6996 10.4998H17.2996V9.79984H18.6996V10.4998Z" fill="#60CD8C"/>
<path d="M16.5996 11.8999V13.9999H19.3996V11.8999H16.5996ZM18.6996 13.2999H17.2996V12.5999H18.6996V13.2999Z" fill="#60CD8C"/>
<path d="M16.5996 14.7V16.8H19.3996V14.7H16.5996ZM18.6996 16.1H17.2996V15.4H18.6996V16.1Z" fill="#60CD8C"/>
<path d="M16.5996 17.5V19.6H19.3996V17.5H16.5996ZM18.6996 18.9H17.2996V18.2H18.6996V18.9Z" fill="#60CD8C"/>
<path d="M12.3981 3.50015V1.40015H9.59805V3.50015H7.49805V6.30015H9.59805V8.40015H12.3981V6.30015H14.4981V3.50015H12.3981ZM13.7981 5.60015H11.6981V7.70015H10.298V5.60015H8.19805V4.20015H10.298V2.10015H11.6981V4.20015H13.7981V5.60015Z" fill="#60CD8C"/>
<path d="M15.8992 7.7V0H6.09922V7.7H1.19922V21H20.7992V7.7H15.8992ZM6.09922 20.3H1.89922V8.4H6.09922V20.3ZM10.6492 20.3H8.89922V14H10.6492V20.3ZM13.0992 20.3H11.3492V14H13.0992V20.3ZM15.1992 20.3H13.7992V13.3H8.19922V20.3H6.79922V0.7H15.1992V20.3ZM20.0992 20.3H15.8992V8.4H20.0992V20.3Z" fill="#60CD8C"/>
<path d="M2.59961 9.09985V11.1998H5.39961V9.09985H2.59961ZM4.69961 10.4998H3.29961V9.79984H4.69961V10.4998Z" fill="#60CD8C"/>
<path d="M2.59961 11.8999V13.9999H5.39961V11.8999H2.59961ZM4.69961 13.2999H3.29961V12.5999H4.69961V13.2999Z" fill="#60CD8C"/>
<path d="M2.59961 14.7V16.8H5.39961V14.7H2.59961ZM4.69961 16.1H3.29961V15.4H4.69961V16.1Z" fill="#60CD8C"/>
<path d="M2.59961 17.5V19.6H5.39961V17.5H2.59961ZM4.69961 18.9H3.29961V18.2H4.69961V18.9Z" fill="#60CD8C"/>
</svg>
