<svg width="21" height="21" viewBox="0 0 21 21" fill="none" xmlns="http://www.w3.org/2000/svg">
<path d="M16.0691 4.98215L15.8856 4.70423L14.4869 2.58595L14.4794 2.57459L14.4796 2.57447C14.2662 2.2261 13.9299 2.10464 13.5277 2.12075C13.1114 2.13742 12.6805 2.30562 12.4191 2.47098M16.0691 4.98215L12.4191 2.47098M16.0691 4.98215L16.3756 4.85203L16.7789 4.68088L15.3381 7.33313L12.3594 7.29959L12.4257 7.25721L12.7453 7.05292L12.5582 6.72295L11.1068 4.16226C11.29 3.83006 11.4823 3.50766 11.686 3.22467C11.9315 2.88368 12.1766 2.62431 12.4191 2.47098M16.0691 4.98215L12.2053 2.1329L12.4191 2.47098M1.93636 14.2136C2.51493 14.4233 3.09517 14.4664 3.58172 14.4386L8.53068 14.4732V18.3641H6.10422V18.364L6.09473 18.3642C5.06316 18.3887 4.24671 18.2185 3.83257 17.7168L1.93636 14.2136ZM2.23751 8.64017L2.39163 8.34493L2.12919 8.13987L1.78399 7.87016L4.80215 7.84449L6.21692 10.466L6.1477 10.4285L5.81409 10.2481L5.61617 10.5716L4.08022 13.0825C3.70088 13.0834 3.32568 13.0715 2.97939 13.0305C2.56213 12.9811 2.21647 12.8925 1.96481 12.7547C1.6934 12.6062 1.33739 12.3109 1.121 11.9549C0.911933 11.6109 0.855113 11.2579 1.05636 10.9024L1.05656 10.9025L1.06284 10.8904L2.23751 8.64017ZM11.1569 1.73885C10.6929 2.14316 10.374 2.62977 10.1624 3.06884L7.73284 7.38052L4.32982 5.49419L5.50618 3.37196L5.50628 3.37201L5.5107 3.36358C5.98937 2.44943 6.53409 1.8179 7.17362 1.69893L11.1569 1.73885ZM18.0361 15.7853C17.9074 15.1835 17.6364 14.6687 17.355 14.2708L14.7618 10.0554L18.0614 7.99361L19.3473 10.0514L19.3472 10.0514L19.3524 10.0594C19.9199 10.9212 20.2081 11.7038 20.0021 12.3209L18.0361 15.7853ZM13.15 18.4834L12.8179 18.5092L12.7831 18.8404L12.7373 19.2761L11.1161 16.7301L12.5895 14.1411L12.5945 14.2197L12.6182 14.5982L12.9975 14.5946L15.9408 14.5666C16.1426 14.8878 16.3313 15.2123 16.4801 15.5277C16.6593 15.9078 16.7673 16.2479 16.7838 16.5343C16.8017 16.8431 16.7399 17.3016 16.5527 17.6737C16.3718 18.0333 16.1025 18.2686 15.6944 18.2863L15.6943 18.2861L15.6808 18.2871L13.15 18.4834Z" stroke="#60CD8C" stroke-width="0.8"/>
</svg>
