<svg width="21" height="21" viewBox="0 0 21 21" fill="none" xmlns="http://www.w3.org/2000/svg">
<path d="M11.7497 2.01628C11.6913 1.9295 11.6336 1.84377 11.5767 1.75915C11.3245 1.33263 10.9729 0.959472 10.4951 0.966298C10.0254 0.973008 9.67719 1.3464 9.42651 1.75668C9.39101 1.80948 9.35521 1.86271 9.31911 1.91638C8.23386 3.52999 6.89135 5.5261 5.80723 7.42848C5.24615 8.41306 4.74927 9.3811 4.3917 10.265C4.03729 11.1411 3.80508 11.9694 3.80508 12.6638C3.80508 14.5038 4.55911 16.1926 5.76558 17.399C6.97204 18.6055 8.66075 19.3595 10.5008 19.3595C12.3408 19.3595 14.0295 18.6055 15.236 17.399C16.4425 16.1926 17.1965 14.5038 17.1965 12.6638C17.1965 11.9628 16.9646 11.1312 16.61 10.2533C16.2523 9.36778 15.7553 8.40047 15.1942 7.41757C14.1324 5.55767 12.8225 3.61077 11.7497 2.01628Z" stroke="#60CD8C" stroke-width="0.8"/>
<path d="M15.3354 13.1558C15.3577 12.8806 15.1526 12.6394 14.8774 12.6171C14.6021 12.5948 14.3609 12.7999 14.3386 13.0751L15.3354 13.1558ZM13.3077 15.6181L12.9987 15.225L12.9987 15.225L13.3077 15.6181ZM10.5576 16.1959C10.288 16.2558 10.118 16.5229 10.1779 16.7925C10.2378 17.062 10.5049 17.232 10.7745 17.1721L10.5576 16.1959ZM14.3386 13.0751C14.3228 13.2705 14.2219 13.6298 13.994 14.0436C13.7703 14.4497 13.4407 14.8776 12.9987 15.225L13.6167 16.0112C14.1799 15.5685 14.5919 15.0308 14.8699 14.5261C15.1437 14.029 15.3049 13.532 15.3354 13.1558L14.3386 13.0751ZM12.9987 15.225C11.9663 16.0365 11.029 16.0911 10.5576 16.1959L10.7745 17.1721C11.1372 17.0915 12.3606 16.9985 13.6167 16.0112L12.9987 15.225Z" fill="#60CD8C"/>
</svg>
