<svg width="22" height="21" viewBox="0 0 22 21" fill="none" xmlns="http://www.w3.org/2000/svg">
<g clip-path="url(#clip0)">
<path d="M21.4325 9.56173V5.87659H19.0867L10.9995 0L2.7615 5.87659H0.566406V9.56173H3.09317V17.0606H0.566406V21H21.4325V17.0606H18.8659V9.56173H21.4325ZM10.9995 1.19847L17.6433 5.87659H4.31581L10.9995 1.19847ZM20.4762 18.0241V20.0734H1.46821V18.0241H20.4762ZM3.97821 17.0606V9.56173H6.07235V17.0606H3.97821ZM7.00557 17.0606V9.56173H9.24041V17.0606H7.00557ZM10.1254 17.0606V9.56173H12.0507V17.0606H10.1254ZM12.9358 17.0606V9.56173H15.2188V17.0606H12.9358ZM16.1761 17.0606V9.56173H17.9327V17.0606H16.1761ZM1.53168 8.57737V6.84489H20.413V8.57737H1.53168Z" fill="#60CD8C"/>
</g>
<defs>
<clipPath id="clip0">
<rect width="21" height="21" fill="white" transform="translate(0.5)"/>
</clipPath>
</defs>
</svg>
