<svg width="21" height="21" viewBox="0 0 21 21" fill="none" xmlns="http://www.w3.org/2000/svg">
<path d="M10.5005 7.146C9.33066 7.146 8.37891 8.09775 8.37891 9.26761C8.37891 10.2369 9.03248 11.0558 9.9219 11.3084V17.9084C9.9219 18.2279 10.181 18.487 10.5005 18.487C10.8201 18.487 11.0791 18.2279 11.0791 17.9084V11.3084C11.9686 11.0558 12.6221 10.2369 12.6221 9.26761C12.6221 8.09775 11.6704 7.146 10.5005 7.146ZM10.5005 10.232C9.96877 10.232 9.53615 9.79936 9.53615 9.26761C9.53615 8.73586 9.96877 8.30324 10.5005 8.30324C11.0323 8.30324 11.4649 8.73586 11.4649 9.26761C11.4649 9.79936 11.0323 10.232 10.5005 10.232Z" fill="#60CD8C"/>
<path d="M7.82399 6.17412C7.59805 5.94815 7.23171 5.94815 7.0057 6.17412C5.21178 7.96796 5.21151 10.8718 7.0057 12.6659C7.23171 12.8919 7.59801 12.8919 7.82399 12.6659C8.04996 12.44 8.04996 12.0736 7.82399 11.8476C6.48235 10.506 6.48212 8.33423 7.82399 6.9924C8.04996 6.76643 8.04996 6.40005 7.82399 6.17412Z" fill="#60CD8C"/>
<path d="M13.9936 6.17409C13.7677 5.94816 13.4013 5.94816 13.1753 6.17409C12.9494 6.40002 12.9494 6.7664 13.1753 6.99237C14.5139 8.33096 14.5139 10.509 13.1753 11.8476C12.9494 12.0735 12.9494 12.4399 13.1753 12.6659C13.4013 12.8918 13.7677 12.8918 13.9936 12.6659C15.7835 10.8761 15.7835 7.96384 13.9936 6.17409Z" fill="#60CD8C"/>
<path d="M6.07789 5.24653C6.30386 5.02059 6.30386 4.65421 6.07789 4.42824C5.85196 4.20231 5.48557 4.20231 5.2596 4.42824C2.50722 7.18063 2.50722 11.659 5.2596 14.4114C5.4855 14.6374 5.85188 14.6375 6.07789 14.4114C6.30386 14.1855 6.30386 13.8191 6.07789 13.5931C3.77675 11.292 3.77675 7.5477 6.07789 5.24653Z" fill="#60CD8C"/>
<path d="M15.7397 4.42824C15.5138 4.20231 15.1474 4.20231 14.9214 4.42824C14.6955 4.65417 14.6955 5.02055 14.9214 5.24653C17.2226 7.5477 17.2226 11.292 14.9214 13.5931C14.6955 13.8191 14.6955 14.1855 14.9214 14.4114C15.1474 14.6374 15.5137 14.6374 15.7397 14.4114C18.4921 11.659 18.4921 7.18063 15.7397 4.42824Z" fill="#60CD8C"/>
<path d="M4.33155 3.50068C4.55752 3.27474 4.55752 2.90836 4.33155 2.68239C4.10562 2.45646 3.73923 2.45646 3.51326 2.68239C-0.341939 6.53755 -0.333568 12.3102 3.51326 16.157C3.73916 16.3829 4.10554 16.383 4.33155 16.157C4.55752 15.9311 4.55752 15.5647 4.33155 15.3387C0.957221 11.9643 0.957221 6.87508 4.33155 3.50068Z" fill="#60CD8C"/>
<path d="M17.4878 2.68263C17.2618 2.4567 16.8954 2.4567 16.6695 2.68263C16.4435 2.90857 16.4435 3.27495 16.6695 3.50092C20.0439 6.87533 20.0439 11.9645 16.6695 15.3389C16.4435 15.5649 16.4435 15.9313 16.6695 16.1572C16.8955 16.3832 17.2618 16.3832 17.4878 16.1572C21.3429 12.3021 21.3346 6.52946 17.4878 2.68263Z" fill="#60CD8C"/>
</svg>
