<svg width="22" height="21" viewBox="0 0 22 21" fill="none" xmlns="http://www.w3.org/2000/svg">
<g clip-path="url(#clip0)">
<path d="M12.6803 6.23267C12.4534 6.23267 12.2695 6.41644 12.2695 6.64282C12.2695 6.86905 12.4534 7.05282 12.6803 7.05282C12.9071 7.05282 13.091 6.86905 13.091 6.64282C13.091 6.41644 12.9071 6.23267 12.6803 6.23267Z" fill="#60CD8C"/>
<path d="M10.1897 14.2432C10.3501 14.0829 10.3501 13.8233 10.1897 13.6629C10.0292 13.503 9.76913 13.503 9.60844 13.6629C9.44823 13.8233 9.44823 14.0829 9.60844 14.2432C9.76913 14.4031 10.0292 14.4031 10.1897 14.2432Z" fill="#60CD8C"/>
<path d="M5.25178 20.8786C5.41103 21.0388 5.67028 21.0406 5.83162 20.8819L7.82348 18.9234C8.16188 18.5857 8.26478 18.0857 8.11597 17.651L8.54443 17.2386C8.77511 17.0162 9.07883 16.8937 9.39989 16.8937H14.8616C15.8306 16.8937 16.7464 16.5223 17.4407 15.8479C17.4693 15.8202 17.2238 16.1088 21.1668 11.4054C21.7516 10.7149 21.6641 9.67793 20.9716 9.09361C20.2834 8.51475 19.2525 8.5979 18.6661 9.27658L16.2417 11.7635C15.9356 11.3875 15.4688 11.1531 14.9644 11.1531H10.383C9.73107 10.8809 9.03934 10.7431 8.32562 10.7431C6.34788 10.7431 4.62009 11.6544 3.6927 13.3649C3.30213 13.291 2.89021 13.4089 2.59387 13.7047L0.639408 15.6611C0.47984 15.8208 0.479519 16.0793 0.638766 16.2393L5.25178 20.8786ZM8.32546 11.5631C8.95474 11.5631 9.56316 11.6895 10.1342 11.9388C10.1862 11.9615 10.2422 11.9732 10.2989 11.9732H14.9644C15.4098 11.9732 15.7861 12.3358 15.7861 12.7932C15.7861 13.2455 15.4176 13.6134 14.9644 13.6134H11.6123C11.3855 13.6134 11.2015 13.797 11.2015 14.0234C11.2015 14.2499 11.3855 14.4334 11.6123 14.4334H14.9644C15.8706 14.4334 16.6077 13.6976 16.6077 12.7932C16.6077 12.7211 16.6026 12.6497 16.5933 12.5788C18.9385 10.1729 19.2692 9.83478 19.2833 9.81796C19.5761 9.47301 20.0959 9.42927 20.4417 9.72022C20.7878 10.0123 20.8316 10.5308 20.538 10.8777L16.853 15.2743C16.3149 15.7899 15.6084 16.0737 14.8616 16.0737H9.39989C8.86469 16.0737 8.35805 16.2779 7.97374 16.6485L7.62458 16.9848L4.40594 13.7726C5.15819 12.3642 6.56974 11.5631 8.32546 11.5631ZM3.17531 14.2842C3.3108 14.149 3.51885 14.1246 3.68404 14.2265C3.7468 14.2646 7.26082 17.7805 7.28249 17.8095C7.40273 17.9711 7.38555 18.2007 7.24477 18.3414L5.54667 20.011L1.50981 15.9513L3.17531 14.2842Z" fill="#60CD8C"/>
<path d="M6.92787 8.69291H16.7881C17.4678 8.69291 18.0207 8.14112 18.0207 7.46276C18.0207 6.4292 18.0207 1.9734 18.0207 1.23015C18.0207 0.551789 17.4678 0 16.7881 0H6.92787C6.24818 0 5.69531 0.551789 5.69531 1.23015V7.46276C5.69531 8.14112 6.24818 8.69291 6.92787 8.69291ZM17.1989 3.28029H6.51707V2.4603H17.1989V3.28029ZM16.7881 7.87292H6.92787C6.70136 7.87292 6.51707 7.68883 6.51707 7.46276V4.10044H17.1989V7.46276C17.1989 7.68883 17.0147 7.87292 16.7881 7.87292ZM6.92787 0.820153H16.7881C17.0147 0.820153 17.1989 1.00408 17.1989 1.23015V1.64015H6.51707V1.23015C6.51707 1.00408 6.70136 0.820153 6.92787 0.820153Z" fill="#60CD8C"/>
<path d="M15.9683 6.23267H14.3249C14.0981 6.23267 13.9141 6.41627 13.9141 6.64282C13.9141 6.86921 14.0981 7.05282 14.3249 7.05282H15.9683C16.1953 7.05282 16.3792 6.86921 16.3792 6.64282C16.3792 6.41627 16.1953 6.23267 15.9683 6.23267Z" fill="#60CD8C"/>
</g>
<defs>
<clipPath id="clip0">
<rect width="21" height="21" fill="white" transform="translate(0.5)"/>
</clipPath>
</defs>
</svg>
