<svg width="21" height="21" viewBox="0 0 21 21" fill="none" xmlns="http://www.w3.org/2000/svg">
<path fill-rule="evenodd" clip-rule="evenodd" d="M14.809 8.43116C14.7472 8.43394 14.6856 8.43774 14.6244 8.44255C13.7736 8.49506 13.1388 8.67457 12.368 9.1153C12.1408 9.24522 11.9259 9.39488 11.723 9.55664C11.4487 9.76713 11.1949 10.003 10.965 10.2606C10.7586 10.4788 10.5692 10.6995 10.3964 10.9092C10.0828 10.8872 9.77986 10.8375 9.48972 10.7627C9.0497 10.6382 8.59809 10.4473 8.17847 10.1903C7.47587 9.79216 6.75305 8.9329 6.53938 8.42548C6.53228 8.42511 6.52537 8.42479 6.51861 8.42452C6.17572 7.76963 5.98555 7.02307 5.98555 6.23142C5.98555 3.64379 8.08324 1.54609 10.6709 1.54609C13.2585 1.54609 15.3562 3.64379 15.3562 6.23142C15.3562 7.02757 15.1582 7.77574 14.809 8.43116ZM5.64908 8.46168C5.34956 7.77998 5.18555 7.02521 5.18555 6.23142C5.18555 3.20196 7.64141 0.746094 10.6709 0.746094C13.7003 0.746094 16.1562 3.20196 16.1562 6.23142C16.1562 7.02519 15.9876 7.77957 15.6843 8.46072C18.4196 8.77082 20.5449 11.0926 20.5449 13.9109C20.5449 16.9403 18.089 19.3962 15.0595 19.3962C13.2649 19.3962 11.6716 18.5344 10.6709 17.2021C9.67013 18.5344 8.07681 19.3962 6.2822 19.3962C3.25274 19.3962 0.796875 16.9403 0.796875 13.9109C0.796875 11.0955 2.91784 8.77558 5.64908 8.46168ZM6.06394 9.23053C3.57763 9.34454 1.59688 11.3964 1.59688 13.9109C1.59688 16.4985 3.69457 18.5962 6.2822 18.5962C8.86984 18.5962 10.9675 16.4985 10.9675 13.9109C10.9675 13.3572 10.8718 12.8267 10.696 12.3345C10.6587 12.2426 10.6187 12.1531 10.5762 12.0667C10.5176 11.9474 10.4542 11.8341 10.387 11.7286C10.0347 11.7065 9.66233 11.6418 9.28758 11.5369C7.91979 11.1836 6.78931 10.348 6.06394 9.23053ZM11.4433 12.0487C11.6808 12.6393 11.8173 13.2988 11.8173 13.9109C11.8173 14.8588 11.5432 15.7549 11.1641 16.5154C12.0057 17.7715 13.4368 18.5962 15.0595 18.5962C17.6472 18.5962 19.7449 16.4985 19.7449 13.9109C19.7449 11.3393 17.6731 9.25159 15.1077 9.22578C14.9597 9.22762 14.8209 9.23215 14.6894 9.23994C13.7596 9.31259 12.9057 9.65663 12.2071 10.1935C11.9741 10.3805 11.7554 10.5894 11.5493 10.8073C11.3984 10.9778 11.2598 11.1594 11.1347 11.3508C11.2531 11.5747 11.3564 11.8077 11.4433 12.0487Z" fill="#60CD8C"/>
<path d="M12.9856 4.63344C12.9723 4.61009 12.9531 4.59068 12.9299 4.57717C12.9067 4.56367 12.8803 4.55655 12.8535 4.55655H10.8644L11.1979 2.0117C11.2014 1.97764 11.1934 1.94337 11.1751 1.91441C11.1568 1.88545 11.1293 1.86347 11.097 1.85203C11.0647 1.84059 11.0295 1.84034 10.997 1.85132C10.9645 1.86231 10.9367 1.88389 10.918 1.9126L8.49905 6.1453C8.48491 6.16828 8.47716 6.19461 8.4766 6.22158C8.47603 6.24855 8.48269 6.27518 8.49586 6.29872C8.50904 6.32227 8.52827 6.34188 8.55156 6.35553C8.57486 6.36918 8.60137 6.37638 8.62838 6.37638H10.5877L10.3235 8.92505C10.3209 8.95899 10.3297 8.99283 10.3486 9.02117C10.3675 9.04951 10.3953 9.07074 10.4276 9.08146C10.46 9.09219 10.495 9.09181 10.5271 9.08037C10.5592 9.06894 10.5865 9.04711 10.6048 9.01836L12.9837 4.78611C12.9975 4.7631 13.005 4.73684 13.0053 4.71002C13.0056 4.6832 12.9988 4.65677 12.9856 4.63344Z" fill="#60CD8C"/>
<path d="M6.17391 10.6196C6.17391 10.6196 6.07305 11.9777 5.12789 12.9414C4.28813 13.6251 4.15364 13.9885 4.10151 14.5042C4.049 15.0221 4.10604 16.0231 5.05158 16.7061C5.05158 16.7061 4.7116 15.8751 5.54909 15.1924C6.34768 14.5416 6.24909 14.0792 6.237 14.0365C6.24682 14.0728 6.43608 14.7523 6.85048 15.1388C7.27547 15.5351 7.21314 16.2358 6.8112 16.8856C6.8112 16.8856 8.11825 16.0405 8.23423 14.9076C8.4216 13.063 6.78211 10.9192 6.17391 10.6196Z" fill="#60CD8C"/>
<path d="M15.2128 10.822C15.0519 10.5475 14.8815 10.5569 14.7205 10.822C13.9822 11.92 12.8652 13.5671 12.8652 14.3906C12.8652 14.968 13.1019 15.4981 13.4805 15.8768C13.8592 16.2554 14.3892 16.492 14.9667 16.492C15.5441 16.492 16.0742 16.2554 16.4528 15.8768C16.8314 15.4981 17.0681 14.968 17.0681 14.3906C17.0681 13.5576 15.9511 11.92 15.2128 10.822ZM16.4812 15.3277C16.3297 15.5738 16.112 15.7916 15.847 15.943C15.7239 16.0093 15.5725 15.9714 15.5062 15.8484C15.4305 15.7158 15.4778 15.5644 15.6009 15.4981C15.7902 15.394 15.9416 15.2425 16.0552 15.0627C16.1688 14.8828 16.2351 14.6746 16.2446 14.4569C16.254 14.3149 16.3676 14.2108 16.5096 14.2202C16.6516 14.2297 16.7557 14.3433 16.7462 14.4853C16.7273 14.7882 16.6327 15.0722 16.4812 15.3277Z" fill="#60CD8C"/>
</svg>
