<svg width="21" height="21" viewBox="0 0 21 21" fill="none" xmlns="http://www.w3.org/2000/svg">
<path d="M8.3186 10.7564H17.1114C17.2857 10.7564 17.4691 10.7921 17.6019 10.8943C17.7148 10.9812 17.8581 11.1676 17.8581 11.6244V12.9151H7.57188V11.6244C7.57188 11.1655 7.7154 10.9795 7.82771 10.8933C7.96009 10.7917 8.1431 10.7564 8.3186 10.7564Z" stroke="#60CD8C" stroke-width="0.8"/>
<path d="M2.43857 13.6818V14.0818H2.83857H4.78194H18.6V18.8249H18.5783V16.2698V15.8698H18.1783H2.83857H2.43857V16.2698V18.8284H2.4V8.17148H2.43857V13.6818Z" stroke="#60CD8C" stroke-width="0.8"/>
<path d="M6.10346 11.8357C6.10346 12.4701 5.58921 12.9843 4.95485 12.9843C4.3205 12.9843 3.80625 12.4701 3.80625 11.8357C3.80625 11.2014 4.3205 10.6871 4.95485 10.6871C5.58921 10.6871 6.10346 11.2014 6.10346 11.8357Z" stroke="#60CD8C" stroke-width="0.8"/>
<path d="M14.5361 8.00958L14.5361 8.00959C14.62 8.0935 14.62 8.23093 14.5361 8.31486C14.4559 8.39501 14.3176 8.39487 14.2367 8.32047L11.9303 5.74153L11.6484 5.42627L11.3493 5.72534L11.3017 5.77289L9.07964 3.55079C8.92091 3.39206 8.81624 3.16777 8.79342 2.88513L8.79342 2.88513C8.77938 2.71124 8.79634 2.51917 8.84636 2.31987L11.7896 5.26311L14.5361 8.00958Z" stroke="#60CD8C" stroke-width="0.8"/>
<path d="M8.46293 8.00325L10.1419 6.32423L10.4472 6.62947L8.76818 8.3085C8.68457 8.39211 8.54337 8.38894 8.46293 8.3085C8.37902 8.2246 8.37902 8.08715 8.46293 8.00325Z" stroke="#60CD8C" stroke-width="0.8"/>
<path d="M13.3172 4.34083L13.3097 4.33335L13.0194 4.04303L12.7365 3.76019L12.7366 3.76017L12.7291 3.7527L12.4388 3.46238L12.4313 3.45493L12.3755 3.51079C12.267 3.6192 12.2025 3.76285 12.1933 3.91574L13.3172 4.34083ZM13.3172 4.34083L13.2614 4.39669L13.2614 4.39669C13.1529 4.50514 13.0092 4.56972 12.8564 4.57884L12.8564 4.57884C12.8449 4.57953 12.8334 4.58042 12.8219 4.58152L12.1906 3.95023C12.1917 3.93879 12.1926 3.92732 12.1933 3.9158L13.3172 4.34083Z" stroke="#60CD8C" stroke-width="0.8"/>
</svg>
