<svg width="22" height="21" viewBox="0 0 22 21" fill="none" xmlns="http://www.w3.org/2000/svg">
<g clip-path="url(#clip0)">
<path d="M1.74293 11.5287C2.42722 11.5287 2.98387 10.9658 2.98387 10.2739C2.98387 9.73248 2.643 9.27012 2.1669 9.09458V5.73348L5.65773 6.8517V10.5625C5.66146 10.6922 5.71892 10.815 5.82474 10.8928C5.90111 10.949 7.73285 12.2698 10.9929 12.2698C14.2529 12.2698 16.0843 10.949 16.1606 10.8928C16.2638 10.8168 16.3276 10.6907 16.3276 10.5625V6.85166L20.3675 5.55757C20.5299 5.50553 20.6432 5.35841 20.652 5.18803C20.6607 5.0177 20.5631 4.85971 20.4069 4.7913L11.157 0.740995C11.0521 0.695059 10.9328 0.695059 10.828 0.740995L1.57842 4.79126C1.42215 4.85967 1.32458 5.01766 1.33332 5.18803C1.33479 5.2167 1.34661 9.08506 1.34661 9.08506C0.856155 9.25269 0.501953 9.72206 0.501953 10.2739C0.501994 10.9657 1.05868 11.5287 1.74293 11.5287ZM7.63188 5.85476C10.0526 4.96582 13.271 5.05428 15.5073 6.39714V9.84822C14.0656 9.12128 12.4157 8.83237 10.811 8.8567C9.32643 8.87901 7.81017 9.1748 6.47802 9.84814V6.39636C6.84034 6.17747 7.23416 6.00086 7.63188 5.85476ZM10.9929 11.4495C9.026 11.4495 7.61949 10.9218 6.88812 10.5613C9.35842 9.33739 12.6248 9.34604 15.0948 10.5625C14.3624 10.9232 12.9571 11.4495 10.9929 11.4495ZM10.9925 1.56444L19.0838 5.1074L16.2901 6.00229C16.2574 5.93126 16.2037 5.87343 16.1403 5.82884C14.701 4.81246 12.7083 4.46593 10.9924 4.46593C9.26335 4.46593 7.30179 4.81172 5.85414 5.82244C5.78705 5.869 5.72975 5.9272 5.69521 6.00229L2.90147 5.1074L10.9925 1.56444ZM1.74293 9.83936C1.97487 9.83936 2.16358 10.0343 2.16358 10.2739C2.16358 10.5135 1.97487 10.7084 1.74293 10.7084C1.511 10.7084 1.32228 10.5135 1.32228 10.2739C1.32228 10.0343 1.511 9.83936 1.74293 9.83936Z" fill="#60CD8C"/>
<path d="M20.6879 17.6724L20.1337 17.5232C20.1775 17.0797 20.3147 16.7011 20.5434 16.3946C20.7422 16.128 20.9456 16.0103 20.9682 15.9977C21.1234 15.9241 21.2119 15.7636 21.1963 15.5923C21.1807 15.4202 21.0544 15.2785 20.8871 15.2348L18.7751 14.6822C18.5559 14.6249 18.3318 14.7561 18.2745 14.9753C18.2171 15.1944 18.3483 15.4185 18.5675 15.4758L19.9398 15.8348C19.6812 16.1572 19.4249 16.6338 19.3333 17.3078L14.1024 15.8957C13.1899 15.6487 12.2264 16.3644 12.2264 17.3182C12.2265 17.4417 12.1743 17.5602 12.0795 17.6521C11.9838 17.7448 11.8549 17.798 11.7258 17.798H11.4099V16.0777C11.4099 15.2608 11.9295 14.5345 12.7029 14.2702C13.0603 14.1479 13.4419 14.1342 13.8075 14.2306L15.0731 14.5617C15.2923 14.619 15.5164 14.4878 15.5737 14.2687C15.6311 14.0495 15.4999 13.8254 15.2807 13.7681L14.0158 13.4372C13.4941 13.2996 12.9483 13.3193 12.4376 13.4941C11.8255 13.7031 11.325 14.1151 10.9999 14.6392C10.6749 14.1151 10.1745 13.7031 9.56271 13.4942C9.052 13.3192 8.50609 13.2996 7.98484 13.437L1.10642 15.2382C0.939246 15.2819 0.812962 15.4236 0.797336 15.5957C0.781791 15.767 0.870259 15.9275 1.02542 16.0011C1.0481 16.0137 1.25145 16.1315 1.45029 16.398C1.67861 16.7041 1.81577 17.0822 1.85978 17.525L1.31231 17.6724C1.03391 17.7438 0.799714 17.919 0.652595 18.1661C0.504902 18.414 0.462657 18.7046 0.533571 18.9844L0.615764 19.3086C0.686678 19.5884 0.862261 19.8238 1.11024 19.9715C1.35817 20.1191 1.6488 20.1614 1.92856 20.0905C1.93073 20.09 1.93286 20.0894 1.935 20.0888L7.55353 18.567C7.76049 19.0108 8.07782 19.4043 8.47156 19.6995C8.9897 20.0881 9.60602 20.2934 10.2538 20.2934H11.7461C12.3939 20.2934 13.0102 20.0881 13.5284 19.6995C13.9222 19.4043 14.2395 19.0108 14.4464 18.567L20.065 20.0888C20.0671 20.0894 20.0692 20.09 20.0714 20.0905C20.3512 20.1614 20.6418 20.1191 20.8897 19.9715C21.1377 19.8238 21.3133 19.5884 21.3842 19.3086L21.4664 18.9844C21.5373 18.7046 21.495 18.414 21.3474 18.1661C21.2003 17.9191 20.9662 17.7439 20.6879 17.6724ZM2.05373 15.8381L8.19332 14.2303C8.55818 14.1341 8.93982 14.1479 9.29718 14.2703C10.0702 14.5344 10.5896 15.2608 10.5896 16.0778V17.798H10.2745C10.0089 17.798 9.77295 17.5747 9.77311 17.3179C9.77311 16.362 8.80415 15.657 7.89781 15.8958L2.66009 17.3096C2.56834 16.6365 2.31217 16.1602 2.05373 15.8381ZM20.6713 18.7828L20.5891 19.1071C20.5361 19.2562 20.4316 19.3192 20.2754 19.296L14.3052 17.6788C14.0921 17.6212 13.8714 17.7425 13.8062 17.9535C13.5293 18.8483 12.6822 19.4731 11.7462 19.4731H10.2539C9.31789 19.4731 8.47078 18.8483 8.19389 17.9535C8.13959 17.778 7.97783 17.6645 7.80229 17.6645C7.76677 17.6645 7.73071 17.6691 7.69487 17.6788L1.72451 19.2959C1.56837 19.3191 1.46382 19.2562 1.41087 19.1071L1.32868 18.7828C1.29521 18.6506 1.39377 18.4998 1.52276 18.4651L8.14189 16.6835C8.55424 16.5808 8.94909 16.9126 8.95303 17.3304C8.95963 18.0155 9.55549 18.6183 10.2742 18.6183H11.7256C12.0709 18.6183 12.3992 18.4844 12.6502 18.2414C12.9062 17.9935 13.0471 17.6655 13.0469 17.3178C13.0467 16.9075 13.4557 16.5834 13.858 16.6836L20.4771 18.4652C20.6062 18.4998 20.7048 18.6506 20.6713 18.7828Z" fill="#60CD8C"/>
<path d="M17.316 14.4073C17.1911 14.2215 16.9337 14.1704 16.7471 14.2941C16.5606 14.4176 16.5108 14.677 16.6339 14.8625C16.7573 15.0485 17.0173 15.1004 17.2028 14.9761C17.3884 14.8518 17.4398 14.5931 17.316 14.4073Z" fill="#60CD8C"/>
</g>
<defs>
<clipPath id="clip0">
<rect width="21" height="21" fill="white" transform="translate(0.5)"/>
</clipPath>
</defs>
</svg>
