<svg width="22" height="21" viewBox="0 0 22 21" fill="none" xmlns="http://www.w3.org/2000/svg">
<g clip-path="url(#clip0)">
<path d="M11.2497 2.82326C11.2537 2.83304 11.2557 2.84282 11.2594 2.8526C11.2633 2.86237 11.2625 2.86368 11.265 2.86889L11.8758 4.1596C12.0894 4.612 12.5282 4.8973 13.0073 4.89513H14.6101L13.429 6.39031C13.3246 6.52286 13.302 6.7069 13.371 6.86314C13.4397 7.01937 13.588 7.11954 13.7513 7.12019H15.4384C15.5503 7.12019 15.6576 7.07326 15.7366 6.98982L17.7219 4.89513H20.4997C20.8191 4.89513 21.1113 4.70457 21.2543 4.40318C21.397 4.10158 21.3663 3.74088 21.1746 3.47101L20.9215 3.11508C20.5221 2.55621 19.8977 2.2268 19.2344 2.22506H13.6152L12.8779 0.279437C12.8137 0.110601 12.6586 -0.000216972 12.486 3.18971e-07H11.6425C11.4096 3.18971e-07 11.2207 0.199256 11.2207 0.445012V2.67007C11.2207 2.67637 11.2236 2.68115 11.224 2.68746C11.2259 2.73374 11.2345 2.77959 11.2497 2.82326ZM15.2638 6.23017H14.6519L16.0577 4.45012H16.9509L15.2638 6.23017ZM20.2466 3.64919L20.4997 4.00511H18.3871C18.3902 3.8869 18.3474 3.77239 18.2683 3.6883C18.1894 3.60421 18.0813 3.55792 17.9691 3.5601H15.8602C15.735 3.5601 15.6164 3.61876 15.5363 3.72024L15.312 4.00511H13.0073C12.8475 4.00554 12.7012 3.91015 12.6302 3.75892L12.325 3.11508H19.2344C19.6325 3.11617 20.0071 3.31369 20.2466 3.64919ZM12.2006 0.890024L12.7066 2.22506H12.0642V0.890024H12.2006Z" fill="#60CD8C"/>
<path d="M0.863178 13.4501H16.4688C16.7017 13.4501 16.8906 13.2509 16.8906 13.0051V12.5601C16.8885 10.5949 15.3789 9.00217 13.5164 9H0.863178C0.630256 9 0.441406 9.19926 0.441406 9.44501V13.0051C0.441406 13.2509 0.630256 13.4501 0.863178 13.4501ZM1.28495 9.89002H13.5164C14.2349 9.89068 14.9191 10.2144 15.3975 10.78H12.2511V11.6701H15.8994C15.9964 11.9556 16.0464 12.2568 16.047 12.5601H1.28495V9.89002Z" fill="#60CD8C"/>
<path d="M3.81445 10.7798H4.658V11.6698H3.81445V10.7798Z" fill="#60CD8C"/>
<path d="M5.50195 10.7798H6.34549V11.6698H5.50195V10.7798Z" fill="#60CD8C"/>
<path d="M7.18945 10.7798H8.033V11.6698H7.18945V10.7798Z" fill="#60CD8C"/>
<path d="M8.87695 10.7798H9.7205V11.6698H8.87695V10.7798Z" fill="#60CD8C"/>
<path d="M10.5625 10.7798H11.4061V11.6698H10.5625V10.7798Z" fill="#60CD8C"/>
<path d="M13.4683 20.9153C13.7683 20.9144 14.0451 20.7447 14.1946 20.4703H17.3814C17.5303 20.7454 17.8075 20.9151 18.1078 20.9151C18.408 20.9151 18.6852 20.7454 18.8341 20.4703H19.7949C20.0278 20.4703 20.2166 20.271 20.2166 20.0253V17.8002C20.2164 17.7124 20.1919 17.6264 20.1458 17.5532L19.3022 16.2181C19.224 16.0945 19.0924 16.0202 18.9513 16.0202H16.4207V15.5752C16.4207 15.3294 16.2318 15.1301 15.9989 15.1301H11.7812C11.5482 15.1301 11.3594 15.3294 11.3594 15.5752V20.0253C11.3594 20.271 11.5482 20.4703 11.7812 20.4703H12.7419C12.8914 20.7447 13.1682 20.9144 13.4683 20.9153ZM18.7256 16.9102L19.2886 17.8002H18.1078V16.9102H18.7256ZM17.2642 16.9102V18.2452C17.2642 18.491 17.4531 18.6902 17.686 18.6902H19.3731V19.5803H18.8341C18.6852 19.3052 18.408 19.1355 18.1078 19.1355C17.8075 19.1355 17.5303 19.3052 17.3814 19.5803H16.4207V16.9102H17.2642ZM12.2029 16.0202H15.5771V19.5803H14.1946C14.0457 19.3052 13.7685 19.1355 13.4683 19.1355C13.168 19.1355 12.8908 19.3052 12.7419 19.5803H12.2029V16.0202Z" fill="#60CD8C"/>
<path d="M8.68945 0H10.3765V0.890024H8.68945V0Z" fill="#60CD8C"/>
<path d="M8.68945 3.56006H10.3765V4.45008H8.68945V3.56006Z" fill="#60CD8C"/>
<path d="M7.42383 1.78003H10.3762V2.67005H7.42383V1.78003Z" fill="#60CD8C"/>
<path d="M8.82812 15.5754H10.5152V16.4655H8.82812V15.5754Z" fill="#60CD8C"/>
<path d="M8.82812 19.1355H10.5152V20.0255H8.82812V19.1355Z" fill="#60CD8C"/>
<path d="M7.56055 17.3557H10.5129V18.2457H7.56055V17.3557Z" fill="#60CD8C"/>
</g>
<defs>
<clipPath id="clip0">
<rect width="21" height="21" fill="white" transform="translate(0.5)"/>
</clipPath>
</defs>
</svg>
