<svg width="21" height="21" viewBox="0 0 21 21" fill="none" xmlns="http://www.w3.org/2000/svg">
<path d="M13.176 12.0039L13.1761 12.0039L14.0923 10.9119C14.0923 10.9119 14.0923 10.9119 14.0923 10.9119C14.4241 10.5165 14.3725 9.92705 13.9771 9.59529L13.9771 9.59529L13.5676 9.25169L13.2612 8.99457L13.0041 9.30099L11.4006 11.2119L11.1435 11.5183L11.4499 11.7755L11.8594 12.1191C11.8594 12.1191 11.8594 12.1191 11.8594 12.1191C12.2548 12.4508 12.8443 12.3992 13.176 12.0039Z" stroke="#60CD8C" stroke-width="0.8"/>
<path d="M3.12005 4.78818C2.78569 4.99852 2.34058 4.9803 2.02171 4.71274C1.6263 4.38094 1.57483 3.79149 1.90654 3.39612L1.90655 3.3961L3.65612 1.31102L3.65612 1.31102C3.98788 0.915646 4.57736 0.864106 4.97269 1.19584L3.12005 4.78818ZM3.12005 4.78818L3.66682 5.24699L3.97324 5.50412L4.23036 5.19769L5.83382 3.28677L6.09093 2.98035L5.78452 2.72324L5.23773 2.26441C5.38684 1.89862 5.29161 1.46343 4.97275 1.19588L3.12005 4.78818Z" stroke="#60CD8C" stroke-width="0.8"/>
<path d="M17.3064 16.372H3.69331C2.19309 16.372 0.976953 17.5881 0.976953 19.0883C0.976953 19.6045 1.39537 20.0229 1.9115 20.0229H19.0882C19.6043 20.0229 20.0227 19.6045 20.0227 19.0883C20.0227 17.5881 18.8066 16.372 17.3064 16.372Z" stroke="#60CD8C" stroke-width="0.8"/>
<path d="M9.40223 11.1642L9.14511 11.4706C9.69128 11.9289 10.5055 11.8576 10.9638 11.3115L13.0254 8.85457L12.719 8.59746L13.0254 8.85457C13.4837 8.30841 13.4124 7.49416 12.8662 7.03589L8.08896 3.02727L8.08895 3.02727C7.54279 2.56899 6.72855 2.64026 6.27028 3.18641C6.27028 3.18641 6.27028 3.18641 6.27028 3.18641L4.20869 5.6433L9.40223 11.1642ZM9.40223 11.1642L9.14511 11.4706L8.73248 11.1244M9.40223 11.1642L8.73248 11.1244M4.94489 7.94624L4.64007 7.69045L4.36778 7.46196C4.36778 7.46196 4.36778 7.46195 4.36777 7.46195C3.82162 7.00367 3.75042 6.18943 4.20868 5.64332L4.94489 7.94624ZM4.94489 7.94624L5.20226 7.64276M4.94489 7.94624L5.20226 7.64276M5.20226 7.64276C5.6206 7.14947 6.24242 6.83722 6.93566 6.83722C8.18848 6.83722 9.20838 7.85712 9.20838 9.10994C9.20838 9.66155 9.01095 10.1673 8.68225 10.5619L8.42716 10.8682M5.20226 7.64276L8.42716 10.8682M8.42716 10.8682L8.73248 11.1244M8.42716 10.8682L8.73248 11.1244" stroke="#60CD8C" stroke-width="0.8"/>
<path d="M16.1724 14.3581H9.60781L9.56968 14.3199C9.56968 14.3199 9.56967 14.3199 9.56967 14.3199C9.49592 14.2462 9.42595 14.1691 9.3599 14.089H16.1724C16.2467 14.089 16.3069 14.1492 16.3069 14.2235C16.3069 14.2978 16.2467 14.3581 16.1724 14.3581Z" stroke="#60CD8C" stroke-width="0.8"/>
<path d="M4.9974 10.2966L4.57783 9.61425L4.28446 10.3596C4.0037 11.0729 3.85654 11.835 3.85206 12.6174L3.85206 12.6174C3.84536 13.7901 4.15992 14.9196 4.7659 15.9116L4.88287 16.1031H5.10725H9.38361H10.3492L9.66646 15.4203L9.19806 14.9518L9.19805 14.9518C8.33803 14.0918 7.88398 12.919 7.91503 11.7293L7.92839 11.2173L7.42837 11.3284C7.2687 11.3639 7.1038 11.3831 6.93493 11.3831C6.1176 11.3831 5.3986 10.949 4.9974 10.2966Z" stroke="#60CD8C" stroke-width="0.8"/>
<path d="M6.93567 11.1139C8.04224 11.1139 8.9393 10.2168 8.9393 9.11023C8.9393 8.00365 8.04224 7.10659 6.93567 7.10659C5.82909 7.10659 4.93203 8.00365 4.93203 9.11023C4.93203 10.2168 5.82909 11.1139 6.93567 11.1139Z" stroke="#60CD8C" stroke-width="0.8"/>
</svg>
