<svg width="21" height="21" viewBox="0 0 21 21" fill="none" xmlns="http://www.w3.org/2000/svg">
<path d="M18.1938 5.55238V9.85551C18.7059 9.91607 19.1031 10.3517 19.1031 10.8801V12.2704C19.1031 12.6829 18.8608 13.0364 18.5147 13.2014L18.2686 13.3187L18.0694 13.1325C17.7591 12.8425 17.3445 12.6656 16.8891 12.6656H9.98064H9.53548L9.58291 12.223L9.61626 11.9118H8.2894C7.86913 11.9118 7.49095 11.6569 7.33314 11.2675L7.33313 11.2675L5.78781 7.45314H4.58821L4.29211 7.86849L4.17249 8.03629H3.96641H2.41467H1.63829L2.08896 7.4041L3.21644 5.8225C3.41005 5.55083 3.72306 5.38959 4.05661 5.38959H6.48303C6.9033 5.38959 7.28148 5.64451 7.43929 6.03391L7.4393 6.03395L8.98462 9.84829H9.83742L10.4195 4.41782C10.4756 3.8935 10.9181 3.496 11.4454 3.496H18.0713C18.6412 3.496 19.1031 3.95795 19.1031 4.52779C19.1031 5.05617 18.7059 5.4918 18.1938 5.55238ZM14.1198 8.57374V5.55958H12.3725L12.0494 8.57374H14.1198Z" stroke="#60CD8C" stroke-width="0.8"/>
<path d="M3.83984 8.08828H4.23984V8.48828V8.4883V9.44357V9.75227L3.94122 9.83051C2.83898 10.1193 1.98223 10.604 1.45957 11.1864L0.761867 11.9639V10.9193V8.48828V8.08828H1.16187H3.83984Z" stroke="#60CD8C" stroke-width="0.8"/>
<path d="M6.16097 12.7467H16.8896C17.9037 12.7467 18.7887 13.5105 18.7887 14.5213C18.7887 15.5322 17.9037 16.2959 16.8896 16.2959H6.161C5.14687 16.2959 4.26189 15.5322 4.26189 14.5213C4.26189 13.5105 5.14683 12.7467 6.16097 12.7467ZM16.7446 14.6761C16.8912 14.6761 16.9497 14.5748 16.9497 14.5213C16.9497 14.4677 16.8912 14.3665 16.7446 14.3665C16.598 14.3665 16.5396 14.4677 16.5396 14.5213C16.5396 14.5749 16.598 14.6761 16.7446 14.6761ZM6.22715 14.6761C6.37375 14.6761 6.43223 14.5748 6.43223 14.5213C6.43223 14.4677 6.37376 14.3664 6.22715 14.3664C6.08055 14.3664 6.02208 14.4677 6.02208 14.5213C6.02208 14.5748 6.08054 14.6761 6.22715 14.6761Z" stroke="#60CD8C" stroke-width="0.8"/>
</svg>
