<svg width="22" height="21" viewBox="0 0 22 21" fill="none" xmlns="http://www.w3.org/2000/svg">
<g clip-path="url(#clip0)">
<path d="M21.2306 2.68973C21.1609 2.64182 19.4736 1.51758 15.3408 1.51758C11.2078 1.51758 9.52043 2.64182 9.45057 2.68973C9.28202 2.80541 9.18125 2.99671 9.18125 3.20114V4.43306C8.23837 4.61987 6.98034 4.99398 5.41998 5.72601C1.67843 7.48151 0.628362 9.21603 0.585423 9.28893C0.481923 9.46533 0.471829 9.6813 0.558667 9.86651L3.07905 15.2383C4.31785 17.8787 6.95471 19.4865 9.76107 19.4865C10.3827 19.4865 11.0129 19.4076 11.6377 19.2436C11.6377 19.2436 11.6415 19.2426 11.6435 19.242C11.7143 19.2226 11.7814 19.1908 11.841 19.1482C12.9396 18.3628 13.7659 17.3227 14.2866 16.1581C14.5915 16.2568 14.9058 16.3367 15.2283 16.396C15.2469 16.3995 15.2655 16.4021 15.2844 16.4037C15.303 16.4055 15.3219 16.4063 15.3406 16.4063C15.3783 16.4063 15.4158 16.4029 15.4528 16.396C18.9569 15.7513 21.5 12.6976 21.5 9.1348V3.20114C21.5 2.99671 21.3993 2.80541 21.2306 2.68973ZM3.69158 14.8597L1.29214 9.62452C1.82188 8.89222 3.16093 7.62219 5.7015 6.43017C8.24255 5.23816 10.4228 4.95477 11.0613 4.95028L13.593 10.236C14.8358 12.885 14.084 16.8384 11.3885 18.6146C8.55517 19.3027 5.14059 18.007 3.69158 14.8597ZM20.6187 9.28706C20.6187 12.2133 18.198 15.063 15.3406 15.6431C15.121 15.5986 14.7463 15.4705 14.5366 15.4037C14.8346 14.249 15.0344 12.507 14.5941 10.9489C15.3629 10.7356 16.4723 10.9533 17.0755 11.5565C17.1966 11.6776 17.3653 11.7987 17.5273 11.8682C17.6893 11.9376 17.8694 11.9577 17.9905 11.8366C18.1756 11.6516 18.114 11.4015 17.8344 11.1217C17.0307 10.3176 15.5347 9.88061 14.334 10.236C14.301 10.1591 14.2672 10.0823 14.2313 10.0059L12.9099 7.37896C13.2099 7.46722 13.8767 7.44684 14.2313 7.09212C14.4734 6.85003 14.6745 6.5154 14.4324 6.27331C14.1903 6.03122 13.9168 6.18808 13.6747 6.43017C13.5505 6.55434 13.3855 6.62275 13.2099 6.62275C13.0345 6.62275 12.8695 6.55434 12.7453 6.43017C12.6687 6.35374 12.5772 6.30151 12.4803 6.27331L11.7111 4.63413C11.6242 4.44892 11.4518 4.31866 11.2501 4.2855C11.22 4.28053 10.5669 4.20615 9.95348 4.2855V3.28789C10.5287 3.02241 12.5267 2.30183 15.3408 2.30183C18.1472 2.30183 20.0387 3.03975 20.6187 3.30683V9.28706Z" fill="#60CD8C"/>
<path d="M17.736 7.40089C18.0951 7.40089 18.3778 7.36213 18.7362 7.00373C18.9562 6.78375 19.1216 6.50692 18.8796 6.26467C18.6373 6.02258 18.4429 6.18788 18.2006 6.42997C18.0765 6.55414 17.9114 6.62255 17.736 6.62255C17.5604 6.62255 17.3954 6.55414 17.2712 6.42997C17.0291 6.18788 16.8039 6.02258 16.5617 6.26467C16.3196 6.50692 16.4472 6.71066 16.6181 6.8825C16.9765 7.2409 17.2712 7.40089 17.736 7.40089Z" fill="#60CD8C"/>
<path d="M7.47892 11.6481C7.5954 11.3261 7.30231 11.0259 6.98027 10.9096C6.50346 10.7373 5.98836 10.761 5.5295 10.9764C5.07064 11.1917 4.72312 11.5727 4.55089 12.0493C4.43457 12.3714 4.47032 12.7939 4.79236 12.9102C4.89849 12.9485 5.09686 12.951 5.16797 12.9102C5.32422 12.8203 5.43833 12.6716 5.5295 12.4191C5.5891 12.2541 5.60742 12.0114 5.8697 11.8651C6.13199 11.7188 6.51621 11.7622 6.68124 11.8218C7.00328 11.9382 7.3626 11.9703 7.47892 11.6481Z" fill="#60CD8C"/>
<path d="M8.8264 10.8987C9.00876 10.9964 9.14231 10.9947 9.2319 10.9582C9.37783 10.8987 9.52681 10.7981 9.61797 10.5456C9.67773 10.3804 9.84276 10.1094 10.0885 9.99425C10.3342 9.87909 10.6916 9.89732 10.8566 9.95708C11.1788 10.0734 11.4341 10.0437 11.5505 9.72168C11.6668 9.39949 11.4002 9.10386 11.0781 8.98754C10.094 8.63201 9.00423 9.14328 8.6487 10.1272C8.53239 10.4494 8.54677 10.7489 8.8264 10.8987Z" fill="#60CD8C"/>
<path d="M11.7523 13.3528C11.8686 13.0308 11.8268 12.6671 11.5047 12.5506C11.1827 12.4341 10.9546 12.7971 10.8382 13.1193C10.4096 14.3051 8.78878 15.0852 7.60317 14.657C7.28097 14.5405 6.95528 14.4772 6.83896 14.7992C6.72248 15.1214 6.91472 15.3549 7.23675 15.4713C7.63121 15.6138 8.03464 15.6814 8.43182 15.6814C9.87586 15.6814 11.234 14.7872 11.7523 13.3528Z" fill="#60CD8C"/>
</g>
<defs>
<clipPath id="clip0">
<rect width="21" height="21" fill="white" transform="translate(0.5)"/>
</clipPath>
</defs>
</svg>
