<svg width="21" height="21" viewBox="0 0 21 21" fill="none" xmlns="http://www.w3.org/2000/svg">
<path d="M3.0522 13.5173L3.05315 13.5166C3.37561 13.2754 3.54451 12.8822 3.54451 12.4829V7.9476C3.54451 7.86891 3.58741 7.80007 3.65105 7.76322C3.65091 7.78013 3.65066 7.79822 3.65036 7.81794C3.65029 7.82217 3.65022 7.82649 3.65015 7.83087C3.64959 7.86637 3.64896 7.90653 3.64896 7.9476V12.4829C3.64896 12.7724 3.60172 12.9197 3.53157 13.0356C3.44941 13.1713 3.31619 13.3001 3.05673 13.5298C2.79055 13.7655 2.53485 14.113 2.53485 14.6018C2.53485 14.8904 2.64434 15.2037 2.83888 15.4493C3.03889 15.7018 3.35205 15.9084 3.75739 15.9084C4.19667 15.9084 4.50177 15.6372 4.67635 15.3862C4.84644 15.1417 4.95119 14.8369 4.95119 14.6018C4.95119 14.5457 4.95698 14.5083 4.9629 14.4856C4.96341 14.4856 4.96392 14.4856 4.96444 14.4856C4.97113 14.4856 4.97699 14.4858 4.98208 14.4861C4.98721 14.51 4.99174 14.5474 4.99174 14.6018C4.99174 15.3504 4.41843 15.9236 3.75739 15.9236C3.11188 15.9236 2.52305 15.334 2.52305 14.6018C2.52305 14.1645 2.72509 13.7605 3.0522 13.5173Z" stroke="#60CD8C" stroke-width="0.8"/>
<path d="M14.9833 20.0144C14.9832 20.0144 14.9827 20.0142 14.9816 20.0133C14.9827 20.0139 14.9833 20.0143 14.9833 20.0144ZM15.0023 19.8241C15.0023 19.899 14.981 19.9552 14.9599 19.9876C14.9389 19.9552 14.9176 19.899 14.9176 19.8241V8.11848C14.9176 8.04353 14.9389 7.98737 14.9599 7.95497C14.981 7.98737 15.0023 8.04353 15.0023 8.11848V19.8241ZM14.9833 7.92817C14.9833 7.92824 14.9827 7.92866 14.9816 7.92923C14.9827 7.92839 14.9832 7.92811 14.9833 7.92817ZM14.9366 7.92817C14.9366 7.92811 14.9372 7.92839 14.9383 7.92923C14.9371 7.92866 14.9366 7.92824 14.9366 7.92817ZM14.9383 20.0133C14.9372 20.0142 14.9366 20.0144 14.9366 20.0144C14.9366 20.0143 14.9371 20.0139 14.9383 20.0133Z" stroke="#60CD8C" stroke-width="0.8"/>
<path d="M11.7784 20.0225C11.7784 20.0226 11.778 20.0223 11.7772 20.0215L11.7784 20.0225ZM11.741 19.8241C11.741 19.8611 11.7365 19.8937 11.7297 19.9214C11.7229 19.8937 11.7184 19.8611 11.7184 19.8241V8.11848C11.7184 8.08148 11.7229 8.04885 11.7297 8.02112C11.7365 8.04885 11.741 8.08148 11.741 8.11848V19.8241ZM11.7784 7.92C11.7784 7.92004 11.778 7.92042 11.7772 7.92103L11.7784 7.92ZM11.681 7.92C11.681 7.91996 11.6814 7.92027 11.6822 7.92103L11.681 7.92ZM11.6822 20.0215C11.6814 20.0223 11.681 20.0226 11.681 20.0225L11.6822 20.0215Z" stroke="#60CD8C" stroke-width="0.8"/>
<path d="M14.6316 18.5073L14.6309 18.5066L11.7713 15.2384C11.7712 15.2384 11.7711 15.2383 11.7711 15.2382C11.6936 15.1491 11.7028 15.0151 11.7903 14.9378C11.8805 14.8597 12.0139 14.8694 12.091 14.9577L12.0913 14.9582L14.9509 18.2263C14.951 18.2264 14.9511 18.2264 14.9511 18.2265C15.0285 18.3155 15.0194 18.4493 14.9323 18.5266C14.8908 18.5622 14.8412 18.5792 14.7907 18.5792C14.7304 18.5792 14.6726 18.5545 14.6316 18.5073Z" stroke="#60CD8C" stroke-width="0.8"/>
<path d="M14.6275 14.9866L14.6268 14.9859L11.7672 11.8168C11.7672 11.8168 11.7671 11.8167 11.767 11.8166C11.6963 11.7377 11.7028 11.6219 11.7857 11.5509C11.8784 11.473 12.0182 11.4844 12.095 11.5697L12.0954 11.5701L14.955 14.7392C14.9551 14.7393 14.9551 14.7393 14.9552 14.7394C15.0258 14.8182 15.0194 14.9337 14.9369 15.0048C14.8957 15.039 14.8446 15.0567 14.7907 15.0567C14.7261 15.0567 14.6673 15.0309 14.6275 14.9866Z" stroke="#60CD8C" stroke-width="0.8"/>
<path d="M14.6275 11.4209L14.6268 11.4202L11.7672 8.25113C11.7672 8.25106 11.7671 8.251 11.767 8.25093C11.6963 8.17203 11.7028 8.05623 11.7857 7.98523C11.8778 7.90788 12.018 7.91877 12.0954 8.00443C12.0954 8.00446 12.0954 8.00448 12.0954 8.0045L14.955 11.1735C14.9551 11.1736 14.9551 11.1736 14.9552 11.1737C15.0258 11.2525 15.0194 11.368 14.9369 11.439C14.8957 11.4733 14.8446 11.491 14.7907 11.491C14.7261 11.491 14.6673 11.4652 14.6275 11.4209Z" stroke="#60CD8C" stroke-width="0.8"/>
<path d="M14.8177 4.48034L14.8268 4.48208L14.836 4.48339C14.8592 4.4867 14.8797 4.48789 14.8957 4.48825L19.7515 5.90451C19.7516 5.90454 19.7517 5.90458 19.7518 5.90461C19.8435 5.9317 19.9055 6.01532 19.9055 6.10909V7.53914C19.9055 7.65654 19.81 7.75202 19.6926 7.75202H14.7896H11.9295H1.30624C1.18884 7.75202 1.09336 7.65654 1.09336 7.53914V6.10909C1.09336 6.00286 1.1716 5.91268 1.27834 5.89841L1.2787 5.89836L11.8568 4.47438C11.8724 4.47534 11.8911 4.47567 11.9119 4.47437L11.9216 4.47377L11.9312 4.4727C11.9467 4.47098 11.9607 4.4686 11.9727 4.46616H14.758L14.7615 4.46711C14.7738 4.4705 14.7939 4.47581 14.8177 4.48034ZM11.7979 4.46707C11.7976 4.46701 11.7976 4.46701 11.7979 4.46706L11.7979 4.46707ZM11.9295 4.46616H11.9304C11.9301 4.46616 11.9298 4.46616 11.9295 4.46616Z" stroke="#60CD8C" stroke-width="0.8"/>
<path d="M13.2216 4.42728C13.2215 4.42735 13.2209 4.42727 13.2198 4.42681L13.2216 4.42728ZM13.2393 4.40456C13.2291 4.41704 13.2215 4.42284 13.217 4.42541C13.2125 4.42284 13.2049 4.41704 13.1947 4.40456C13.1708 4.37509 13.1461 4.32031 13.1461 4.24601V1.34284C13.1461 1.26854 13.1708 1.21376 13.1947 1.18429C13.2049 1.17181 13.2125 1.16601 13.217 1.16343C13.2215 1.16601 13.2291 1.17181 13.2393 1.18429C13.2632 1.21376 13.2879 1.26854 13.2879 1.34284V4.24601C13.2879 4.32031 13.2632 4.37509 13.2393 4.40456ZM13.2216 1.16157C13.2216 1.16165 13.221 1.16188 13.2198 1.16204L13.2216 1.16157ZM13.2124 1.16157C13.2124 1.1615 13.213 1.16158 13.2142 1.16204L13.2124 1.16157ZM13.2142 4.42681C13.213 4.42727 13.2124 4.42735 13.2124 4.42728L13.2142 4.42681Z" stroke="#60CD8C" stroke-width="0.8"/>
<path d="M19.6921 11.9387H17.4449C17.3275 11.9387 17.232 11.8432 17.232 11.7258V9.27426C17.232 9.15686 17.3275 9.06138 17.4449 9.06138H19.6921C19.8095 9.06138 19.905 9.15686 19.905 9.27426V11.7258C19.905 11.8432 19.8095 11.9387 19.6921 11.9387Z" stroke="#60CD8C" stroke-width="0.8"/>
<path d="M13.4988 1.06593L18.9556 5.41009C18.9476 5.4166 18.9396 5.42332 18.9316 5.43028C18.9216 5.42162 18.9103 5.41178 18.8981 5.40111C18.8547 5.36316 18.7994 5.31475 18.746 5.27204L18.7442 5.27062L13.4733 1.10303L13.3554 1.0098C13.3857 1.01694 13.4138 1.02562 13.4382 1.03509C13.4564 1.04213 13.4707 1.0489 13.4812 1.05468C13.4864 1.05753 13.4903 1.0599 13.493 1.06166C13.4957 1.06343 13.4968 1.06434 13.4966 1.0642L13.4988 1.06593ZM13.1773 0.991069C13.1859 0.990667 13.195 0.990507 13.2045 0.990604L13.0679 1.04905L2.72187 5.476L2.72133 5.47621L2.71372 5.47912L2.68953 5.48811C2.67 5.49529 2.64538 5.5042 2.61715 5.51432C2.56076 5.53454 2.49219 5.5588 2.42546 5.58228L2.37293 5.60069L13.1269 0.997667C13.1287 0.997181 13.1443 0.992608 13.1773 0.991069Z" stroke="#60CD8C" stroke-width="0.8"/>
</svg>
