<svg width="21" height="21" viewBox="0 0 21 21" fill="none" xmlns="http://www.w3.org/2000/svg">
<path d="M6.17085 14.9294C6.09415 15.0057 6.05067 15.1115 6.05067 15.2194C6.05067 15.3273 6.09415 15.4331 6.17085 15.5098C6.24714 15.586 6.35255 15.63 6.46083 15.63C6.5687 15.63 6.67452 15.5861 6.75081 15.5098C6.8271 15.4331 6.87099 15.3273 6.87099 15.2194C6.87099 15.1115 6.8271 15.0057 6.75081 14.9294C6.67452 14.8531 6.5687 14.8092 6.46083 14.8092C6.35251 14.8093 6.24714 14.8531 6.17085 14.9294Z" fill="#009846"/>
<path d="M19.4322 1.51092C18.4215 0.515504 17.0847 -0.0200168 15.6691 0.00057232C14.3273 0.0209563 13.0553 0.551884 12.0877 1.49558C11.1198 2.43952 10.5575 3.69771 10.5045 5.03846C10.4208 7.15634 11.629 9.11907 13.5354 10.009V11.002C13.5354 11.5391 13.9723 11.9761 14.5095 11.9761H15.34V12.5559C15.1339 12.5714 14.9322 12.6329 14.748 12.7393C14.4254 12.9255 14.1946 13.2262 14.0983 13.586L13.8435 14.5368C13.7792 14.7769 13.7822 15.0194 13.8404 15.2444C13.599 15.3051 13.3776 15.43 13.197 15.6106L12.501 16.3067C12.2678 16.5399 12.1276 16.8411 12.0985 17.1656C11.7678 17.1005 11.4288 17.1562 11.1342 17.3263L10.2817 17.8185C10.0391 17.9585 9.8485 18.1633 9.72783 18.4094C9.61894 18.3439 9.49947 18.292 9.37077 18.2575L8.41998 18.0028C8.16856 17.9354 7.90939 17.9395 7.66601 18.0115L7.41808 17.0862L8.18976 16.8794C8.70851 16.7404 9.01751 16.2052 8.87851 15.6864L8.62144 14.7271C9.63289 13.8765 10.2984 12.6578 10.4612 11.342C10.4891 11.1172 10.3294 10.9124 10.1046 10.8846C9.87963 10.8565 9.67497 11.0164 9.64716 11.2412C9.5 12.4303 8.86646 13.5255 7.90911 14.246C7.77544 14.3466 7.71626 14.5183 7.75957 14.6798L8.08616 15.8987C8.10811 15.9806 8.0593 16.0651 7.97743 16.0871L5.58057 16.7293C5.52709 16.7437 5.48447 16.7258 5.46393 16.7139C5.44334 16.702 5.40663 16.6741 5.39223 16.6206L5.06564 15.4017C5.02233 15.2401 4.88526 15.121 4.71923 15.1008C2.86392 14.8741 1.34074 13.4978 0.928916 11.6761C0.410949 9.38452 1.81868 7.07481 4.07999 6.43199C4.23318 6.39574 4.4339 6.40722 4.5708 6.48626C4.71312 6.56845 4.81492 6.70109 4.85745 6.85977C4.94526 7.18747 4.75008 7.52547 4.42246 7.61328C2.71857 8.06981 1.7038 9.82743 2.16032 11.5313C2.54286 12.959 3.83874 13.9028 5.25119 13.9028C5.52446 13.9028 5.80221 13.8675 6.0784 13.7935C7.78229 13.3369 8.79706 11.5792 8.34049 9.87537C7.9904 8.56879 6.87498 7.66824 5.60563 7.52481C5.70833 7.2533 5.73044 6.94857 5.64976 6.6474C5.61519 6.51849 5.56355 6.39713 5.49731 6.28533C6.77396 6.3617 7.99511 6.98749 8.78902 8.03876C8.92552 8.21951 9.18268 8.25536 9.36347 8.1189C9.54421 7.98241 9.5801 7.72517 9.44361 7.54442C8.8126 6.70884 7.95402 6.08542 6.96065 5.74148C5.94149 5.3886 4.85327 5.35837 3.81356 5.65396C2.52272 6.02091 1.43159 6.86297 0.741113 8.02494C0.0504764 9.18728 -0.16698 10.5481 0.128854 11.8569C0.596169 13.9242 2.2711 15.5074 4.34293 15.8736L4.59997 16.8328C4.66731 17.0841 4.82845 17.2942 5.05379 17.4243C5.20386 17.5109 5.37046 17.5552 5.53923 17.5552C5.62388 17.5552 5.70903 17.5441 5.79294 17.5216L6.62577 17.2984L6.94897 18.5047C6.84056 18.6471 6.75985 18.8107 6.71211 18.9888C6.51307 19.7315 6.95545 20.4977 7.69813 20.6967L8.64892 20.9514C8.76938 20.9837 8.89037 20.9991 9.00955 20.9991C9.53654 20.9991 10.0261 20.6975 10.2608 20.2204C10.4784 20.3507 10.7279 20.4203 10.9813 20.4203C11.2177 20.4203 11.4572 20.3602 11.6762 20.2338L12.5286 19.7416C12.9352 19.5068 13.1785 19.0968 13.2191 18.6615C13.3065 18.6784 13.3961 18.6872 13.487 18.6872C13.8595 18.6872 14.2097 18.5421 14.473 18.2788L15.1691 17.5827C15.4324 17.3193 15.5775 16.9691 15.5775 16.5966C15.5775 16.4777 15.5625 16.3612 15.5338 16.2489C16.0064 16.128 16.4024 15.7625 16.5374 15.2587L16.7921 14.3079C16.8885 13.9481 16.8391 13.5723 16.6528 13.2497C16.5319 13.0403 16.3625 12.8699 16.1602 12.7495V11.9761H16.9907C17.5279 11.9761 17.9648 11.5391 17.9648 11.002V10.009C18.8141 9.61301 19.5403 8.99894 20.0765 8.22041C20.6806 7.34329 20.9999 6.31605 20.9999 5.24976C20.9999 3.83449 20.4431 2.5067 19.4322 1.51092ZM5.24983 8.3243C6.30004 8.3243 7.26371 9.02618 7.54818 10.0877C7.88765 11.3547 7.13308 12.6616 5.86607 13.0011C4.59919 13.3404 3.29215 12.5861 2.95263 11.319C2.61316 10.052 3.36774 8.74507 4.6347 8.40559C4.84014 8.35059 5.04653 8.3243 5.24983 8.3243ZM9.56443 19.7531C9.48249 20.0589 9.16705 20.2412 8.86117 20.1591L7.91038 19.9043C7.60458 19.8224 7.42243 19.5069 7.50438 19.2011C7.54408 19.053 7.63907 18.9292 7.77191 18.8525C7.86038 18.8014 7.95857 18.7753 8.05807 18.7753C8.10794 18.7753 8.15814 18.7818 8.20765 18.7951L9.15844 19.0498C9.46424 19.1318 9.64638 19.4473 9.56443 19.7531ZM12.1185 19.0312L11.266 19.5234C10.9918 19.6816 10.64 19.5874 10.4816 19.3132C10.4049 19.1804 10.3846 19.0256 10.4243 18.8775C10.464 18.7293 10.559 18.6055 10.6918 18.5288L11.5443 18.0366C11.6328 17.9855 11.731 17.9595 11.8305 17.9595C11.8803 17.9595 11.9305 17.966 11.98 17.9793C12.1281 18.019 12.252 18.114 12.3287 18.2468C12.4869 18.521 12.3926 18.8729 12.1185 19.0312ZM14.589 17.0026L13.893 17.6987C13.7845 17.8072 13.6403 17.8669 13.487 17.8669C13.3336 17.8669 13.1894 17.8072 13.081 17.6987C12.9725 17.5903 12.9128 17.4461 12.9128 17.2927C12.9128 17.1393 12.9725 16.9951 13.081 16.8867L13.777 16.1907C13.8855 16.0822 14.0297 16.0224 14.183 16.0224C14.3364 16.0224 14.4806 16.0822 14.5891 16.1907C14.6975 16.2991 14.7572 16.4433 14.7572 16.5966C14.7572 16.75 14.6975 16.8942 14.589 17.0026ZM15.9998 14.0956L15.7451 15.0464C15.6631 15.3522 15.3475 15.5344 15.0418 15.4524C14.736 15.3704 14.5539 15.055 14.6358 14.7491L14.8906 13.7983C14.9303 13.6502 15.0253 13.5264 15.1581 13.4497C15.2466 13.3986 15.3448 13.3725 15.4443 13.3725C15.4941 13.3725 15.5443 13.379 15.5938 13.3923C15.7419 13.432 15.8658 13.527 15.9425 13.6598C16.0192 13.7927 16.0395 13.9474 15.9998 14.0956ZM15.7159 0.820239C15.7171 0.820239 15.7184 0.820403 15.7197 0.820444C15.7138 0.820321 15.7017 0.820239 15.7159 0.820239ZM17.4013 9.35983C17.2462 9.42241 17.1446 9.57294 17.1446 9.74023V11.002C17.1446 11.0868 17.0756 11.1558 16.9908 11.1558H14.5095C14.4246 11.1558 14.3557 11.0868 14.3557 11.002V9.74023C14.3557 9.57298 14.2541 9.42246 14.099 9.35983C12.3655 8.66066 11.2504 6.93708 11.3242 5.07082C11.417 2.72333 13.3653 0.855922 15.7159 0.820239C15.7209 0.820157 15.7223 0.820649 15.7221 0.820567C16.0589 0.823972 16.3654 1.09831 16.3654 1.43545C16.3654 1.77468 16.0894 2.05066 15.7501 2.05066C13.9862 2.05066 12.551 3.48575 12.551 5.24976C12.551 7.01378 13.9862 8.44886 15.7501 8.44886C17.5141 8.44886 18.9492 7.01378 18.9492 5.24976C18.9492 3.89712 18.105 2.73871 16.9161 2.27165C17.0856 2.03598 17.1856 1.74724 17.1856 1.43545C17.1856 1.29773 17.1653 1.1648 17.129 1.0386C17.7706 1.24863 18.3602 1.60632 18.8566 2.09533C19.7098 2.93566 20.1797 4.05592 20.1797 5.24976C20.1797 7.06583 19.0891 8.67912 17.4013 9.35983ZM18.129 5.24976C18.129 6.56143 17.0618 7.62858 15.7501 7.62858C14.4384 7.62858 13.3713 6.56143 13.3713 5.24976C13.3713 3.93809 14.4385 2.87094 15.7501 2.87094C17.0618 2.87094 18.129 3.93809 18.129 5.24976Z" fill="#009846"/>
<path d="M15.7496 9.51532C15.6418 9.51532 15.5359 9.55917 15.4597 9.6355C15.3834 9.71179 15.3395 9.81761 15.3395 9.92548C15.3395 10.0333 15.3834 10.1392 15.4597 10.2154C15.5359 10.2917 15.6418 10.3356 15.7496 10.3356C15.8579 10.3356 15.9637 10.2917 16.04 10.2154C16.1163 10.1392 16.1598 10.0333 16.1598 9.92548C16.1598 9.81761 16.1163 9.71179 16.04 9.6355C15.9637 9.55921 15.8579 9.51532 15.7496 9.51532Z" fill="#009846"/>
<path d="M9.63508 9.74084C9.71137 9.81709 9.81719 9.86101 9.92506 9.86101C10.0329 9.86101 10.1387 9.81713 10.215 9.74084C10.2913 9.66455 10.3352 9.55873 10.3352 9.45086C10.3352 9.34299 10.2913 9.23717 10.215 9.16088C10.1387 9.08463 10.0329 9.0407 9.92506 9.0407C9.81719 9.0407 9.71137 9.08459 9.63508 9.16088C9.55879 9.23717 9.5149 9.34299 9.5149 9.45086C9.5149 9.55873 9.55883 9.66455 9.63508 9.74084Z" fill="#009846"/>
</svg>
