<svg width="21" height="15" viewBox="0 0 21 15" fill="none" xmlns="http://www.w3.org/2000/svg">
<path d="M7.29886 12.0989C7.21212 12.0857 7.1236 12.0899 7.03854 12.1115C6.95347 12.133 6.87359 12.1714 6.80362 12.2244C6.73365 12.2773 6.67501 12.3438 6.63117 12.4198C6.58733 12.4958 6.55917 12.5798 6.54838 12.6669C6.53758 12.754 6.54435 12.8423 6.5683 12.9268C6.59225 13.0112 6.63289 13.0899 6.68781 13.1584C6.74273 13.2268 6.81082 13.2835 6.88804 13.3252C6.96527 13.3669 7.05007 13.3926 7.13742 13.4009C7.16485 13.4045 7.19246 13.4062 7.22011 13.4062C7.38664 13.4052 7.54655 13.3409 7.66744 13.2264C7.78833 13.1118 7.86117 12.9556 7.87118 12.7894C7.88119 12.6232 7.82764 12.4594 7.72137 12.3312C7.6151 12.203 7.46406 12.1199 7.29886 12.0989ZM7.1873 13.0781L7.21453 12.7946L7.22011 12.7499L7.1873 13.0781Z" fill="#009846"/>
<path d="M20.1574 6.75648L20.5288 6.21573C20.2635 6.03068 19.9387 5.95134 19.618 5.99326L15.0744 6.58684C14.8718 6.61114 14.6776 6.68236 14.5072 6.79486C14.3369 6.90735 14.1952 7.05802 14.0933 7.23489L12.8819 9.34834L11.7837 8.59136C11.5503 8.43135 11.2669 8.3614 10.9859 8.39446C10.7049 8.42753 10.4454 8.56137 10.2556 8.77117L10.7432 9.21053C10.8261 9.11868 10.9395 9.06007 11.0624 9.04558C11.1853 9.0311 11.3092 9.06173 11.4112 9.13178L12.2437 9.70534L12.1541 9.80083L11.8329 9.67515C11.7635 9.64791 11.6868 9.64511 11.6156 9.66724C11.5444 9.68937 11.4828 9.7351 11.4411 9.79689L11.3669 9.90779C11.3021 9.85038 11.222 9.813 11.1363 9.80019C11.0506 9.78737 10.9631 9.79968 10.8843 9.83561C10.7233 9.91951 10.5816 10.0361 10.4682 10.1778C10.3055 10.0078 10.0949 9.89135 9.86445 9.84381L9.65347 9.56064C9.62457 9.52199 9.58751 9.49018 9.54491 9.4675C9.50232 9.44481 9.45525 9.4318 9.40705 9.42939C9.35875 9.42646 9.31042 9.43447 9.26565 9.45283C9.22088 9.47118 9.18083 9.49939 9.14848 9.53537L8.99656 9.7014L8.82036 9.44612C8.79483 9.40908 8.76196 9.37769 8.72378 9.35389C8.68561 9.33009 8.64295 9.3144 8.59845 9.30778C8.55395 9.30117 8.50857 9.30377 8.46513 9.31543C8.42168 9.32709 8.38109 9.34757 8.34589 9.37558L8.15492 9.52783L6.83652 7.22833C6.73464 7.05198 6.59348 6.90148 6.42402 6.78852C6.25455 6.67557 6.06133 6.60318 5.85936 6.577L1.30859 5.98637C1.02413 5.94982 0.735585 6.0088 0.488281 6.15405L0.821656 6.71973C0.943659 6.64821 1.08601 6.61934 1.22623 6.6377L3.02173 6.87067L2.78122 8.82958L0.696313 8.56708L0.613625 9.21808L2.70116 9.48254L2.42094 11.7617L0.695984 11.5432L0.614609 12.1922L5.25167 12.7802C5.25805 13.2555 5.43658 13.7123 5.75415 14.0659C6.07171 14.4196 6.50676 14.646 6.97859 14.7033C7.05938 14.7131 7.14068 14.7181 7.22206 14.7181C7.65299 14.7175 8.07175 14.5752 8.41382 14.3131C8.75589 14.051 9.00228 13.6837 9.11502 13.2678L10.1322 13.3964C10.1459 13.3983 10.1597 13.3991 10.1735 13.399C10.233 13.3989 10.2913 13.3826 10.3422 13.3519C10.3931 13.3213 10.4347 13.2773 10.4626 13.2248C10.4898 13.2788 10.5313 13.3243 10.5827 13.3562C10.634 13.3881 10.6932 13.4052 10.7537 13.4056C10.7675 13.4057 10.7813 13.4048 10.795 13.403L11.8778 13.2662C11.9805 13.6436 12.1934 13.9818 12.4891 14.2378C12.7849 14.4938 13.1502 14.6559 13.5385 14.7033C13.6193 14.7131 13.7006 14.7181 13.7819 14.7181C14.2618 14.717 14.7247 14.5408 15.0838 14.2224C15.4428 13.904 15.6732 13.4655 15.7317 12.9892C15.7411 12.9201 15.747 12.8506 15.7494 12.7809L20.3845 12.1922L20.3018 11.5412L18.5082 11.7686L18.2277 9.48878L20.3845 9.21611L20.3018 8.56511L18.1476 8.83712L17.9075 6.87789L19.7046 6.64328C19.8644 6.62225 20.0263 6.66272 20.1574 6.75648ZM3.67438 6.95533L5.77733 7.22833C5.87907 7.24151 5.9764 7.27797 6.06176 7.33488C6.14712 7.39179 6.21821 7.46761 6.26952 7.55645L7.32969 9.40675L3.43484 8.91456L3.67438 6.95533ZM8.52078 12.9098C8.47494 13.2524 8.29584 13.563 8.02236 13.7743C7.74888 13.9856 7.4031 14.0805 7.06007 14.0384C6.71705 13.9964 6.40446 13.8207 6.19016 13.5495C5.97587 13.2784 5.87716 12.9337 5.91547 12.5902C5.95442 12.2726 6.10804 11.9802 6.34744 11.768C6.58685 11.5557 6.89554 11.4382 7.2155 11.4375C7.26968 11.4375 7.32381 11.4408 7.37759 11.4474C7.54869 11.4683 7.71397 11.5228 7.86402 11.6076C8.01407 11.6924 8.14594 11.806 8.25209 11.9418C8.35825 12.0776 8.43661 12.233 8.48272 12.3991C8.52882 12.5652 8.54175 12.7387 8.52078 12.9098ZM10.0981 11.0766L9.8907 12.7041L9.18195 12.6145C9.1511 12.1589 8.96283 11.7282 8.64939 11.3961C8.33595 11.0641 7.91682 10.8513 7.46377 10.7942C7.01071 10.7371 6.55191 10.8393 6.1659 11.0833C5.7799 11.3272 5.49069 11.6978 5.34781 12.1315L3.07128 11.8431L3.35183 9.56359L7.62697 10.1047V10.1201C7.62965 10.1805 7.64899 10.2391 7.68286 10.2892C7.71673 10.3394 7.7638 10.3792 7.81888 10.4042C7.87396 10.4293 7.9349 10.4386 7.99496 10.4312C8.05501 10.4238 8.11185 10.3999 8.15919 10.3622L8.47813 10.1083L8.68845 10.4131C8.71647 10.4537 8.7533 10.4875 8.7962 10.512C8.83909 10.5364 8.88694 10.5508 8.93619 10.5542C8.98531 10.5569 9.03442 10.5489 9.08011 10.5306C9.12579 10.5124 9.16693 10.4844 9.20066 10.4485L9.36275 10.2717L9.41427 10.3409C9.44061 10.3762 9.4738 10.4059 9.51185 10.4281C9.54991 10.4503 9.59204 10.4646 9.63575 10.4702C9.70979 10.4694 9.78298 10.486 9.8495 10.5185C9.91602 10.551 9.97404 10.5986 10.0189 10.6575C10.0638 10.7164 10.0944 10.7849 10.1081 10.8577C10.1218 10.9304 10.1184 11.0054 10.0981 11.0766ZM14.6626 7.56137C14.7138 7.47289 14.785 7.39759 14.8704 7.34147C14.9559 7.28536 15.0533 7.24998 15.1548 7.23817L17.2568 6.96353L17.4966 8.92014L13.6015 9.41233L14.6626 7.56137ZM15.0833 12.9098C15.0374 13.2524 14.8583 13.563 14.5849 13.7743C14.3114 13.9856 13.9656 14.0805 13.6226 14.0384C13.2795 13.9964 12.967 13.8207 12.7527 13.5495C12.5384 13.2784 12.4397 12.9337 12.478 12.5902C12.5169 12.2726 12.6705 11.9802 12.9099 11.768C13.1493 11.5557 13.458 11.4382 13.778 11.4375C13.8322 11.4375 13.8863 11.4408 13.9401 11.4474C14.1112 11.4683 14.2765 11.5228 14.4265 11.6076C14.5766 11.6924 14.7084 11.806 14.8146 11.9418C14.9207 12.0776 14.9991 12.233 15.0452 12.3991C15.0913 12.5652 15.1043 12.7387 15.0833 12.9098ZM15.6483 12.1322C15.5072 11.7086 15.2263 11.3455 14.8517 11.1026C14.4771 10.8597 14.031 10.7513 13.5867 10.7953C13.1424 10.8392 12.7262 11.0329 12.4065 11.3445C12.0867 11.6561 11.8824 12.0671 11.827 12.5102C11.8227 12.5449 11.8217 12.5797 11.8191 12.6145L11.0395 12.7129L10.8314 11.0867C10.8183 10.978 10.8324 10.8678 10.8725 10.7659C10.9126 10.664 10.9774 10.5736 11.0611 10.503C11.1182 10.5607 11.1866 10.6061 11.2619 10.6364C11.3373 10.6666 11.418 10.6811 11.4992 10.6789C11.5466 10.6736 11.5923 10.6581 11.6331 10.6334C11.6739 10.6087 11.7088 10.5754 11.7354 10.5358L11.8378 10.3836L12.1206 10.4942C12.1817 10.5181 12.2486 10.5231 12.3126 10.5087C12.3765 10.4942 12.4347 10.461 12.4796 10.4131L12.6883 10.1906L17.5774 9.57311L17.8579 11.8532L15.6483 12.1322Z" fill="#009846"/>
<path d="M13.8614 12.0989C13.7746 12.0857 13.6861 12.0899 13.601 12.1115C13.516 12.133 13.4361 12.1714 13.3661 12.2244C13.2962 12.2773 13.2375 12.3438 13.1937 12.4198C13.1498 12.4958 13.1217 12.5798 13.1109 12.6669C13.1001 12.754 13.1069 12.8423 13.1308 12.9268C13.1548 13.0112 13.1954 13.0899 13.2503 13.1584C13.3052 13.2268 13.3733 13.2835 13.4506 13.3252C13.5278 13.3669 13.6126 13.3926 13.6999 13.4009C13.7274 13.4045 13.755 13.4062 13.7826 13.4062C13.9491 13.4052 14.1091 13.3409 14.2299 13.2264C14.3508 13.1118 14.4237 12.9556 14.4337 12.7894C14.4437 12.6232 14.3901 12.4594 14.2839 12.3312C14.1776 12.203 14.0266 12.1199 13.8614 12.0989ZM13.7498 13.0781L13.777 12.7946L13.7826 12.7499L13.7498 13.0781Z" fill="#009846"/>
<path d="M7.8976 7.74588L8.50725 7.50175L7.62919 5.30692L9.31805 6.57381C9.36032 6.60552 9.40963 6.62655 9.46178 6.63511C9.51392 6.64368 9.56737 6.63952 9.61756 6.62299C9.66776 6.60646 9.71322 6.57806 9.75007 6.54019C9.78693 6.50232 9.8141 6.45611 9.82926 6.40548L10.5436 4.02428L11.507 6.43337C11.5248 6.47796 11.5522 6.51809 11.5873 6.55092C11.6223 6.58375 11.6642 6.60848 11.7098 6.62338C11.7555 6.63828 11.8038 6.64297 11.8515 6.63712C11.8992 6.63128 11.945 6.61504 11.9857 6.58956L13.6221 5.56679L12.829 7.14901L13.4163 7.44236L14.7288 4.81736C14.7615 4.75331 14.7723 4.68029 14.7594 4.60953C14.7466 4.53877 14.7109 4.4742 14.6577 4.42573C14.6046 4.37726 14.537 4.34759 14.4654 4.34128C14.3938 4.33497 14.322 4.35236 14.2612 4.39079L11.9706 5.82667L10.8041 2.90963C10.7799 2.84562 10.7358 2.79107 10.6783 2.75403C10.6207 2.71698 10.5528 2.69941 10.4845 2.7039C10.4165 2.70696 10.3512 2.73109 10.2975 2.77295C10.2438 2.81481 10.2045 2.87232 10.185 2.93752L9.33577 5.76826L7.0868 4.08006C7.02953 4.03698 6.95973 4.01384 6.88807 4.01417C6.81641 4.01449 6.74683 4.03827 6.68995 4.08187C6.63307 4.12546 6.59203 4.18648 6.5731 4.25559C6.55417 4.32471 6.55838 4.39813 6.5851 4.46462L7.8976 7.74588Z" fill="#009846"/>
<path d="M3.51278 3.58995L3.93704 3.16568L4.36131 3.58995L4.82528 3.12598L4.40101 2.70171L4.82528 2.27745L4.36131 1.81348L3.93704 2.23774L3.51278 1.81348L3.04881 2.27745L3.47307 2.70171L3.04881 3.12598L3.51278 3.58995Z" fill="#009846"/>
<path d="M5.17401 3.81056L4.66148 4.22006L5.97249 5.86092L6.48502 5.45142L5.17401 3.81056Z" fill="#009846"/>
<path d="M14.0482 2.29845L12.2361 4.11052L12.7001 4.57456L14.5122 2.76248L14.0482 2.29845Z" fill="#009846"/>
<path d="M14.9971 2.27745L15.4214 1.85318L15.8457 2.27745L16.3096 1.81348L15.8854 1.38921L16.3096 0.964945L15.8457 0.500977L15.4214 0.925242L14.9971 0.500977L14.5332 0.964945L14.9574 1.38921L14.5332 1.81348L14.9971 2.27745Z" fill="#009846"/>
<path d="M4.03069 10.2727L3.92495 10.9204L4.92981 11.0844L5.03556 10.4367L4.03069 10.2727Z" fill="#009846"/>
<path d="M16.8176 10.1301L15.8126 10.3148L15.9312 10.9602L16.9362 10.7756L16.8176 10.1301Z" fill="#009846"/>
</svg>
